%TF.GenerationSoftware,KiCad,Pcbnew,10.0.5*%
%TF.CreationDate,2026-10-03T17:09:45-04:00*%
%TF.ProjectId,BajaBlaster,42616a61-426c-4617-9374-65722e6b6963,rev?*%
%TF.SameCoordinates,Original*%
%TF.FileFunction,Copper,L4,Bot*%
%TF.FilePolarity,Positive*%
%FSLAX46Y46*%
G04 Gerber Fmt 4.6, Leading zero omitted, Abs format (unit mm)*
G04 Created by KiCad (PCBNEW 10.0.5) date 2026-10-03 17:09:45*
%MOMM*%
%LPD*%
G01*
G04 APERTURE LIST*
%TA.AperFunction,ComponentPad*%
%ADD10C,2.000000*%
%TD*%
%TA.AperFunction,ComponentPad*%
%ADD11R,1.700000X1.700000*%
%TD*%
%TA.AperFunction,ComponentPad*%
%ADD12C,1.700000*%
%TD*%
%TA.AperFunction,ComponentPad*%
%ADD13C,5.500000*%
%TD*%
%TA.AperFunction,HeatsinkPad*%
%ADD14C,0.600000*%
%TD*%
%TA.AperFunction,ComponentPad*%
%ADD15C,2.710000*%
%TD*%
%TA.AperFunction,ViaPad*%
%ADD16C,0.600000*%
%TD*%
%TA.AperFunction,ViaPad*%
%ADD17C,0.800000*%
%TD*%
%TA.AperFunction,Conductor*%
%ADD18C,0.200000*%
%TD*%
%TA.AperFunction,Conductor*%
%ADD19C,0.400000*%
%TD*%
%TA.AperFunction,Conductor*%
%ADD20C,1.000000*%
%TD*%
%TA.AperFunction,Conductor*%
%ADD21C,0.600000*%
%TD*%
G04 APERTURE END LIST*
D10*
%TO.P,SW302,1,1_1*%
%TO.N,/COMMS/IO0*%
X61000000Y-105000000D03*
X61000000Y-98500000D03*
%TO.P,SW302,2,2_2*%
%TO.N,GND*%
X65500000Y-105000000D03*
X65500000Y-98500000D03*
%TD*%
%TO.P,SW301,1,1_1*%
%TO.N,/COMMS/ESP32_EN*%
X50200000Y-105000000D03*
X50200000Y-98500000D03*
%TO.P,SW301,2,2_2*%
%TO.N,GND*%
X54700000Y-105000000D03*
X54700000Y-98500000D03*
%TD*%
D11*
%TO.P,J501,1,Pin_1_1*%
%TO.N,+3V3*%
X50520000Y-108400000D03*
D12*
%TO.P,J501,2,Pin_2_2*%
%TO.N,GND*%
X53060000Y-108400000D03*
%TO.P,J501,3,Pin_3_3*%
%TO.N,/COMMS/U0TXD*%
X55600000Y-108400000D03*
%TO.P,J501,4,Pin_4_4*%
%TO.N,/COMMS/U0RXD*%
X58140000Y-108400000D03*
%TO.P,J501,5,Pin_5_5*%
%TO.N,/COMMS/ESP32_EN*%
X60680000Y-108400000D03*
%TO.P,J501,6,Pin_6_6*%
%TO.N,/COMMS/IO0*%
X63220000Y-108400000D03*
%TD*%
D13*
%TO.P,REF\u002A\u002A,1*%
%TO.N,N/C*%
X80250000Y-79000000D03*
%TD*%
%TO.P,REF\u002A\u002A,1*%
%TO.N,N/C*%
X40500000Y-79000000D03*
%TD*%
D14*
%TO.P,U301,39,GND_39*%
%TO.N,GND*%
X55005000Y-83077500D03*
X55005000Y-84602500D03*
X55767500Y-82315000D03*
X55767500Y-83840000D03*
X55767500Y-85365000D03*
X56530000Y-83077500D03*
X56530000Y-84602500D03*
X57292500Y-82315000D03*
X57292500Y-83840000D03*
X57292500Y-85365000D03*
X58055000Y-83077500D03*
X58055000Y-84602500D03*
%TD*%
D13*
%TO.P,REF\u002A\u002A,1*%
%TO.N,N/C*%
X63000000Y-118000000D03*
%TD*%
D15*
%TO.P,J201,MP*%
%TO.N,N/C*%
X27850000Y-82335000D03*
X35150000Y-82335000D03*
%TD*%
D13*
%TO.P,REF\u002A\u002A,1*%
%TO.N,N/C*%
X49000000Y-118000000D03*
%TD*%
D16*
%TO.N,/MCU/INT*%
X66424265Y-101375735D03*
%TO.N,GND*%
X39800000Y-105300000D03*
X65300000Y-103300000D03*
%TO.N,Net-(U202-SW)*%
X33000000Y-109300000D03*
D17*
%TO.N,GND*%
X37700000Y-95500000D03*
%TO.N,+12V*%
X37900000Y-91300000D03*
D16*
X42525000Y-108925000D03*
%TO.N,Net-(U302-SCL)*%
X48900000Y-113200000D03*
%TO.N,Net-(U302-CPOUT)*%
X44600000Y-108200000D03*
%TO.N,Net-(U202-VFB)*%
X32900000Y-112350000D03*
D17*
X30000000Y-107900000D03*
D16*
%TO.N,GND*%
X57650000Y-105050000D03*
X57400000Y-98500000D03*
X56500000Y-114500000D03*
X46000000Y-90000000D03*
X74300000Y-91000000D03*
X46100000Y-86100000D03*
X64400000Y-76500000D03*
X53760786Y-120239214D03*
X70640000Y-83750000D03*
X74500000Y-113000000D03*
X37287500Y-89000000D03*
X50000000Y-76500000D03*
X46100000Y-82100000D03*
X44750000Y-117150000D03*
D17*
X35500000Y-89000000D03*
D16*
X36162500Y-109350000D03*
X69370000Y-79565000D03*
X73180000Y-79535735D03*
%TO.N,+3V3*%
X50000000Y-77770000D03*
X54000000Y-114500000D03*
X46000000Y-92900000D03*
X46100000Y-84000000D03*
X46137500Y-99762500D03*
X57500000Y-114500000D03*
X46175000Y-105025000D03*
X71870000Y-79549265D03*
%TO.N,+5V*%
X36500000Y-117800000D03*
X32675000Y-121550000D03*
X38500000Y-112300000D03*
D17*
%TO.N,+12V*%
X69200000Y-91300000D03*
D16*
X74253630Y-87885000D03*
X34262500Y-107912500D03*
X35975000Y-107100000D03*
%TO.N,/COMMS/IO0*%
X46200000Y-98000000D03*
%TO.N,Net-(U302-SCL)*%
X46175000Y-95825000D03*
%TO.N,/COMMS/CANH*%
X74500000Y-93500000D03*
X74400000Y-78800000D03*
X70640000Y-79600000D03*
%TO.N,Net-(U302-REGOUT)*%
X55699997Y-114500000D03*
X43900000Y-106400000D03*
%TO.N,/MCU/INT*%
X56500000Y-113500000D03*
X50800000Y-86600000D03*
X54850000Y-90150000D03*
X66400000Y-103300000D03*
X57100000Y-92400000D03*
%TO.N,Net-(U302-CPOUT)*%
X53000000Y-114500000D03*
%TO.N,Net-(U302-SDA)*%
X56950000Y-121500000D03*
X45225000Y-113975000D03*
%TO.N,/COMMS/CAN_TX*%
X69370000Y-83740000D03*
X56250000Y-89500000D03*
%TO.N,/COMMS/CAN_RX*%
X73180000Y-83815000D03*
X53500000Y-87930000D03*
%TO.N,Net-(U202-SW)*%
X35212500Y-109312500D03*
%TO.N,/COMMS/INTERBOARD_TX*%
X72030000Y-113530000D03*
X68400000Y-106100000D03*
%TO.N,/COMMS/SYNC*%
X67800000Y-110700000D03*
X57765087Y-101400000D03*
%TD*%
%TO.N,/COMMS/SYNC*%
D18*
X67800000Y-103800000D02*
X67800000Y-110700000D01*
X65400000Y-101400000D02*
X67800000Y-103800000D01*
X57765087Y-101400000D02*
X65400000Y-101400000D01*
%TO.N,/COMMS/ESP32_EN*%
D19*
X58980000Y-106700000D02*
X60680000Y-108400000D01*
X51900000Y-106700000D02*
X58980000Y-106700000D01*
X50200000Y-105000000D02*
X51900000Y-106700000D01*
%TO.N,Net-(U202-VFB)*%
D20*
X31713235Y-111163235D02*
X32900000Y-112350000D01*
X31699021Y-111163235D02*
X31713235Y-111163235D01*
X31113235Y-110563235D02*
X31113235Y-110577449D01*
X30000000Y-109450000D02*
X31113235Y-110563235D01*
X31113235Y-110577449D02*
X31699021Y-111163235D01*
X30000000Y-107900000D02*
X30000000Y-109450000D01*
%TO.N,/COMMS/IO0*%
D18*
X58900000Y-96400000D02*
X61000000Y-98500000D01*
X47800000Y-96400000D02*
X58900000Y-96400000D01*
X46200000Y-98000000D02*
X47800000Y-96400000D01*
%TO.N,Net-(U302-SDA)*%
X45450000Y-114200000D02*
X51700000Y-114200000D01*
X51700000Y-114200000D02*
X52500000Y-115000000D01*
X52500000Y-115000000D02*
X52500000Y-121000000D01*
X52500000Y-121000000D02*
X53000000Y-121500000D01*
X53000000Y-121500000D02*
X56950000Y-121500000D01*
X45225000Y-113975000D02*
X45450000Y-114200000D01*
%TO.N,Net-(U202-SW)*%
X35200000Y-109300000D02*
X35212500Y-109312500D01*
D21*
X33000000Y-109300000D02*
X35200000Y-109300000D01*
D18*
X33000000Y-109400000D02*
X33000000Y-109300000D01*
X32900000Y-109500000D02*
X33000000Y-109400000D01*
%TO.N,+12V*%
D20*
X37900000Y-91300000D02*
X69200000Y-91300000D01*
%TO.N,Net-(U302-CPOUT)*%
D18*
X51400000Y-112600000D02*
X53000000Y-114200000D01*
X44600000Y-108200000D02*
X49000000Y-112600000D01*
X49000000Y-112600000D02*
X51400000Y-112600000D01*
X53000000Y-114200000D02*
X53000000Y-114500000D01*
%TO.N,Net-(U302-SCL)*%
X46200000Y-95850000D02*
X46175000Y-95825000D01*
X42050000Y-106850000D02*
X42050000Y-100850000D01*
X48400000Y-113200000D02*
X42050000Y-106850000D01*
X42050000Y-100850000D02*
X46200000Y-96700000D01*
X48900000Y-113200000D02*
X48400000Y-113200000D01*
X46200000Y-96700000D02*
X46200000Y-95850000D01*
%TO.N,Net-(U302-REGOUT)*%
X55500000Y-114500000D02*
X55699997Y-114500000D01*
X53000000Y-112000000D02*
X55500000Y-114500000D01*
X43900000Y-106400000D02*
X49500000Y-112000000D01*
X49500000Y-112000000D02*
X53000000Y-112000000D01*
%TO.N,/MCU/INT*%
X67400000Y-104300000D02*
X66400000Y-103300000D01*
X67400000Y-108100000D02*
X67400000Y-104300000D01*
X56500000Y-113500000D02*
X62000000Y-113500000D01*
X62000000Y-113500000D02*
X67400000Y-108100000D01*
%TO.N,/COMMS/IO0*%
X46200000Y-98000000D02*
X46400000Y-98000000D01*
X46200000Y-98000000D02*
X46137500Y-97937500D01*
%TO.N,/COMMS/CANH*%
X70640000Y-79500000D02*
X71340000Y-78800000D01*
X75500000Y-92500000D02*
X75500000Y-79900000D01*
X71340000Y-78800000D02*
X74400000Y-78800000D01*
X70640000Y-79600000D02*
X70640000Y-79500000D01*
X75500000Y-79900000D02*
X74400000Y-78800000D01*
X74500000Y-93500000D02*
X75500000Y-92500000D01*
%TO.N,/MCU/INT*%
X51300000Y-86600000D02*
X54850000Y-90150000D01*
X50800000Y-86600000D02*
X51300000Y-86600000D01*
%TO.N,/COMMS/CAN_TX*%
X69375000Y-87325000D02*
X69375000Y-84385000D01*
X67200000Y-89500000D02*
X69375000Y-87325000D01*
X69375000Y-84385000D02*
X69370000Y-84380000D01*
X56250000Y-89500000D02*
X67200000Y-89500000D01*
X69370000Y-84380000D02*
X69370000Y-83740000D01*
%TO.N,/COMMS/CAN_RX*%
X55712500Y-90100000D02*
X67650000Y-90100000D01*
X73180000Y-84570000D02*
X73180000Y-83815000D01*
X67650000Y-90100000D02*
X73180000Y-84570000D01*
X53750000Y-88137500D02*
X55712500Y-90100000D01*
X53707500Y-88137500D02*
X53750000Y-88137500D01*
X53500000Y-87930000D02*
X53707500Y-88137500D01*
%TO.N,/COMMS/INTERBOARD_TX*%
X72030000Y-110030000D02*
X72030000Y-113530000D01*
X68200000Y-106200000D02*
X72030000Y-110030000D01*
X68200000Y-106100000D02*
X68200000Y-106200000D01*
%TO.N,/MCU/INT*%
X66075735Y-101375735D02*
X57100000Y-92400000D01*
X66424265Y-101375735D02*
X66075735Y-101375735D01*
%TD*%
M02*
