M48
; DRILL file KiCad 10.0.5 date 2026-10-03T17:09:59
; FORMAT={-:-/ absolute / metric / decimal}
; #@! TF.CreationDate,2026-10-03T17:09:59-04:00
; #@! TF.GenerationSoftware,Kicad,Pcbnew,10.0.5
; #@! TF.FileFunction,Plated,1,4,PTH
FMAT,2
METRIC
; #@! TA.AperFunction,Plated,PTH,ViaDrill
T1C0.300
; #@! TA.AperFunction,Plated,PTH,ComponentDrill
T2C0.300
; #@! TA.AperFunction,Plated,PTH,ComponentDrill
T3C1.000
; #@! TA.AperFunction,Plated,PTH,ComponentDrill
T4C1.100
; #@! TA.AperFunction,Plated,PTH,ComponentDrill
T5C2.410
; #@! TA.AperFunction,Plated,PTH,ComponentDrill
T6C3.200
%
G90
G05
T1
X30.0Y-107.9
X32.675Y-121.55
X32.9Y-112.35
X33.0Y-109.3
X34.262Y-107.912
X35.212Y-109.312
X35.5Y-89.0
X35.975Y-107.1
X36.163Y-109.35
X36.5Y-117.8
X37.288Y-89.0
X37.7Y-95.5
X37.9Y-91.3
X38.5Y-112.3
X39.8Y-105.3
X42.525Y-108.925
X43.9Y-106.4
X44.6Y-108.2
X44.75Y-117.15
X45.225Y-113.975
X46.0Y-90.0
X46.0Y-92.9
X46.1Y-82.1
X46.1Y-84.0
X46.1Y-86.1
X46.137Y-99.762
X46.175Y-95.825
X46.175Y-105.025
X46.2Y-98.0
X48.9Y-113.2
X50.0Y-76.5
X50.0Y-77.77
X50.8Y-86.6
X53.0Y-114.5
X53.5Y-87.93
X53.761Y-120.239
X54.0Y-114.5
X54.85Y-90.15
X55.7Y-114.5
X56.25Y-89.5
X56.5Y-113.5
X56.5Y-114.5
X56.95Y-121.5
X57.1Y-92.4
X57.4Y-98.5
X57.5Y-114.5
X57.65Y-105.05
X57.765Y-101.4
X64.4Y-76.5
X65.3Y-103.3
X66.4Y-103.3
X66.424Y-101.376
X67.8Y-110.7
X68.4Y-106.1
X69.2Y-91.3
X69.37Y-79.565
X69.37Y-83.74
X70.64Y-79.6
X70.64Y-83.75
X71.87Y-79.549
X72.03Y-113.53
X73.18Y-79.536
X73.18Y-83.815
X74.254Y-87.885
X74.3Y-91.0
X74.4Y-78.8
X74.5Y-93.5
X74.5Y-113.0
T2
X55.005Y-83.078
X55.005Y-84.602
X55.767Y-82.315
X55.767Y-83.84
X55.767Y-85.365
X56.53Y-83.078
X56.53Y-84.602
X57.292Y-82.315
X57.292Y-83.84
X57.292Y-85.365
X58.055Y-83.078
X58.055Y-84.602
T3
X50.52Y-108.4
X53.06Y-108.4
X55.6Y-108.4
X58.14Y-108.4
X60.68Y-108.4
X63.22Y-108.4
T4
X50.2Y-98.5
X50.2Y-105.0
X54.7Y-98.5
X54.7Y-105.0
X61.0Y-98.5
X61.0Y-105.0
X65.5Y-98.5
X65.5Y-105.0
T5
X27.85Y-82.335
X35.15Y-82.335
T6
X40.5Y-79.0
X49.0Y-118.0
X63.0Y-118.0
X80.25Y-79.0
M30
