%TF.GenerationSoftware,KiCad,Pcbnew,10.0.5*%
%TF.CreationDate,2026-10-03T14:47:17-04:00*%
%TF.ProjectId,BajaBlaster,42616a61-426c-4617-9374-65722e6b6963,rev?*%
%TF.SameCoordinates,Original*%
%TF.FileFunction,Soldermask,Top*%
%TF.FilePolarity,Negative*%
%FSLAX46Y46*%
G04 Gerber Fmt 4.6, Leading zero omitted, Abs format (unit mm)*
G04 Created by KiCad (PCBNEW 10.0.5) date 2026-10-03 14:47:17*
%MOMM*%
%LPD*%
G01*
G04 APERTURE LIST*
G04 Aperture macros list*
%AMRoundRect*
0 Rectangle with rounded corners*
0 $1 Rounding radius*
0 $2 $3 $4 $5 $6 $7 $8 $9 X,Y pos of 4 corners*
0 Add a 4 corners polygon primitive as box body*
4,1,4,$2,$3,$4,$5,$6,$7,$8,$9,$2,$3,0*
0 Add four circle primitives for the rounded corners*
1,1,$1+$1,$2,$3*
1,1,$1+$1,$4,$5*
1,1,$1+$1,$6,$7*
1,1,$1+$1,$8,$9*
0 Add four rect primitives between the rounded corners*
20,1,$1+$1,$2,$3,$4,$5,0*
20,1,$1+$1,$4,$5,$6,$7,0*
20,1,$1+$1,$6,$7,$8,$9,0*
20,1,$1+$1,$8,$9,$2,$3,0*%
G04 Aperture macros list end*
%ADD10RoundRect,0.250000X0.450000X-0.262500X0.450000X0.262500X-0.450000X0.262500X-0.450000X-0.262500X0*%
%ADD11RoundRect,0.218750X0.256250X-0.218750X0.256250X0.218750X-0.256250X0.218750X-0.256250X-0.218750X0*%
%ADD12C,2.710000*%
%ADD13R,1.270000X2.920000*%
%ADD14RoundRect,0.250000X0.250000X0.475000X-0.250000X0.475000X-0.250000X-0.475000X0.250000X-0.475000X0*%
%ADD15RoundRect,0.250000X-0.475000X0.250000X-0.475000X-0.250000X0.475000X-0.250000X0.475000X0.250000X0*%
%ADD16R,1.500000X1.500000*%
%ADD17R,1.700000X1.700000*%
%ADD18C,1.700000*%
%ADD19RoundRect,0.250000X-0.250000X-0.475000X0.250000X-0.475000X0.250000X0.475000X-0.250000X0.475000X0*%
%ADD20RoundRect,0.250000X-0.450000X0.262500X-0.450000X-0.262500X0.450000X-0.262500X0.450000X0.262500X0*%
%ADD21RoundRect,0.075000X0.350000X0.075000X-0.350000X0.075000X-0.350000X-0.075000X0.350000X-0.075000X0*%
%ADD22RoundRect,0.075000X-0.075000X0.350000X-0.075000X-0.350000X0.075000X-0.350000X0.075000X0.350000X0*%
%ADD23RoundRect,0.150000X0.150000X-0.825000X0.150000X0.825000X-0.150000X0.825000X-0.150000X-0.825000X0*%
%ADD24RoundRect,0.150000X-0.150000X0.512500X-0.150000X-0.512500X0.150000X-0.512500X0.150000X0.512500X0*%
%ADD25RoundRect,0.250000X0.900000X-1.000000X0.900000X1.000000X-0.900000X1.000000X-0.900000X-1.000000X0*%
%ADD26C,5.500000*%
%ADD27RoundRect,0.150000X-0.512500X-0.150000X0.512500X-0.150000X0.512500X0.150000X-0.512500X0.150000X0*%
%ADD28RoundRect,0.250000X0.475000X-0.250000X0.475000X0.250000X-0.475000X0.250000X-0.475000X-0.250000X0*%
%ADD29RoundRect,0.250000X0.262500X0.450000X-0.262500X0.450000X-0.262500X-0.450000X0.262500X-0.450000X0*%
%ADD30R,5.100000X2.350000*%
%ADD31RoundRect,0.250000X-0.625000X0.375000X-0.625000X-0.375000X0.625000X-0.375000X0.625000X0.375000X0*%
%ADD32R,1.500000X0.900000*%
%ADD33R,0.900000X1.500000*%
%ADD34C,0.600000*%
%ADD35R,4.200000X4.200000*%
%ADD36R,1.000000X1.500000*%
%ADD37C,2.000000*%
%ADD38R,2.920000X1.270000*%
%ADD39R,1.650000X3.430000*%
G04 APERTURE END LIST*
%TO.C,JP501*%
G36*
X69200000Y-84750000D02*
G01*
X69500000Y-84750000D01*
X69500000Y-86250000D01*
X69200000Y-86250000D01*
X69200000Y-84750000D01*
G37*
%TD*%
D10*
%TO.C,R306*%
X41100000Y-87900000D03*
X41100000Y-86075000D03*
%TD*%
D11*
%TO.C,D301*%
X38900000Y-86200000D03*
X38900000Y-87775000D03*
%TD*%
D12*
%TO.C,J201*%
X35150000Y-82335000D03*
X27850000Y-82335000D03*
D13*
X33000000Y-87805000D03*
X30000000Y-87805000D03*
%TD*%
D10*
%TO.C,R303*%
X44225000Y-97937500D03*
X44225000Y-99762500D03*
%TD*%
D14*
%TO.C,C501*%
X44750000Y-116150000D03*
X42850000Y-116150000D03*
%TD*%
D10*
%TO.C,R202*%
X34525000Y-114975000D03*
X34525000Y-113150000D03*
%TD*%
D15*
%TO.C,C303*%
X47500000Y-108550000D03*
X47500000Y-110450000D03*
%TD*%
D16*
%TO.C,REF\u002A\u002A*%
X50500000Y-111600000D03*
%TD*%
%TO.C,REF\u002A\u002A*%
X58300000Y-111600000D03*
%TD*%
D15*
%TO.C,C204*%
X35975000Y-103650000D03*
X35975000Y-105550000D03*
%TD*%
D17*
%TO.C,J501*%
X50500000Y-108500000D03*
D18*
X53040000Y-108500000D03*
X55580000Y-108500000D03*
X58120000Y-108500000D03*
X60660000Y-108500000D03*
X63200000Y-108500000D03*
%TD*%
D19*
%TO.C,C202*%
X38025000Y-105650000D03*
X39925000Y-105650000D03*
%TD*%
D10*
%TO.C,R304*%
X44200000Y-95825000D03*
X44200000Y-94000000D03*
%TD*%
D20*
%TO.C,R_CAN_TERM501*%
X75750000Y-76587500D03*
X75750000Y-78412500D03*
%TD*%
%TO.C,R201*%
X42525000Y-108575000D03*
X42525000Y-110400000D03*
%TD*%
D16*
%TO.C,REF\u002A\u002A*%
X55690000Y-111600000D03*
%TD*%
D21*
%TO.C,U302*%
X58200000Y-119300000D03*
X58200000Y-118800000D03*
X58200000Y-118300000D03*
X58200000Y-117800000D03*
X58200000Y-117300000D03*
X58200000Y-116800000D03*
D22*
X57500000Y-116100000D03*
X57000000Y-116100000D03*
X56500000Y-116100000D03*
X56000000Y-116100000D03*
X55500000Y-116100000D03*
X55000000Y-116100000D03*
D21*
X54300000Y-116800000D03*
X54300000Y-117300000D03*
X54300000Y-117800000D03*
X54300000Y-118300000D03*
X54300000Y-118800000D03*
X54300000Y-119300000D03*
D22*
X55000000Y-120000000D03*
X55500000Y-120000000D03*
X56000000Y-120000000D03*
X56500000Y-120000000D03*
X57000000Y-120000000D03*
X57500000Y-120000000D03*
%TD*%
D23*
%TO.C,U501*%
X69370000Y-82070000D03*
X70640000Y-82070000D03*
X71910000Y-82070000D03*
X73180000Y-82070000D03*
X73180000Y-77120000D03*
X71910000Y-77120000D03*
X70640000Y-77120000D03*
X69370000Y-77120000D03*
%TD*%
D16*
%TO.C,REF\u002A\u002A*%
X53100000Y-111600000D03*
%TD*%
D19*
%TO.C,C205*%
X34075000Y-117650000D03*
X35975000Y-117650000D03*
%TD*%
D24*
%TO.C,U202*%
X36162500Y-108375000D03*
X35212500Y-108375000D03*
X34262500Y-108375000D03*
X34262500Y-110650000D03*
X35212500Y-110650000D03*
X36162500Y-110650000D03*
%TD*%
D25*
%TO.C,D201*%
X30000000Y-101150000D03*
X30000000Y-96850000D03*
%TD*%
D26*
%TO.C,REF\u002A\u002A*%
X80250000Y-79000000D03*
%TD*%
D27*
%TO.C,U201*%
X38250000Y-115250000D03*
X38250000Y-116200000D03*
X38250000Y-117150000D03*
X40525000Y-117150000D03*
X40525000Y-115250000D03*
%TD*%
D26*
%TO.C,REF\u002A\u002A*%
X40500000Y-79000000D03*
%TD*%
D28*
%TO.C,C301*%
X44200000Y-88000000D03*
X44200000Y-86100000D03*
%TD*%
D15*
%TO.C,C302*%
X44200000Y-90000000D03*
X44200000Y-91900000D03*
%TD*%
D16*
%TO.C,REF\u002A\u002A*%
X60900000Y-111600000D03*
%TD*%
D28*
%TO.C,C203*%
X44200000Y-84000000D03*
X44200000Y-82100000D03*
%TD*%
D16*
%TO.C,REF\u002A\u002A*%
X63500000Y-111600000D03*
%TD*%
D29*
%TO.C,R203*%
X31950000Y-105150000D03*
X30125000Y-105150000D03*
%TD*%
D28*
%TO.C,C201*%
X38475000Y-110650000D03*
X38475000Y-108750000D03*
%TD*%
D30*
%TO.C,L201*%
X29975000Y-116300000D03*
X29975000Y-112150000D03*
%TD*%
D31*
%TO.C,F201*%
X30000000Y-91100000D03*
X30000000Y-93900000D03*
%TD*%
D32*
%TO.C,U301*%
X48460000Y-76500000D03*
X48460000Y-77770000D03*
X48460000Y-79040000D03*
X48460000Y-80310000D03*
X48460000Y-81580000D03*
X48460000Y-82850000D03*
X48460000Y-84120000D03*
X48460000Y-85390000D03*
X48460000Y-86660000D03*
X48460000Y-87930000D03*
X48460000Y-89200000D03*
X48460000Y-90470000D03*
X48460000Y-91740000D03*
X48460000Y-93010000D03*
D33*
X51500000Y-94260000D03*
X52770000Y-94260000D03*
X54040000Y-94260000D03*
X55310000Y-94260000D03*
X56580000Y-94260000D03*
X57850000Y-94260000D03*
X59120000Y-94260000D03*
X60390000Y-94260000D03*
X61660000Y-94260000D03*
X62930000Y-94260000D03*
D32*
X65960000Y-93010000D03*
X65960000Y-91740000D03*
X65960000Y-90470000D03*
X65960000Y-89200000D03*
X65960000Y-87930000D03*
X65960000Y-86660000D03*
X65960000Y-85390000D03*
X65960000Y-84120000D03*
X65960000Y-82850000D03*
X65960000Y-81580000D03*
X65960000Y-80310000D03*
X65960000Y-79040000D03*
X65960000Y-77770000D03*
X65960000Y-76500000D03*
D34*
X55005000Y-83077500D03*
X55005000Y-84602500D03*
X55767500Y-82315000D03*
X55767500Y-83840000D03*
X55767500Y-85365000D03*
X56530000Y-83077500D03*
D35*
X56530000Y-83840000D03*
D34*
X56530000Y-84602500D03*
X57292500Y-82315000D03*
X57292500Y-83840000D03*
X57292500Y-85365000D03*
X58055000Y-83077500D03*
X58055000Y-84602500D03*
%TD*%
D36*
%TO.C,JP501*%
X70000000Y-85500000D03*
X68700000Y-85500000D03*
%TD*%
D26*
%TO.C,REF\u002A\u002A*%
X63000000Y-118000000D03*
%TD*%
D10*
%TO.C,R302*%
X57750000Y-102412500D03*
X57750000Y-100587500D03*
%TD*%
D19*
%TO.C,C306*%
X38050000Y-103000000D03*
X39950000Y-103000000D03*
%TD*%
D10*
%TO.C,R305*%
X44975000Y-110475000D03*
X44975000Y-108650000D03*
%TD*%
D19*
%TO.C,C304*%
X42850000Y-113150000D03*
X44750000Y-113150000D03*
%TD*%
D15*
%TO.C,C206*%
X30975000Y-107700000D03*
X30975000Y-109600000D03*
%TD*%
D19*
%TO.C,C305*%
X38050000Y-100750000D03*
X39950000Y-100750000D03*
%TD*%
D26*
%TO.C,REF\u002A\u002A*%
X49000000Y-118000000D03*
%TD*%
D10*
%TO.C,R301*%
X44200000Y-104000000D03*
X44200000Y-102175000D03*
%TD*%
D37*
%TO.C,SW302*%
X61000000Y-105200000D03*
X61000000Y-98700000D03*
X65500000Y-105200000D03*
X65500000Y-98700000D03*
%TD*%
%TO.C,SW301*%
X50250000Y-105200000D03*
X50250000Y-98700000D03*
X54750000Y-105200000D03*
X54750000Y-98700000D03*
%TD*%
D38*
%TO.C,J503*%
X72030000Y-87885000D03*
X72030000Y-90885000D03*
X72030000Y-93885000D03*
X72030000Y-96885000D03*
D39*
X77500000Y-84000000D03*
X77500000Y-100770000D03*
%TD*%
D38*
%TO.C,J502*%
X72030000Y-109115000D03*
X72030000Y-112115000D03*
X72030000Y-115115000D03*
X67400000Y-109115000D03*
X67400000Y-112115000D03*
X67400000Y-115115000D03*
D39*
X77500000Y-105230000D03*
X77500000Y-119000000D03*
%TD*%
M02*
