%TF.GenerationSoftware,KiCad,Pcbnew,10.0.5*%
%TF.CreationDate,2026-10-03T14:47:17-04:00*%
%TF.ProjectId,BajaBlaster,42616a61-426c-4617-9374-65722e6b6963,rev?*%
%TF.SameCoordinates,Original*%
%TF.FileFunction,Copper,L4,Bot*%
%TF.FilePolarity,Positive*%
%FSLAX46Y46*%
G04 Gerber Fmt 4.6, Leading zero omitted, Abs format (unit mm)*
G04 Created by KiCad (PCBNEW 10.0.5) date 2026-10-03 14:47:17*
%MOMM*%
%LPD*%
G01*
G04 APERTURE LIST*
%TA.AperFunction,ComponentPad*%
%ADD10C,2.710000*%
%TD*%
%TA.AperFunction,ComponentPad*%
%ADD11R,1.700000X1.700000*%
%TD*%
%TA.AperFunction,ComponentPad*%
%ADD12C,1.700000*%
%TD*%
%TA.AperFunction,ComponentPad*%
%ADD13C,5.500000*%
%TD*%
%TA.AperFunction,HeatsinkPad*%
%ADD14C,0.600000*%
%TD*%
%TA.AperFunction,ComponentPad*%
%ADD15C,2.000000*%
%TD*%
%TA.AperFunction,ViaPad*%
%ADD16C,0.600000*%
%TD*%
%TA.AperFunction,Conductor*%
%ADD17C,0.200000*%
%TD*%
%TA.AperFunction,Conductor*%
%ADD18C,1.000000*%
%TD*%
G04 APERTURE END LIST*
D10*
%TO.P,J201,MP*%
%TO.N,N/C*%
X35150000Y-82335000D03*
X27850000Y-82335000D03*
%TD*%
D11*
%TO.P,J501,1,Pin_1_1*%
%TO.N,+3V3*%
X50500000Y-108500000D03*
D12*
%TO.P,J501,2,Pin_2_2*%
%TO.N,GND*%
X53040000Y-108500000D03*
%TO.P,J501,3,Pin_3_3*%
%TO.N,/COMMS/U0TXD*%
X55580000Y-108500000D03*
%TO.P,J501,4,Pin_4_4*%
%TO.N,/COMMS/U0RXD*%
X58120000Y-108500000D03*
%TO.P,J501,5,Pin_5_5*%
%TO.N,/COMMS/ESP32_EN*%
X60660000Y-108500000D03*
%TO.P,J501,6,Pin_6_6*%
%TO.N,/COMMS/IO0*%
X63200000Y-108500000D03*
%TD*%
D13*
%TO.P,REF\u002A\u002A,1*%
%TO.N,N/C*%
X80250000Y-79000000D03*
%TD*%
%TO.P,REF\u002A\u002A,1*%
%TO.N,N/C*%
X40500000Y-79000000D03*
%TD*%
D14*
%TO.P,U301,39,GND_39*%
%TO.N,GND*%
X55005000Y-83077500D03*
X55005000Y-84602500D03*
X55767500Y-82315000D03*
X55767500Y-83840000D03*
X55767500Y-85365000D03*
X56530000Y-83077500D03*
X56530000Y-84602500D03*
X57292500Y-82315000D03*
X57292500Y-83840000D03*
X57292500Y-85365000D03*
X58055000Y-83077500D03*
X58055000Y-84602500D03*
%TD*%
D13*
%TO.P,REF\u002A\u002A,1*%
%TO.N,N/C*%
X63000000Y-118000000D03*
%TD*%
%TO.P,REF\u002A\u002A,1*%
%TO.N,N/C*%
X49000000Y-118000000D03*
%TD*%
D15*
%TO.P,SW302,1,1_1*%
%TO.N,/COMMS/IO0*%
X61000000Y-105200000D03*
X61000000Y-98700000D03*
%TO.P,SW302,2,2_2*%
%TO.N,GND*%
X65500000Y-105200000D03*
X65500000Y-98700000D03*
%TD*%
%TO.P,SW301,1,1_1*%
%TO.N,/COMMS/ESP32_EN*%
X50250000Y-105200000D03*
X50250000Y-98700000D03*
%TO.P,SW301,2,2_2*%
%TO.N,GND*%
X54750000Y-105200000D03*
X54750000Y-98700000D03*
%TD*%
D16*
%TO.N,GND*%
X37500000Y-88987500D03*
X74500000Y-113000000D03*
X56500000Y-114500000D03*
X46000000Y-90000000D03*
X74300000Y-91000000D03*
X46100000Y-86100000D03*
X64400000Y-76500000D03*
X53760786Y-120239214D03*
X70640000Y-83750000D03*
X30125000Y-103500000D03*
X36000000Y-101800000D03*
X50000000Y-76500000D03*
X46100000Y-82100000D03*
X44750000Y-114600000D03*
X35500000Y-89000000D03*
X36162500Y-106800000D03*
X69370000Y-79565000D03*
X73180000Y-79535735D03*
%TO.N,+3V3*%
X50000000Y-77770000D03*
X54000000Y-114500000D03*
X46000000Y-92900000D03*
X46100000Y-84000000D03*
X46137500Y-99762500D03*
X47750000Y-106600000D03*
X57500000Y-114500000D03*
X46175000Y-105025000D03*
X71870000Y-79549265D03*
%TO.N,+5V*%
X36500000Y-115250000D03*
X32675000Y-119000000D03*
X38500000Y-111900000D03*
%TO.N,Net-(U202-VFB)*%
X32900000Y-109800000D03*
X31000000Y-106600000D03*
%TO.N,+12V*%
X35500000Y-96850000D03*
X41337500Y-107062500D03*
X69200000Y-91300000D03*
X74253630Y-87885000D03*
X34262500Y-106812500D03*
X35975000Y-104550000D03*
%TO.N,/COMMS/ESP32_EN*%
X51975000Y-103475000D03*
X63000000Y-106400000D03*
%TO.N,/COMMS/IO0*%
X46200000Y-98000000D03*
%TO.N,Net-(U302-SCL)*%
X46175000Y-95825000D03*
X47850000Y-112600000D03*
%TO.N,/COMMS/CANH*%
X74500000Y-93500000D03*
X74400000Y-78800000D03*
X70640000Y-79600000D03*
%TO.N,Net-(U302-REGOUT)*%
X55699997Y-114500000D03*
X43400000Y-106000000D03*
%TO.N,/MCU/INT*%
X56500000Y-113500000D03*
X50800000Y-86600000D03*
X54850000Y-90150000D03*
X66400000Y-103300000D03*
X57100000Y-92400000D03*
X66400000Y-100800000D03*
%TO.N,Net-(U302-CPOUT)*%
X53000000Y-114500000D03*
X43400000Y-107200000D03*
%TO.N,Net-(U302-SDA)*%
X56950000Y-121500000D03*
X45400000Y-111600000D03*
%TO.N,/COMMS/CAN_TX*%
X69370000Y-83740000D03*
X56250000Y-89500000D03*
%TO.N,/COMMS/CAN_RX*%
X73180000Y-83815000D03*
X53500000Y-87930000D03*
%TO.N,Net-(U202-SW)*%
X32113235Y-107613235D03*
X35212500Y-106762500D03*
%TO.N,/COMMS/INTERBOARD_TX*%
X72030000Y-113530000D03*
X68400000Y-106100000D03*
%TO.N,/COMMS/SYNC*%
X67800000Y-110700000D03*
X57750000Y-101400000D03*
%TD*%
%TO.N,Net-(U302-SCL)*%
D17*
X46200000Y-95850000D02*
X46175000Y-95825000D01*
X46200000Y-96700000D02*
X46200000Y-95850000D01*
X42000000Y-100900000D02*
X46200000Y-96700000D01*
X42000000Y-106800000D02*
X42000000Y-100900000D01*
X47800000Y-112600000D02*
X42000000Y-106800000D01*
X47850000Y-112600000D02*
X47800000Y-112600000D01*
%TO.N,Net-(U202-VFB)*%
X32900000Y-109800000D02*
X31000000Y-107900000D01*
X31000000Y-107900000D02*
X31000000Y-106600000D01*
%TO.N,+12V*%
D18*
X35500000Y-96800000D02*
X41000000Y-91300000D01*
X41000000Y-91300000D02*
X69200000Y-91300000D01*
%TO.N,/COMMS/ESP32_EN*%
D17*
X63000000Y-104400000D02*
X63000000Y-106400000D01*
X62100000Y-103500000D02*
X63000000Y-104400000D01*
X52150000Y-103500000D02*
X62100000Y-103500000D01*
X52125000Y-103475000D02*
X52150000Y-103500000D01*
X51975000Y-103475000D02*
X52125000Y-103475000D01*
%TO.N,/COMMS/IO0*%
X46200000Y-98000000D02*
X46400000Y-98000000D01*
X47800000Y-96400000D02*
X58650000Y-96400000D01*
X46200000Y-98000000D02*
X47800000Y-96400000D01*
X58650000Y-96400000D02*
X61000000Y-98750000D01*
X46200000Y-98000000D02*
X46137500Y-97937500D01*
%TO.N,/COMMS/CANH*%
X70640000Y-79500000D02*
X71340000Y-78800000D01*
X75500000Y-92500000D02*
X75500000Y-79900000D01*
X71340000Y-78800000D02*
X74400000Y-78800000D01*
X70640000Y-79600000D02*
X70640000Y-79500000D01*
X75500000Y-79900000D02*
X74400000Y-78800000D01*
X74500000Y-93500000D02*
X75500000Y-92500000D01*
%TO.N,Net-(U302-REGOUT)*%
X43500000Y-106000000D02*
X43400000Y-106000000D01*
X53000000Y-112000000D02*
X49500000Y-112000000D01*
X49500000Y-112000000D02*
X43500000Y-106000000D01*
X55699997Y-114500000D02*
X55500000Y-114500000D01*
X55500000Y-114500000D02*
X53000000Y-112000000D01*
%TO.N,/MCU/INT*%
X66700000Y-103300000D02*
X66400000Y-103300000D01*
X67400000Y-108100000D02*
X67400000Y-104000000D01*
X62000000Y-113500000D02*
X67400000Y-108100000D01*
X51300000Y-86600000D02*
X54850000Y-90150000D01*
X57100000Y-92400000D02*
X65500000Y-100800000D01*
X56500000Y-113500000D02*
X62000000Y-113500000D01*
X67400000Y-104000000D02*
X66700000Y-103300000D01*
X65500000Y-100800000D02*
X66400000Y-100800000D01*
X50800000Y-86600000D02*
X51300000Y-86600000D01*
%TO.N,Net-(U302-CPOUT)*%
X53000000Y-114500000D02*
X53000000Y-114200000D01*
X53000000Y-114200000D02*
X51400000Y-112600000D01*
X49000000Y-112600000D02*
X43600000Y-107200000D01*
X43600000Y-107200000D02*
X43400000Y-107200000D01*
X51400000Y-112600000D02*
X49000000Y-112600000D01*
%TO.N,Net-(U302-SDA)*%
X53000000Y-121500000D02*
X56950000Y-121500000D01*
X50700000Y-113200000D02*
X52500000Y-115000000D01*
X47000000Y-113200000D02*
X50700000Y-113200000D01*
X45400000Y-111600000D02*
X47000000Y-113200000D01*
X52500000Y-121000000D02*
X53000000Y-121500000D01*
X52500000Y-115000000D02*
X52500000Y-121000000D01*
%TO.N,/COMMS/CAN_TX*%
X69375000Y-87325000D02*
X69375000Y-84385000D01*
X67200000Y-89500000D02*
X69375000Y-87325000D01*
X69375000Y-84385000D02*
X69370000Y-84380000D01*
X56250000Y-89500000D02*
X67200000Y-89500000D01*
X69370000Y-84380000D02*
X69370000Y-83740000D01*
%TO.N,/COMMS/CAN_RX*%
X55712500Y-90100000D02*
X67650000Y-90100000D01*
X73180000Y-84570000D02*
X73180000Y-83815000D01*
X67650000Y-90100000D02*
X73180000Y-84570000D01*
X53750000Y-88137500D02*
X55712500Y-90100000D01*
X53707500Y-88137500D02*
X53750000Y-88137500D01*
X53500000Y-87930000D02*
X53707500Y-88137500D01*
%TO.N,Net-(U202-SW)*%
X33937500Y-106062500D02*
X34662500Y-106062500D01*
X32144853Y-107644853D02*
X32355147Y-107644853D01*
X32355147Y-107644853D02*
X33937500Y-106062500D01*
X34662500Y-106062500D02*
X35212500Y-106612500D01*
X32150000Y-107613235D02*
X32200000Y-107563235D01*
X32113235Y-107613235D02*
X32144853Y-107644853D01*
X32113235Y-107613235D02*
X32150000Y-107613235D01*
%TO.N,/COMMS/INTERBOARD_TX*%
X72030000Y-110030000D02*
X72030000Y-113530000D01*
X68200000Y-106200000D02*
X72030000Y-110030000D01*
X68200000Y-106100000D02*
X68200000Y-106200000D01*
%TO.N,/COMMS/SYNC*%
X65600000Y-101400000D02*
X57750000Y-101400000D01*
X67800000Y-110700000D02*
X67800000Y-103600000D01*
X67800000Y-103600000D02*
X65600000Y-101400000D01*
%TD*%
M02*
