%TF.GenerationSoftware,KiCad,Pcbnew,10.0.5*%
%TF.CreationDate,2026-10-03T17:09:45-04:00*%
%TF.ProjectId,BajaBlaster,42616a61-426c-4617-9374-65722e6b6963,rev?*%
%TF.SameCoordinates,Original*%
%TF.FileFunction,Paste,Top*%
%TF.FilePolarity,Positive*%
%FSLAX46Y46*%
G04 Gerber Fmt 4.6, Leading zero omitted, Abs format (unit mm)*
G04 Created by KiCad (PCBNEW 10.0.5) date 2026-10-03 17:09:45*
%MOMM*%
%LPD*%
G01*
G04 APERTURE LIST*
G04 Aperture macros list*
%AMRoundRect*
0 Rectangle with rounded corners*
0 $1 Rounding radius*
0 $2 $3 $4 $5 $6 $7 $8 $9 X,Y pos of 4 corners*
0 Add a 4 corners polygon primitive as box body*
4,1,4,$2,$3,$4,$5,$6,$7,$8,$9,$2,$3,0*
0 Add four circle primitives for the rounded corners*
1,1,$1+$1,$2,$3*
1,1,$1+$1,$4,$5*
1,1,$1+$1,$6,$7*
1,1,$1+$1,$8,$9*
0 Add four rect primitives between the rounded corners*
20,1,$1+$1,$2,$3,$4,$5,0*
20,1,$1+$1,$4,$5,$6,$7,0*
20,1,$1+$1,$6,$7,$8,$9,0*
20,1,$1+$1,$8,$9,$2,$3,0*%
G04 Aperture macros list end*
%ADD10RoundRect,0.250000X0.450000X-0.262500X0.450000X0.262500X-0.450000X0.262500X-0.450000X-0.262500X0*%
%ADD11RoundRect,0.250000X-1.500000X-0.550000X1.500000X-0.550000X1.500000X0.550000X-1.500000X0.550000X0*%
%ADD12RoundRect,0.250000X0.250000X0.475000X-0.250000X0.475000X-0.250000X-0.475000X0.250000X-0.475000X0*%
%ADD13RoundRect,0.250000X-0.475000X0.250000X-0.475000X-0.250000X0.475000X-0.250000X0.475000X0.250000X0*%
%ADD14RoundRect,0.250000X-0.450000X0.262500X-0.450000X-0.262500X0.450000X-0.262500X0.450000X0.262500X0*%
%ADD15RoundRect,0.075000X0.350000X0.075000X-0.350000X0.075000X-0.350000X-0.075000X0.350000X-0.075000X0*%
%ADD16RoundRect,0.075000X-0.075000X0.350000X-0.075000X-0.350000X0.075000X-0.350000X0.075000X0.350000X0*%
%ADD17RoundRect,0.150000X0.150000X-0.825000X0.150000X0.825000X-0.150000X0.825000X-0.150000X-0.825000X0*%
%ADD18RoundRect,0.250000X-0.250000X-0.475000X0.250000X-0.475000X0.250000X0.475000X-0.250000X0.475000X0*%
%ADD19R,2.920000X1.270000*%
%ADD20R,1.650000X3.430000*%
%ADD21RoundRect,0.150000X-0.150000X0.512500X-0.150000X-0.512500X0.150000X-0.512500X0.150000X0.512500X0*%
%ADD22RoundRect,0.250000X-0.900000X1.000000X-0.900000X-1.000000X0.900000X-1.000000X0.900000X1.000000X0*%
%ADD23RoundRect,0.150000X-0.512500X-0.150000X0.512500X-0.150000X0.512500X0.150000X-0.512500X0.150000X0*%
%ADD24RoundRect,0.250000X0.475000X-0.250000X0.475000X0.250000X-0.475000X0.250000X-0.475000X-0.250000X0*%
%ADD25R,5.100000X2.350000*%
%ADD26RoundRect,0.250000X-0.625000X0.375000X-0.625000X-0.375000X0.625000X-0.375000X0.625000X0.375000X0*%
%ADD27RoundRect,0.218750X0.256250X-0.218750X0.256250X0.218750X-0.256250X0.218750X-0.256250X-0.218750X0*%
%ADD28R,1.500000X0.900000*%
%ADD29R,0.900000X1.500000*%
%ADD30R,1.050000X1.050000*%
%ADD31R,1.270000X2.920000*%
G04 APERTURE END LIST*
D10*
%TO.C,R203*%
X30000000Y-104100000D03*
X30000000Y-105925000D03*
%TD*%
D11*
%TO.C,C202*%
X40700000Y-93600000D03*
X35300000Y-93600000D03*
%TD*%
D12*
%TO.C,C501*%
X44750000Y-118700000D03*
X42850000Y-118700000D03*
%TD*%
D10*
%TO.C,R202*%
X34525000Y-117525000D03*
X34525000Y-115700000D03*
%TD*%
D13*
%TO.C,C303*%
X47500000Y-111150000D03*
X47500000Y-113050000D03*
%TD*%
%TO.C,C204*%
X35975000Y-106200000D03*
X35975000Y-108100000D03*
%TD*%
D10*
%TO.C,R304*%
X44200000Y-95825000D03*
X44200000Y-94000000D03*
%TD*%
D14*
%TO.C,R_CAN_TERM501*%
X75750000Y-76587500D03*
X75750000Y-78412500D03*
%TD*%
%TO.C,R201*%
X42525000Y-111187500D03*
X42525000Y-113012500D03*
%TD*%
D15*
%TO.C,U302*%
X58200000Y-119300000D03*
X58200000Y-118800000D03*
X58200000Y-118300000D03*
X58200000Y-117800000D03*
X58200000Y-117300000D03*
X58200000Y-116800000D03*
D16*
X57500000Y-116100000D03*
X57000000Y-116100000D03*
X56500000Y-116100000D03*
X56000000Y-116100000D03*
X55500000Y-116100000D03*
X55000000Y-116100000D03*
D15*
X54300000Y-116800000D03*
X54300000Y-117300000D03*
X54300000Y-117800000D03*
X54300000Y-118300000D03*
X54300000Y-118800000D03*
X54300000Y-119300000D03*
D16*
X55000000Y-120000000D03*
X55500000Y-120000000D03*
X56000000Y-120000000D03*
X56500000Y-120000000D03*
X57000000Y-120000000D03*
X57500000Y-120000000D03*
%TD*%
D17*
%TO.C,U501*%
X69370000Y-82070000D03*
X70640000Y-82070000D03*
X71910000Y-82070000D03*
X73180000Y-82070000D03*
X73180000Y-77120000D03*
X71910000Y-77120000D03*
X70640000Y-77120000D03*
X69370000Y-77120000D03*
%TD*%
D18*
%TO.C,C205*%
X34075000Y-120200000D03*
X35975000Y-120200000D03*
%TD*%
D19*
%TO.C,J503*%
X72030000Y-87885000D03*
X72030000Y-90885000D03*
X72030000Y-93885000D03*
X72030000Y-96885000D03*
D20*
X77500000Y-84000000D03*
X77500000Y-100770000D03*
%TD*%
D21*
%TO.C,U202*%
X36162500Y-110925000D03*
X35212500Y-110925000D03*
X34262500Y-110925000D03*
X34262500Y-113200000D03*
X35212500Y-113200000D03*
X36162500Y-113200000D03*
%TD*%
D22*
%TO.C,D201*%
X30000000Y-96850000D03*
X30000000Y-101150000D03*
%TD*%
D10*
%TO.C,R306*%
X41100000Y-87700000D03*
X41100000Y-85875000D03*
%TD*%
D23*
%TO.C,U201*%
X38250000Y-117800000D03*
X38250000Y-118750000D03*
X38250000Y-119700000D03*
X40525000Y-119700000D03*
X40525000Y-117800000D03*
%TD*%
D10*
%TO.C,R303*%
X44225000Y-99762500D03*
X44225000Y-97937500D03*
%TD*%
D24*
%TO.C,C301*%
X44200000Y-88000000D03*
X44200000Y-86100000D03*
%TD*%
D13*
%TO.C,C302*%
X44200000Y-90000000D03*
X44200000Y-91900000D03*
%TD*%
D24*
%TO.C,C203*%
X44200000Y-84000000D03*
X44200000Y-82100000D03*
%TD*%
%TO.C,C201*%
X38475000Y-113200000D03*
X38475000Y-111300000D03*
%TD*%
D25*
%TO.C,L201*%
X29975000Y-118850000D03*
X29975000Y-114700000D03*
%TD*%
D26*
%TO.C,F201*%
X30000000Y-91100000D03*
X30000000Y-93900000D03*
%TD*%
D27*
%TO.C,D301*%
X38900000Y-87575000D03*
X38900000Y-86000000D03*
%TD*%
D28*
%TO.C,U301*%
X48460000Y-76500000D03*
X48460000Y-77770000D03*
X48460000Y-79040000D03*
X48460000Y-80310000D03*
X48460000Y-81580000D03*
X48460000Y-82850000D03*
X48460000Y-84120000D03*
X48460000Y-85390000D03*
X48460000Y-86660000D03*
X48460000Y-87930000D03*
X48460000Y-89200000D03*
X48460000Y-90470000D03*
X48460000Y-91740000D03*
X48460000Y-93010000D03*
D29*
X51500000Y-94260000D03*
X52770000Y-94260000D03*
X54040000Y-94260000D03*
X55310000Y-94260000D03*
X56580000Y-94260000D03*
X57850000Y-94260000D03*
X59120000Y-94260000D03*
X60390000Y-94260000D03*
X61660000Y-94260000D03*
X62930000Y-94260000D03*
D28*
X65960000Y-93010000D03*
X65960000Y-91740000D03*
X65960000Y-90470000D03*
X65960000Y-89200000D03*
X65960000Y-87930000D03*
X65960000Y-86660000D03*
X65960000Y-85390000D03*
X65960000Y-84120000D03*
X65960000Y-82850000D03*
X65960000Y-81580000D03*
X65960000Y-80310000D03*
X65960000Y-79040000D03*
X65960000Y-77770000D03*
X65960000Y-76500000D03*
D30*
X55005000Y-82315000D03*
X55005000Y-83840000D03*
X55005000Y-85365000D03*
X56530000Y-82315000D03*
X56530000Y-83840000D03*
X56530000Y-85365000D03*
X58055000Y-82315000D03*
X58055000Y-83840000D03*
X58055000Y-85365000D03*
%TD*%
D10*
%TO.C,R302*%
X57750000Y-102412500D03*
X57750000Y-100587500D03*
%TD*%
D19*
%TO.C,J502*%
X72030000Y-109115000D03*
X72030000Y-112115000D03*
X72030000Y-115115000D03*
X67400000Y-109115000D03*
X67400000Y-112115000D03*
X67400000Y-115115000D03*
D20*
X77500000Y-105230000D03*
X77500000Y-119000000D03*
%TD*%
D31*
%TO.C,J201*%
X30000000Y-87805000D03*
X33000000Y-87805000D03*
%TD*%
D18*
%TO.C,C306*%
X38800000Y-108650000D03*
X40700000Y-108650000D03*
%TD*%
D10*
%TO.C,R305*%
X44975000Y-113025000D03*
X44975000Y-111200000D03*
%TD*%
D18*
%TO.C,C304*%
X42850000Y-115700000D03*
X44750000Y-115700000D03*
%TD*%
D24*
%TO.C,C206*%
X30100000Y-111600000D03*
X30100000Y-109700000D03*
%TD*%
D18*
%TO.C,C305*%
X38800000Y-106400000D03*
X40700000Y-106400000D03*
%TD*%
D10*
%TO.C,R301*%
X44200000Y-104000000D03*
X44200000Y-102175000D03*
%TD*%
M02*
