%TF.GenerationSoftware,KiCad,Pcbnew,10.0.5*%
%TF.CreationDate,2026-10-03T17:09:45-04:00*%
%TF.ProjectId,BajaBlaster,42616a61-426c-4617-9374-65722e6b6963,rev?*%
%TF.SameCoordinates,Original*%
%TF.FileFunction,Copper,L3,Inr*%
%TF.FilePolarity,Positive*%
%FSLAX46Y46*%
G04 Gerber Fmt 4.6, Leading zero omitted, Abs format (unit mm)*
G04 Created by KiCad (PCBNEW 10.0.5) date 2026-10-03 17:09:45*
%MOMM*%
%LPD*%
G01*
G04 APERTURE LIST*
%TA.AperFunction,ComponentPad*%
%ADD10C,2.000000*%
%TD*%
%TA.AperFunction,ComponentPad*%
%ADD11R,1.700000X1.700000*%
%TD*%
%TA.AperFunction,ComponentPad*%
%ADD12C,1.700000*%
%TD*%
%TA.AperFunction,ComponentPad*%
%ADD13C,5.500000*%
%TD*%
%TA.AperFunction,HeatsinkPad*%
%ADD14C,0.600000*%
%TD*%
%TA.AperFunction,ComponentPad*%
%ADD15C,2.710000*%
%TD*%
%TA.AperFunction,ViaPad*%
%ADD16C,0.600000*%
%TD*%
%TA.AperFunction,ViaPad*%
%ADD17C,0.800000*%
%TD*%
G04 APERTURE END LIST*
D10*
%TO.N,/COMMS/IO0*%
%TO.C,SW302*%
X61000000Y-105000000D03*
X61000000Y-98500000D03*
%TO.N,GND*%
X65500000Y-105000000D03*
X65500000Y-98500000D03*
%TD*%
%TO.N,/COMMS/ESP32_EN*%
%TO.C,SW301*%
X50200000Y-105000000D03*
X50200000Y-98500000D03*
%TO.N,GND*%
X54700000Y-105000000D03*
X54700000Y-98500000D03*
%TD*%
D11*
%TO.N,+3V3*%
%TO.C,J501*%
X50520000Y-108400000D03*
D12*
%TO.N,GND*%
X53060000Y-108400000D03*
%TO.N,/COMMS/U0TXD*%
X55600000Y-108400000D03*
%TO.N,/COMMS/U0RXD*%
X58140000Y-108400000D03*
%TO.N,/COMMS/ESP32_EN*%
X60680000Y-108400000D03*
%TO.N,/COMMS/IO0*%
X63220000Y-108400000D03*
%TD*%
D13*
%TO.N,N/C*%
%TO.C,REF\u002A\u002A*%
X80250000Y-79000000D03*
%TD*%
%TO.N,N/C*%
%TO.C,REF\u002A\u002A*%
X40500000Y-79000000D03*
%TD*%
D14*
%TO.N,GND*%
%TO.C,U301*%
X55005000Y-83077500D03*
X55005000Y-84602500D03*
X55767500Y-82315000D03*
X55767500Y-83840000D03*
X55767500Y-85365000D03*
X56530000Y-83077500D03*
X56530000Y-84602500D03*
X57292500Y-82315000D03*
X57292500Y-83840000D03*
X57292500Y-85365000D03*
X58055000Y-83077500D03*
X58055000Y-84602500D03*
%TD*%
D13*
%TO.N,N/C*%
%TO.C,REF\u002A\u002A*%
X63000000Y-118000000D03*
%TD*%
D15*
%TO.N,N/C*%
%TO.C,J201*%
X27850000Y-82335000D03*
X35150000Y-82335000D03*
%TD*%
D13*
%TO.N,N/C*%
%TO.C,REF\u002A\u002A*%
X49000000Y-118000000D03*
%TD*%
D16*
%TO.N,/MCU/INT*%
X66424265Y-101375735D03*
%TO.N,GND*%
X39800000Y-105300000D03*
X65300000Y-103300000D03*
%TO.N,Net-(U202-SW)*%
X33000000Y-109300000D03*
D17*
%TO.N,GND*%
X37700000Y-95500000D03*
%TO.N,+12V*%
X37900000Y-91300000D03*
D16*
X42525000Y-108925000D03*
%TO.N,Net-(U302-SCL)*%
X48900000Y-113200000D03*
%TO.N,Net-(U302-CPOUT)*%
X44600000Y-108200000D03*
%TO.N,Net-(U202-VFB)*%
X32900000Y-112350000D03*
D17*
X30000000Y-107900000D03*
D16*
%TO.N,GND*%
X57650000Y-105050000D03*
X57400000Y-98500000D03*
X56500000Y-114500000D03*
X46000000Y-90000000D03*
X74300000Y-91000000D03*
X46100000Y-86100000D03*
X64400000Y-76500000D03*
X53760786Y-120239214D03*
X70640000Y-83750000D03*
X74500000Y-113000000D03*
X37287500Y-89000000D03*
X50000000Y-76500000D03*
X46100000Y-82100000D03*
X44750000Y-117150000D03*
D17*
X35500000Y-89000000D03*
D16*
X36162500Y-109350000D03*
X69370000Y-79565000D03*
X73180000Y-79535735D03*
%TO.N,+3V3*%
X50000000Y-77770000D03*
X54000000Y-114500000D03*
X46000000Y-92900000D03*
X46100000Y-84000000D03*
X46137500Y-99762500D03*
X57500000Y-114500000D03*
X46175000Y-105025000D03*
X71870000Y-79549265D03*
%TO.N,+5V*%
X36500000Y-117800000D03*
X32675000Y-121550000D03*
X38500000Y-112300000D03*
D17*
%TO.N,+12V*%
X69200000Y-91300000D03*
D16*
X74253630Y-87885000D03*
X34262500Y-107912500D03*
X35975000Y-107100000D03*
%TO.N,/COMMS/IO0*%
X46200000Y-98000000D03*
%TO.N,Net-(U302-SCL)*%
X46175000Y-95825000D03*
%TO.N,/COMMS/CANH*%
X74500000Y-93500000D03*
X74400000Y-78800000D03*
X70640000Y-79600000D03*
%TO.N,Net-(U302-REGOUT)*%
X55699997Y-114500000D03*
X43900000Y-106400000D03*
%TO.N,/MCU/INT*%
X56500000Y-113500000D03*
X50800000Y-86600000D03*
X54850000Y-90150000D03*
X66400000Y-103300000D03*
X57100000Y-92400000D03*
%TO.N,Net-(U302-CPOUT)*%
X53000000Y-114500000D03*
%TO.N,Net-(U302-SDA)*%
X56950000Y-121500000D03*
X45225000Y-113975000D03*
%TO.N,/COMMS/CAN_TX*%
X69370000Y-83740000D03*
X56250000Y-89500000D03*
%TO.N,/COMMS/CAN_RX*%
X73180000Y-83815000D03*
X53500000Y-87930000D03*
%TO.N,Net-(U202-SW)*%
X35212500Y-109312500D03*
%TO.N,/COMMS/INTERBOARD_TX*%
X72030000Y-113530000D03*
X68400000Y-106100000D03*
%TO.N,/COMMS/SYNC*%
X67800000Y-110700000D03*
X57765087Y-101400000D03*
%TD*%
%TA.AperFunction,Conductor*%
%TO.N,+5V*%
G36*
X32436588Y-109905021D02*
G01*
X32468402Y-109914363D01*
X32502350Y-109930235D01*
X32620814Y-110009390D01*
X32620827Y-110009397D01*
X32766498Y-110069735D01*
X32766503Y-110069737D01*
X32913513Y-110098979D01*
X32916247Y-110099703D01*
X32921155Y-110100500D01*
X33078844Y-110100500D01*
X33082964Y-110100500D01*
X33090814Y-110098118D01*
X33233497Y-110069737D01*
X33379179Y-110009394D01*
X33435459Y-109971789D01*
X33496801Y-109930801D01*
X33528633Y-109915571D01*
X33552554Y-109908081D01*
X33560276Y-109905664D01*
X33597325Y-109900000D01*
X34598729Y-109900000D01*
X34633663Y-109905023D01*
X34659932Y-109912736D01*
X34702803Y-109935161D01*
X34718063Y-109947458D01*
X34721204Y-109948043D01*
X34733984Y-109955519D01*
X34833314Y-110021890D01*
X34833327Y-110021897D01*
X34978998Y-110082235D01*
X34979003Y-110082237D01*
X35066810Y-110099703D01*
X35070812Y-110100499D01*
X35126012Y-110111479D01*
X35128747Y-110112203D01*
X35133655Y-110113000D01*
X35291344Y-110113000D01*
X35295464Y-110113000D01*
X35303314Y-110110618D01*
X35445997Y-110082237D01*
X35582551Y-110025675D01*
X35592927Y-110021908D01*
X35597775Y-110020388D01*
X35597776Y-110020390D01*
X35622460Y-110012655D01*
X35692310Y-110011396D01*
X35705447Y-110014997D01*
X35741541Y-110031477D01*
X35783312Y-110059389D01*
X35783327Y-110059397D01*
X35882560Y-110100500D01*
X35929003Y-110119737D01*
X35929005Y-110119737D01*
X35929010Y-110119739D01*
X36055130Y-110144825D01*
X36076013Y-110148979D01*
X36078747Y-110149703D01*
X36083655Y-110150500D01*
X36241344Y-110150500D01*
X36245464Y-110150500D01*
X36253314Y-110148118D01*
X36395997Y-110119737D01*
X36520334Y-110068235D01*
X36541672Y-110059397D01*
X36541672Y-110059396D01*
X36541679Y-110059394D01*
X36672789Y-109971789D01*
X36695653Y-109948924D01*
X36723904Y-109927776D01*
X36746259Y-109915569D01*
X36746991Y-109915168D01*
X36806420Y-109900000D01*
X38671458Y-109900000D01*
X38738497Y-109919685D01*
X38784252Y-109972489D01*
X38795142Y-110032842D01*
X38794500Y-110041816D01*
X38794500Y-112206911D01*
X38794652Y-112219345D01*
X38794802Y-112225440D01*
X38794916Y-112228535D01*
X38795000Y-112233093D01*
X38795000Y-112366897D01*
X38794915Y-112371491D01*
X38794803Y-112374503D01*
X38794653Y-112380597D01*
X38794500Y-112393083D01*
X38794500Y-121862165D01*
X38794859Y-121868861D01*
X38778792Y-121936858D01*
X38728514Y-121985374D01*
X38671037Y-121999500D01*
X25642330Y-121999500D01*
X25607389Y-121994475D01*
X25592390Y-121990070D01*
X25533644Y-121952327D01*
X25532457Y-121950958D01*
X25504977Y-121896083D01*
X25503332Y-121888521D01*
X25500500Y-121862168D01*
X25500500Y-112428848D01*
X32099499Y-112428848D01*
X32130257Y-112583471D01*
X32130264Y-112583502D01*
X32190598Y-112729165D01*
X32190603Y-112729174D01*
X32190613Y-112729191D01*
X32278211Y-112860290D01*
X32278212Y-112860291D01*
X32278217Y-112860297D01*
X32389701Y-112971781D01*
X32389707Y-112971786D01*
X32389711Y-112971789D01*
X32520814Y-113059390D01*
X32520827Y-113059397D01*
X32666498Y-113119735D01*
X32666503Y-113119737D01*
X32813513Y-113148979D01*
X32816247Y-113149703D01*
X32821155Y-113150500D01*
X32978844Y-113150500D01*
X32982964Y-113150500D01*
X32990814Y-113148118D01*
X33133497Y-113119737D01*
X33279179Y-113059394D01*
X33410289Y-112971789D01*
X33521789Y-112860289D01*
X33609394Y-112729179D01*
X33669737Y-112583497D01*
X33700500Y-112428842D01*
X33700500Y-112271158D01*
X33700500Y-112271155D01*
X33700500Y-112270973D01*
X33700065Y-112268972D01*
X33692477Y-112230825D01*
X33670395Y-112119816D01*
X33669994Y-112117467D01*
X33669738Y-112116508D01*
X33669737Y-112116506D01*
X33669737Y-112116503D01*
X33669735Y-112116498D01*
X33609397Y-111970827D01*
X33609390Y-111970814D01*
X33521789Y-111839711D01*
X33521786Y-111839707D01*
X33521781Y-111839701D01*
X33410297Y-111728217D01*
X33410291Y-111728212D01*
X33410290Y-111728211D01*
X33279191Y-111640613D01*
X33279190Y-111640612D01*
X33279185Y-111640609D01*
X33279172Y-111640602D01*
X33279165Y-111640598D01*
X33133502Y-111580264D01*
X33133471Y-111580257D01*
X32978847Y-111549500D01*
X32978845Y-111549500D01*
X32978842Y-111549500D01*
X32821158Y-111549500D01*
X32821155Y-111549500D01*
X32821153Y-111549500D01*
X32666527Y-111580257D01*
X32666496Y-111580264D01*
X32520833Y-111640598D01*
X32520824Y-111640603D01*
X32520807Y-111640613D01*
X32389708Y-111728211D01*
X32389707Y-111728212D01*
X32389701Y-111728217D01*
X32278217Y-111839701D01*
X32278212Y-111839707D01*
X32278211Y-111839708D01*
X32190613Y-111970807D01*
X32190603Y-111970824D01*
X32190598Y-111970833D01*
X32130264Y-112116496D01*
X32130257Y-112116527D01*
X32099500Y-112271150D01*
X32099500Y-112271153D01*
X32099500Y-112428846D01*
X32099500Y-112428848D01*
X32099499Y-112428848D01*
X25500500Y-112428848D01*
X25500500Y-110041829D01*
X25505523Y-110006893D01*
X25509927Y-109991895D01*
X25547672Y-109933144D01*
X25549041Y-109931957D01*
X25603920Y-109904477D01*
X25611479Y-109902833D01*
X25637832Y-109900000D01*
X32401656Y-109900000D01*
X32436588Y-109905021D01*
G37*
%TD.AperFunction*%
%TD*%
%TA.AperFunction,Conductor*%
%TO.N,+12V*%
G36*
X42354941Y-75520185D02*
G01*
X42400696Y-75572989D01*
X42411766Y-75630310D01*
X42410478Y-75657759D01*
X42422306Y-76140097D01*
X42404270Y-76207599D01*
X42352604Y-76254635D01*
X42283710Y-76266271D01*
X42229453Y-76246240D01*
X42173122Y-76208601D01*
X42173109Y-76208593D01*
X42173093Y-76208583D01*
X42173072Y-76208571D01*
X41950258Y-76089475D01*
X41891451Y-76058042D01*
X41891446Y-76058040D01*
X41891441Y-76058038D01*
X41891346Y-76057993D01*
X41890767Y-76057758D01*
X41596387Y-75935821D01*
X41290744Y-75843106D01*
X41290733Y-75843103D01*
X41082429Y-75801670D01*
X41057617Y-75788691D01*
X40738141Y-75757227D01*
X40732161Y-75756638D01*
X40659687Y-75749500D01*
X40659684Y-75749500D01*
X40340315Y-75749500D01*
X40340313Y-75749500D01*
X40328386Y-75750674D01*
X40267822Y-75756638D01*
X40267822Y-75756639D01*
X40245825Y-75758805D01*
X40022477Y-75780802D01*
X39709265Y-75843103D01*
X39709254Y-75843106D01*
X39403611Y-75935821D01*
X39109231Y-76057758D01*
X39108656Y-76057992D01*
X39108542Y-76058045D01*
X38826926Y-76208571D01*
X38826905Y-76208583D01*
X38826886Y-76208595D01*
X38561356Y-76386015D01*
X38561335Y-76386030D01*
X38561324Y-76386039D01*
X38314453Y-76588642D01*
X38088642Y-76814453D01*
X37886039Y-77061324D01*
X37886030Y-77061335D01*
X37886015Y-77061356D01*
X37708595Y-77326886D01*
X37708583Y-77326905D01*
X37708571Y-77326926D01*
X37558045Y-77608542D01*
X37557992Y-77608656D01*
X37557758Y-77609231D01*
X37435821Y-77903611D01*
X37343106Y-78209254D01*
X37343103Y-78209265D01*
X37280802Y-78522477D01*
X37280802Y-78522479D01*
X37249500Y-78840319D01*
X37249500Y-79159679D01*
X37280802Y-79477519D01*
X37280802Y-79477521D01*
X37343103Y-79790733D01*
X37343106Y-79790744D01*
X37435821Y-80096387D01*
X37557758Y-80390767D01*
X37557993Y-80391346D01*
X37558038Y-80391441D01*
X37558040Y-80391446D01*
X37558042Y-80391451D01*
X37558045Y-80391456D01*
X37708571Y-80673072D01*
X37708583Y-80673093D01*
X37708584Y-80673094D01*
X37708601Y-80673122D01*
X37884904Y-80936980D01*
X37886015Y-80938642D01*
X37886030Y-80938663D01*
X37886039Y-80938674D01*
X38088642Y-81185545D01*
X38314460Y-81411363D01*
X38314513Y-81411411D01*
X38315048Y-81411845D01*
X38561344Y-81613975D01*
X38561351Y-81613980D01*
X38561361Y-81613987D01*
X38561378Y-81613998D01*
X38561406Y-81614018D01*
X38824399Y-81789743D01*
X38826364Y-81791126D01*
X38827548Y-81791769D01*
X38829846Y-81793034D01*
X38830875Y-81793537D01*
X39103246Y-81939123D01*
X39103290Y-81939150D01*
X39107481Y-81941387D01*
X39107516Y-81941405D01*
X39108548Y-81941957D01*
X39112022Y-81943814D01*
X39116996Y-81945457D01*
X39403619Y-82064180D01*
X39709240Y-82156889D01*
X40022477Y-82219196D01*
X40340313Y-82250500D01*
X40340316Y-82250500D01*
X40659684Y-82250500D01*
X40659687Y-82250500D01*
X40977523Y-82219196D01*
X41290760Y-82156889D01*
X41596381Y-82064180D01*
X41891444Y-81941961D01*
X42173106Y-81791409D01*
X42367312Y-81661644D01*
X42433990Y-81640767D01*
X42501370Y-81659252D01*
X42548060Y-81711231D01*
X42560166Y-81761707D01*
X42567750Y-82070940D01*
X42570700Y-82191241D01*
X42591721Y-83048440D01*
X42594671Y-83168741D01*
X42665843Y-86070940D01*
X42668793Y-86191241D01*
X42678104Y-86570940D01*
X42710720Y-87900940D01*
X42713670Y-88021241D01*
X42754266Y-89676644D01*
X42761483Y-89970940D01*
X42764433Y-90091241D01*
X42820339Y-92370940D01*
X42823289Y-92491241D01*
X42899963Y-95617861D01*
X42900000Y-95620901D01*
X42900000Y-106485714D01*
X43225764Y-106997629D01*
X43245149Y-107064756D01*
X43235176Y-107112925D01*
X43213041Y-107164725D01*
X43213041Y-107164726D01*
X43209004Y-107179835D01*
X43209001Y-107179850D01*
X43195407Y-107250656D01*
X43191243Y-107285690D01*
X43191243Y-107285693D01*
X43187862Y-107357756D01*
X43194893Y-107644499D01*
X43196256Y-107700075D01*
X43217055Y-107831708D01*
X43235518Y-107893827D01*
X43289973Y-108015415D01*
X43289979Y-108015425D01*
X43289981Y-108015429D01*
X43291454Y-108017814D01*
X43291466Y-108017833D01*
X43291469Y-108017837D01*
X43291470Y-108017838D01*
X43383729Y-108128239D01*
X43396944Y-108140110D01*
X43433662Y-108199554D01*
X43432412Y-108269413D01*
X43409754Y-108311238D01*
X43339605Y-108396320D01*
X43339600Y-108396326D01*
X43303283Y-108456003D01*
X43303277Y-108456014D01*
X43303265Y-108456040D01*
X43246736Y-108588310D01*
X43246729Y-108588328D01*
X43243815Y-108599236D01*
X43243810Y-108599257D01*
X43230215Y-108670070D01*
X43230214Y-108670080D01*
X43226050Y-108705108D01*
X43222670Y-108777160D01*
X43222670Y-108777167D01*
X43230992Y-109116503D01*
X43234131Y-109244500D01*
X43234694Y-109267460D01*
X43216658Y-109334962D01*
X43164992Y-109381998D01*
X43110731Y-109394500D01*
X39437330Y-109394500D01*
X39383306Y-109397395D01*
X39356937Y-109400230D01*
X39303571Y-109408875D01*
X39303553Y-109408879D01*
X39295998Y-109410522D01*
X39295973Y-109410529D01*
X39177094Y-109452474D01*
X39177084Y-109452479D01*
X39122215Y-109479954D01*
X39122186Y-109479970D01*
X39122001Y-109480095D01*
X39121941Y-109480113D01*
X39118854Y-109481909D01*
X39118446Y-109481207D01*
X39055321Y-109500966D01*
X39001608Y-109489780D01*
X38880923Y-109434664D01*
X38880918Y-109434662D01*
X38880917Y-109434662D01*
X38813878Y-109414977D01*
X38813880Y-109414977D01*
X38813875Y-109414976D01*
X38766402Y-109408150D01*
X38671458Y-109394500D01*
X38671456Y-109394500D01*
X37087000Y-109394500D01*
X37019961Y-109374815D01*
X36974206Y-109322011D01*
X36964819Y-109278861D01*
X36963499Y-109273270D01*
X36962565Y-109268972D01*
X36957697Y-109244500D01*
X36932895Y-109119815D01*
X36932483Y-109117403D01*
X36932239Y-109116509D01*
X36932237Y-109116503D01*
X36916702Y-109078998D01*
X36871897Y-108970827D01*
X36871890Y-108970814D01*
X36784289Y-108839711D01*
X36784286Y-108839707D01*
X36784281Y-108839701D01*
X36672797Y-108728217D01*
X36672790Y-108728211D01*
X36672788Y-108728210D01*
X36541691Y-108640613D01*
X36541690Y-108640612D01*
X36541685Y-108640609D01*
X36541672Y-108640602D01*
X36541665Y-108640598D01*
X36396002Y-108580264D01*
X36395971Y-108580257D01*
X36241347Y-108549500D01*
X36241345Y-108549500D01*
X36241342Y-108549500D01*
X36083658Y-108549500D01*
X36083655Y-108549500D01*
X36083653Y-108549500D01*
X35929027Y-108580257D01*
X35928996Y-108580264D01*
X35792343Y-108636867D01*
X35781921Y-108640648D01*
X35777220Y-108642119D01*
X35752495Y-108649855D01*
X35682638Y-108651088D01*
X35669491Y-108647478D01*
X35633439Y-108631008D01*
X35593511Y-108604330D01*
X35591855Y-108603181D01*
X35591767Y-108603135D01*
X35590965Y-108602809D01*
X35446002Y-108542764D01*
X35445971Y-108542757D01*
X35291347Y-108512000D01*
X35291345Y-108512000D01*
X35291342Y-108512000D01*
X35133658Y-108512000D01*
X35133655Y-108512000D01*
X35133653Y-108512000D01*
X34979027Y-108542757D01*
X34978996Y-108542764D01*
X34833333Y-108603098D01*
X34833324Y-108603103D01*
X34833307Y-108603113D01*
X34702208Y-108690711D01*
X34702207Y-108690712D01*
X34702201Y-108690717D01*
X34590717Y-108802201D01*
X34590712Y-108802207D01*
X34590711Y-108802208D01*
X34503113Y-108933307D01*
X34503103Y-108933324D01*
X34503098Y-108933333D01*
X34442764Y-109078996D01*
X34442764Y-109078997D01*
X34412000Y-109233650D01*
X34412000Y-109270500D01*
X34392315Y-109337539D01*
X34339511Y-109383294D01*
X34288000Y-109394500D01*
X33924500Y-109394500D01*
X33857461Y-109374815D01*
X33811706Y-109322011D01*
X33800500Y-109270500D01*
X33800500Y-109220971D01*
X33800064Y-109218966D01*
X33779684Y-109116510D01*
X33769737Y-109066503D01*
X33729656Y-108969737D01*
X33709397Y-108920827D01*
X33709390Y-108920814D01*
X33621789Y-108789711D01*
X33621786Y-108789707D01*
X33621781Y-108789701D01*
X33510297Y-108678217D01*
X33510291Y-108678212D01*
X33510290Y-108678211D01*
X33379191Y-108590613D01*
X33379190Y-108590612D01*
X33379185Y-108590609D01*
X33379172Y-108590602D01*
X33379165Y-108590598D01*
X33233502Y-108530264D01*
X33233471Y-108530257D01*
X33078847Y-108499500D01*
X33078845Y-108499500D01*
X33078842Y-108499500D01*
X32921158Y-108499500D01*
X32921155Y-108499500D01*
X32921153Y-108499500D01*
X32766527Y-108530257D01*
X32766496Y-108530264D01*
X32620833Y-108590598D01*
X32620824Y-108590603D01*
X32620807Y-108590613D01*
X32489708Y-108678211D01*
X32489707Y-108678212D01*
X32489701Y-108678217D01*
X32378217Y-108789701D01*
X32378212Y-108789707D01*
X32378211Y-108789708D01*
X32290613Y-108920807D01*
X32290603Y-108920824D01*
X32290598Y-108920833D01*
X32230264Y-109066496D01*
X32230257Y-109066527D01*
X32199500Y-109221150D01*
X32199500Y-109270500D01*
X32179815Y-109337539D01*
X32127011Y-109383294D01*
X32075500Y-109394500D01*
X25637832Y-109394500D01*
X25636021Y-109394597D01*
X25631126Y-109394859D01*
X25563131Y-109378785D01*
X25514619Y-109328501D01*
X25500500Y-109271036D01*
X25500500Y-107811299D01*
X29099500Y-107811299D01*
X29099500Y-107988699D01*
X29134099Y-108162646D01*
X29134101Y-108162653D01*
X29134109Y-108162676D01*
X29201977Y-108326526D01*
X29201985Y-108326544D01*
X29201994Y-108326559D01*
X29300536Y-108474036D01*
X29300537Y-108474037D01*
X29300542Y-108474043D01*
X29425955Y-108599456D01*
X29425961Y-108599461D01*
X29425965Y-108599464D01*
X29573446Y-108698009D01*
X29573459Y-108698016D01*
X29646358Y-108728211D01*
X29737334Y-108765894D01*
X29737335Y-108765894D01*
X29737336Y-108765894D01*
X29737341Y-108765896D01*
X29903680Y-108798982D01*
X29906403Y-108799704D01*
X29911306Y-108800500D01*
X30088693Y-108800500D01*
X30092814Y-108800500D01*
X30100667Y-108798117D01*
X30146682Y-108788964D01*
X30146683Y-108788964D01*
X30206027Y-108777160D01*
X30262658Y-108765896D01*
X30262658Y-108765895D01*
X30262662Y-108765895D01*
X30262664Y-108765894D01*
X30262666Y-108765894D01*
X30265854Y-108764573D01*
X30273835Y-108761273D01*
X30273876Y-108761251D01*
X30426540Y-108698016D01*
X30426540Y-108698015D01*
X30426547Y-108698013D01*
X30574035Y-108599464D01*
X30699464Y-108474035D01*
X30798013Y-108326547D01*
X30865894Y-108162666D01*
X30874348Y-108120168D01*
X30900074Y-107990828D01*
X30900500Y-107988872D01*
X30900500Y-107811125D01*
X30900074Y-107809169D01*
X30865896Y-107637341D01*
X30865893Y-107637332D01*
X30798016Y-107473459D01*
X30798009Y-107473446D01*
X30699464Y-107325965D01*
X30699461Y-107325961D01*
X30699456Y-107325955D01*
X30574043Y-107200542D01*
X30574037Y-107200537D01*
X30574036Y-107200536D01*
X30426559Y-107101994D01*
X30426558Y-107101993D01*
X30426553Y-107101990D01*
X30426540Y-107101983D01*
X30426526Y-107101977D01*
X30262676Y-107034109D01*
X30262653Y-107034101D01*
X30262646Y-107034099D01*
X30088698Y-106999500D01*
X30088694Y-106999500D01*
X30088691Y-106999500D01*
X29911309Y-106999500D01*
X29911306Y-106999500D01*
X29911301Y-106999500D01*
X29737352Y-107034100D01*
X29737345Y-107034101D01*
X29737322Y-107034109D01*
X29573472Y-107101977D01*
X29573454Y-107101985D01*
X29573439Y-107101994D01*
X29425962Y-107200536D01*
X29425961Y-107200537D01*
X29425955Y-107200542D01*
X29300542Y-107325955D01*
X29300537Y-107325961D01*
X29300536Y-107325962D01*
X29201994Y-107473439D01*
X29201985Y-107473454D01*
X29201977Y-107473472D01*
X29134109Y-107637322D01*
X29134101Y-107637345D01*
X29134099Y-107637352D01*
X29099500Y-107811299D01*
X25500500Y-107811299D01*
X25500500Y-105378848D01*
X38999499Y-105378848D01*
X39030257Y-105533471D01*
X39030264Y-105533502D01*
X39090598Y-105679165D01*
X39090603Y-105679174D01*
X39090613Y-105679191D01*
X39178211Y-105810290D01*
X39178212Y-105810291D01*
X39178217Y-105810297D01*
X39289701Y-105921781D01*
X39289707Y-105921786D01*
X39289711Y-105921789D01*
X39420814Y-106009390D01*
X39420827Y-106009397D01*
X39566498Y-106069735D01*
X39566503Y-106069737D01*
X39713513Y-106098979D01*
X39716247Y-106099703D01*
X39721155Y-106100500D01*
X39878844Y-106100500D01*
X39882964Y-106100500D01*
X39890814Y-106098118D01*
X40033497Y-106069737D01*
X40179179Y-106009394D01*
X40310289Y-105921789D01*
X40421789Y-105810289D01*
X40509394Y-105679179D01*
X40569737Y-105533497D01*
X40600500Y-105378842D01*
X40600500Y-105221158D01*
X40600500Y-105221155D01*
X40600500Y-105220973D01*
X40600065Y-105218972D01*
X40570397Y-105069824D01*
X40569994Y-105067467D01*
X40569738Y-105066508D01*
X40569737Y-105066506D01*
X40569737Y-105066503D01*
X40569735Y-105066498D01*
X40509397Y-104920827D01*
X40509390Y-104920814D01*
X40421789Y-104789711D01*
X40421786Y-104789707D01*
X40421781Y-104789701D01*
X40310297Y-104678217D01*
X40310291Y-104678212D01*
X40310290Y-104678211D01*
X40179191Y-104590613D01*
X40179190Y-104590612D01*
X40179185Y-104590609D01*
X40179172Y-104590602D01*
X40179165Y-104590598D01*
X40033502Y-104530264D01*
X40033471Y-104530257D01*
X39878847Y-104499500D01*
X39878845Y-104499500D01*
X39878842Y-104499500D01*
X39721158Y-104499500D01*
X39721155Y-104499500D01*
X39721153Y-104499500D01*
X39566527Y-104530257D01*
X39566496Y-104530264D01*
X39420833Y-104590598D01*
X39420824Y-104590603D01*
X39420807Y-104590613D01*
X39289708Y-104678211D01*
X39289707Y-104678212D01*
X39289701Y-104678217D01*
X39178217Y-104789701D01*
X39178212Y-104789707D01*
X39178211Y-104789708D01*
X39090613Y-104920807D01*
X39090603Y-104920824D01*
X39090598Y-104920833D01*
X39030264Y-105066496D01*
X39030257Y-105066527D01*
X38999500Y-105221150D01*
X38999500Y-105221153D01*
X38999500Y-105378846D01*
X38999500Y-105378848D01*
X38999499Y-105378848D01*
X25500500Y-105378848D01*
X25500500Y-95411299D01*
X36799500Y-95411299D01*
X36799500Y-95588699D01*
X36834099Y-95762646D01*
X36834101Y-95762653D01*
X36834109Y-95762676D01*
X36901977Y-95926526D01*
X36901985Y-95926544D01*
X36901994Y-95926559D01*
X37000536Y-96074036D01*
X37000537Y-96074037D01*
X37000542Y-96074043D01*
X37125955Y-96199456D01*
X37125961Y-96199461D01*
X37125965Y-96199464D01*
X37273446Y-96298009D01*
X37273459Y-96298016D01*
X37327808Y-96320527D01*
X37396357Y-96348921D01*
X37396363Y-96348923D01*
X37411499Y-96355192D01*
X37437333Y-96365894D01*
X37437338Y-96365895D01*
X37437341Y-96365896D01*
X37603680Y-96398982D01*
X37606403Y-96399704D01*
X37611306Y-96400500D01*
X37788693Y-96400500D01*
X37792814Y-96400500D01*
X37800667Y-96398117D01*
X37846682Y-96388964D01*
X37846683Y-96388964D01*
X37903883Y-96377586D01*
X37962658Y-96365896D01*
X37962658Y-96365895D01*
X37962662Y-96365895D01*
X37962664Y-96365894D01*
X37962666Y-96365894D01*
X37965854Y-96364573D01*
X37973835Y-96361273D01*
X37973876Y-96361251D01*
X38126540Y-96298016D01*
X38126540Y-96298015D01*
X38126547Y-96298013D01*
X38274035Y-96199464D01*
X38399464Y-96074035D01*
X38498013Y-95926547D01*
X38565894Y-95762666D01*
X38600500Y-95588691D01*
X38600500Y-95411309D01*
X38600500Y-95411306D01*
X38600500Y-95411125D01*
X38600074Y-95409169D01*
X38565896Y-95237341D01*
X38565893Y-95237332D01*
X38498016Y-95073459D01*
X38498009Y-95073446D01*
X38399464Y-94925965D01*
X38399461Y-94925961D01*
X38399456Y-94925955D01*
X38274043Y-94800542D01*
X38274037Y-94800537D01*
X38274036Y-94800536D01*
X38126559Y-94701994D01*
X38126558Y-94701993D01*
X38126553Y-94701990D01*
X38126540Y-94701983D01*
X38126526Y-94701977D01*
X37962676Y-94634109D01*
X37962653Y-94634101D01*
X37962646Y-94634099D01*
X37788698Y-94599500D01*
X37788694Y-94599500D01*
X37788691Y-94599500D01*
X37611309Y-94599500D01*
X37611306Y-94599500D01*
X37611301Y-94599500D01*
X37437352Y-94634100D01*
X37437345Y-94634101D01*
X37437322Y-94634109D01*
X37273472Y-94701977D01*
X37273454Y-94701985D01*
X37273439Y-94701994D01*
X37125962Y-94800536D01*
X37125961Y-94800537D01*
X37125955Y-94800542D01*
X37000542Y-94925955D01*
X37000537Y-94925961D01*
X37000536Y-94925962D01*
X36901994Y-95073439D01*
X36901985Y-95073454D01*
X36901977Y-95073472D01*
X36834109Y-95237322D01*
X36834101Y-95237345D01*
X36834099Y-95237352D01*
X36799500Y-95411299D01*
X25500500Y-95411299D01*
X25500500Y-88911299D01*
X34599500Y-88911299D01*
X34599500Y-89088699D01*
X34634099Y-89262646D01*
X34634101Y-89262653D01*
X34634109Y-89262676D01*
X34701977Y-89426526D01*
X34701985Y-89426544D01*
X34701994Y-89426559D01*
X34800536Y-89574036D01*
X34800537Y-89574037D01*
X34800542Y-89574043D01*
X34925955Y-89699456D01*
X34925961Y-89699461D01*
X34925965Y-89699464D01*
X35073446Y-89798009D01*
X35073459Y-89798016D01*
X35127808Y-89820527D01*
X35196357Y-89848921D01*
X35196363Y-89848923D01*
X35211499Y-89855192D01*
X35237333Y-89865894D01*
X35237338Y-89865895D01*
X35237341Y-89865896D01*
X35403680Y-89898982D01*
X35406403Y-89899704D01*
X35411306Y-89900500D01*
X35588693Y-89900500D01*
X35592814Y-89900500D01*
X35600667Y-89898117D01*
X35646682Y-89888964D01*
X35646683Y-89888964D01*
X35703883Y-89877586D01*
X35762658Y-89865896D01*
X35762658Y-89865895D01*
X35762662Y-89865895D01*
X35762664Y-89865894D01*
X35762666Y-89865894D01*
X35765854Y-89864573D01*
X35773835Y-89861273D01*
X35773876Y-89861251D01*
X35926540Y-89798016D01*
X35926540Y-89798015D01*
X35926547Y-89798013D01*
X36074035Y-89699464D01*
X36199464Y-89574035D01*
X36298013Y-89426547D01*
X36326488Y-89357799D01*
X36344493Y-89327454D01*
X36351589Y-89318648D01*
X36408980Y-89278798D01*
X36478805Y-89276303D01*
X36538895Y-89311954D01*
X36538896Y-89311955D01*
X36544122Y-89317568D01*
X36567929Y-89354611D01*
X36578102Y-89379172D01*
X36578105Y-89379178D01*
X36578110Y-89379186D01*
X36665711Y-89510290D01*
X36665712Y-89510291D01*
X36665717Y-89510297D01*
X36777201Y-89621781D01*
X36777207Y-89621786D01*
X36777211Y-89621789D01*
X36908314Y-89709390D01*
X36908327Y-89709397D01*
X37053998Y-89769735D01*
X37054003Y-89769737D01*
X37196135Y-89798009D01*
X37201020Y-89798980D01*
X37203750Y-89799704D01*
X37208655Y-89800500D01*
X37366344Y-89800500D01*
X37370464Y-89800500D01*
X37378314Y-89798118D01*
X37520997Y-89769737D01*
X37666679Y-89709394D01*
X37797789Y-89621789D01*
X37909289Y-89510289D01*
X37996894Y-89379179D01*
X38057237Y-89233497D01*
X38088000Y-89078842D01*
X38088000Y-88921158D01*
X38088000Y-88921155D01*
X38088000Y-88920973D01*
X38087565Y-88918972D01*
X38057898Y-88769830D01*
X38057483Y-88767403D01*
X38057237Y-88766504D01*
X38035104Y-88713068D01*
X37996902Y-88620840D01*
X37996897Y-88620827D01*
X37996890Y-88620814D01*
X37909289Y-88489711D01*
X37909286Y-88489707D01*
X37909281Y-88489701D01*
X37797797Y-88378217D01*
X37797791Y-88378212D01*
X37797790Y-88378211D01*
X37666691Y-88290613D01*
X37666690Y-88290612D01*
X37666685Y-88290609D01*
X37666672Y-88290602D01*
X37666665Y-88290598D01*
X37521002Y-88230264D01*
X37520971Y-88230257D01*
X37366347Y-88199500D01*
X37366345Y-88199500D01*
X37366342Y-88199500D01*
X37208658Y-88199500D01*
X37208655Y-88199500D01*
X37208653Y-88199500D01*
X37054027Y-88230257D01*
X37053996Y-88230264D01*
X36908333Y-88290598D01*
X36908324Y-88290603D01*
X36908307Y-88290613D01*
X36777208Y-88378211D01*
X36777207Y-88378212D01*
X36777201Y-88378217D01*
X36665717Y-88489701D01*
X36665712Y-88489707D01*
X36665711Y-88489708D01*
X36578106Y-88620818D01*
X36578097Y-88620838D01*
X36569251Y-88642194D01*
X36551244Y-88672544D01*
X36544148Y-88681350D01*
X36486757Y-88721200D01*
X36416932Y-88723695D01*
X36356842Y-88688044D01*
X36356841Y-88688043D01*
X36351615Y-88682430D01*
X36327809Y-88645389D01*
X36298013Y-88573453D01*
X36298009Y-88573446D01*
X36199464Y-88425965D01*
X36199461Y-88425961D01*
X36199456Y-88425955D01*
X36074043Y-88300542D01*
X36074037Y-88300537D01*
X36074036Y-88300536D01*
X35926559Y-88201994D01*
X35926558Y-88201993D01*
X35926553Y-88201990D01*
X35926540Y-88201983D01*
X35926526Y-88201977D01*
X35762676Y-88134109D01*
X35762653Y-88134101D01*
X35762646Y-88134099D01*
X35588698Y-88099500D01*
X35588694Y-88099500D01*
X35588691Y-88099500D01*
X35411309Y-88099500D01*
X35411306Y-88099500D01*
X35411301Y-88099500D01*
X35237352Y-88134100D01*
X35237345Y-88134101D01*
X35237322Y-88134109D01*
X35073472Y-88201977D01*
X35073454Y-88201985D01*
X35073439Y-88201994D01*
X34925962Y-88300536D01*
X34925961Y-88300537D01*
X34925955Y-88300542D01*
X34800542Y-88425955D01*
X34800537Y-88425961D01*
X34800536Y-88425962D01*
X34701994Y-88573439D01*
X34701985Y-88573454D01*
X34701977Y-88573472D01*
X34634109Y-88737322D01*
X34634101Y-88737345D01*
X34634099Y-88737352D01*
X34599500Y-88911299D01*
X25500500Y-88911299D01*
X25500500Y-82213390D01*
X25994500Y-82213390D01*
X25994500Y-82456609D01*
X25994500Y-82456623D01*
X25994501Y-82456627D01*
X25994502Y-82456633D01*
X26026245Y-82697754D01*
X26026246Y-82697759D01*
X26026247Y-82697765D01*
X26026248Y-82697767D01*
X26089199Y-82932707D01*
X26182282Y-83157429D01*
X26255410Y-83284089D01*
X26303901Y-83368077D01*
X26304110Y-83368392D01*
X26305118Y-83369662D01*
X26451959Y-83561031D01*
X26451963Y-83561036D01*
X26451966Y-83561039D01*
X26451972Y-83561046D01*
X26451980Y-83561054D01*
X26623939Y-83733014D01*
X26623955Y-83733029D01*
X26623963Y-83733035D01*
X26816926Y-83881101D01*
X26816928Y-83881102D01*
X26952309Y-83959264D01*
X27024138Y-84000735D01*
X27025877Y-84001816D01*
X27027329Y-84002622D01*
X27028106Y-84002939D01*
X27252289Y-84095799D01*
X27487233Y-84158752D01*
X27728384Y-84190500D01*
X27728391Y-84190500D01*
X27971609Y-84190500D01*
X27971616Y-84190500D01*
X28212767Y-84158752D01*
X28447711Y-84095799D01*
X28672427Y-84002718D01*
X28883072Y-83881102D01*
X29076041Y-83733032D01*
X29248032Y-83561041D01*
X29396102Y-83368072D01*
X29517718Y-83157427D01*
X29610799Y-82932711D01*
X29673752Y-82697767D01*
X29705500Y-82456616D01*
X29705500Y-82213390D01*
X33294500Y-82213390D01*
X33294500Y-82456609D01*
X33294500Y-82456623D01*
X33294501Y-82456627D01*
X33294502Y-82456633D01*
X33326245Y-82697754D01*
X33326246Y-82697759D01*
X33326247Y-82697765D01*
X33326248Y-82697767D01*
X33389199Y-82932707D01*
X33482282Y-83157429D01*
X33555410Y-83284089D01*
X33603901Y-83368077D01*
X33604110Y-83368392D01*
X33605118Y-83369662D01*
X33751959Y-83561031D01*
X33751963Y-83561036D01*
X33751966Y-83561039D01*
X33751972Y-83561046D01*
X33751980Y-83561054D01*
X33923939Y-83733014D01*
X33923955Y-83733029D01*
X33923963Y-83733035D01*
X34116926Y-83881101D01*
X34116928Y-83881102D01*
X34252309Y-83959264D01*
X34324138Y-84000735D01*
X34325877Y-84001816D01*
X34327329Y-84002622D01*
X34328106Y-84002939D01*
X34552289Y-84095799D01*
X34787233Y-84158752D01*
X35028384Y-84190500D01*
X35028391Y-84190500D01*
X35271609Y-84190500D01*
X35271616Y-84190500D01*
X35512767Y-84158752D01*
X35747711Y-84095799D01*
X35972427Y-84002718D01*
X36183072Y-83881102D01*
X36376041Y-83733032D01*
X36548032Y-83561041D01*
X36696102Y-83368072D01*
X36817718Y-83157427D01*
X36910799Y-82932711D01*
X36973752Y-82697767D01*
X37005500Y-82456616D01*
X37005500Y-82213384D01*
X36973752Y-81972233D01*
X36910799Y-81737289D01*
X36817940Y-81513110D01*
X36817623Y-81512331D01*
X36816808Y-81510863D01*
X36815728Y-81509125D01*
X36738348Y-81375100D01*
X36738347Y-81375099D01*
X36696102Y-81301928D01*
X36548032Y-81108959D01*
X36548027Y-81108953D01*
X36548026Y-81108952D01*
X36548014Y-81108939D01*
X36376054Y-80936980D01*
X36376046Y-80936972D01*
X36376039Y-80936966D01*
X36376036Y-80936963D01*
X36376031Y-80936959D01*
X36184662Y-80790118D01*
X36183392Y-80789110D01*
X36183077Y-80788901D01*
X36099089Y-80740410D01*
X35972429Y-80667282D01*
X35747707Y-80574199D01*
X35630237Y-80542723D01*
X35512765Y-80511247D01*
X35512759Y-80511246D01*
X35512754Y-80511245D01*
X35275716Y-80480039D01*
X35273700Y-80479705D01*
X35271626Y-80479500D01*
X35271621Y-80479500D01*
X35271616Y-80479500D01*
X35028384Y-80479500D01*
X35028378Y-80479500D01*
X35028373Y-80479500D01*
X35026296Y-80479705D01*
X35024282Y-80480039D01*
X34787244Y-80511245D01*
X34787237Y-80511246D01*
X34787234Y-80511247D01*
X34737582Y-80524551D01*
X34552291Y-80574199D01*
X34327572Y-80667281D01*
X34327564Y-80667285D01*
X34116923Y-80788901D01*
X34116914Y-80788907D01*
X33923967Y-80936959D01*
X33923952Y-80936973D01*
X33923944Y-80936980D01*
X33751980Y-81108944D01*
X33751973Y-81108952D01*
X33751959Y-81108967D01*
X33603907Y-81301914D01*
X33603901Y-81301923D01*
X33482285Y-81512564D01*
X33482281Y-81512572D01*
X33389199Y-81737291D01*
X33339551Y-81922582D01*
X33326248Y-81972233D01*
X33326245Y-81972244D01*
X33314142Y-82064179D01*
X33294501Y-82213373D01*
X33294500Y-82213390D01*
X29705500Y-82213390D01*
X29705500Y-82213384D01*
X29673752Y-81972233D01*
X29610799Y-81737289D01*
X29517940Y-81513110D01*
X29517623Y-81512331D01*
X29516808Y-81510863D01*
X29515728Y-81509125D01*
X29438348Y-81375100D01*
X29438347Y-81375099D01*
X29396102Y-81301928D01*
X29248032Y-81108959D01*
X29248027Y-81108953D01*
X29248026Y-81108952D01*
X29248014Y-81108939D01*
X29076054Y-80936980D01*
X29076046Y-80936972D01*
X29076039Y-80936966D01*
X29076036Y-80936963D01*
X29076031Y-80936959D01*
X28884662Y-80790118D01*
X28883392Y-80789110D01*
X28883077Y-80788901D01*
X28799089Y-80740410D01*
X28672429Y-80667282D01*
X28447707Y-80574199D01*
X28330237Y-80542723D01*
X28212765Y-80511247D01*
X28212759Y-80511246D01*
X28212754Y-80511245D01*
X27975716Y-80480039D01*
X27973700Y-80479705D01*
X27971626Y-80479500D01*
X27971621Y-80479500D01*
X27971616Y-80479500D01*
X27728384Y-80479500D01*
X27728378Y-80479500D01*
X27728373Y-80479500D01*
X27726296Y-80479705D01*
X27724282Y-80480039D01*
X27487244Y-80511245D01*
X27487237Y-80511246D01*
X27487234Y-80511247D01*
X27437582Y-80524551D01*
X27252291Y-80574199D01*
X27027572Y-80667281D01*
X27027564Y-80667285D01*
X26816923Y-80788901D01*
X26816914Y-80788907D01*
X26623967Y-80936959D01*
X26623952Y-80936973D01*
X26623944Y-80936980D01*
X26451980Y-81108944D01*
X26451973Y-81108952D01*
X26451959Y-81108967D01*
X26303907Y-81301914D01*
X26303901Y-81301923D01*
X26182285Y-81512564D01*
X26182281Y-81512572D01*
X26089199Y-81737291D01*
X26039551Y-81922582D01*
X26026248Y-81972233D01*
X26026245Y-81972244D01*
X26014142Y-82064179D01*
X25994501Y-82213373D01*
X25994500Y-82213390D01*
X25500500Y-82213390D01*
X25500500Y-75642329D01*
X25505523Y-75607393D01*
X25509927Y-75592395D01*
X25547672Y-75533644D01*
X25549041Y-75532457D01*
X25603920Y-75504977D01*
X25611479Y-75503333D01*
X25637832Y-75500500D01*
X42287902Y-75500500D01*
X42354941Y-75520185D01*
G37*
%TD.AperFunction*%
%TD*%
%TA.AperFunction,Conductor*%
%TO.N,+12V*%
G36*
X68554004Y-83919685D02*
G01*
X68599759Y-83972489D01*
X68601526Y-83976547D01*
X68660604Y-84119176D01*
X68660609Y-84119185D01*
X68748210Y-84250288D01*
X68748213Y-84250292D01*
X68859707Y-84361786D01*
X68859711Y-84361789D01*
X68990814Y-84449390D01*
X68990827Y-84449397D01*
X69136498Y-84509735D01*
X69136503Y-84509737D01*
X69291153Y-84540499D01*
X69291156Y-84540500D01*
X69291158Y-84540500D01*
X69448844Y-84540500D01*
X69448845Y-84540499D01*
X69603497Y-84509737D01*
X69716166Y-84463067D01*
X69749172Y-84449397D01*
X69749172Y-84449396D01*
X69749179Y-84449394D01*
X69880289Y-84361789D01*
X69912319Y-84329758D01*
X69973638Y-84296275D01*
X70043329Y-84301257D01*
X70087680Y-84329759D01*
X70129707Y-84371786D01*
X70129711Y-84371789D01*
X70260814Y-84459390D01*
X70260827Y-84459397D01*
X70382363Y-84509738D01*
X70406503Y-84519737D01*
X70561153Y-84550499D01*
X70561156Y-84550500D01*
X70561158Y-84550500D01*
X70718844Y-84550500D01*
X70718845Y-84550499D01*
X70873497Y-84519737D01*
X71019179Y-84459394D01*
X71150289Y-84371789D01*
X71261789Y-84260289D01*
X71349394Y-84129179D01*
X71392960Y-84024000D01*
X71412068Y-83977870D01*
X71414383Y-83978829D01*
X71446665Y-83929567D01*
X71510477Y-83901110D01*
X71527030Y-83900000D01*
X72278961Y-83900000D01*
X72346000Y-83919685D01*
X72391755Y-83972489D01*
X72400578Y-83999809D01*
X72410261Y-84048489D01*
X72410264Y-84048501D01*
X72470602Y-84194172D01*
X72470609Y-84194185D01*
X72558210Y-84325288D01*
X72558213Y-84325292D01*
X72669707Y-84436786D01*
X72669711Y-84436789D01*
X72800814Y-84524390D01*
X72800827Y-84524397D01*
X72946498Y-84584735D01*
X72946503Y-84584737D01*
X73101153Y-84615499D01*
X73101156Y-84615500D01*
X73101158Y-84615500D01*
X73258844Y-84615500D01*
X73258845Y-84615499D01*
X73413497Y-84584737D01*
X73559179Y-84524394D01*
X73690289Y-84436789D01*
X73801789Y-84325289D01*
X73889394Y-84194179D01*
X73949737Y-84048497D01*
X73959422Y-83999809D01*
X73991806Y-83937898D01*
X74052522Y-83903324D01*
X74081039Y-83900000D01*
X83625500Y-83900000D01*
X83692539Y-83919685D01*
X83738294Y-83972489D01*
X83749500Y-84024000D01*
X83749500Y-121875500D01*
X83729815Y-121942539D01*
X83677011Y-121988294D01*
X83625500Y-121999500D01*
X68024000Y-121999500D01*
X67956961Y-121979815D01*
X67911206Y-121927011D01*
X67900000Y-121875500D01*
X67900000Y-113451153D01*
X71229500Y-113451153D01*
X71229500Y-113608846D01*
X71260261Y-113763489D01*
X71260264Y-113763501D01*
X71320602Y-113909172D01*
X71320609Y-113909185D01*
X71408210Y-114040288D01*
X71408213Y-114040292D01*
X71519707Y-114151786D01*
X71519711Y-114151789D01*
X71650814Y-114239390D01*
X71650827Y-114239397D01*
X71796498Y-114299735D01*
X71796503Y-114299737D01*
X71951153Y-114330499D01*
X71951156Y-114330500D01*
X71951158Y-114330500D01*
X72108844Y-114330500D01*
X72108845Y-114330499D01*
X72263497Y-114299737D01*
X72409179Y-114239394D01*
X72540289Y-114151789D01*
X72651789Y-114040289D01*
X72739394Y-113909179D01*
X72799737Y-113763497D01*
X72830500Y-113608842D01*
X72830500Y-113451158D01*
X72830500Y-113451155D01*
X72830499Y-113451153D01*
X72799737Y-113296503D01*
X72773641Y-113233501D01*
X72739397Y-113150827D01*
X72739390Y-113150814D01*
X72651789Y-113019711D01*
X72651786Y-113019707D01*
X72553232Y-112921153D01*
X73699500Y-112921153D01*
X73699500Y-113078846D01*
X73730261Y-113233489D01*
X73730264Y-113233501D01*
X73790602Y-113379172D01*
X73790609Y-113379185D01*
X73878210Y-113510288D01*
X73878213Y-113510292D01*
X73989707Y-113621786D01*
X73989711Y-113621789D01*
X74120814Y-113709390D01*
X74120827Y-113709397D01*
X74251419Y-113763489D01*
X74266503Y-113769737D01*
X74421153Y-113800499D01*
X74421156Y-113800500D01*
X74421158Y-113800500D01*
X74578844Y-113800500D01*
X74578845Y-113800499D01*
X74733497Y-113769737D01*
X74879179Y-113709394D01*
X75010289Y-113621789D01*
X75121789Y-113510289D01*
X75209394Y-113379179D01*
X75269737Y-113233497D01*
X75300500Y-113078842D01*
X75300500Y-112921158D01*
X75300500Y-112921155D01*
X75300499Y-112921153D01*
X75269738Y-112766510D01*
X75269737Y-112766503D01*
X75267152Y-112760263D01*
X75209397Y-112620827D01*
X75209390Y-112620814D01*
X75121789Y-112489711D01*
X75121786Y-112489707D01*
X75010292Y-112378213D01*
X75010288Y-112378210D01*
X74879185Y-112290609D01*
X74879172Y-112290602D01*
X74733501Y-112230264D01*
X74733489Y-112230261D01*
X74578845Y-112199500D01*
X74578842Y-112199500D01*
X74421158Y-112199500D01*
X74421155Y-112199500D01*
X74266510Y-112230261D01*
X74266498Y-112230264D01*
X74120827Y-112290602D01*
X74120814Y-112290609D01*
X73989711Y-112378210D01*
X73989707Y-112378213D01*
X73878213Y-112489707D01*
X73878210Y-112489711D01*
X73790609Y-112620814D01*
X73790602Y-112620827D01*
X73730264Y-112766498D01*
X73730261Y-112766510D01*
X73699500Y-112921153D01*
X72553232Y-112921153D01*
X72540292Y-112908213D01*
X72540288Y-112908210D01*
X72409185Y-112820609D01*
X72409172Y-112820602D01*
X72263501Y-112760264D01*
X72263489Y-112760261D01*
X72108845Y-112729500D01*
X72108842Y-112729500D01*
X71951158Y-112729500D01*
X71951155Y-112729500D01*
X71796510Y-112760261D01*
X71796498Y-112760264D01*
X71650827Y-112820602D01*
X71650814Y-112820609D01*
X71519711Y-112908210D01*
X71519707Y-112908213D01*
X71408213Y-113019707D01*
X71408210Y-113019711D01*
X71320609Y-113150814D01*
X71320602Y-113150827D01*
X71260264Y-113296498D01*
X71260261Y-113296510D01*
X71229500Y-113451153D01*
X67900000Y-113451153D01*
X67900000Y-111598055D01*
X67919685Y-111531016D01*
X67972489Y-111485261D01*
X67999803Y-111476439D01*
X68033497Y-111469737D01*
X68179179Y-111409394D01*
X68310289Y-111321789D01*
X68421789Y-111210289D01*
X68509394Y-111079179D01*
X68569737Y-110933497D01*
X68600500Y-110778842D01*
X68600500Y-110621158D01*
X68600500Y-110621155D01*
X68600499Y-110621153D01*
X68569738Y-110466510D01*
X68569737Y-110466503D01*
X68569735Y-110466498D01*
X68509397Y-110320827D01*
X68509390Y-110320814D01*
X68421789Y-110189711D01*
X68421786Y-110189707D01*
X68310292Y-110078213D01*
X68310288Y-110078210D01*
X68179185Y-109990609D01*
X68179172Y-109990602D01*
X68033501Y-109930264D01*
X68033492Y-109930261D01*
X67999807Y-109923561D01*
X67937897Y-109891175D01*
X67903323Y-109830459D01*
X67900000Y-109801944D01*
X67900000Y-106944927D01*
X67919685Y-106877888D01*
X67972489Y-106832133D01*
X68041647Y-106822189D01*
X68071450Y-106830365D01*
X68166503Y-106869737D01*
X68321153Y-106900499D01*
X68321156Y-106900500D01*
X68321158Y-106900500D01*
X68478844Y-106900500D01*
X68478845Y-106900499D01*
X68633497Y-106869737D01*
X68779179Y-106809394D01*
X68910289Y-106721789D01*
X69021789Y-106610289D01*
X69109394Y-106479179D01*
X69169737Y-106333497D01*
X69200500Y-106178842D01*
X69200500Y-106021158D01*
X69200500Y-106021155D01*
X69200499Y-106021153D01*
X69169738Y-105866510D01*
X69169737Y-105866503D01*
X69169735Y-105866498D01*
X69109397Y-105720827D01*
X69109390Y-105720814D01*
X69021789Y-105589711D01*
X69021786Y-105589707D01*
X68910292Y-105478213D01*
X68910288Y-105478210D01*
X68779185Y-105390609D01*
X68779172Y-105390602D01*
X68633501Y-105330264D01*
X68633489Y-105330261D01*
X68478845Y-105299500D01*
X68478842Y-105299500D01*
X68321158Y-105299500D01*
X68321155Y-105299500D01*
X68166510Y-105330261D01*
X68166507Y-105330262D01*
X68166506Y-105330262D01*
X68166503Y-105330263D01*
X68085410Y-105363852D01*
X68071452Y-105369634D01*
X68001982Y-105377102D01*
X67939503Y-105345826D01*
X67903851Y-105285737D01*
X67900000Y-105255072D01*
X67900000Y-93421153D01*
X73699500Y-93421153D01*
X73699500Y-93578846D01*
X73730261Y-93733489D01*
X73730264Y-93733501D01*
X73790602Y-93879172D01*
X73790609Y-93879185D01*
X73878210Y-94010288D01*
X73878213Y-94010292D01*
X73989707Y-94121786D01*
X73989711Y-94121789D01*
X74120814Y-94209390D01*
X74120827Y-94209397D01*
X74266498Y-94269735D01*
X74266503Y-94269737D01*
X74421153Y-94300499D01*
X74421156Y-94300500D01*
X74421158Y-94300500D01*
X74578844Y-94300500D01*
X74578845Y-94300499D01*
X74733497Y-94269737D01*
X74879179Y-94209394D01*
X75010289Y-94121789D01*
X75121789Y-94010289D01*
X75209394Y-93879179D01*
X75269737Y-93733497D01*
X75300500Y-93578842D01*
X75300500Y-93421158D01*
X75300500Y-93421155D01*
X75300499Y-93421153D01*
X75269738Y-93266510D01*
X75269737Y-93266503D01*
X75269735Y-93266498D01*
X75209397Y-93120827D01*
X75209390Y-93120814D01*
X75121789Y-92989711D01*
X75121786Y-92989707D01*
X75010292Y-92878213D01*
X75010288Y-92878210D01*
X74879185Y-92790609D01*
X74879172Y-92790602D01*
X74733501Y-92730264D01*
X74733489Y-92730261D01*
X74578845Y-92699500D01*
X74578842Y-92699500D01*
X74421158Y-92699500D01*
X74421155Y-92699500D01*
X74266510Y-92730261D01*
X74266498Y-92730264D01*
X74120827Y-92790602D01*
X74120814Y-92790609D01*
X73989711Y-92878210D01*
X73989707Y-92878213D01*
X73878213Y-92989707D01*
X73878210Y-92989711D01*
X73790609Y-93120814D01*
X73790602Y-93120827D01*
X73730264Y-93266498D01*
X73730261Y-93266510D01*
X73699500Y-93421153D01*
X67900000Y-93421153D01*
X67900000Y-90921153D01*
X73499500Y-90921153D01*
X73499500Y-91078846D01*
X73530261Y-91233489D01*
X73530264Y-91233501D01*
X73590602Y-91379172D01*
X73590609Y-91379185D01*
X73678210Y-91510288D01*
X73678213Y-91510292D01*
X73789707Y-91621786D01*
X73789711Y-91621789D01*
X73920814Y-91709390D01*
X73920827Y-91709397D01*
X74066498Y-91769735D01*
X74066503Y-91769737D01*
X74221153Y-91800499D01*
X74221156Y-91800500D01*
X74221158Y-91800500D01*
X74378844Y-91800500D01*
X74378845Y-91800499D01*
X74533497Y-91769737D01*
X74679179Y-91709394D01*
X74810289Y-91621789D01*
X74921789Y-91510289D01*
X75009394Y-91379179D01*
X75069737Y-91233497D01*
X75100500Y-91078842D01*
X75100500Y-90921158D01*
X75100500Y-90921155D01*
X75100499Y-90921153D01*
X75069738Y-90766510D01*
X75069737Y-90766503D01*
X75069735Y-90766498D01*
X75009397Y-90620827D01*
X75009390Y-90620814D01*
X74921789Y-90489711D01*
X74921786Y-90489707D01*
X74810292Y-90378213D01*
X74810288Y-90378210D01*
X74679185Y-90290609D01*
X74679172Y-90290602D01*
X74533501Y-90230264D01*
X74533489Y-90230261D01*
X74378845Y-90199500D01*
X74378842Y-90199500D01*
X74221158Y-90199500D01*
X74221155Y-90199500D01*
X74066510Y-90230261D01*
X74066498Y-90230264D01*
X73920827Y-90290602D01*
X73920814Y-90290609D01*
X73789711Y-90378210D01*
X73789707Y-90378213D01*
X73678213Y-90489707D01*
X73678210Y-90489711D01*
X73590609Y-90620814D01*
X73590602Y-90620827D01*
X73530264Y-90766498D01*
X73530261Y-90766510D01*
X73499500Y-90921153D01*
X67900000Y-90921153D01*
X67900000Y-84024000D01*
X67919685Y-83956961D01*
X67972489Y-83911206D01*
X68024000Y-83900000D01*
X68486965Y-83900000D01*
X68554004Y-83919685D01*
G37*
%TD.AperFunction*%
%TD*%
%TA.AperFunction,Conductor*%
%TO.N,+3V3*%
G36*
X49714907Y-75505521D02*
G01*
X49723539Y-75508055D01*
X49782320Y-75545825D01*
X49811349Y-75609379D01*
X49801410Y-75678538D01*
X49761143Y-75727609D01*
X49756990Y-75730604D01*
X49731911Y-75744590D01*
X49620840Y-75790596D01*
X49620822Y-75790604D01*
X49620807Y-75790613D01*
X49489708Y-75878211D01*
X49489707Y-75878212D01*
X49489701Y-75878217D01*
X49378217Y-75989701D01*
X49378212Y-75989707D01*
X49378211Y-75989708D01*
X49290613Y-76120807D01*
X49290603Y-76120824D01*
X49290598Y-76120833D01*
X49230264Y-76266496D01*
X49230257Y-76266527D01*
X49199500Y-76421150D01*
X49199500Y-76421153D01*
X49199500Y-76578846D01*
X49199500Y-76578848D01*
X49199499Y-76578848D01*
X49230257Y-76733471D01*
X49230264Y-76733502D01*
X49290598Y-76879165D01*
X49290603Y-76879174D01*
X49290613Y-76879191D01*
X49378211Y-77010290D01*
X49378212Y-77010291D01*
X49378217Y-77010297D01*
X49489701Y-77121781D01*
X49489707Y-77121786D01*
X49489711Y-77121789D01*
X49620814Y-77209390D01*
X49620827Y-77209397D01*
X49766498Y-77269735D01*
X49766503Y-77269737D01*
X49913513Y-77298979D01*
X49916247Y-77299703D01*
X49921155Y-77300500D01*
X50078844Y-77300500D01*
X50082964Y-77300500D01*
X50090814Y-77298118D01*
X50233497Y-77269737D01*
X50379179Y-77209394D01*
X50510289Y-77121789D01*
X50621789Y-77010289D01*
X50709394Y-76879179D01*
X50769737Y-76733497D01*
X50800500Y-76578842D01*
X50800500Y-76421158D01*
X50800500Y-76421155D01*
X50800500Y-76420972D01*
X50800066Y-76418976D01*
X50793512Y-76386027D01*
X50781543Y-76325856D01*
X50769737Y-76266503D01*
X50769735Y-76266498D01*
X50709397Y-76120827D01*
X50709390Y-76120814D01*
X50621789Y-75989711D01*
X50621786Y-75989707D01*
X50621781Y-75989701D01*
X50510297Y-75878217D01*
X50510291Y-75878212D01*
X50510290Y-75878211D01*
X50379191Y-75790613D01*
X50379190Y-75790612D01*
X50379185Y-75790609D01*
X50379172Y-75790602D01*
X50271206Y-75745882D01*
X50240856Y-75727874D01*
X50233851Y-75722229D01*
X50194003Y-75664837D01*
X50191509Y-75595012D01*
X50227161Y-75534923D01*
X50283151Y-75504999D01*
X50288138Y-75503821D01*
X50316644Y-75500500D01*
X64079980Y-75500500D01*
X64114907Y-75505521D01*
X64123539Y-75508055D01*
X64182320Y-75545825D01*
X64211349Y-75609379D01*
X64201410Y-75678538D01*
X64161143Y-75727609D01*
X64156990Y-75730604D01*
X64131911Y-75744590D01*
X64020840Y-75790596D01*
X64020822Y-75790604D01*
X64020807Y-75790613D01*
X63889708Y-75878211D01*
X63889707Y-75878212D01*
X63889701Y-75878217D01*
X63778217Y-75989701D01*
X63778212Y-75989707D01*
X63778211Y-75989708D01*
X63690613Y-76120807D01*
X63690603Y-76120824D01*
X63690598Y-76120833D01*
X63630264Y-76266496D01*
X63630257Y-76266527D01*
X63599500Y-76421150D01*
X63599500Y-76421153D01*
X63599500Y-76578846D01*
X63599500Y-76578848D01*
X63599499Y-76578848D01*
X63630257Y-76733471D01*
X63630264Y-76733502D01*
X63690598Y-76879165D01*
X63690603Y-76879174D01*
X63690613Y-76879191D01*
X63778211Y-77010290D01*
X63778212Y-77010291D01*
X63778217Y-77010297D01*
X63889701Y-77121781D01*
X63889707Y-77121786D01*
X63889711Y-77121789D01*
X64020814Y-77209390D01*
X64020827Y-77209397D01*
X64166498Y-77269735D01*
X64166503Y-77269737D01*
X64313513Y-77298979D01*
X64316247Y-77299703D01*
X64321155Y-77300500D01*
X64478844Y-77300500D01*
X64482964Y-77300500D01*
X64490814Y-77298118D01*
X64633497Y-77269737D01*
X64779179Y-77209394D01*
X64910289Y-77121789D01*
X65021789Y-77010289D01*
X65109394Y-76879179D01*
X65169737Y-76733497D01*
X65200500Y-76578842D01*
X65200500Y-76421158D01*
X65200500Y-76421155D01*
X65200500Y-76420972D01*
X65200066Y-76418976D01*
X65193512Y-76386027D01*
X65181543Y-76325856D01*
X65169737Y-76266503D01*
X65169735Y-76266498D01*
X65109397Y-76120827D01*
X65109390Y-76120814D01*
X65021789Y-75989711D01*
X65021786Y-75989707D01*
X65021781Y-75989701D01*
X64910297Y-75878217D01*
X64910291Y-75878212D01*
X64910290Y-75878211D01*
X64779191Y-75790613D01*
X64779190Y-75790612D01*
X64779185Y-75790609D01*
X64779172Y-75790602D01*
X64671206Y-75745882D01*
X64640856Y-75727874D01*
X64633851Y-75722229D01*
X64594003Y-75664837D01*
X64591509Y-75595012D01*
X64627161Y-75534923D01*
X64683151Y-75504999D01*
X64688138Y-75503821D01*
X64716644Y-75500500D01*
X83607670Y-75500500D01*
X83642606Y-75505523D01*
X83657604Y-75509927D01*
X83716355Y-75547672D01*
X83717542Y-75549041D01*
X83745018Y-75603902D01*
X83746663Y-75611460D01*
X83749500Y-75637831D01*
X83749500Y-83270500D01*
X83729815Y-83337539D01*
X83677011Y-83383294D01*
X83625500Y-83394500D01*
X74081026Y-83394500D01*
X74022527Y-83397897D01*
X74022508Y-83397899D01*
X73994024Y-83401219D01*
X73993973Y-83401226D01*
X73959346Y-83407314D01*
X73889911Y-83399534D01*
X73835705Y-83355449D01*
X73834823Y-83354149D01*
X73801789Y-83304711D01*
X73801786Y-83304707D01*
X73801783Y-83304704D01*
X73801781Y-83304701D01*
X73690297Y-83193217D01*
X73690291Y-83193212D01*
X73690290Y-83193211D01*
X73559191Y-83105613D01*
X73559190Y-83105612D01*
X73559185Y-83105609D01*
X73559172Y-83105602D01*
X73559165Y-83105598D01*
X73413502Y-83045264D01*
X73413471Y-83045257D01*
X73258847Y-83014500D01*
X73258845Y-83014500D01*
X73258842Y-83014500D01*
X73101158Y-83014500D01*
X73101155Y-83014500D01*
X73101153Y-83014500D01*
X72946527Y-83045257D01*
X72946496Y-83045264D01*
X72800833Y-83105598D01*
X72800824Y-83105603D01*
X72800807Y-83105613D01*
X72669708Y-83193211D01*
X72669707Y-83193212D01*
X72669701Y-83193217D01*
X72558217Y-83304701D01*
X72558213Y-83304706D01*
X72522405Y-83358295D01*
X72468792Y-83403099D01*
X72401658Y-83412140D01*
X72278962Y-83394500D01*
X72278961Y-83394500D01*
X71527030Y-83394500D01*
X71527015Y-83394500D01*
X71493222Y-83395632D01*
X71476666Y-83396742D01*
X71476658Y-83396742D01*
X71476655Y-83396743D01*
X71467902Y-83397624D01*
X71447783Y-83399652D01*
X71379108Y-83386785D01*
X71332253Y-83345167D01*
X71309424Y-83311002D01*
X71261789Y-83239711D01*
X71261786Y-83239707D01*
X71261781Y-83239701D01*
X71150297Y-83128217D01*
X71150291Y-83128212D01*
X71150290Y-83128211D01*
X71019191Y-83040613D01*
X71019190Y-83040612D01*
X71019185Y-83040609D01*
X71019172Y-83040602D01*
X71019165Y-83040598D01*
X70873502Y-82980264D01*
X70873471Y-82980257D01*
X70718847Y-82949500D01*
X70718845Y-82949500D01*
X70718842Y-82949500D01*
X70561158Y-82949500D01*
X70561155Y-82949500D01*
X70561153Y-82949500D01*
X70406527Y-82980257D01*
X70406496Y-82980264D01*
X70260833Y-83040598D01*
X70260824Y-83040603D01*
X70260807Y-83040613D01*
X70129714Y-83128207D01*
X70129699Y-83128219D01*
X70110284Y-83147634D01*
X70082034Y-83168782D01*
X70068314Y-83176274D01*
X70000050Y-83191128D01*
X69998244Y-83190999D01*
X69940039Y-83171628D01*
X69933526Y-83167442D01*
X69912890Y-83150812D01*
X69880296Y-83118217D01*
X69880295Y-83118216D01*
X69880292Y-83118213D01*
X69880288Y-83118210D01*
X69749185Y-83030609D01*
X69749172Y-83030602D01*
X69749165Y-83030598D01*
X69603502Y-82970264D01*
X69603471Y-82970257D01*
X69448847Y-82939500D01*
X69448845Y-82939500D01*
X69448842Y-82939500D01*
X69291158Y-82939500D01*
X69291155Y-82939500D01*
X69291153Y-82939500D01*
X69136527Y-82970257D01*
X69136496Y-82970264D01*
X68990833Y-83030598D01*
X68990824Y-83030603D01*
X68990807Y-83030613D01*
X68859708Y-83118211D01*
X68859707Y-83118212D01*
X68859701Y-83118217D01*
X68748217Y-83229701D01*
X68748212Y-83229707D01*
X68748211Y-83229708D01*
X68668263Y-83349358D01*
X68614650Y-83394163D01*
X68547516Y-83403205D01*
X68486968Y-83394500D01*
X68486965Y-83394500D01*
X68024000Y-83394500D01*
X68023991Y-83394500D01*
X68023990Y-83394501D01*
X67916549Y-83406052D01*
X67916537Y-83406054D01*
X67865027Y-83417260D01*
X67762502Y-83451383D01*
X67762496Y-83451386D01*
X67641462Y-83529171D01*
X67641451Y-83529179D01*
X67588659Y-83574923D01*
X67494433Y-83683664D01*
X67494430Y-83683668D01*
X67434664Y-83814534D01*
X67414976Y-83881582D01*
X67394500Y-84024001D01*
X67394500Y-101002891D01*
X67374815Y-101069930D01*
X67322011Y-101115685D01*
X67252853Y-101125629D01*
X67189297Y-101096604D01*
X67155939Y-101050343D01*
X67133665Y-100996568D01*
X67133660Y-100996559D01*
X67133655Y-100996549D01*
X67046054Y-100865446D01*
X67046051Y-100865442D01*
X67046046Y-100865436D01*
X66934562Y-100753952D01*
X66934556Y-100753947D01*
X66934555Y-100753946D01*
X66803456Y-100666348D01*
X66803455Y-100666347D01*
X66803450Y-100666344D01*
X66803437Y-100666337D01*
X66803430Y-100666333D01*
X66657767Y-100605999D01*
X66657736Y-100605992D01*
X66503112Y-100575235D01*
X66503110Y-100575235D01*
X66503107Y-100575235D01*
X66345423Y-100575235D01*
X66345420Y-100575235D01*
X66345418Y-100575235D01*
X66190792Y-100605992D01*
X66190761Y-100605999D01*
X66045098Y-100666333D01*
X66045089Y-100666338D01*
X66045072Y-100666348D01*
X65913973Y-100753946D01*
X65913972Y-100753947D01*
X65913966Y-100753952D01*
X65802482Y-100865436D01*
X65802477Y-100865442D01*
X65802476Y-100865443D01*
X65714878Y-100996542D01*
X65714868Y-100996559D01*
X65714863Y-100996568D01*
X65654529Y-101142231D01*
X65654529Y-101142232D01*
X65654529Y-101142233D01*
X65654526Y-101142245D01*
X65649696Y-101166527D01*
X65623765Y-101296885D01*
X65623765Y-101296888D01*
X65623765Y-101454581D01*
X65623765Y-101454583D01*
X65623764Y-101454583D01*
X65654522Y-101609206D01*
X65654529Y-101609237D01*
X65714863Y-101754900D01*
X65714868Y-101754909D01*
X65714878Y-101754926D01*
X65802476Y-101886025D01*
X65802477Y-101886026D01*
X65802482Y-101886032D01*
X65913966Y-101997516D01*
X65913972Y-101997521D01*
X65913976Y-101997524D01*
X66045079Y-102085125D01*
X66045092Y-102085132D01*
X66190763Y-102145470D01*
X66190768Y-102145472D01*
X66312746Y-102169735D01*
X66337793Y-102174717D01*
X66340517Y-102175439D01*
X66345420Y-102176235D01*
X66503109Y-102176235D01*
X66507229Y-102176235D01*
X66515079Y-102173853D01*
X66657762Y-102145472D01*
X66803444Y-102085129D01*
X66934554Y-101997524D01*
X67046054Y-101886024D01*
X67133659Y-101754914D01*
X67133665Y-101754900D01*
X67155939Y-101701126D01*
X67199780Y-101646722D01*
X67266074Y-101624657D01*
X67333773Y-101641936D01*
X67381384Y-101693073D01*
X67394500Y-101748578D01*
X67394500Y-102985738D01*
X67374815Y-103052777D01*
X67322011Y-103098532D01*
X67252853Y-103108476D01*
X67189297Y-103079451D01*
X67155939Y-103033190D01*
X67109400Y-102920833D01*
X67109395Y-102920824D01*
X67109390Y-102920814D01*
X67021789Y-102789711D01*
X67021786Y-102789707D01*
X67021781Y-102789701D01*
X66910297Y-102678217D01*
X66910291Y-102678212D01*
X66910290Y-102678211D01*
X66779191Y-102590613D01*
X66779186Y-102590610D01*
X66779185Y-102590609D01*
X66779172Y-102590602D01*
X66779165Y-102590598D01*
X66633502Y-102530264D01*
X66633471Y-102530257D01*
X66478847Y-102499500D01*
X66478845Y-102499500D01*
X66478842Y-102499500D01*
X66321158Y-102499500D01*
X66321155Y-102499500D01*
X66321153Y-102499500D01*
X66166527Y-102530257D01*
X66166496Y-102530264D01*
X66020833Y-102590598D01*
X66020824Y-102590603D01*
X66020812Y-102590610D01*
X65933713Y-102648808D01*
X65901873Y-102664041D01*
X65886954Y-102668712D01*
X65817103Y-102669959D01*
X65803975Y-102666358D01*
X65767885Y-102649877D01*
X65679191Y-102590613D01*
X65679186Y-102590610D01*
X65679185Y-102590609D01*
X65679172Y-102590602D01*
X65679165Y-102590598D01*
X65533502Y-102530264D01*
X65533471Y-102530257D01*
X65378847Y-102499500D01*
X65378845Y-102499500D01*
X65378842Y-102499500D01*
X65221158Y-102499500D01*
X65221155Y-102499500D01*
X65221153Y-102499500D01*
X65066527Y-102530257D01*
X65066496Y-102530264D01*
X64920833Y-102590598D01*
X64920824Y-102590603D01*
X64920807Y-102590613D01*
X64789708Y-102678211D01*
X64789707Y-102678212D01*
X64789701Y-102678217D01*
X64678217Y-102789701D01*
X64678212Y-102789707D01*
X64678211Y-102789708D01*
X64590613Y-102920807D01*
X64590603Y-102920824D01*
X64590598Y-102920833D01*
X64530264Y-103066496D01*
X64530257Y-103066527D01*
X64499500Y-103221150D01*
X64499500Y-103221153D01*
X64499500Y-103378846D01*
X64499500Y-103378848D01*
X64499499Y-103378848D01*
X64530257Y-103533471D01*
X64530264Y-103533502D01*
X64583585Y-103662232D01*
X64590431Y-103684456D01*
X64595334Y-103708051D01*
X64589703Y-103777686D01*
X64587463Y-103783526D01*
X64545075Y-103839070D01*
X64544577Y-103839434D01*
X64522489Y-103855482D01*
X64522473Y-103855497D01*
X64350990Y-104026981D01*
X64346861Y-104034355D01*
X64331650Y-104055293D01*
X64331647Y-104055298D01*
X64216657Y-104213566D01*
X64216654Y-104213570D01*
X64216653Y-104213573D01*
X64182676Y-104280257D01*
X64109433Y-104424003D01*
X64036446Y-104648631D01*
X64036445Y-104648634D01*
X64036445Y-104648636D01*
X63999500Y-104881896D01*
X63999500Y-105118102D01*
X64021194Y-105255072D01*
X64036446Y-105351368D01*
X64109433Y-105575996D01*
X64167832Y-105690609D01*
X64216657Y-105786433D01*
X64355483Y-105977510D01*
X64522490Y-106144517D01*
X64713567Y-106283343D01*
X64787783Y-106321158D01*
X64787782Y-106321158D01*
X64812007Y-106333501D01*
X64917560Y-106387283D01*
X64919147Y-106388213D01*
X64922865Y-106390014D01*
X64924862Y-106391007D01*
X64928630Y-106392070D01*
X64976335Y-106407569D01*
X65044410Y-106429688D01*
X65044411Y-106429689D01*
X65044412Y-106429689D01*
X65148631Y-106463553D01*
X65381903Y-106500500D01*
X65381908Y-106500500D01*
X65618096Y-106500500D01*
X65618097Y-106500500D01*
X65851368Y-106463553D01*
X66075992Y-106390568D01*
X66286433Y-106283343D01*
X66477510Y-106144517D01*
X66644517Y-105977510D01*
X66783343Y-105786433D01*
X66890568Y-105575992D01*
X66963553Y-105351368D01*
X66974304Y-105283489D01*
X67000500Y-105118097D01*
X67000500Y-104881902D01*
X66963553Y-104648631D01*
X66892064Y-104428615D01*
X66891005Y-104424857D01*
X66890013Y-104422862D01*
X66888218Y-104419156D01*
X66887279Y-104417552D01*
X66887278Y-104417551D01*
X66783343Y-104213567D01*
X66783342Y-104213565D01*
X66768405Y-104193007D01*
X66751934Y-104161791D01*
X66746678Y-104147061D01*
X66742691Y-104077321D01*
X66742807Y-104076822D01*
X66772674Y-104020572D01*
X66779445Y-104013273D01*
X66801452Y-103994510D01*
X66910289Y-103921789D01*
X67021789Y-103810289D01*
X67109394Y-103679179D01*
X67155939Y-103566809D01*
X67199779Y-103512405D01*
X67266073Y-103490340D01*
X67333773Y-103507619D01*
X67381384Y-103558756D01*
X67394500Y-103614261D01*
X67394500Y-105255072D01*
X67398440Y-105318067D01*
X67398440Y-105318070D01*
X67402289Y-105348710D01*
X67402294Y-105348740D01*
X67414051Y-105410743D01*
X67414054Y-105410754D01*
X67421691Y-105429191D01*
X67469112Y-105543676D01*
X67469115Y-105543681D01*
X67501534Y-105598322D01*
X67504764Y-105603765D01*
X67559580Y-105671789D01*
X67595041Y-105715794D01*
X67601530Y-105721836D01*
X67599185Y-105724353D01*
X67632632Y-105765849D01*
X67640108Y-105835317D01*
X67632640Y-105860760D01*
X67630264Y-105866495D01*
X67630257Y-105866527D01*
X67599500Y-106021150D01*
X67599500Y-106021153D01*
X67599500Y-106178846D01*
X67599500Y-106178848D01*
X67599499Y-106178848D01*
X67630257Y-106333471D01*
X67630264Y-106333502D01*
X67634544Y-106343835D01*
X67642010Y-106413305D01*
X67610733Y-106475783D01*
X67601189Y-106484992D01*
X67588659Y-106495850D01*
X67494433Y-106604591D01*
X67494430Y-106604595D01*
X67434664Y-106735461D01*
X67414976Y-106802509D01*
X67394500Y-106944928D01*
X67394500Y-109801956D01*
X67397896Y-109860436D01*
X67397900Y-109860486D01*
X67401222Y-109888984D01*
X67405268Y-109911996D01*
X67397489Y-109981431D01*
X67353404Y-110035638D01*
X67352032Y-110036568D01*
X67289708Y-110078211D01*
X67289707Y-110078212D01*
X67289701Y-110078217D01*
X67178217Y-110189701D01*
X67178212Y-110189707D01*
X67178211Y-110189708D01*
X67090613Y-110320807D01*
X67090603Y-110320824D01*
X67090598Y-110320833D01*
X67030264Y-110466496D01*
X67030257Y-110466527D01*
X66999500Y-110621150D01*
X66999500Y-110621153D01*
X66999500Y-110778846D01*
X66999500Y-110778848D01*
X66999499Y-110778848D01*
X67030257Y-110933471D01*
X67030264Y-110933502D01*
X67090598Y-111079165D01*
X67090603Y-111079174D01*
X67090613Y-111079191D01*
X67178211Y-111210290D01*
X67178212Y-111210291D01*
X67178217Y-111210297D01*
X67289704Y-111321784D01*
X67356588Y-111366475D01*
X67401392Y-111420088D01*
X67410434Y-111487223D01*
X67394500Y-111598053D01*
X67394500Y-121875500D01*
X67374815Y-121942539D01*
X67322011Y-121988294D01*
X67270500Y-121999500D01*
X57812964Y-121999500D01*
X57778025Y-121994476D01*
X57764707Y-121990565D01*
X57705930Y-121952789D01*
X57676908Y-121889232D01*
X57676907Y-121889228D01*
X57676162Y-121884044D01*
X57684340Y-121818952D01*
X57687395Y-121811577D01*
X57719737Y-121733497D01*
X57750500Y-121578842D01*
X57750500Y-121421158D01*
X57750500Y-121421155D01*
X57750500Y-121420973D01*
X57750065Y-121418972D01*
X57720397Y-121269824D01*
X57719994Y-121267467D01*
X57719738Y-121266508D01*
X57719737Y-121266506D01*
X57719737Y-121266503D01*
X57719735Y-121266498D01*
X57659397Y-121120827D01*
X57659390Y-121120814D01*
X57571789Y-120989711D01*
X57571786Y-120989707D01*
X57571781Y-120989701D01*
X57460297Y-120878217D01*
X57460291Y-120878212D01*
X57460290Y-120878211D01*
X57329191Y-120790613D01*
X57329190Y-120790612D01*
X57329185Y-120790609D01*
X57329172Y-120790602D01*
X57329165Y-120790598D01*
X57183502Y-120730264D01*
X57183471Y-120730257D01*
X57028847Y-120699500D01*
X57028845Y-120699500D01*
X57028842Y-120699500D01*
X56871158Y-120699500D01*
X56871155Y-120699500D01*
X56871153Y-120699500D01*
X56716527Y-120730257D01*
X56716496Y-120730264D01*
X56570833Y-120790598D01*
X56570824Y-120790603D01*
X56570807Y-120790613D01*
X56439708Y-120878211D01*
X56439707Y-120878212D01*
X56439701Y-120878217D01*
X56328217Y-120989701D01*
X56328212Y-120989707D01*
X56328211Y-120989708D01*
X56240613Y-121120807D01*
X56240603Y-121120824D01*
X56240598Y-121120833D01*
X56180264Y-121266496D01*
X56180257Y-121266527D01*
X56149500Y-121421150D01*
X56149500Y-121421153D01*
X56149500Y-121578846D01*
X56149500Y-121578848D01*
X56149499Y-121578848D01*
X56180257Y-121733471D01*
X56180263Y-121733496D01*
X56212605Y-121811577D01*
X56221332Y-121845773D01*
X56222632Y-121857853D01*
X56222817Y-121859575D01*
X56210410Y-121928334D01*
X56162802Y-121979468D01*
X56158297Y-121982141D01*
X56095022Y-121999500D01*
X39441830Y-121999500D01*
X39406889Y-121994475D01*
X39391890Y-121990070D01*
X39333144Y-121952327D01*
X39331957Y-121950958D01*
X39304477Y-121896083D01*
X39302832Y-121888521D01*
X39300000Y-121862168D01*
X39300000Y-117228848D01*
X43949499Y-117228848D01*
X43980257Y-117383471D01*
X43980264Y-117383502D01*
X44040598Y-117529165D01*
X44040603Y-117529174D01*
X44040613Y-117529191D01*
X44128211Y-117660290D01*
X44128212Y-117660291D01*
X44128217Y-117660297D01*
X44239701Y-117771781D01*
X44239707Y-117771786D01*
X44239711Y-117771789D01*
X44370814Y-117859390D01*
X44370827Y-117859397D01*
X44516498Y-117919735D01*
X44516503Y-117919737D01*
X44663513Y-117948979D01*
X44666247Y-117949703D01*
X44671155Y-117950500D01*
X44828844Y-117950500D01*
X44832964Y-117950500D01*
X44840814Y-117948118D01*
X44983497Y-117919737D01*
X45129179Y-117859394D01*
X45157731Y-117840316D01*
X45749500Y-117840316D01*
X45749500Y-118159683D01*
X45760725Y-118273665D01*
X45780802Y-118477519D01*
X45780802Y-118477521D01*
X45843103Y-118790733D01*
X45843106Y-118790744D01*
X45935821Y-119096387D01*
X46057758Y-119390767D01*
X46057993Y-119391346D01*
X46058038Y-119391441D01*
X46058040Y-119391446D01*
X46058042Y-119391451D01*
X46058045Y-119391456D01*
X46208571Y-119673072D01*
X46208583Y-119673093D01*
X46208584Y-119673094D01*
X46208601Y-119673122D01*
X46333500Y-119860047D01*
X46386013Y-119938639D01*
X46386030Y-119938663D01*
X46386039Y-119938674D01*
X46588642Y-120185545D01*
X46814460Y-120411363D01*
X46814513Y-120411411D01*
X46815048Y-120411845D01*
X47061344Y-120613975D01*
X47061351Y-120613980D01*
X47061361Y-120613987D01*
X47061378Y-120613998D01*
X47061406Y-120614018D01*
X47324399Y-120789743D01*
X47326364Y-120791126D01*
X47327548Y-120791769D01*
X47329846Y-120793034D01*
X47330875Y-120793537D01*
X47603246Y-120939123D01*
X47603290Y-120939150D01*
X47607481Y-120941387D01*
X47607516Y-120941405D01*
X47608548Y-120941957D01*
X47612022Y-120943814D01*
X47616996Y-120945457D01*
X47624623Y-120948616D01*
X47903619Y-121064180D01*
X48209240Y-121156889D01*
X48522477Y-121219196D01*
X48840313Y-121250500D01*
X48840316Y-121250500D01*
X49159684Y-121250500D01*
X49159687Y-121250500D01*
X49477523Y-121219196D01*
X49790760Y-121156889D01*
X50096381Y-121064180D01*
X50391444Y-120941961D01*
X50673106Y-120791409D01*
X50938656Y-120613975D01*
X51185535Y-120411366D01*
X51278839Y-120318062D01*
X52960285Y-120318062D01*
X52991043Y-120472685D01*
X52991050Y-120472716D01*
X53051384Y-120618379D01*
X53051389Y-120618388D01*
X53051399Y-120618405D01*
X53138997Y-120749504D01*
X53138998Y-120749505D01*
X53139003Y-120749511D01*
X53250487Y-120860995D01*
X53250493Y-120861000D01*
X53250497Y-120861003D01*
X53381600Y-120948604D01*
X53381613Y-120948611D01*
X53480839Y-120989711D01*
X53527289Y-121008951D01*
X53527291Y-121008951D01*
X53527296Y-121008953D01*
X53653416Y-121034039D01*
X53674299Y-121038193D01*
X53677033Y-121038917D01*
X53681941Y-121039714D01*
X53839630Y-121039714D01*
X53843750Y-121039714D01*
X53851600Y-121037332D01*
X53994283Y-121008951D01*
X54139965Y-120948608D01*
X54271075Y-120861003D01*
X54382575Y-120749503D01*
X54470180Y-120618393D01*
X54530523Y-120472711D01*
X54561286Y-120318056D01*
X54561286Y-120160372D01*
X54561286Y-120160369D01*
X54561286Y-120160185D01*
X54560850Y-120158180D01*
X54559087Y-120149320D01*
X54530523Y-120005717D01*
X54502738Y-119938638D01*
X54470183Y-119860041D01*
X54470176Y-119860028D01*
X54382575Y-119728925D01*
X54382572Y-119728921D01*
X54382567Y-119728915D01*
X54271083Y-119617431D01*
X54271077Y-119617426D01*
X54271076Y-119617425D01*
X54139977Y-119529827D01*
X54139976Y-119529826D01*
X54139971Y-119529823D01*
X54139958Y-119529816D01*
X54139951Y-119529812D01*
X53994288Y-119469478D01*
X53994257Y-119469471D01*
X53839633Y-119438714D01*
X53839631Y-119438714D01*
X53839628Y-119438714D01*
X53681944Y-119438714D01*
X53681941Y-119438714D01*
X53681939Y-119438714D01*
X53527313Y-119469471D01*
X53527282Y-119469478D01*
X53381619Y-119529812D01*
X53381610Y-119529817D01*
X53381593Y-119529827D01*
X53250494Y-119617425D01*
X53250493Y-119617426D01*
X53250487Y-119617431D01*
X53139003Y-119728915D01*
X53138998Y-119728921D01*
X53138997Y-119728922D01*
X53051399Y-119860021D01*
X53051389Y-119860038D01*
X53051384Y-119860047D01*
X52991050Y-120005710D01*
X52991043Y-120005741D01*
X52960286Y-120160364D01*
X52960286Y-120160367D01*
X52960286Y-120318060D01*
X52960286Y-120318062D01*
X52960285Y-120318062D01*
X51278839Y-120318062D01*
X51411366Y-120185535D01*
X51613975Y-119938656D01*
X51791409Y-119673106D01*
X51941961Y-119391444D01*
X52064180Y-119096381D01*
X52156889Y-118790760D01*
X52219196Y-118477523D01*
X52250500Y-118159687D01*
X52250500Y-117840316D01*
X59749500Y-117840316D01*
X59749500Y-118159683D01*
X59760725Y-118273665D01*
X59780802Y-118477519D01*
X59780802Y-118477521D01*
X59843103Y-118790733D01*
X59843106Y-118790744D01*
X59935821Y-119096387D01*
X60057758Y-119390767D01*
X60057993Y-119391346D01*
X60058038Y-119391441D01*
X60058040Y-119391446D01*
X60058042Y-119391451D01*
X60058045Y-119391456D01*
X60208571Y-119673072D01*
X60208583Y-119673093D01*
X60208584Y-119673094D01*
X60208601Y-119673122D01*
X60333500Y-119860047D01*
X60386013Y-119938639D01*
X60386030Y-119938663D01*
X60386039Y-119938674D01*
X60588642Y-120185545D01*
X60814460Y-120411363D01*
X60814513Y-120411411D01*
X60815048Y-120411845D01*
X61061344Y-120613975D01*
X61061351Y-120613980D01*
X61061361Y-120613987D01*
X61061378Y-120613998D01*
X61061406Y-120614018D01*
X61324399Y-120789743D01*
X61326364Y-120791126D01*
X61327548Y-120791769D01*
X61329846Y-120793034D01*
X61330875Y-120793537D01*
X61603246Y-120939123D01*
X61603290Y-120939150D01*
X61607481Y-120941387D01*
X61607516Y-120941405D01*
X61608548Y-120941957D01*
X61612022Y-120943814D01*
X61616996Y-120945457D01*
X61624623Y-120948616D01*
X61903619Y-121064180D01*
X62209240Y-121156889D01*
X62522477Y-121219196D01*
X62840313Y-121250500D01*
X62840316Y-121250500D01*
X63159684Y-121250500D01*
X63159687Y-121250500D01*
X63477523Y-121219196D01*
X63790760Y-121156889D01*
X64096381Y-121064180D01*
X64391444Y-120941961D01*
X64673106Y-120791409D01*
X64938656Y-120613975D01*
X65185535Y-120411366D01*
X65411366Y-120185535D01*
X65613975Y-119938656D01*
X65791409Y-119673106D01*
X65941961Y-119391444D01*
X66064180Y-119096381D01*
X66156889Y-118790760D01*
X66219196Y-118477523D01*
X66250500Y-118159687D01*
X66250500Y-117840313D01*
X66219196Y-117522477D01*
X66160789Y-117228846D01*
X66157476Y-117212192D01*
X66156440Y-117206218D01*
X66156439Y-117206217D01*
X66155698Y-117203256D01*
X66155691Y-117203222D01*
X66153347Y-117197564D01*
X66064180Y-116903619D01*
X65941961Y-116608556D01*
X65899019Y-116528217D01*
X65852188Y-116440603D01*
X65852186Y-116440601D01*
X65793530Y-116330862D01*
X65793282Y-116330353D01*
X65791580Y-116327211D01*
X65791253Y-116326602D01*
X65791126Y-116326366D01*
X65789762Y-116324429D01*
X65613987Y-116061361D01*
X65613980Y-116061351D01*
X65613975Y-116061344D01*
X65411845Y-115815048D01*
X65411411Y-115814513D01*
X65411363Y-115814460D01*
X65185545Y-115588642D01*
X64938674Y-115386039D01*
X64938663Y-115386030D01*
X64938642Y-115386015D01*
X64810659Y-115300500D01*
X64673122Y-115208601D01*
X64673109Y-115208593D01*
X64673093Y-115208583D01*
X64673072Y-115208571D01*
X64450258Y-115089475D01*
X64391451Y-115058042D01*
X64391446Y-115058040D01*
X64391441Y-115058038D01*
X64391346Y-115057993D01*
X64390767Y-115057758D01*
X64096387Y-114935821D01*
X63790744Y-114843106D01*
X63790733Y-114843103D01*
X63582429Y-114801670D01*
X63557617Y-114788691D01*
X63238141Y-114757227D01*
X63232161Y-114756638D01*
X63159687Y-114749500D01*
X63159684Y-114749500D01*
X62840315Y-114749500D01*
X62840313Y-114749500D01*
X62828386Y-114750674D01*
X62767822Y-114756638D01*
X62767822Y-114756639D01*
X62745825Y-114758805D01*
X62522477Y-114780802D01*
X62209265Y-114843103D01*
X62209254Y-114843106D01*
X61903611Y-114935821D01*
X61609231Y-115057758D01*
X61608656Y-115057992D01*
X61608542Y-115058045D01*
X61326926Y-115208571D01*
X61326905Y-115208583D01*
X61326886Y-115208595D01*
X61061356Y-115386015D01*
X61061335Y-115386030D01*
X61061324Y-115386039D01*
X60814453Y-115588642D01*
X60588642Y-115814453D01*
X60386039Y-116061324D01*
X60386030Y-116061335D01*
X60386015Y-116061356D01*
X60208595Y-116326886D01*
X60208583Y-116326905D01*
X60208571Y-116326926D01*
X60058045Y-116608542D01*
X60057992Y-116608656D01*
X60057758Y-116609231D01*
X59935821Y-116903611D01*
X59843106Y-117209254D01*
X59843103Y-117209265D01*
X59780802Y-117522477D01*
X59780802Y-117522479D01*
X59758436Y-117749588D01*
X59749500Y-117840316D01*
X52250500Y-117840316D01*
X52250500Y-117840313D01*
X52219196Y-117522477D01*
X52160789Y-117228846D01*
X52157476Y-117212192D01*
X52156440Y-117206218D01*
X52156439Y-117206217D01*
X52155698Y-117203256D01*
X52155691Y-117203222D01*
X52153347Y-117197564D01*
X52064180Y-116903619D01*
X51941961Y-116608556D01*
X51899019Y-116528217D01*
X51852188Y-116440603D01*
X51852186Y-116440601D01*
X51793530Y-116330862D01*
X51793282Y-116330353D01*
X51791580Y-116327211D01*
X51791253Y-116326602D01*
X51791126Y-116326366D01*
X51789762Y-116324429D01*
X51613987Y-116061361D01*
X51613980Y-116061351D01*
X51613975Y-116061344D01*
X51411845Y-115815048D01*
X51411411Y-115814513D01*
X51411363Y-115814460D01*
X51185545Y-115588642D01*
X50938674Y-115386039D01*
X50938663Y-115386030D01*
X50938642Y-115386015D01*
X50810659Y-115300500D01*
X50673122Y-115208601D01*
X50673109Y-115208593D01*
X50673093Y-115208583D01*
X50673072Y-115208571D01*
X50450258Y-115089475D01*
X50391451Y-115058042D01*
X50391446Y-115058040D01*
X50391441Y-115058038D01*
X50391346Y-115057993D01*
X50390767Y-115057758D01*
X50096387Y-114935821D01*
X49790744Y-114843106D01*
X49790733Y-114843103D01*
X49582429Y-114801670D01*
X49557617Y-114788691D01*
X49238141Y-114757227D01*
X49232161Y-114756638D01*
X49159687Y-114749500D01*
X49159684Y-114749500D01*
X48840315Y-114749500D01*
X48840313Y-114749500D01*
X48828386Y-114750674D01*
X48767822Y-114756638D01*
X48767822Y-114756639D01*
X48745825Y-114758805D01*
X48522477Y-114780802D01*
X48209265Y-114843103D01*
X48209254Y-114843106D01*
X47903611Y-114935821D01*
X47609231Y-115057758D01*
X47608656Y-115057992D01*
X47608542Y-115058045D01*
X47326926Y-115208571D01*
X47326905Y-115208583D01*
X47326886Y-115208595D01*
X47061356Y-115386015D01*
X47061335Y-115386030D01*
X47061324Y-115386039D01*
X46814453Y-115588642D01*
X46588642Y-115814453D01*
X46386039Y-116061324D01*
X46386030Y-116061335D01*
X46386015Y-116061356D01*
X46208595Y-116326886D01*
X46208583Y-116326905D01*
X46208571Y-116326926D01*
X46058045Y-116608542D01*
X46057992Y-116608656D01*
X46057758Y-116609231D01*
X45935821Y-116903611D01*
X45843106Y-117209254D01*
X45843103Y-117209265D01*
X45780802Y-117522477D01*
X45780802Y-117522479D01*
X45758436Y-117749588D01*
X45749500Y-117840316D01*
X45157731Y-117840316D01*
X45260289Y-117771789D01*
X45260292Y-117771786D01*
X45282491Y-117749588D01*
X45371787Y-117660292D01*
X45371789Y-117660289D01*
X45459394Y-117529179D01*
X45519737Y-117383497D01*
X45550499Y-117228848D01*
X45550500Y-117228845D01*
X45550500Y-117070973D01*
X45550065Y-117068972D01*
X45520394Y-116919809D01*
X45519982Y-116917399D01*
X45519736Y-116916501D01*
X45514401Y-116903621D01*
X45514399Y-116903616D01*
X45459402Y-116770840D01*
X45459399Y-116770833D01*
X45459397Y-116770827D01*
X45459390Y-116770814D01*
X45371789Y-116639711D01*
X45371786Y-116639707D01*
X45371781Y-116639701D01*
X45260297Y-116528217D01*
X45260291Y-116528212D01*
X45260290Y-116528211D01*
X45129191Y-116440613D01*
X45129190Y-116440612D01*
X45129185Y-116440609D01*
X45129172Y-116440602D01*
X45129170Y-116440601D01*
X45129165Y-116440598D01*
X44983502Y-116380264D01*
X44983471Y-116380257D01*
X44828847Y-116349500D01*
X44828845Y-116349500D01*
X44828842Y-116349500D01*
X44671158Y-116349500D01*
X44671155Y-116349500D01*
X44671153Y-116349500D01*
X44516527Y-116380257D01*
X44516496Y-116380264D01*
X44370833Y-116440598D01*
X44370829Y-116440601D01*
X44370807Y-116440613D01*
X44239708Y-116528211D01*
X44239707Y-116528212D01*
X44239701Y-116528217D01*
X44128217Y-116639701D01*
X44128212Y-116639707D01*
X44128211Y-116639708D01*
X44040613Y-116770807D01*
X44040603Y-116770824D01*
X44040598Y-116770833D01*
X43980264Y-116916496D01*
X43980257Y-116916527D01*
X43949500Y-117071150D01*
X43949500Y-117228845D01*
X43949499Y-117228848D01*
X39300000Y-117228848D01*
X39300000Y-114053848D01*
X44424499Y-114053848D01*
X44455257Y-114208471D01*
X44455264Y-114208501D01*
X44515598Y-114354165D01*
X44515603Y-114354174D01*
X44515613Y-114354191D01*
X44603211Y-114485290D01*
X44603212Y-114485291D01*
X44603217Y-114485297D01*
X44714701Y-114596781D01*
X44714707Y-114596786D01*
X44714711Y-114596789D01*
X44845814Y-114684390D01*
X44845827Y-114684397D01*
X44991498Y-114744735D01*
X44991503Y-114744737D01*
X45138513Y-114773979D01*
X45141247Y-114774703D01*
X45146155Y-114775500D01*
X45303844Y-114775500D01*
X45307964Y-114775500D01*
X45315814Y-114773118D01*
X45458497Y-114744737D01*
X45604179Y-114684394D01*
X45735289Y-114596789D01*
X45753230Y-114578848D01*
X52199499Y-114578848D01*
X52230257Y-114733471D01*
X52230264Y-114733502D01*
X52290598Y-114879165D01*
X52290603Y-114879174D01*
X52290613Y-114879191D01*
X52378211Y-115010290D01*
X52378212Y-115010291D01*
X52378217Y-115010297D01*
X52489701Y-115121781D01*
X52489707Y-115121786D01*
X52489711Y-115121789D01*
X52620814Y-115209390D01*
X52620827Y-115209397D01*
X52766498Y-115269735D01*
X52766503Y-115269737D01*
X52913513Y-115298979D01*
X52916247Y-115299703D01*
X52921155Y-115300500D01*
X53078844Y-115300500D01*
X53082964Y-115300500D01*
X53090814Y-115298118D01*
X53233497Y-115269737D01*
X53379179Y-115209394D01*
X53510289Y-115121789D01*
X53621789Y-115010289D01*
X53709394Y-114879179D01*
X53769737Y-114733497D01*
X53800499Y-114578848D01*
X54899496Y-114578848D01*
X54930254Y-114733471D01*
X54930261Y-114733502D01*
X54990595Y-114879165D01*
X54990600Y-114879174D01*
X54990610Y-114879191D01*
X55078208Y-115010290D01*
X55078209Y-115010291D01*
X55078214Y-115010297D01*
X55189698Y-115121781D01*
X55189704Y-115121786D01*
X55189708Y-115121789D01*
X55320811Y-115209390D01*
X55320824Y-115209397D01*
X55466495Y-115269735D01*
X55466500Y-115269737D01*
X55613510Y-115298979D01*
X55616244Y-115299703D01*
X55621152Y-115300500D01*
X55778841Y-115300500D01*
X55782961Y-115300500D01*
X55790811Y-115298118D01*
X55933494Y-115269737D01*
X56036076Y-115227245D01*
X56070271Y-115218518D01*
X56096425Y-115215706D01*
X56157132Y-115224433D01*
X56266503Y-115269737D01*
X56413513Y-115298979D01*
X56416247Y-115299703D01*
X56421155Y-115300500D01*
X56578844Y-115300500D01*
X56582964Y-115300500D01*
X56590814Y-115298118D01*
X56733497Y-115269737D01*
X56879179Y-115209394D01*
X57010289Y-115121789D01*
X57121789Y-115010289D01*
X57209394Y-114879179D01*
X57269737Y-114733497D01*
X57300500Y-114578842D01*
X57300500Y-114421158D01*
X57300500Y-114421155D01*
X57300500Y-114420971D01*
X57300064Y-114418966D01*
X57287176Y-114354174D01*
X57287174Y-114354165D01*
X57269737Y-114266503D01*
X57245707Y-114208489D01*
X57211718Y-114126431D01*
X57210076Y-114121843D01*
X57209394Y-114120822D01*
X57209394Y-114120821D01*
X57184596Y-114083709D01*
X57169366Y-114051877D01*
X57164694Y-114036957D01*
X57163446Y-113967110D01*
X57167051Y-113953969D01*
X57183529Y-113917886D01*
X57209394Y-113879179D01*
X57269737Y-113733497D01*
X57300500Y-113578842D01*
X57300500Y-113421158D01*
X57300500Y-113421155D01*
X57300500Y-113420973D01*
X57300065Y-113418972D01*
X57272192Y-113278846D01*
X57272191Y-113278842D01*
X57269738Y-113266508D01*
X57269737Y-113266507D01*
X57269737Y-113266503D01*
X57269367Y-113265609D01*
X57269364Y-113265602D01*
X57209400Y-113120833D01*
X57209395Y-113120824D01*
X57209390Y-113120814D01*
X57121789Y-112989711D01*
X57121786Y-112989707D01*
X57121781Y-112989701D01*
X57010297Y-112878217D01*
X57010291Y-112878212D01*
X57010290Y-112878211D01*
X56879191Y-112790613D01*
X56879190Y-112790612D01*
X56879185Y-112790609D01*
X56879172Y-112790602D01*
X56879165Y-112790598D01*
X56733502Y-112730264D01*
X56733471Y-112730257D01*
X56578847Y-112699500D01*
X56578845Y-112699500D01*
X56578842Y-112699500D01*
X56421158Y-112699500D01*
X56421155Y-112699500D01*
X56421153Y-112699500D01*
X56266527Y-112730257D01*
X56266496Y-112730264D01*
X56120833Y-112790598D01*
X56120824Y-112790603D01*
X56120807Y-112790613D01*
X55989708Y-112878211D01*
X55989707Y-112878212D01*
X55989701Y-112878217D01*
X55878217Y-112989701D01*
X55878212Y-112989707D01*
X55878211Y-112989708D01*
X55790613Y-113120807D01*
X55790603Y-113120824D01*
X55790598Y-113120833D01*
X55730264Y-113266496D01*
X55730257Y-113266527D01*
X55699500Y-113421150D01*
X55699500Y-113564321D01*
X55694475Y-113599265D01*
X55690070Y-113614263D01*
X55652301Y-113673029D01*
X55646748Y-113677841D01*
X55589734Y-113705748D01*
X55466512Y-113730259D01*
X55466506Y-113730260D01*
X55466505Y-113730261D01*
X55466495Y-113730264D01*
X55466490Y-113730265D01*
X55466472Y-113730272D01*
X55320830Y-113790598D01*
X55320821Y-113790603D01*
X55320804Y-113790613D01*
X55189705Y-113878211D01*
X55189704Y-113878212D01*
X55189698Y-113878217D01*
X55078214Y-113989701D01*
X55078209Y-113989707D01*
X55078208Y-113989708D01*
X54990610Y-114120807D01*
X54990600Y-114120824D01*
X54990595Y-114120833D01*
X54930261Y-114266496D01*
X54930254Y-114266527D01*
X54899497Y-114421150D01*
X54899497Y-114421153D01*
X54899497Y-114578846D01*
X54899497Y-114578848D01*
X54899496Y-114578848D01*
X53800499Y-114578848D01*
X53800500Y-114578842D01*
X53800500Y-114421158D01*
X53800500Y-114421155D01*
X53800499Y-114421153D01*
X53787176Y-114354174D01*
X53769742Y-114266527D01*
X53769739Y-114266510D01*
X53769736Y-114266502D01*
X53745712Y-114208501D01*
X53709397Y-114120827D01*
X53709390Y-114120814D01*
X53621789Y-113989711D01*
X53621786Y-113989707D01*
X53621781Y-113989701D01*
X53510297Y-113878217D01*
X53510291Y-113878212D01*
X53510290Y-113878211D01*
X53379191Y-113790613D01*
X53379190Y-113790612D01*
X53379185Y-113790609D01*
X53379172Y-113790602D01*
X53379165Y-113790598D01*
X53233502Y-113730264D01*
X53233471Y-113730257D01*
X53078847Y-113699500D01*
X53078845Y-113699500D01*
X53078842Y-113699500D01*
X52921158Y-113699500D01*
X52921155Y-113699500D01*
X52921153Y-113699500D01*
X52766527Y-113730257D01*
X52766496Y-113730264D01*
X52620833Y-113790598D01*
X52620824Y-113790603D01*
X52620807Y-113790613D01*
X52489708Y-113878211D01*
X52489707Y-113878212D01*
X52489701Y-113878217D01*
X52378217Y-113989701D01*
X52378212Y-113989707D01*
X52378211Y-113989708D01*
X52290613Y-114120807D01*
X52290603Y-114120824D01*
X52290598Y-114120833D01*
X52230264Y-114266496D01*
X52230257Y-114266527D01*
X52199500Y-114421150D01*
X52199500Y-114421153D01*
X52199500Y-114578846D01*
X52199500Y-114578848D01*
X52199499Y-114578848D01*
X45753230Y-114578848D01*
X45846789Y-114485289D01*
X45934394Y-114354179D01*
X45994737Y-114208497D01*
X46025500Y-114053842D01*
X46025500Y-113896158D01*
X46025500Y-113896155D01*
X46025500Y-113895973D01*
X46025065Y-113893972D01*
X45995395Y-113744816D01*
X45994994Y-113742467D01*
X45994738Y-113741508D01*
X45994737Y-113741506D01*
X45994737Y-113741503D01*
X45994735Y-113741498D01*
X45934397Y-113595827D01*
X45934390Y-113595814D01*
X45846789Y-113464711D01*
X45846786Y-113464707D01*
X45846781Y-113464701D01*
X45735297Y-113353217D01*
X45735291Y-113353212D01*
X45735290Y-113353211D01*
X45623998Y-113278848D01*
X48099499Y-113278848D01*
X48130257Y-113433471D01*
X48130264Y-113433502D01*
X48190598Y-113579165D01*
X48190603Y-113579174D01*
X48190613Y-113579191D01*
X48278211Y-113710290D01*
X48278212Y-113710291D01*
X48278217Y-113710297D01*
X48389701Y-113821781D01*
X48389707Y-113821786D01*
X48389711Y-113821789D01*
X48520814Y-113909390D01*
X48520827Y-113909397D01*
X48582241Y-113934835D01*
X48666503Y-113969737D01*
X48666505Y-113969737D01*
X48666510Y-113969739D01*
X48813519Y-113998981D01*
X48816243Y-113999703D01*
X48821155Y-114000500D01*
X48978844Y-114000500D01*
X48982964Y-114000500D01*
X48990814Y-113998118D01*
X49133497Y-113969737D01*
X49279179Y-113909394D01*
X49410289Y-113821789D01*
X49521789Y-113710289D01*
X49609394Y-113579179D01*
X49669737Y-113433497D01*
X49700500Y-113278842D01*
X49700500Y-113121158D01*
X49700500Y-113121155D01*
X49700500Y-113120971D01*
X49700064Y-113118966D01*
X49680321Y-113019711D01*
X49674353Y-112989708D01*
X49669737Y-112966503D01*
X49645592Y-112908211D01*
X49609397Y-112820827D01*
X49609390Y-112820814D01*
X49521789Y-112689711D01*
X49521786Y-112689707D01*
X49521781Y-112689701D01*
X49410297Y-112578217D01*
X49410291Y-112578212D01*
X49410290Y-112578211D01*
X49279191Y-112490613D01*
X49279190Y-112490612D01*
X49279185Y-112490609D01*
X49279172Y-112490602D01*
X49279165Y-112490598D01*
X49133502Y-112430264D01*
X49133471Y-112430257D01*
X48978847Y-112399500D01*
X48978845Y-112399500D01*
X48978842Y-112399500D01*
X48821158Y-112399500D01*
X48821155Y-112399500D01*
X48821153Y-112399500D01*
X48666527Y-112430257D01*
X48666496Y-112430264D01*
X48520833Y-112490598D01*
X48520824Y-112490603D01*
X48520807Y-112490613D01*
X48389708Y-112578211D01*
X48389707Y-112578212D01*
X48389701Y-112578217D01*
X48278217Y-112689701D01*
X48278212Y-112689707D01*
X48278211Y-112689708D01*
X48190613Y-112820807D01*
X48190603Y-112820824D01*
X48190598Y-112820833D01*
X48130264Y-112966496D01*
X48130257Y-112966527D01*
X48099500Y-113121150D01*
X48099500Y-113121153D01*
X48099500Y-113278846D01*
X48099500Y-113278848D01*
X48099499Y-113278848D01*
X45623998Y-113278848D01*
X45604191Y-113265613D01*
X45604190Y-113265612D01*
X45604185Y-113265609D01*
X45604172Y-113265602D01*
X45604158Y-113265596D01*
X45517318Y-113229626D01*
X45517318Y-113229624D01*
X45517307Y-113229622D01*
X45458503Y-113205265D01*
X45458505Y-113205265D01*
X45458501Y-113205264D01*
X45458489Y-113205261D01*
X45458480Y-113205259D01*
X45458471Y-113205257D01*
X45303847Y-113174500D01*
X45303845Y-113174500D01*
X45303842Y-113174500D01*
X45146158Y-113174500D01*
X45146155Y-113174500D01*
X45146153Y-113174500D01*
X44991527Y-113205257D01*
X44991496Y-113205264D01*
X44845833Y-113265598D01*
X44845824Y-113265603D01*
X44845807Y-113265613D01*
X44714708Y-113353211D01*
X44714707Y-113353212D01*
X44714701Y-113353217D01*
X44603217Y-113464701D01*
X44603212Y-113464707D01*
X44603211Y-113464708D01*
X44515613Y-113595807D01*
X44515603Y-113595824D01*
X44515598Y-113595833D01*
X44455264Y-113741496D01*
X44455257Y-113741527D01*
X44424500Y-113896150D01*
X44424500Y-113896153D01*
X44424500Y-114053846D01*
X44424500Y-114053848D01*
X44424499Y-114053848D01*
X39300000Y-114053848D01*
X39300000Y-112393049D01*
X39300150Y-112386956D01*
X39300500Y-112379841D01*
X39300500Y-112220172D01*
X39300149Y-112213019D01*
X39300000Y-112206942D01*
X39300000Y-110041829D01*
X39305023Y-110006893D01*
X39309427Y-109991895D01*
X39347172Y-109933144D01*
X39348541Y-109931957D01*
X39403420Y-109904477D01*
X39410979Y-109902833D01*
X39437332Y-109900000D01*
X43755857Y-109900000D01*
X43755858Y-109900000D01*
X43728018Y-108764774D01*
X43732183Y-108729727D01*
X43735102Y-108718802D01*
X43771425Y-108659116D01*
X43834250Y-108628542D01*
X43903612Y-108636779D01*
X43905363Y-108637527D01*
X43959280Y-108681965D01*
X43959748Y-108682659D01*
X43978208Y-108710286D01*
X43978211Y-108710289D01*
X43978215Y-108710294D01*
X43978225Y-108710305D01*
X44089701Y-108821781D01*
X44089707Y-108821786D01*
X44089711Y-108821789D01*
X44220814Y-108909390D01*
X44220827Y-108909397D01*
X44366498Y-108969735D01*
X44366503Y-108969737D01*
X44513513Y-108998979D01*
X44516247Y-108999703D01*
X44521155Y-109000500D01*
X44678844Y-109000500D01*
X44682964Y-109000500D01*
X44690814Y-108998118D01*
X44833497Y-108969737D01*
X44957403Y-108918414D01*
X44972631Y-108912106D01*
X44975416Y-108911135D01*
X44976866Y-108910464D01*
X44981537Y-108908416D01*
X44990792Y-108904582D01*
X44999677Y-108895698D01*
X45055002Y-108858730D01*
X45110289Y-108821789D01*
X45221789Y-108710289D01*
X45309394Y-108579179D01*
X45369737Y-108433497D01*
X45400500Y-108278842D01*
X45400500Y-108121158D01*
X45400500Y-108121155D01*
X45400500Y-108120973D01*
X45400065Y-108118972D01*
X45370398Y-107969830D01*
X45369983Y-107967403D01*
X45369737Y-107966504D01*
X45342191Y-107900000D01*
X45309402Y-107820840D01*
X45309397Y-107820827D01*
X45309390Y-107820814D01*
X45221789Y-107689711D01*
X45221786Y-107689707D01*
X45221781Y-107689701D01*
X45110297Y-107578217D01*
X45110291Y-107578212D01*
X45110290Y-107578211D01*
X44996451Y-107502146D01*
X49170000Y-107502146D01*
X49170000Y-107502155D01*
X49170000Y-108150000D01*
X49907750Y-108150000D01*
X49974789Y-108169685D01*
X50020544Y-108222489D01*
X50030488Y-108291647D01*
X50027524Y-108306095D01*
X50020000Y-108334171D01*
X50020000Y-108465828D01*
X50027524Y-108493905D01*
X50025863Y-108563755D01*
X49986701Y-108621618D01*
X49922473Y-108649123D01*
X49907750Y-108650000D01*
X49170000Y-108650000D01*
X49170000Y-109297852D01*
X49176400Y-109357370D01*
X49176402Y-109357377D01*
X49226646Y-109492088D01*
X49226648Y-109492091D01*
X49312807Y-109607185D01*
X49312809Y-109607187D01*
X49312812Y-109607190D01*
X49427906Y-109693350D01*
X49427913Y-109693354D01*
X49562620Y-109743596D01*
X49562627Y-109743598D01*
X49569468Y-109744333D01*
X49622138Y-109749998D01*
X49622155Y-109749999D01*
X49622172Y-109750000D01*
X50270000Y-109750000D01*
X50270000Y-109012250D01*
X50289685Y-108945211D01*
X50342489Y-108899456D01*
X50411647Y-108889512D01*
X50426093Y-108892475D01*
X50454174Y-108900000D01*
X50585825Y-108900000D01*
X50585826Y-108900000D01*
X50613905Y-108892476D01*
X50683755Y-108894137D01*
X50741618Y-108933299D01*
X50769123Y-108997527D01*
X50770000Y-109012250D01*
X50770000Y-109750000D01*
X51417828Y-109750000D01*
X51417836Y-109750000D01*
X51417847Y-109749999D01*
X51453560Y-109746158D01*
X51477372Y-109743598D01*
X51477379Y-109743596D01*
X51612086Y-109693354D01*
X51612093Y-109693350D01*
X51727187Y-109607190D01*
X51727190Y-109607187D01*
X51813350Y-109492093D01*
X51813354Y-109492086D01*
X51856192Y-109377231D01*
X51873103Y-109346260D01*
X51881422Y-109335147D01*
X51937352Y-109293276D01*
X52007042Y-109288289D01*
X52011525Y-109289264D01*
X52072850Y-109322746D01*
X52180216Y-109430112D01*
X52352183Y-109555052D01*
X52352471Y-109555197D01*
X52541588Y-109651557D01*
X52743757Y-109717246D01*
X52953713Y-109750500D01*
X52953714Y-109750500D01*
X53166286Y-109750500D01*
X53166287Y-109750500D01*
X53376243Y-109717246D01*
X53578412Y-109651557D01*
X53767816Y-109555051D01*
X53854471Y-109492093D01*
X53939786Y-109430109D01*
X53939788Y-109430106D01*
X53939792Y-109430104D01*
X53939795Y-109430100D01*
X53939848Y-109430062D01*
X53940605Y-109429290D01*
X54089290Y-109280605D01*
X54090065Y-109279845D01*
X54090124Y-109279765D01*
X54209315Y-109115712D01*
X54209321Y-109115704D01*
X54220782Y-109099928D01*
X54223062Y-109096789D01*
X54233229Y-109084531D01*
X54240647Y-109076678D01*
X54300985Y-109041457D01*
X54370791Y-109044447D01*
X54424503Y-109080612D01*
X54430707Y-109087771D01*
X54442729Y-109104193D01*
X54444949Y-109107817D01*
X54444951Y-109107820D01*
X54569890Y-109279786D01*
X54569892Y-109279788D01*
X54720216Y-109430112D01*
X54892183Y-109555052D01*
X54892471Y-109555197D01*
X55081588Y-109651557D01*
X55283757Y-109717246D01*
X55493713Y-109750500D01*
X55493714Y-109750500D01*
X55706286Y-109750500D01*
X55706287Y-109750500D01*
X55916243Y-109717246D01*
X56118412Y-109651557D01*
X56307816Y-109555051D01*
X56394471Y-109492093D01*
X56479786Y-109430109D01*
X56479788Y-109430106D01*
X56479792Y-109430104D01*
X56479795Y-109430100D01*
X56479848Y-109430062D01*
X56480605Y-109429290D01*
X56629290Y-109280605D01*
X56630065Y-109279845D01*
X56630124Y-109279765D01*
X56749315Y-109115712D01*
X56749321Y-109115704D01*
X56760782Y-109099928D01*
X56763062Y-109096789D01*
X56773229Y-109084531D01*
X56780647Y-109076678D01*
X56840985Y-109041457D01*
X56910791Y-109044447D01*
X56964503Y-109080612D01*
X56970707Y-109087771D01*
X56982729Y-109104193D01*
X56984949Y-109107817D01*
X56984951Y-109107820D01*
X57109890Y-109279786D01*
X57109892Y-109279788D01*
X57260216Y-109430112D01*
X57432183Y-109555052D01*
X57432471Y-109555197D01*
X57621588Y-109651557D01*
X57823757Y-109717246D01*
X58033713Y-109750500D01*
X58033714Y-109750500D01*
X58246286Y-109750500D01*
X58246287Y-109750500D01*
X58456243Y-109717246D01*
X58658412Y-109651557D01*
X58847816Y-109555051D01*
X58934471Y-109492093D01*
X59019786Y-109430109D01*
X59019788Y-109430106D01*
X59019792Y-109430104D01*
X59019795Y-109430100D01*
X59019848Y-109430062D01*
X59020605Y-109429290D01*
X59169290Y-109280605D01*
X59170065Y-109279845D01*
X59170124Y-109279765D01*
X59289315Y-109115712D01*
X59289321Y-109115704D01*
X59300782Y-109099928D01*
X59303062Y-109096789D01*
X59313229Y-109084531D01*
X59320647Y-109076678D01*
X59380985Y-109041457D01*
X59450791Y-109044447D01*
X59504503Y-109080612D01*
X59510707Y-109087771D01*
X59522729Y-109104193D01*
X59524949Y-109107817D01*
X59524951Y-109107820D01*
X59649890Y-109279786D01*
X59649892Y-109279788D01*
X59800216Y-109430112D01*
X59972183Y-109555052D01*
X59972471Y-109555197D01*
X60161588Y-109651557D01*
X60363757Y-109717246D01*
X60573713Y-109750500D01*
X60573714Y-109750500D01*
X60786286Y-109750500D01*
X60786287Y-109750500D01*
X60996243Y-109717246D01*
X61198412Y-109651557D01*
X61387816Y-109555051D01*
X61474471Y-109492093D01*
X61559786Y-109430109D01*
X61559788Y-109430106D01*
X61559792Y-109430104D01*
X61559795Y-109430100D01*
X61559848Y-109430062D01*
X61560605Y-109429290D01*
X61709290Y-109280605D01*
X61710065Y-109279845D01*
X61710124Y-109279765D01*
X61829315Y-109115712D01*
X61829321Y-109115704D01*
X61840782Y-109099928D01*
X61843062Y-109096789D01*
X61853229Y-109084531D01*
X61860647Y-109076678D01*
X61920985Y-109041457D01*
X61990791Y-109044447D01*
X62044503Y-109080612D01*
X62050707Y-109087771D01*
X62062729Y-109104193D01*
X62064949Y-109107817D01*
X62064951Y-109107820D01*
X62189890Y-109279786D01*
X62189892Y-109279788D01*
X62340216Y-109430112D01*
X62512183Y-109555052D01*
X62512471Y-109555197D01*
X62701588Y-109651557D01*
X62903757Y-109717246D01*
X63113713Y-109750500D01*
X63113714Y-109750500D01*
X63326286Y-109750500D01*
X63326287Y-109750500D01*
X63536243Y-109717246D01*
X63738412Y-109651557D01*
X63927816Y-109555051D01*
X64014471Y-109492093D01*
X64099786Y-109430109D01*
X64099788Y-109430106D01*
X64099792Y-109430104D01*
X64099795Y-109430100D01*
X64099848Y-109430062D01*
X64100605Y-109429290D01*
X64249290Y-109280605D01*
X64250065Y-109279845D01*
X64250124Y-109279765D01*
X64375048Y-109107820D01*
X64375047Y-109107820D01*
X64375051Y-109107816D01*
X64375053Y-109107810D01*
X64395445Y-109079744D01*
X64403730Y-109051529D01*
X64471557Y-108918412D01*
X64537246Y-108716243D01*
X64570500Y-108506287D01*
X64570500Y-108293713D01*
X64537246Y-108083757D01*
X64471557Y-107881588D01*
X64375197Y-107692471D01*
X64375052Y-107692183D01*
X64250112Y-107520216D01*
X64099788Y-107369892D01*
X64099786Y-107369890D01*
X63927820Y-107244951D01*
X63893073Y-107227247D01*
X63755911Y-107157359D01*
X63750571Y-107153479D01*
X63726254Y-107143406D01*
X63719734Y-107142374D01*
X63658726Y-107122551D01*
X63545074Y-107085623D01*
X63540552Y-107083770D01*
X63531362Y-107081600D01*
X63526599Y-107081226D01*
X63374957Y-107057208D01*
X63355489Y-107054124D01*
X63326290Y-107049500D01*
X63326287Y-107049500D01*
X63113713Y-107049500D01*
X63113709Y-107049500D01*
X63074776Y-107055666D01*
X63065042Y-107057208D01*
X63027654Y-107063129D01*
X62903763Y-107082752D01*
X62701582Y-107148445D01*
X62512182Y-107244949D01*
X62340210Y-107369892D01*
X62189892Y-107520210D01*
X62189890Y-107520213D01*
X62064949Y-107692182D01*
X62064948Y-107692183D01*
X62064945Y-107692188D01*
X62064634Y-107692696D01*
X62063499Y-107694177D01*
X62062085Y-107696125D01*
X62062036Y-107696089D01*
X62049060Y-107713041D01*
X62039353Y-107723319D01*
X61979011Y-107758542D01*
X61909205Y-107755550D01*
X61855488Y-107719378D01*
X61849285Y-107712219D01*
X61837274Y-107695811D01*
X61835053Y-107692187D01*
X61835051Y-107692184D01*
X61835050Y-107692182D01*
X61710109Y-107520213D01*
X61559786Y-107369890D01*
X61387820Y-107244951D01*
X61353073Y-107227247D01*
X61215911Y-107157359D01*
X61210571Y-107153479D01*
X61186254Y-107143406D01*
X61179734Y-107142374D01*
X61118726Y-107122551D01*
X61005074Y-107085623D01*
X61000552Y-107083770D01*
X60991362Y-107081600D01*
X60986599Y-107081226D01*
X60834957Y-107057208D01*
X60815489Y-107054124D01*
X60786290Y-107049500D01*
X60786287Y-107049500D01*
X60573713Y-107049500D01*
X60573709Y-107049500D01*
X60534776Y-107055666D01*
X60525042Y-107057208D01*
X60487654Y-107063129D01*
X60363763Y-107082752D01*
X60161582Y-107148445D01*
X59972182Y-107244949D01*
X59800210Y-107369892D01*
X59649892Y-107520210D01*
X59649890Y-107520213D01*
X59524949Y-107692182D01*
X59524948Y-107692183D01*
X59524945Y-107692188D01*
X59524634Y-107692696D01*
X59523499Y-107694177D01*
X59522085Y-107696125D01*
X59522036Y-107696089D01*
X59509060Y-107713041D01*
X59499353Y-107723319D01*
X59439011Y-107758542D01*
X59369205Y-107755550D01*
X59315488Y-107719378D01*
X59309285Y-107712219D01*
X59297274Y-107695811D01*
X59295053Y-107692187D01*
X59295051Y-107692184D01*
X59295050Y-107692182D01*
X59170109Y-107520213D01*
X59019786Y-107369890D01*
X58847820Y-107244951D01*
X58813073Y-107227247D01*
X58675911Y-107157359D01*
X58670571Y-107153479D01*
X58646254Y-107143406D01*
X58639734Y-107142374D01*
X58578726Y-107122551D01*
X58465074Y-107085623D01*
X58460552Y-107083770D01*
X58451362Y-107081600D01*
X58446599Y-107081226D01*
X58294957Y-107057208D01*
X58275489Y-107054124D01*
X58246290Y-107049500D01*
X58246287Y-107049500D01*
X58033713Y-107049500D01*
X58033709Y-107049500D01*
X57994776Y-107055666D01*
X57985042Y-107057208D01*
X57947654Y-107063129D01*
X57823763Y-107082752D01*
X57621582Y-107148445D01*
X57432182Y-107244949D01*
X57260210Y-107369892D01*
X57109892Y-107520210D01*
X57109890Y-107520213D01*
X56984949Y-107692182D01*
X56984948Y-107692183D01*
X56984945Y-107692188D01*
X56984634Y-107692696D01*
X56983499Y-107694177D01*
X56982085Y-107696125D01*
X56982036Y-107696089D01*
X56969060Y-107713041D01*
X56959353Y-107723319D01*
X56899011Y-107758542D01*
X56829205Y-107755550D01*
X56775488Y-107719378D01*
X56769285Y-107712219D01*
X56757274Y-107695811D01*
X56755053Y-107692187D01*
X56755051Y-107692184D01*
X56755050Y-107692182D01*
X56630109Y-107520213D01*
X56479786Y-107369890D01*
X56307820Y-107244951D01*
X56273073Y-107227247D01*
X56135911Y-107157359D01*
X56130571Y-107153479D01*
X56106254Y-107143406D01*
X56099734Y-107142374D01*
X56038726Y-107122551D01*
X55925074Y-107085623D01*
X55920552Y-107083770D01*
X55911362Y-107081600D01*
X55906599Y-107081226D01*
X55754957Y-107057208D01*
X55735489Y-107054124D01*
X55706290Y-107049500D01*
X55706287Y-107049500D01*
X55493713Y-107049500D01*
X55493709Y-107049500D01*
X55454776Y-107055666D01*
X55445042Y-107057208D01*
X55407654Y-107063129D01*
X55283763Y-107082752D01*
X55081582Y-107148445D01*
X54892182Y-107244949D01*
X54720210Y-107369892D01*
X54569892Y-107520210D01*
X54569890Y-107520213D01*
X54444949Y-107692182D01*
X54444948Y-107692183D01*
X54444945Y-107692188D01*
X54444634Y-107692696D01*
X54443499Y-107694177D01*
X54442085Y-107696125D01*
X54442036Y-107696089D01*
X54429060Y-107713041D01*
X54419353Y-107723319D01*
X54359011Y-107758542D01*
X54289205Y-107755550D01*
X54235488Y-107719378D01*
X54229285Y-107712219D01*
X54217274Y-107695811D01*
X54215053Y-107692187D01*
X54215051Y-107692184D01*
X54215050Y-107692182D01*
X54090109Y-107520213D01*
X53939786Y-107369890D01*
X53767820Y-107244951D01*
X53733073Y-107227247D01*
X53595911Y-107157359D01*
X53590571Y-107153479D01*
X53566254Y-107143406D01*
X53559734Y-107142374D01*
X53498726Y-107122551D01*
X53385074Y-107085623D01*
X53380552Y-107083770D01*
X53371362Y-107081600D01*
X53366599Y-107081226D01*
X53214957Y-107057208D01*
X53195489Y-107054124D01*
X53166290Y-107049500D01*
X53166287Y-107049500D01*
X52953713Y-107049500D01*
X52953709Y-107049500D01*
X52914776Y-107055666D01*
X52905042Y-107057208D01*
X52867654Y-107063129D01*
X52743763Y-107082752D01*
X52541582Y-107148445D01*
X52352182Y-107244949D01*
X52180218Y-107369886D01*
X52078893Y-107471211D01*
X52050636Y-107492363D01*
X52038453Y-107499015D01*
X51970180Y-107513865D01*
X51904716Y-107489446D01*
X51904717Y-107489446D01*
X51903024Y-107488179D01*
X51901026Y-107486683D01*
X51859175Y-107430765D01*
X51847514Y-107399500D01*
X51813354Y-107307913D01*
X51813350Y-107307906D01*
X51727190Y-107192812D01*
X51727187Y-107192809D01*
X51727185Y-107192807D01*
X51659815Y-107142374D01*
X51612093Y-107106649D01*
X51612086Y-107106645D01*
X51543934Y-107081226D01*
X51477377Y-107056402D01*
X51477370Y-107056400D01*
X51417852Y-107050000D01*
X51417844Y-107050000D01*
X50770000Y-107050000D01*
X50770000Y-107787749D01*
X50750315Y-107854788D01*
X50697511Y-107900543D01*
X50628353Y-107910487D01*
X50613908Y-107907524D01*
X50585828Y-107900000D01*
X50585826Y-107900000D01*
X50454174Y-107900000D01*
X50454171Y-107900000D01*
X50426092Y-107907524D01*
X50356242Y-107905861D01*
X50298380Y-107866698D01*
X50270877Y-107802469D01*
X50270000Y-107787749D01*
X50270000Y-107050000D01*
X49622155Y-107050000D01*
X49622146Y-107050000D01*
X49562628Y-107056400D01*
X49562621Y-107056402D01*
X49427910Y-107106646D01*
X49427907Y-107106648D01*
X49312813Y-107192807D01*
X49312807Y-107192813D01*
X49226648Y-107307907D01*
X49226646Y-107307910D01*
X49176402Y-107442621D01*
X49176400Y-107442628D01*
X49170000Y-107502146D01*
X44996451Y-107502146D01*
X44979191Y-107490613D01*
X44979190Y-107490612D01*
X44979185Y-107490609D01*
X44979172Y-107490602D01*
X44979165Y-107490598D01*
X44833502Y-107430264D01*
X44833471Y-107430257D01*
X44678847Y-107399500D01*
X44678845Y-107399500D01*
X44678842Y-107399500D01*
X44521158Y-107399500D01*
X44521155Y-107399500D01*
X44521153Y-107399500D01*
X44366527Y-107430257D01*
X44366496Y-107430264D01*
X44220833Y-107490598D01*
X44220824Y-107490603D01*
X44220807Y-107490613D01*
X44089708Y-107578211D01*
X44089707Y-107578212D01*
X44089701Y-107578217D01*
X43978225Y-107689693D01*
X43978215Y-107689704D01*
X43978213Y-107689707D01*
X43978208Y-107689713D01*
X43973948Y-107696089D01*
X43938815Y-107748667D01*
X43915227Y-107774925D01*
X43906550Y-107782176D01*
X43842486Y-107810059D01*
X43773516Y-107798880D01*
X43721540Y-107752189D01*
X43720067Y-107749804D01*
X43701604Y-107687687D01*
X43693210Y-107345359D01*
X43697375Y-107310314D01*
X43701410Y-107295212D01*
X43737712Y-107235545D01*
X43738460Y-107234864D01*
X43794107Y-107205713D01*
X43802999Y-107203664D01*
X43830836Y-107200500D01*
X43982964Y-107200500D01*
X43990814Y-107198118D01*
X44133497Y-107169737D01*
X44279179Y-107109394D01*
X44410289Y-107021789D01*
X44521789Y-106910289D01*
X44609394Y-106779179D01*
X44669737Y-106633497D01*
X44700500Y-106478842D01*
X44700500Y-106321158D01*
X44700500Y-106321155D01*
X44700500Y-106320973D01*
X44700065Y-106318972D01*
X44672192Y-106178848D01*
X44670395Y-106169815D01*
X44669983Y-106167403D01*
X44669737Y-106166504D01*
X44609532Y-106021153D01*
X44609522Y-106021130D01*
X44609397Y-106020827D01*
X44609390Y-106020814D01*
X44521789Y-105889711D01*
X44521786Y-105889707D01*
X44521781Y-105889701D01*
X44410297Y-105778217D01*
X44410291Y-105778212D01*
X44410290Y-105778211D01*
X44325919Y-105721836D01*
X44279185Y-105690609D01*
X44279172Y-105690602D01*
X44279165Y-105690598D01*
X44133502Y-105630264D01*
X44133471Y-105630257D01*
X43978847Y-105599500D01*
X43978845Y-105599500D01*
X43978842Y-105599500D01*
X43821158Y-105599500D01*
X43813243Y-105601074D01*
X43778004Y-105602961D01*
X43764183Y-105601724D01*
X43699165Y-105576142D01*
X43658300Y-105519470D01*
X43654240Y-105507961D01*
X43647214Y-105469749D01*
X43632798Y-104881896D01*
X48699500Y-104881896D01*
X48699500Y-105118102D01*
X48721194Y-105255072D01*
X48736446Y-105351368D01*
X48809433Y-105575996D01*
X48867832Y-105690609D01*
X48916657Y-105786433D01*
X49055483Y-105977510D01*
X49222490Y-106144517D01*
X49413567Y-106283343D01*
X49487783Y-106321158D01*
X49487782Y-106321158D01*
X49512007Y-106333501D01*
X49617560Y-106387283D01*
X49619147Y-106388213D01*
X49622865Y-106390014D01*
X49624862Y-106391007D01*
X49628630Y-106392070D01*
X49676335Y-106407569D01*
X49744410Y-106429688D01*
X49744411Y-106429689D01*
X49744412Y-106429689D01*
X49848631Y-106463553D01*
X50081903Y-106500500D01*
X50081908Y-106500500D01*
X50318096Y-106500500D01*
X50318097Y-106500500D01*
X50551368Y-106463553D01*
X50775992Y-106390568D01*
X50986433Y-106283343D01*
X51177510Y-106144517D01*
X51344517Y-105977510D01*
X51483343Y-105786433D01*
X51590568Y-105575992D01*
X51663553Y-105351368D01*
X51674304Y-105283489D01*
X51700500Y-105118097D01*
X51700500Y-104881902D01*
X51700499Y-104881896D01*
X53199500Y-104881896D01*
X53199500Y-105118102D01*
X53221194Y-105255072D01*
X53236446Y-105351368D01*
X53309433Y-105575996D01*
X53367832Y-105690609D01*
X53416657Y-105786433D01*
X53555483Y-105977510D01*
X53722490Y-106144517D01*
X53913567Y-106283343D01*
X53987783Y-106321158D01*
X53987782Y-106321158D01*
X54012007Y-106333501D01*
X54117560Y-106387283D01*
X54119147Y-106388213D01*
X54122865Y-106390014D01*
X54124862Y-106391007D01*
X54128630Y-106392070D01*
X54176335Y-106407569D01*
X54244410Y-106429688D01*
X54244411Y-106429689D01*
X54244412Y-106429689D01*
X54348631Y-106463553D01*
X54581903Y-106500500D01*
X54581908Y-106500500D01*
X54818096Y-106500500D01*
X54818097Y-106500500D01*
X55051368Y-106463553D01*
X55275992Y-106390568D01*
X55486433Y-106283343D01*
X55677510Y-106144517D01*
X55844517Y-105977510D01*
X55983343Y-105786433D01*
X56090568Y-105575992D01*
X56163553Y-105351368D01*
X56174304Y-105283489D01*
X56198797Y-105128848D01*
X56849499Y-105128848D01*
X56880257Y-105283471D01*
X56880261Y-105283489D01*
X56880263Y-105283500D01*
X56940598Y-105429165D01*
X56940603Y-105429174D01*
X56940613Y-105429191D01*
X57028211Y-105560290D01*
X57028212Y-105560291D01*
X57028217Y-105560297D01*
X57139701Y-105671781D01*
X57139707Y-105671786D01*
X57139711Y-105671789D01*
X57270814Y-105759390D01*
X57270827Y-105759397D01*
X57316254Y-105778213D01*
X57416503Y-105819737D01*
X57416505Y-105819737D01*
X57416510Y-105819739D01*
X57542630Y-105844825D01*
X57563513Y-105848979D01*
X57566247Y-105849703D01*
X57571155Y-105850500D01*
X57728844Y-105850500D01*
X57732964Y-105850500D01*
X57740814Y-105848118D01*
X57883497Y-105819737D01*
X58029179Y-105759394D01*
X58160289Y-105671789D01*
X58271789Y-105560289D01*
X58359394Y-105429179D01*
X58419737Y-105283497D01*
X58450500Y-105128842D01*
X58450500Y-104971158D01*
X58450500Y-104971155D01*
X58436590Y-104901228D01*
X58436590Y-104901227D01*
X58432745Y-104881896D01*
X59499500Y-104881896D01*
X59499500Y-105118102D01*
X59521194Y-105255072D01*
X59536446Y-105351368D01*
X59609433Y-105575996D01*
X59667832Y-105690609D01*
X59716657Y-105786433D01*
X59855483Y-105977510D01*
X60022490Y-106144517D01*
X60213567Y-106283343D01*
X60287783Y-106321158D01*
X60287782Y-106321158D01*
X60312007Y-106333501D01*
X60417560Y-106387283D01*
X60419147Y-106388213D01*
X60422865Y-106390014D01*
X60424862Y-106391007D01*
X60428630Y-106392070D01*
X60476335Y-106407569D01*
X60544410Y-106429688D01*
X60544411Y-106429689D01*
X60544412Y-106429689D01*
X60648631Y-106463553D01*
X60881903Y-106500500D01*
X60881908Y-106500500D01*
X61118096Y-106500500D01*
X61118097Y-106500500D01*
X61351368Y-106463553D01*
X61575992Y-106390568D01*
X61786433Y-106283343D01*
X61977510Y-106144517D01*
X62144517Y-105977510D01*
X62283343Y-105786433D01*
X62390568Y-105575992D01*
X62463553Y-105351368D01*
X62474304Y-105283489D01*
X62500500Y-105118097D01*
X62500500Y-104881902D01*
X62463553Y-104648631D01*
X62392071Y-104428634D01*
X62391008Y-104424864D01*
X62390010Y-104422856D01*
X62388220Y-104419160D01*
X62387279Y-104417552D01*
X62317325Y-104280261D01*
X62283343Y-104213567D01*
X62144517Y-104022490D01*
X61977510Y-103855483D01*
X61786433Y-103716657D01*
X61575996Y-103609433D01*
X61351368Y-103536446D01*
X61351362Y-103536445D01*
X61118102Y-103499500D01*
X61118097Y-103499500D01*
X61118092Y-103499500D01*
X60881908Y-103499500D01*
X60881903Y-103499500D01*
X60881898Y-103499500D01*
X60648636Y-103536445D01*
X60648634Y-103536445D01*
X60648631Y-103536446D01*
X60424003Y-103609433D01*
X60276075Y-103684807D01*
X60213562Y-103716659D01*
X60104549Y-103795861D01*
X60104550Y-103795862D01*
X60034361Y-103846858D01*
X60026980Y-103850991D01*
X59850990Y-104026981D01*
X59846861Y-104034355D01*
X59831650Y-104055293D01*
X59831647Y-104055298D01*
X59716657Y-104213566D01*
X59716654Y-104213570D01*
X59716653Y-104213573D01*
X59682676Y-104280257D01*
X59609433Y-104424003D01*
X59536446Y-104648631D01*
X59536445Y-104648634D01*
X59536445Y-104648636D01*
X59499500Y-104881896D01*
X58432745Y-104881896D01*
X58420394Y-104819809D01*
X58419994Y-104817466D01*
X58419738Y-104816508D01*
X58419737Y-104816506D01*
X58419737Y-104816503D01*
X58419735Y-104816498D01*
X58359397Y-104670827D01*
X58359390Y-104670814D01*
X58271789Y-104539711D01*
X58271786Y-104539707D01*
X58271781Y-104539701D01*
X58160297Y-104428217D01*
X58160291Y-104428212D01*
X58160290Y-104428211D01*
X58029191Y-104340613D01*
X58029190Y-104340612D01*
X58029185Y-104340609D01*
X58029172Y-104340602D01*
X58029165Y-104340598D01*
X57883502Y-104280264D01*
X57883471Y-104280257D01*
X57728847Y-104249500D01*
X57728845Y-104249500D01*
X57728842Y-104249500D01*
X57571158Y-104249500D01*
X57571155Y-104249500D01*
X57571153Y-104249500D01*
X57416527Y-104280257D01*
X57416496Y-104280264D01*
X57270833Y-104340598D01*
X57270824Y-104340603D01*
X57270807Y-104340613D01*
X57139708Y-104428211D01*
X57139707Y-104428212D01*
X57139701Y-104428217D01*
X57028217Y-104539701D01*
X57028212Y-104539707D01*
X57028211Y-104539708D01*
X56940613Y-104670807D01*
X56940603Y-104670824D01*
X56940598Y-104670833D01*
X56880264Y-104816496D01*
X56880257Y-104816527D01*
X56849500Y-104971150D01*
X56849500Y-104971153D01*
X56849500Y-105128846D01*
X56849500Y-105128848D01*
X56849499Y-105128848D01*
X56198797Y-105128848D01*
X56200500Y-105118097D01*
X56200500Y-104881902D01*
X56163553Y-104648631D01*
X56092071Y-104428634D01*
X56091008Y-104424864D01*
X56090010Y-104422856D01*
X56088220Y-104419160D01*
X56087279Y-104417552D01*
X56017325Y-104280261D01*
X55983343Y-104213567D01*
X55844517Y-104022490D01*
X55677510Y-103855483D01*
X55486433Y-103716657D01*
X55275996Y-103609433D01*
X55051368Y-103536446D01*
X55051362Y-103536445D01*
X54818102Y-103499500D01*
X54818097Y-103499500D01*
X54818092Y-103499500D01*
X54581908Y-103499500D01*
X54581903Y-103499500D01*
X54581898Y-103499500D01*
X54348636Y-103536445D01*
X54348634Y-103536445D01*
X54348631Y-103536446D01*
X54124003Y-103609433D01*
X53976075Y-103684807D01*
X53913562Y-103716659D01*
X53804549Y-103795861D01*
X53804550Y-103795862D01*
X53734361Y-103846858D01*
X53726980Y-103850991D01*
X53550990Y-104026981D01*
X53546861Y-104034355D01*
X53531650Y-104055293D01*
X53531647Y-104055298D01*
X53416657Y-104213566D01*
X53416654Y-104213570D01*
X53416653Y-104213573D01*
X53382676Y-104280257D01*
X53309433Y-104424003D01*
X53236446Y-104648631D01*
X53236445Y-104648634D01*
X53236445Y-104648636D01*
X53199500Y-104881896D01*
X51700499Y-104881896D01*
X51663553Y-104648631D01*
X51592071Y-104428634D01*
X51591008Y-104424864D01*
X51590010Y-104422856D01*
X51588220Y-104419160D01*
X51587279Y-104417552D01*
X51517325Y-104280261D01*
X51483343Y-104213567D01*
X51344517Y-104022490D01*
X51177510Y-103855483D01*
X50986433Y-103716657D01*
X50775996Y-103609433D01*
X50551368Y-103536446D01*
X50551362Y-103536445D01*
X50318102Y-103499500D01*
X50318097Y-103499500D01*
X50318092Y-103499500D01*
X50081908Y-103499500D01*
X50081903Y-103499500D01*
X50081898Y-103499500D01*
X49848636Y-103536445D01*
X49848634Y-103536445D01*
X49848631Y-103536446D01*
X49624003Y-103609433D01*
X49476075Y-103684807D01*
X49413562Y-103716659D01*
X49304549Y-103795861D01*
X49304550Y-103795862D01*
X49234361Y-103846858D01*
X49226980Y-103850991D01*
X49050990Y-104026981D01*
X49046861Y-104034355D01*
X49031650Y-104055293D01*
X49031647Y-104055298D01*
X48916657Y-104213566D01*
X48916654Y-104213570D01*
X48916653Y-104213573D01*
X48882676Y-104280257D01*
X48809433Y-104424003D01*
X48736446Y-104648631D01*
X48736445Y-104648634D01*
X48736445Y-104648636D01*
X48699500Y-104881896D01*
X43632798Y-104881896D01*
X43576609Y-102590609D01*
X43549345Y-101478848D01*
X56964586Y-101478848D01*
X56995344Y-101633471D01*
X56995351Y-101633502D01*
X57055685Y-101779165D01*
X57055690Y-101779174D01*
X57055700Y-101779191D01*
X57143298Y-101910290D01*
X57143299Y-101910291D01*
X57143304Y-101910297D01*
X57254788Y-102021781D01*
X57254794Y-102021786D01*
X57254798Y-102021789D01*
X57385901Y-102109390D01*
X57385914Y-102109397D01*
X57531585Y-102169735D01*
X57531590Y-102169737D01*
X57678600Y-102198979D01*
X57681334Y-102199703D01*
X57686242Y-102200500D01*
X57843931Y-102200500D01*
X57848051Y-102200500D01*
X57855901Y-102198118D01*
X57998584Y-102169737D01*
X58144266Y-102109394D01*
X58275376Y-102021789D01*
X58386876Y-101910289D01*
X58474481Y-101779179D01*
X58534824Y-101633497D01*
X58565587Y-101478842D01*
X58565587Y-101321158D01*
X58565550Y-101320975D01*
X58565550Y-101320968D01*
X58556695Y-101276456D01*
X58535481Y-101169809D01*
X58535070Y-101167402D01*
X58534825Y-101166508D01*
X58534824Y-101166506D01*
X58534824Y-101166503D01*
X58524771Y-101142233D01*
X58474484Y-101020827D01*
X58474477Y-101020814D01*
X58386876Y-100889711D01*
X58386873Y-100889707D01*
X58386868Y-100889701D01*
X58275384Y-100778217D01*
X58275378Y-100778212D01*
X58275377Y-100778211D01*
X58144278Y-100690613D01*
X58144277Y-100690612D01*
X58144272Y-100690609D01*
X58144259Y-100690602D01*
X58144252Y-100690598D01*
X57998589Y-100630264D01*
X57998558Y-100630257D01*
X57843934Y-100599500D01*
X57843932Y-100599500D01*
X57843929Y-100599500D01*
X57686245Y-100599500D01*
X57686242Y-100599500D01*
X57686240Y-100599500D01*
X57531614Y-100630257D01*
X57531583Y-100630264D01*
X57385920Y-100690598D01*
X57385911Y-100690603D01*
X57385894Y-100690613D01*
X57254795Y-100778211D01*
X57254794Y-100778212D01*
X57254788Y-100778217D01*
X57143304Y-100889701D01*
X57143299Y-100889707D01*
X57143298Y-100889708D01*
X57055700Y-101020807D01*
X57055690Y-101020824D01*
X57055685Y-101020833D01*
X56995351Y-101166496D01*
X56995344Y-101166527D01*
X56964587Y-101321150D01*
X56964587Y-101321153D01*
X56964587Y-101478846D01*
X56964587Y-101478848D01*
X56964586Y-101478848D01*
X43549345Y-101478848D01*
X43545403Y-101318101D01*
X43465966Y-98078848D01*
X45399499Y-98078848D01*
X45430257Y-98233471D01*
X45430264Y-98233502D01*
X45490598Y-98379165D01*
X45490603Y-98379174D01*
X45490613Y-98379191D01*
X45578211Y-98510290D01*
X45578212Y-98510291D01*
X45578217Y-98510297D01*
X45689701Y-98621781D01*
X45689707Y-98621786D01*
X45689711Y-98621789D01*
X45820814Y-98709390D01*
X45820827Y-98709397D01*
X45966498Y-98769735D01*
X45966503Y-98769737D01*
X46113513Y-98798979D01*
X46116247Y-98799703D01*
X46121155Y-98800500D01*
X46278844Y-98800500D01*
X46282964Y-98800500D01*
X46290814Y-98798118D01*
X46433497Y-98769737D01*
X46579179Y-98709394D01*
X46710289Y-98621789D01*
X46821789Y-98510289D01*
X46907579Y-98381896D01*
X48699500Y-98381896D01*
X48699500Y-98618102D01*
X48728263Y-98799703D01*
X48736446Y-98851368D01*
X48809433Y-99075996D01*
X48877405Y-99209397D01*
X48916657Y-99286433D01*
X49055483Y-99477510D01*
X49222490Y-99644517D01*
X49413567Y-99783343D01*
X49512991Y-99834002D01*
X49617559Y-99887283D01*
X49619152Y-99888215D01*
X49622865Y-99890014D01*
X49624862Y-99891007D01*
X49628630Y-99892070D01*
X49676335Y-99907569D01*
X49744410Y-99929688D01*
X49744411Y-99929689D01*
X49744412Y-99929689D01*
X49848631Y-99963553D01*
X50081903Y-100000500D01*
X50081908Y-100000500D01*
X50318096Y-100000500D01*
X50318097Y-100000500D01*
X50551368Y-99963553D01*
X50775992Y-99890568D01*
X50986433Y-99783343D01*
X51177510Y-99644517D01*
X51344517Y-99477510D01*
X51483343Y-99286433D01*
X51590568Y-99075992D01*
X51663553Y-98851368D01*
X51676482Y-98769737D01*
X51700500Y-98618097D01*
X51700500Y-98381902D01*
X51700499Y-98381896D01*
X53199500Y-98381896D01*
X53199500Y-98618102D01*
X53228263Y-98799703D01*
X53236446Y-98851368D01*
X53309433Y-99075996D01*
X53377405Y-99209397D01*
X53416657Y-99286433D01*
X53555483Y-99477510D01*
X53722490Y-99644517D01*
X53913567Y-99783343D01*
X54012991Y-99834002D01*
X54117559Y-99887283D01*
X54119152Y-99888215D01*
X54122865Y-99890014D01*
X54124862Y-99891007D01*
X54128630Y-99892070D01*
X54176335Y-99907569D01*
X54244410Y-99929688D01*
X54244411Y-99929689D01*
X54244412Y-99929689D01*
X54348631Y-99963553D01*
X54581903Y-100000500D01*
X54581908Y-100000500D01*
X54818096Y-100000500D01*
X54818097Y-100000500D01*
X55051368Y-99963553D01*
X55275992Y-99890568D01*
X55486433Y-99783343D01*
X55677510Y-99644517D01*
X55844517Y-99477510D01*
X55983343Y-99286433D01*
X56090568Y-99075992D01*
X56163553Y-98851368D01*
X56176482Y-98769737D01*
X56200500Y-98618097D01*
X56200500Y-98578848D01*
X56599499Y-98578848D01*
X56630257Y-98733471D01*
X56630264Y-98733502D01*
X56690598Y-98879165D01*
X56690603Y-98879174D01*
X56690613Y-98879191D01*
X56778211Y-99010290D01*
X56778212Y-99010291D01*
X56778217Y-99010297D01*
X56889701Y-99121781D01*
X56889707Y-99121786D01*
X56889711Y-99121789D01*
X57020814Y-99209390D01*
X57020827Y-99209397D01*
X57166498Y-99269735D01*
X57166503Y-99269737D01*
X57313513Y-99298979D01*
X57316247Y-99299703D01*
X57321155Y-99300500D01*
X57478844Y-99300500D01*
X57482964Y-99300500D01*
X57490814Y-99298118D01*
X57633497Y-99269737D01*
X57779179Y-99209394D01*
X57910289Y-99121789D01*
X58021789Y-99010289D01*
X58109394Y-98879179D01*
X58169737Y-98733497D01*
X58200500Y-98578842D01*
X58200500Y-98421158D01*
X58200500Y-98421155D01*
X58196536Y-98401228D01*
X58196536Y-98401227D01*
X58192691Y-98381896D01*
X59499500Y-98381896D01*
X59499500Y-98618102D01*
X59528263Y-98799703D01*
X59536446Y-98851368D01*
X59609433Y-99075996D01*
X59677405Y-99209397D01*
X59716657Y-99286433D01*
X59855483Y-99477510D01*
X60022490Y-99644517D01*
X60213567Y-99783343D01*
X60312991Y-99834002D01*
X60417559Y-99887283D01*
X60419152Y-99888215D01*
X60422865Y-99890014D01*
X60424862Y-99891007D01*
X60428630Y-99892070D01*
X60476335Y-99907569D01*
X60544410Y-99929688D01*
X60544411Y-99929689D01*
X60544412Y-99929689D01*
X60648631Y-99963553D01*
X60881903Y-100000500D01*
X60881908Y-100000500D01*
X61118096Y-100000500D01*
X61118097Y-100000500D01*
X61351368Y-99963553D01*
X61575992Y-99890568D01*
X61786433Y-99783343D01*
X61977510Y-99644517D01*
X62144517Y-99477510D01*
X62283343Y-99286433D01*
X62390568Y-99075992D01*
X62463553Y-98851368D01*
X62476482Y-98769737D01*
X62500500Y-98618097D01*
X62500500Y-98381902D01*
X62500499Y-98381896D01*
X63999500Y-98381896D01*
X63999500Y-98618102D01*
X64028263Y-98799703D01*
X64036446Y-98851368D01*
X64109433Y-99075996D01*
X64177405Y-99209397D01*
X64216657Y-99286433D01*
X64355483Y-99477510D01*
X64522490Y-99644517D01*
X64713567Y-99783343D01*
X64812991Y-99834002D01*
X64917559Y-99887283D01*
X64919152Y-99888215D01*
X64922865Y-99890014D01*
X64924862Y-99891007D01*
X64928630Y-99892070D01*
X64976335Y-99907569D01*
X65044410Y-99929688D01*
X65044411Y-99929689D01*
X65044412Y-99929689D01*
X65148631Y-99963553D01*
X65381903Y-100000500D01*
X65381908Y-100000500D01*
X65618096Y-100000500D01*
X65618097Y-100000500D01*
X65851368Y-99963553D01*
X66075992Y-99890568D01*
X66286433Y-99783343D01*
X66477510Y-99644517D01*
X66644517Y-99477510D01*
X66783343Y-99286433D01*
X66890568Y-99075992D01*
X66963553Y-98851368D01*
X66976482Y-98769737D01*
X67000500Y-98618097D01*
X67000500Y-98381902D01*
X66963553Y-98148631D01*
X66890566Y-97924003D01*
X66810315Y-97766503D01*
X66783343Y-97713567D01*
X66644517Y-97522490D01*
X66477510Y-97355483D01*
X66286433Y-97216657D01*
X66075996Y-97109433D01*
X65851368Y-97036446D01*
X65851362Y-97036445D01*
X65618102Y-96999500D01*
X65618097Y-96999500D01*
X65618092Y-96999500D01*
X65381908Y-96999500D01*
X65381903Y-96999500D01*
X65381898Y-96999500D01*
X65148636Y-97036445D01*
X65148634Y-97036445D01*
X65148631Y-97036446D01*
X64924003Y-97109433D01*
X64852972Y-97145625D01*
X64713566Y-97216656D01*
X64611797Y-97290598D01*
X64611791Y-97290602D01*
X64534358Y-97346859D01*
X64526979Y-97350992D01*
X64350991Y-97526980D01*
X64346858Y-97534361D01*
X64295862Y-97604550D01*
X64295861Y-97604549D01*
X64216659Y-97713562D01*
X64216657Y-97713566D01*
X64109433Y-97924003D01*
X64045479Y-98120833D01*
X64036446Y-98148632D01*
X63999500Y-98381896D01*
X62500499Y-98381896D01*
X62463553Y-98148631D01*
X62390566Y-97924003D01*
X62310315Y-97766503D01*
X62283343Y-97713567D01*
X62144517Y-97522490D01*
X61977510Y-97355483D01*
X61786433Y-97216657D01*
X61575996Y-97109433D01*
X61351368Y-97036446D01*
X61351362Y-97036445D01*
X61118102Y-96999500D01*
X61118097Y-96999500D01*
X61118092Y-96999500D01*
X60881908Y-96999500D01*
X60881903Y-96999500D01*
X60881898Y-96999500D01*
X60648636Y-97036445D01*
X60648634Y-97036445D01*
X60648631Y-97036446D01*
X60424003Y-97109433D01*
X60352972Y-97145625D01*
X60213566Y-97216656D01*
X60111797Y-97290598D01*
X60111791Y-97290602D01*
X60034358Y-97346859D01*
X60026979Y-97350992D01*
X59850991Y-97526980D01*
X59846858Y-97534361D01*
X59795862Y-97604550D01*
X59795861Y-97604549D01*
X59716659Y-97713562D01*
X59716657Y-97713566D01*
X59609433Y-97924003D01*
X59545479Y-98120833D01*
X59536446Y-98148632D01*
X59499500Y-98381896D01*
X58192691Y-98381896D01*
X58170394Y-98269809D01*
X58169983Y-98267402D01*
X58169737Y-98266504D01*
X58156067Y-98233502D01*
X58120914Y-98148632D01*
X58109397Y-98120827D01*
X58109390Y-98120814D01*
X58021789Y-97989711D01*
X58021786Y-97989707D01*
X58021781Y-97989701D01*
X57910297Y-97878217D01*
X57910291Y-97878212D01*
X57910290Y-97878211D01*
X57779191Y-97790613D01*
X57779190Y-97790612D01*
X57779185Y-97790609D01*
X57779172Y-97790602D01*
X57779165Y-97790598D01*
X57633502Y-97730264D01*
X57633471Y-97730257D01*
X57478847Y-97699500D01*
X57478845Y-97699500D01*
X57478842Y-97699500D01*
X57321158Y-97699500D01*
X57321155Y-97699500D01*
X57321153Y-97699500D01*
X57166527Y-97730257D01*
X57166496Y-97730264D01*
X57020833Y-97790598D01*
X57020824Y-97790603D01*
X57020807Y-97790613D01*
X56889708Y-97878211D01*
X56889707Y-97878212D01*
X56889701Y-97878217D01*
X56778217Y-97989701D01*
X56778212Y-97989707D01*
X56778211Y-97989708D01*
X56690613Y-98120807D01*
X56690603Y-98120824D01*
X56690598Y-98120833D01*
X56630264Y-98266496D01*
X56630261Y-98266510D01*
X56599500Y-98421150D01*
X56599500Y-98421153D01*
X56599500Y-98578846D01*
X56599500Y-98578848D01*
X56599499Y-98578848D01*
X56200500Y-98578848D01*
X56200500Y-98381902D01*
X56163553Y-98148631D01*
X56090566Y-97924003D01*
X56010315Y-97766503D01*
X55983343Y-97713567D01*
X55844517Y-97522490D01*
X55677510Y-97355483D01*
X55486433Y-97216657D01*
X55275996Y-97109433D01*
X55051368Y-97036446D01*
X55051362Y-97036445D01*
X54818102Y-96999500D01*
X54818097Y-96999500D01*
X54818092Y-96999500D01*
X54581908Y-96999500D01*
X54581903Y-96999500D01*
X54581898Y-96999500D01*
X54348636Y-97036445D01*
X54348634Y-97036445D01*
X54348631Y-97036446D01*
X54124003Y-97109433D01*
X54052972Y-97145625D01*
X53913566Y-97216656D01*
X53811797Y-97290598D01*
X53811791Y-97290602D01*
X53734358Y-97346859D01*
X53726979Y-97350992D01*
X53550991Y-97526980D01*
X53546858Y-97534361D01*
X53495862Y-97604550D01*
X53495861Y-97604549D01*
X53416659Y-97713562D01*
X53416657Y-97713566D01*
X53309433Y-97924003D01*
X53245479Y-98120833D01*
X53236446Y-98148632D01*
X53199500Y-98381896D01*
X51700499Y-98381896D01*
X51663553Y-98148631D01*
X51590566Y-97924003D01*
X51510315Y-97766503D01*
X51483343Y-97713567D01*
X51344517Y-97522490D01*
X51177510Y-97355483D01*
X50986433Y-97216657D01*
X50775996Y-97109433D01*
X50551368Y-97036446D01*
X50551362Y-97036445D01*
X50318102Y-96999500D01*
X50318097Y-96999500D01*
X50318092Y-96999500D01*
X50081908Y-96999500D01*
X50081903Y-96999500D01*
X50081898Y-96999500D01*
X49848636Y-97036445D01*
X49848634Y-97036445D01*
X49848631Y-97036446D01*
X49624003Y-97109433D01*
X49552972Y-97145625D01*
X49413566Y-97216656D01*
X49311797Y-97290598D01*
X49311791Y-97290602D01*
X49234358Y-97346859D01*
X49226979Y-97350992D01*
X49050991Y-97526980D01*
X49046858Y-97534361D01*
X48995862Y-97604550D01*
X48995861Y-97604549D01*
X48916659Y-97713562D01*
X48916657Y-97713566D01*
X48809433Y-97924003D01*
X48745479Y-98120833D01*
X48736446Y-98148632D01*
X48699500Y-98381896D01*
X46907579Y-98381896D01*
X46909394Y-98379179D01*
X46909395Y-98379176D01*
X46909397Y-98379173D01*
X46929937Y-98329584D01*
X46956063Y-98266510D01*
X46969737Y-98233497D01*
X46969743Y-98233471D01*
X47000499Y-98078846D01*
X47000500Y-98078844D01*
X47000500Y-97920973D01*
X47000065Y-97918972D01*
X46991957Y-97878213D01*
X46974531Y-97790606D01*
X46969737Y-97766503D01*
X46969735Y-97766498D01*
X46909397Y-97620827D01*
X46909390Y-97620814D01*
X46821789Y-97489711D01*
X46821786Y-97489707D01*
X46821781Y-97489701D01*
X46710297Y-97378217D01*
X46710291Y-97378212D01*
X46710290Y-97378211D01*
X46579191Y-97290613D01*
X46579190Y-97290612D01*
X46579185Y-97290609D01*
X46579172Y-97290602D01*
X46579165Y-97290598D01*
X46433502Y-97230264D01*
X46433471Y-97230257D01*
X46278847Y-97199500D01*
X46278845Y-97199500D01*
X46278842Y-97199500D01*
X46121158Y-97199500D01*
X46121155Y-97199500D01*
X46121153Y-97199500D01*
X45966527Y-97230257D01*
X45966496Y-97230264D01*
X45820833Y-97290598D01*
X45820827Y-97290602D01*
X45820807Y-97290613D01*
X45689708Y-97378211D01*
X45689707Y-97378212D01*
X45689701Y-97378217D01*
X45578217Y-97489701D01*
X45578212Y-97489707D01*
X45578211Y-97489708D01*
X45490613Y-97620807D01*
X45490603Y-97620824D01*
X45490598Y-97620833D01*
X45430264Y-97766496D01*
X45430257Y-97766527D01*
X45399500Y-97921150D01*
X45399500Y-97921153D01*
X45399500Y-98078846D01*
X45399500Y-98078848D01*
X45399499Y-98078848D01*
X43465966Y-98078848D01*
X43462024Y-97918101D01*
X43425943Y-96446786D01*
X43412628Y-95903848D01*
X45374499Y-95903848D01*
X45405257Y-96058471D01*
X45405264Y-96058502D01*
X45465598Y-96204165D01*
X45465603Y-96204174D01*
X45465613Y-96204191D01*
X45553211Y-96335290D01*
X45553212Y-96335291D01*
X45553217Y-96335297D01*
X45664701Y-96446781D01*
X45664707Y-96446786D01*
X45664711Y-96446789D01*
X45795814Y-96534390D01*
X45795827Y-96534397D01*
X45941498Y-96594735D01*
X45941503Y-96594737D01*
X46088513Y-96623979D01*
X46091247Y-96624703D01*
X46096155Y-96625500D01*
X46253844Y-96625500D01*
X46257964Y-96625500D01*
X46265814Y-96623118D01*
X46408497Y-96594737D01*
X46554179Y-96534394D01*
X46685289Y-96446789D01*
X46796789Y-96335289D01*
X46884394Y-96204179D01*
X46944737Y-96058497D01*
X46975500Y-95903842D01*
X46975500Y-95746158D01*
X46975500Y-95746155D01*
X46975500Y-95745973D01*
X46975065Y-95743972D01*
X46945397Y-95594824D01*
X46944994Y-95592467D01*
X46944738Y-95591508D01*
X46944737Y-95591506D01*
X46944737Y-95591503D01*
X46944735Y-95591498D01*
X46884397Y-95445827D01*
X46884390Y-95445814D01*
X46796789Y-95314711D01*
X46796786Y-95314707D01*
X46796781Y-95314701D01*
X46685297Y-95203217D01*
X46685291Y-95203212D01*
X46685290Y-95203211D01*
X46554191Y-95115613D01*
X46554190Y-95115612D01*
X46554185Y-95115609D01*
X46554172Y-95115602D01*
X46554165Y-95115598D01*
X46408502Y-95055264D01*
X46408471Y-95055257D01*
X46253847Y-95024500D01*
X46253845Y-95024500D01*
X46253842Y-95024500D01*
X46096158Y-95024500D01*
X46096155Y-95024500D01*
X46096153Y-95024500D01*
X45941527Y-95055257D01*
X45941496Y-95055264D01*
X45795833Y-95115598D01*
X45795824Y-95115603D01*
X45795807Y-95115613D01*
X45664708Y-95203211D01*
X45664707Y-95203212D01*
X45664701Y-95203217D01*
X45553217Y-95314701D01*
X45553212Y-95314707D01*
X45553211Y-95314708D01*
X45465613Y-95445807D01*
X45465603Y-95445824D01*
X45465598Y-95445833D01*
X45405264Y-95591496D01*
X45405257Y-95591527D01*
X45374500Y-95746150D01*
X45374500Y-95746153D01*
X45374500Y-95903846D01*
X45374500Y-95903848D01*
X45374499Y-95903848D01*
X43412628Y-95903848D01*
X43328637Y-92478848D01*
X56299499Y-92478848D01*
X56330257Y-92633471D01*
X56330264Y-92633502D01*
X56390598Y-92779165D01*
X56390603Y-92779174D01*
X56390613Y-92779191D01*
X56478211Y-92910290D01*
X56478212Y-92910291D01*
X56478217Y-92910297D01*
X56589701Y-93021781D01*
X56589707Y-93021786D01*
X56589711Y-93021789D01*
X56720814Y-93109390D01*
X56720827Y-93109397D01*
X56866498Y-93169735D01*
X56866503Y-93169737D01*
X57013513Y-93198979D01*
X57016247Y-93199703D01*
X57021155Y-93200500D01*
X57178844Y-93200500D01*
X57182964Y-93200500D01*
X57190814Y-93198118D01*
X57333497Y-93169737D01*
X57479179Y-93109394D01*
X57610289Y-93021789D01*
X57721789Y-92910289D01*
X57809394Y-92779179D01*
X57869737Y-92633497D01*
X57900500Y-92478842D01*
X57900500Y-92321158D01*
X57900500Y-92321155D01*
X57900500Y-92320973D01*
X57900065Y-92318972D01*
X57870398Y-92169830D01*
X57869983Y-92167403D01*
X57869737Y-92166504D01*
X57841368Y-92098013D01*
X57809397Y-92020827D01*
X57809390Y-92020814D01*
X57721789Y-91889711D01*
X57721786Y-91889707D01*
X57721781Y-91889701D01*
X57610297Y-91778217D01*
X57610291Y-91778212D01*
X57610290Y-91778211D01*
X57479191Y-91690613D01*
X57479190Y-91690612D01*
X57479185Y-91690609D01*
X57479172Y-91690602D01*
X57479165Y-91690598D01*
X57333502Y-91630264D01*
X57333471Y-91630257D01*
X57178847Y-91599500D01*
X57178845Y-91599500D01*
X57178842Y-91599500D01*
X57021158Y-91599500D01*
X57021155Y-91599500D01*
X57021153Y-91599500D01*
X56866527Y-91630257D01*
X56866496Y-91630264D01*
X56720833Y-91690598D01*
X56720824Y-91690603D01*
X56720807Y-91690613D01*
X56589708Y-91778211D01*
X56589707Y-91778212D01*
X56589701Y-91778217D01*
X56478217Y-91889701D01*
X56478212Y-91889707D01*
X56478211Y-91889708D01*
X56390613Y-92020807D01*
X56390603Y-92020824D01*
X56390598Y-92020833D01*
X56330264Y-92166496D01*
X56330257Y-92166527D01*
X56299500Y-92321150D01*
X56299500Y-92321153D01*
X56299500Y-92478846D01*
X56299500Y-92478848D01*
X56299499Y-92478848D01*
X43328637Y-92478848D01*
X43286724Y-90769738D01*
X43269781Y-90078848D01*
X45199499Y-90078848D01*
X45230257Y-90233471D01*
X45230264Y-90233502D01*
X45290598Y-90379165D01*
X45290603Y-90379174D01*
X45290613Y-90379191D01*
X45378211Y-90510290D01*
X45378212Y-90510291D01*
X45378217Y-90510297D01*
X45489701Y-90621781D01*
X45489707Y-90621786D01*
X45489711Y-90621789D01*
X45620814Y-90709390D01*
X45620827Y-90709397D01*
X45620829Y-90709397D01*
X45620833Y-90709400D01*
X45758694Y-90766503D01*
X45766498Y-90769735D01*
X45766506Y-90769738D01*
X45884160Y-90793140D01*
X45913513Y-90798979D01*
X45916247Y-90799703D01*
X45921155Y-90800500D01*
X46078844Y-90800500D01*
X46082964Y-90800500D01*
X46090814Y-90798118D01*
X46233497Y-90769737D01*
X46379179Y-90709394D01*
X46510289Y-90621789D01*
X46621789Y-90510289D01*
X46709394Y-90379179D01*
X46769737Y-90233497D01*
X46770662Y-90228848D01*
X54049499Y-90228848D01*
X54080257Y-90383471D01*
X54080264Y-90383502D01*
X54140598Y-90529165D01*
X54140603Y-90529174D01*
X54140613Y-90529191D01*
X54228211Y-90660290D01*
X54228212Y-90660291D01*
X54228217Y-90660297D01*
X54339701Y-90771781D01*
X54339707Y-90771786D01*
X54339711Y-90771789D01*
X54470814Y-90859390D01*
X54470827Y-90859397D01*
X54616498Y-90919735D01*
X54616503Y-90919737D01*
X54763513Y-90948979D01*
X54766247Y-90949703D01*
X54771155Y-90950500D01*
X54928844Y-90950500D01*
X54932964Y-90950500D01*
X54940814Y-90948118D01*
X55083497Y-90919737D01*
X55229179Y-90859394D01*
X55360289Y-90771789D01*
X55471789Y-90660289D01*
X55559394Y-90529179D01*
X55619737Y-90383497D01*
X55640080Y-90281221D01*
X55651817Y-90247953D01*
X55658256Y-90235643D01*
X55706772Y-90185369D01*
X55774754Y-90169302D01*
X55779990Y-90169583D01*
X55842247Y-90190302D01*
X55870814Y-90209390D01*
X55870827Y-90209397D01*
X55870829Y-90209397D01*
X55870833Y-90209400D01*
X56002037Y-90263745D01*
X56002039Y-90263746D01*
X56016503Y-90269737D01*
X56121418Y-90290606D01*
X56163512Y-90298979D01*
X56166247Y-90299703D01*
X56171155Y-90300500D01*
X56328844Y-90300500D01*
X56332964Y-90300500D01*
X56340814Y-90298118D01*
X56483497Y-90269737D01*
X56629179Y-90209394D01*
X56760289Y-90121789D01*
X56871789Y-90010289D01*
X56959394Y-89879179D01*
X57019737Y-89733497D01*
X57050500Y-89578842D01*
X57050500Y-89421158D01*
X57050500Y-89421155D01*
X57050500Y-89420973D01*
X57050065Y-89418972D01*
X57049144Y-89414344D01*
X57024531Y-89290606D01*
X57019737Y-89266503D01*
X57019735Y-89266498D01*
X56959397Y-89120827D01*
X56959390Y-89120814D01*
X56871789Y-88989711D01*
X56871786Y-88989707D01*
X56871781Y-88989701D01*
X56760297Y-88878217D01*
X56760291Y-88878212D01*
X56760290Y-88878211D01*
X56629191Y-88790613D01*
X56629190Y-88790612D01*
X56629185Y-88790609D01*
X56629172Y-88790602D01*
X56629165Y-88790598D01*
X56483502Y-88730264D01*
X56483471Y-88730257D01*
X56328847Y-88699500D01*
X56328845Y-88699500D01*
X56328842Y-88699500D01*
X56171158Y-88699500D01*
X56171155Y-88699500D01*
X56171153Y-88699500D01*
X56016527Y-88730257D01*
X56016496Y-88730264D01*
X55870833Y-88790598D01*
X55870824Y-88790603D01*
X55870807Y-88790613D01*
X55739708Y-88878211D01*
X55739707Y-88878212D01*
X55739701Y-88878217D01*
X55628217Y-88989701D01*
X55628212Y-88989707D01*
X55628211Y-88989708D01*
X55540613Y-89120807D01*
X55540603Y-89120824D01*
X55540598Y-89120833D01*
X55480272Y-89266475D01*
X55480264Y-89266499D01*
X55480259Y-89266513D01*
X55459920Y-89368766D01*
X55448180Y-89402045D01*
X55441747Y-89414344D01*
X55393233Y-89464625D01*
X55325240Y-89480696D01*
X55324384Y-89480650D01*
X55320009Y-89480415D01*
X55257750Y-89459695D01*
X55229184Y-89440608D01*
X55229176Y-89440603D01*
X55229166Y-89440598D01*
X55083502Y-89380264D01*
X55083471Y-89380257D01*
X54928847Y-89349500D01*
X54928845Y-89349500D01*
X54928842Y-89349500D01*
X54771158Y-89349500D01*
X54771155Y-89349500D01*
X54771153Y-89349500D01*
X54616527Y-89380257D01*
X54616496Y-89380264D01*
X54470833Y-89440598D01*
X54470824Y-89440603D01*
X54470807Y-89440613D01*
X54339708Y-89528211D01*
X54339707Y-89528212D01*
X54339701Y-89528217D01*
X54228217Y-89639701D01*
X54228212Y-89639707D01*
X54228211Y-89639708D01*
X54140613Y-89770807D01*
X54140603Y-89770824D01*
X54140598Y-89770833D01*
X54080264Y-89916496D01*
X54080257Y-89916527D01*
X54049500Y-90071150D01*
X54049500Y-90071153D01*
X54049500Y-90228846D01*
X54049500Y-90228848D01*
X54049499Y-90228848D01*
X46770662Y-90228848D01*
X46800500Y-90078842D01*
X46800500Y-89921158D01*
X46800500Y-89921155D01*
X46800499Y-89921153D01*
X46770596Y-89770821D01*
X46769737Y-89766503D01*
X46756062Y-89733489D01*
X46709397Y-89620827D01*
X46709390Y-89620814D01*
X46621789Y-89489711D01*
X46621786Y-89489707D01*
X46621781Y-89489701D01*
X46510297Y-89378217D01*
X46510291Y-89378212D01*
X46510290Y-89378211D01*
X46379191Y-89290613D01*
X46379190Y-89290612D01*
X46379185Y-89290609D01*
X46379172Y-89290602D01*
X46379165Y-89290598D01*
X46233502Y-89230264D01*
X46233471Y-89230257D01*
X46078847Y-89199500D01*
X46078845Y-89199500D01*
X46078842Y-89199500D01*
X45921158Y-89199500D01*
X45921155Y-89199500D01*
X45921153Y-89199500D01*
X45766527Y-89230257D01*
X45766496Y-89230264D01*
X45620833Y-89290598D01*
X45620824Y-89290603D01*
X45620807Y-89290613D01*
X45489708Y-89378211D01*
X45489707Y-89378212D01*
X45489701Y-89378217D01*
X45378217Y-89489701D01*
X45378212Y-89489707D01*
X45378211Y-89489708D01*
X45290613Y-89620807D01*
X45290603Y-89620824D01*
X45290598Y-89620833D01*
X45230264Y-89766496D01*
X45230257Y-89766527D01*
X45199500Y-89921150D01*
X45199500Y-89921153D01*
X45199500Y-90078846D01*
X45199500Y-90078848D01*
X45199499Y-90078848D01*
X43269781Y-90078848D01*
X43265839Y-89918101D01*
X43219018Y-88008848D01*
X52699499Y-88008848D01*
X52730257Y-88163471D01*
X52730264Y-88163502D01*
X52790598Y-88309165D01*
X52790603Y-88309174D01*
X52790613Y-88309191D01*
X52878211Y-88440290D01*
X52878212Y-88440291D01*
X52878217Y-88440297D01*
X52989701Y-88551781D01*
X52989707Y-88551786D01*
X52989711Y-88551789D01*
X53120814Y-88639390D01*
X53120827Y-88639397D01*
X53265922Y-88699496D01*
X53265928Y-88699501D01*
X53265929Y-88699499D01*
X53265931Y-88699500D01*
X53266503Y-88699737D01*
X53409163Y-88728114D01*
X53413512Y-88728979D01*
X53416247Y-88729703D01*
X53421155Y-88730500D01*
X53578844Y-88730500D01*
X53582964Y-88730500D01*
X53590814Y-88728118D01*
X53733497Y-88699737D01*
X53879179Y-88639394D01*
X54010289Y-88551789D01*
X54121789Y-88440289D01*
X54209394Y-88309179D01*
X54269737Y-88163497D01*
X54300500Y-88008842D01*
X54300500Y-87851158D01*
X54300500Y-87851155D01*
X54300500Y-87850973D01*
X54300065Y-87848972D01*
X54270398Y-87699830D01*
X54269984Y-87697406D01*
X54269736Y-87696501D01*
X54251098Y-87651504D01*
X54251098Y-87651503D01*
X54209400Y-87550833D01*
X54209395Y-87550824D01*
X54209390Y-87550814D01*
X54121789Y-87419711D01*
X54121786Y-87419707D01*
X54121781Y-87419701D01*
X54010297Y-87308217D01*
X54010291Y-87308212D01*
X54010290Y-87308211D01*
X53879191Y-87220613D01*
X53879190Y-87220612D01*
X53879185Y-87220609D01*
X53879172Y-87220602D01*
X53879165Y-87220598D01*
X53733502Y-87160264D01*
X53733471Y-87160257D01*
X53578847Y-87129500D01*
X53578845Y-87129500D01*
X53578842Y-87129500D01*
X53421158Y-87129500D01*
X53421155Y-87129500D01*
X53421153Y-87129500D01*
X53266527Y-87160257D01*
X53266496Y-87160264D01*
X53120833Y-87220598D01*
X53120824Y-87220603D01*
X53120807Y-87220613D01*
X52989708Y-87308211D01*
X52989707Y-87308212D01*
X52989701Y-87308217D01*
X52878217Y-87419701D01*
X52878212Y-87419707D01*
X52878211Y-87419708D01*
X52790613Y-87550807D01*
X52790603Y-87550824D01*
X52790598Y-87550833D01*
X52730264Y-87696496D01*
X52730257Y-87696527D01*
X52699500Y-87851150D01*
X52699500Y-87851153D01*
X52699500Y-88008846D01*
X52699500Y-88008848D01*
X52699499Y-88008848D01*
X43219018Y-88008848D01*
X43215076Y-87848101D01*
X43174141Y-86178848D01*
X45299499Y-86178848D01*
X45330257Y-86333471D01*
X45330261Y-86333488D01*
X45330263Y-86333500D01*
X45390598Y-86479165D01*
X45390603Y-86479174D01*
X45390613Y-86479191D01*
X45478211Y-86610290D01*
X45478212Y-86610291D01*
X45478217Y-86610297D01*
X45589701Y-86721781D01*
X45589707Y-86721786D01*
X45589711Y-86721789D01*
X45720814Y-86809390D01*
X45720827Y-86809397D01*
X45866498Y-86869735D01*
X45866503Y-86869737D01*
X46013513Y-86898979D01*
X46016247Y-86899703D01*
X46021155Y-86900500D01*
X46178844Y-86900500D01*
X46182964Y-86900500D01*
X46190814Y-86898118D01*
X46333497Y-86869737D01*
X46479179Y-86809394D01*
X46610289Y-86721789D01*
X46653230Y-86678848D01*
X49999499Y-86678848D01*
X50030257Y-86833471D01*
X50030264Y-86833502D01*
X50090598Y-86979165D01*
X50090603Y-86979174D01*
X50090613Y-86979191D01*
X50178211Y-87110290D01*
X50178212Y-87110291D01*
X50178217Y-87110297D01*
X50289701Y-87221781D01*
X50289707Y-87221786D01*
X50289711Y-87221789D01*
X50420814Y-87309390D01*
X50420827Y-87309397D01*
X50566498Y-87369735D01*
X50566503Y-87369737D01*
X50713513Y-87398979D01*
X50716247Y-87399703D01*
X50721155Y-87400500D01*
X50878844Y-87400500D01*
X50882964Y-87400500D01*
X50890814Y-87398118D01*
X51033497Y-87369737D01*
X51179179Y-87309394D01*
X51310289Y-87221789D01*
X51421789Y-87110289D01*
X51509394Y-86979179D01*
X51569737Y-86833497D01*
X51600500Y-86678842D01*
X51600500Y-86521158D01*
X51600500Y-86521155D01*
X51600500Y-86520973D01*
X51600065Y-86518972D01*
X51592151Y-86479185D01*
X51570395Y-86369815D01*
X51569984Y-86367406D01*
X51569737Y-86366508D01*
X51569737Y-86366503D01*
X51556062Y-86333489D01*
X51509397Y-86220827D01*
X51509390Y-86220814D01*
X51421789Y-86089711D01*
X51421786Y-86089707D01*
X51421781Y-86089701D01*
X51310297Y-85978217D01*
X51310291Y-85978212D01*
X51310290Y-85978211D01*
X51179191Y-85890613D01*
X51179190Y-85890612D01*
X51179185Y-85890609D01*
X51179172Y-85890602D01*
X51179165Y-85890598D01*
X51033502Y-85830264D01*
X51033471Y-85830257D01*
X50878847Y-85799500D01*
X50878845Y-85799500D01*
X50878842Y-85799500D01*
X50721158Y-85799500D01*
X50721155Y-85799500D01*
X50721153Y-85799500D01*
X50566527Y-85830257D01*
X50566496Y-85830264D01*
X50420833Y-85890598D01*
X50420824Y-85890603D01*
X50420807Y-85890613D01*
X50289708Y-85978211D01*
X50289707Y-85978212D01*
X50289701Y-85978217D01*
X50178217Y-86089701D01*
X50178212Y-86089707D01*
X50178211Y-86089708D01*
X50090613Y-86220807D01*
X50090603Y-86220824D01*
X50090598Y-86220833D01*
X50030264Y-86366496D01*
X50030257Y-86366527D01*
X49999500Y-86521150D01*
X49999500Y-86521153D01*
X49999500Y-86678846D01*
X49999500Y-86678848D01*
X49999499Y-86678848D01*
X46653230Y-86678848D01*
X46721789Y-86610289D01*
X46809394Y-86479179D01*
X46809400Y-86479165D01*
X46814187Y-86467609D01*
X46854687Y-86369830D01*
X46869737Y-86333497D01*
X46900500Y-86178842D01*
X46900500Y-86021158D01*
X46900500Y-86021155D01*
X46900500Y-86020971D01*
X46900064Y-86018966D01*
X46898301Y-86010106D01*
X46869737Y-85866503D01*
X46869735Y-85866498D01*
X46809397Y-85720827D01*
X46809390Y-85720814D01*
X46721789Y-85589711D01*
X46721786Y-85589707D01*
X46721781Y-85589701D01*
X46610297Y-85478217D01*
X46610291Y-85478212D01*
X46610290Y-85478211D01*
X46479191Y-85390613D01*
X46479190Y-85390612D01*
X46479185Y-85390609D01*
X46479172Y-85390602D01*
X46479165Y-85390598D01*
X46333502Y-85330264D01*
X46333471Y-85330257D01*
X46178847Y-85299500D01*
X46178845Y-85299500D01*
X46178842Y-85299500D01*
X46021158Y-85299500D01*
X46021155Y-85299500D01*
X46021153Y-85299500D01*
X45866527Y-85330257D01*
X45866496Y-85330264D01*
X45720833Y-85390598D01*
X45720824Y-85390603D01*
X45720807Y-85390613D01*
X45589708Y-85478211D01*
X45589707Y-85478212D01*
X45589701Y-85478217D01*
X45478217Y-85589701D01*
X45478212Y-85589707D01*
X45478211Y-85589708D01*
X45390613Y-85720807D01*
X45390603Y-85720824D01*
X45390598Y-85720833D01*
X45330264Y-85866496D01*
X45330257Y-85866527D01*
X45299500Y-86021150D01*
X45299500Y-86021153D01*
X45299500Y-86178846D01*
X45299500Y-86178848D01*
X45299499Y-86178848D01*
X43174141Y-86178848D01*
X43170199Y-86018101D01*
X43100019Y-83156348D01*
X54204499Y-83156348D01*
X54235257Y-83310971D01*
X54235264Y-83311002D01*
X54295598Y-83456665D01*
X54295603Y-83456674D01*
X54295613Y-83456691D01*
X54383211Y-83587790D01*
X54383212Y-83587791D01*
X54383217Y-83587797D01*
X54494701Y-83699281D01*
X54494707Y-83699286D01*
X54494724Y-83699299D01*
X54536172Y-83726993D01*
X54562429Y-83750578D01*
X54571331Y-83761230D01*
X54599214Y-83825295D01*
X54588035Y-83894265D01*
X54588033Y-83894267D01*
X54585772Y-83898992D01*
X54542811Y-83948569D01*
X54494730Y-83980696D01*
X54494716Y-83980705D01*
X54494702Y-83980716D01*
X54383217Y-84092201D01*
X54383212Y-84092207D01*
X54383211Y-84092208D01*
X54295613Y-84223307D01*
X54295603Y-84223324D01*
X54295598Y-84223333D01*
X54235264Y-84368996D01*
X54235257Y-84369027D01*
X54204500Y-84523650D01*
X54204500Y-84523653D01*
X54204500Y-84681346D01*
X54204500Y-84681348D01*
X54204499Y-84681348D01*
X54235257Y-84835971D01*
X54235264Y-84836002D01*
X54295598Y-84981665D01*
X54295603Y-84981674D01*
X54295613Y-84981691D01*
X54383211Y-85112790D01*
X54383212Y-85112791D01*
X54383217Y-85112797D01*
X54494701Y-85224281D01*
X54494707Y-85224286D01*
X54494711Y-85224289D01*
X54625814Y-85311890D01*
X54625827Y-85311897D01*
X54670170Y-85330264D01*
X54771503Y-85372237D01*
X54831853Y-85384240D01*
X54852154Y-85388279D01*
X54852155Y-85388279D01*
X54861473Y-85390132D01*
X54894757Y-85401875D01*
X54908611Y-85409122D01*
X54958888Y-85457635D01*
X54965626Y-85469467D01*
X54979490Y-85506638D01*
X54997759Y-85598484D01*
X54997760Y-85598488D01*
X54997761Y-85598491D01*
X54997764Y-85598501D01*
X54997767Y-85598509D01*
X54997772Y-85598523D01*
X55058098Y-85744165D01*
X55058103Y-85744174D01*
X55058113Y-85744191D01*
X55145711Y-85875290D01*
X55145712Y-85875291D01*
X55145717Y-85875297D01*
X55257201Y-85986781D01*
X55257207Y-85986786D01*
X55257211Y-85986789D01*
X55388314Y-86074390D01*
X55388327Y-86074397D01*
X55533998Y-86134735D01*
X55534003Y-86134737D01*
X55681013Y-86163979D01*
X55683747Y-86164703D01*
X55688655Y-86165500D01*
X55846344Y-86165500D01*
X55850464Y-86165500D01*
X55858314Y-86163118D01*
X56000997Y-86134737D01*
X56146679Y-86074394D01*
X56277789Y-85986789D01*
X56389289Y-85875289D01*
X56416993Y-85833826D01*
X56440573Y-85807573D01*
X56451227Y-85798670D01*
X56515288Y-85770785D01*
X56584257Y-85781960D01*
X56588981Y-85784220D01*
X56638568Y-85827186D01*
X56655158Y-85852014D01*
X56664856Y-85866527D01*
X56670712Y-85875291D01*
X56782207Y-85986786D01*
X56782211Y-85986789D01*
X56913314Y-86074390D01*
X56913327Y-86074397D01*
X57058998Y-86134735D01*
X57059003Y-86134737D01*
X57206013Y-86163979D01*
X57208747Y-86164703D01*
X57213655Y-86165500D01*
X57371344Y-86165500D01*
X57375464Y-86165500D01*
X57383314Y-86163118D01*
X57525997Y-86134737D01*
X57671679Y-86074394D01*
X57802789Y-85986789D01*
X57914289Y-85875289D01*
X58001894Y-85744179D01*
X58062237Y-85598497D01*
X58080135Y-85508515D01*
X58091875Y-85475239D01*
X58099123Y-85461384D01*
X58147633Y-85411111D01*
X58159475Y-85404368D01*
X58196630Y-85390510D01*
X58288497Y-85372237D01*
X58434179Y-85311894D01*
X58565289Y-85224289D01*
X58676789Y-85112789D01*
X58764394Y-84981679D01*
X58824737Y-84835997D01*
X58855500Y-84681342D01*
X58855500Y-84523658D01*
X58855500Y-84523655D01*
X58855500Y-84523471D01*
X58855064Y-84521466D01*
X58840728Y-84449394D01*
X58824739Y-84369010D01*
X58824736Y-84369001D01*
X58779707Y-84260289D01*
X58764397Y-84223327D01*
X58764390Y-84223314D01*
X58676789Y-84092211D01*
X58676786Y-84092207D01*
X58565291Y-83980712D01*
X58565281Y-83980705D01*
X58542013Y-83965157D01*
X58542013Y-83965156D01*
X58523825Y-83953004D01*
X58497572Y-83929424D01*
X58488673Y-83918775D01*
X58460785Y-83854715D01*
X58471957Y-83785747D01*
X58474222Y-83781013D01*
X58517188Y-83731428D01*
X58565289Y-83699289D01*
X58676789Y-83587789D01*
X58764394Y-83456679D01*
X58766587Y-83451386D01*
X58782765Y-83412328D01*
X58824737Y-83310997D01*
X58855500Y-83156342D01*
X58855500Y-82998658D01*
X58855500Y-82998655D01*
X58855500Y-82998473D01*
X58855065Y-82996472D01*
X58851841Y-82980264D01*
X58825395Y-82847315D01*
X58824983Y-82844903D01*
X58824737Y-82844004D01*
X58810401Y-82809394D01*
X58774115Y-82721789D01*
X58764397Y-82698327D01*
X58764390Y-82698314D01*
X58676789Y-82567211D01*
X58676786Y-82567207D01*
X58676781Y-82567201D01*
X58565297Y-82455717D01*
X58565291Y-82455712D01*
X58565290Y-82455711D01*
X58434191Y-82368113D01*
X58434190Y-82368112D01*
X58434185Y-82368109D01*
X58434172Y-82368102D01*
X58434165Y-82368098D01*
X58288523Y-82307772D01*
X58288509Y-82307767D01*
X58288501Y-82307764D01*
X58288491Y-82307761D01*
X58288490Y-82307760D01*
X58288485Y-82307759D01*
X58198524Y-82289865D01*
X58165240Y-82278123D01*
X58151386Y-82270876D01*
X58101111Y-82222366D01*
X58094371Y-82210529D01*
X58080508Y-82173360D01*
X58078278Y-82162147D01*
X58078278Y-82162146D01*
X58062238Y-82081508D01*
X58062237Y-82081507D01*
X58062237Y-82081503D01*
X58055000Y-82064031D01*
X58001897Y-81935827D01*
X58001890Y-81935814D01*
X57914289Y-81804711D01*
X57914286Y-81804707D01*
X57914281Y-81804701D01*
X57802797Y-81693217D01*
X57802791Y-81693212D01*
X57802790Y-81693211D01*
X57671691Y-81605613D01*
X57671690Y-81605612D01*
X57671685Y-81605609D01*
X57671672Y-81605602D01*
X57671665Y-81605598D01*
X57526002Y-81545264D01*
X57525971Y-81545257D01*
X57371347Y-81514500D01*
X57371345Y-81514500D01*
X57371342Y-81514500D01*
X57213658Y-81514500D01*
X57213655Y-81514500D01*
X57213653Y-81514500D01*
X57059027Y-81545257D01*
X57058996Y-81545264D01*
X56913333Y-81605598D01*
X56913324Y-81605603D01*
X56913307Y-81605613D01*
X56782208Y-81693211D01*
X56782207Y-81693212D01*
X56782201Y-81693217D01*
X56670716Y-81804702D01*
X56670711Y-81804710D01*
X56670695Y-81804730D01*
X56643003Y-81846175D01*
X56619418Y-81872431D01*
X56608772Y-81881328D01*
X56544709Y-81909213D01*
X56475741Y-81898038D01*
X56471015Y-81895777D01*
X56421428Y-81852810D01*
X56389287Y-81804708D01*
X56389286Y-81804707D01*
X56389281Y-81804701D01*
X56277797Y-81693217D01*
X56277791Y-81693212D01*
X56277790Y-81693211D01*
X56146691Y-81605613D01*
X56146690Y-81605612D01*
X56146685Y-81605609D01*
X56146672Y-81605602D01*
X56146665Y-81605598D01*
X56001002Y-81545264D01*
X56000971Y-81545257D01*
X55846347Y-81514500D01*
X55846345Y-81514500D01*
X55846342Y-81514500D01*
X55688658Y-81514500D01*
X55688655Y-81514500D01*
X55688653Y-81514500D01*
X55534027Y-81545257D01*
X55533996Y-81545264D01*
X55388333Y-81605598D01*
X55388324Y-81605603D01*
X55388307Y-81605613D01*
X55257208Y-81693211D01*
X55257207Y-81693212D01*
X55257201Y-81693217D01*
X55145717Y-81804701D01*
X55145712Y-81804707D01*
X55145711Y-81804708D01*
X55058113Y-81935807D01*
X55058103Y-81935824D01*
X55058098Y-81935833D01*
X54997772Y-82081475D01*
X54997765Y-82081493D01*
X54997764Y-82081498D01*
X54997763Y-82081503D01*
X54997759Y-82081513D01*
X54979865Y-82171474D01*
X54968123Y-82204758D01*
X54960876Y-82218612D01*
X54912361Y-82268890D01*
X54900532Y-82275626D01*
X54863364Y-82289489D01*
X54771513Y-82307759D01*
X54771504Y-82307762D01*
X54771498Y-82307764D01*
X54771493Y-82307765D01*
X54771475Y-82307772D01*
X54625833Y-82368098D01*
X54625824Y-82368103D01*
X54625807Y-82368113D01*
X54494708Y-82455711D01*
X54494707Y-82455712D01*
X54494701Y-82455717D01*
X54383217Y-82567201D01*
X54383212Y-82567207D01*
X54383211Y-82567208D01*
X54295613Y-82698307D01*
X54295603Y-82698324D01*
X54295598Y-82698333D01*
X54235264Y-82843996D01*
X54235257Y-82844027D01*
X54204500Y-82998650D01*
X54204500Y-82998653D01*
X54204500Y-83156346D01*
X54204500Y-83156348D01*
X54204499Y-83156348D01*
X43100019Y-83156348D01*
X43076048Y-82178848D01*
X45299499Y-82178848D01*
X45330257Y-82333471D01*
X45330264Y-82333502D01*
X45390598Y-82479165D01*
X45390603Y-82479174D01*
X45390613Y-82479191D01*
X45478211Y-82610290D01*
X45478212Y-82610291D01*
X45478217Y-82610297D01*
X45589701Y-82721781D01*
X45589707Y-82721786D01*
X45589711Y-82721789D01*
X45720814Y-82809390D01*
X45720827Y-82809397D01*
X45866498Y-82869735D01*
X45866503Y-82869737D01*
X46013513Y-82898979D01*
X46016247Y-82899703D01*
X46021155Y-82900500D01*
X46178844Y-82900500D01*
X46182963Y-82900500D01*
X46190815Y-82898117D01*
X46227310Y-82890858D01*
X46327401Y-82870950D01*
X46327406Y-82870949D01*
X46327437Y-82870942D01*
X46327500Y-82870936D01*
X46327525Y-82870925D01*
X46331561Y-82870122D01*
X46333497Y-82869737D01*
X46479179Y-82809394D01*
X46610289Y-82721789D01*
X46721789Y-82610289D01*
X46809394Y-82479179D01*
X46869737Y-82333497D01*
X46900500Y-82178842D01*
X46900500Y-82021158D01*
X46900500Y-82021155D01*
X46900500Y-82020971D01*
X46900064Y-82018966D01*
X46885115Y-81943814D01*
X46869737Y-81866503D01*
X46844142Y-81804711D01*
X46844140Y-81804707D01*
X46809402Y-81720840D01*
X46809399Y-81720833D01*
X46809397Y-81720827D01*
X46809390Y-81720814D01*
X46721789Y-81589711D01*
X46721786Y-81589707D01*
X46721781Y-81589701D01*
X46610297Y-81478217D01*
X46610291Y-81478212D01*
X46610290Y-81478211D01*
X46479191Y-81390613D01*
X46479190Y-81390612D01*
X46479185Y-81390609D01*
X46479172Y-81390602D01*
X46479165Y-81390598D01*
X46333502Y-81330264D01*
X46333471Y-81330257D01*
X46178847Y-81299500D01*
X46178845Y-81299500D01*
X46178842Y-81299500D01*
X46021158Y-81299500D01*
X46021155Y-81299500D01*
X46021153Y-81299500D01*
X45866527Y-81330257D01*
X45866496Y-81330264D01*
X45720833Y-81390598D01*
X45720824Y-81390603D01*
X45720807Y-81390613D01*
X45589708Y-81478211D01*
X45589707Y-81478212D01*
X45589701Y-81478217D01*
X45478217Y-81589701D01*
X45478212Y-81589707D01*
X45478211Y-81589708D01*
X45390613Y-81720807D01*
X45390603Y-81720824D01*
X45390598Y-81720833D01*
X45330264Y-81866496D01*
X45330257Y-81866527D01*
X45299500Y-82021150D01*
X45299500Y-82021153D01*
X45299500Y-82178846D01*
X45299500Y-82178848D01*
X45299499Y-82178848D01*
X43076048Y-82178848D01*
X43072106Y-82018101D01*
X43049184Y-81083407D01*
X43053349Y-81048359D01*
X43060619Y-81021149D01*
X43084565Y-80974491D01*
X43113975Y-80938656D01*
X43291409Y-80673106D01*
X43441961Y-80391444D01*
X43564180Y-80096381D01*
X43656889Y-79790760D01*
X43686112Y-79643848D01*
X68569499Y-79643848D01*
X68600257Y-79798471D01*
X68600264Y-79798502D01*
X68660598Y-79944165D01*
X68660603Y-79944174D01*
X68660613Y-79944191D01*
X68748211Y-80075290D01*
X68748212Y-80075291D01*
X68748217Y-80075297D01*
X68859701Y-80186781D01*
X68859707Y-80186786D01*
X68859711Y-80186789D01*
X68990814Y-80274390D01*
X68990827Y-80274397D01*
X69075326Y-80309397D01*
X69136503Y-80334737D01*
X69136505Y-80334737D01*
X69136510Y-80334739D01*
X69262630Y-80359825D01*
X69283513Y-80363979D01*
X69286247Y-80364703D01*
X69291155Y-80365500D01*
X69448844Y-80365500D01*
X69452964Y-80365500D01*
X69460814Y-80363118D01*
X69603497Y-80334737D01*
X69749179Y-80274394D01*
X69880289Y-80186789D01*
X69887208Y-80179870D01*
X69915454Y-80158721D01*
X69929182Y-80151225D01*
X69997445Y-80136369D01*
X69999268Y-80136500D01*
X70057461Y-80155871D01*
X70060030Y-80157522D01*
X70063974Y-80160057D01*
X70084608Y-80176687D01*
X70129701Y-80221780D01*
X70129707Y-80221786D01*
X70129711Y-80221789D01*
X70260814Y-80309390D01*
X70260827Y-80309397D01*
X70325621Y-80336235D01*
X70406503Y-80369737D01*
X70406505Y-80369737D01*
X70406510Y-80369739D01*
X70515666Y-80391451D01*
X70553513Y-80398979D01*
X70556247Y-80399703D01*
X70561155Y-80400500D01*
X70718844Y-80400500D01*
X70722964Y-80400500D01*
X70730814Y-80398118D01*
X70873497Y-80369737D01*
X71019179Y-80309394D01*
X71150289Y-80221789D01*
X71261789Y-80110289D01*
X71349394Y-79979179D01*
X71409737Y-79833497D01*
X71440500Y-79678842D01*
X71440500Y-79614583D01*
X72379499Y-79614583D01*
X72410257Y-79769206D01*
X72410264Y-79769237D01*
X72470598Y-79914900D01*
X72470603Y-79914909D01*
X72470613Y-79914926D01*
X72558211Y-80046025D01*
X72558212Y-80046026D01*
X72558217Y-80046032D01*
X72669701Y-80157516D01*
X72669707Y-80157521D01*
X72669711Y-80157524D01*
X72800814Y-80245125D01*
X72800827Y-80245132D01*
X72946498Y-80305470D01*
X72946503Y-80305472D01*
X73093513Y-80334714D01*
X73096247Y-80335438D01*
X73101155Y-80336235D01*
X73258844Y-80336235D01*
X73262964Y-80336235D01*
X73270814Y-80333853D01*
X73413497Y-80305472D01*
X73559179Y-80245129D01*
X73690289Y-80157524D01*
X73801789Y-80046024D01*
X73889394Y-79914914D01*
X73949737Y-79769232D01*
X73969945Y-79667640D01*
X73981682Y-79634369D01*
X73988119Y-79622063D01*
X74036634Y-79571786D01*
X74104628Y-79555718D01*
X74115622Y-79556307D01*
X74156435Y-79565567D01*
X74166503Y-79569737D01*
X74259574Y-79588250D01*
X74313532Y-79598983D01*
X74316254Y-79599704D01*
X74321155Y-79600500D01*
X74478844Y-79600500D01*
X74482964Y-79600500D01*
X74490814Y-79598118D01*
X74633497Y-79569737D01*
X74779179Y-79509394D01*
X74910289Y-79421789D01*
X75021789Y-79310289D01*
X75109394Y-79179179D01*
X75118771Y-79156542D01*
X75123067Y-79146166D01*
X75169737Y-79033497D01*
X75200500Y-78878842D01*
X75200500Y-78840313D01*
X76999500Y-78840313D01*
X76999500Y-79159687D01*
X77002075Y-79185833D01*
X77005521Y-79220821D01*
X77030802Y-79477521D01*
X77093103Y-79790733D01*
X77093106Y-79790744D01*
X77185821Y-80096387D01*
X77307758Y-80390767D01*
X77307993Y-80391346D01*
X77308038Y-80391441D01*
X77308040Y-80391446D01*
X77308042Y-80391451D01*
X77312879Y-80400500D01*
X77458571Y-80673072D01*
X77458583Y-80673093D01*
X77458584Y-80673094D01*
X77458601Y-80673122D01*
X77636012Y-80938638D01*
X77636015Y-80938642D01*
X77636030Y-80938663D01*
X77636039Y-80938674D01*
X77838642Y-81185545D01*
X78064460Y-81411363D01*
X78064513Y-81411411D01*
X78065048Y-81411845D01*
X78311344Y-81613975D01*
X78311351Y-81613980D01*
X78311361Y-81613987D01*
X78311378Y-81613998D01*
X78311406Y-81614018D01*
X78574399Y-81789743D01*
X78576364Y-81791126D01*
X78577548Y-81791769D01*
X78579846Y-81793034D01*
X78580874Y-81793536D01*
X78601774Y-81804708D01*
X78853246Y-81939123D01*
X78853290Y-81939150D01*
X78857481Y-81941387D01*
X78857516Y-81941405D01*
X78858548Y-81941957D01*
X78862022Y-81943814D01*
X78866996Y-81945457D01*
X79153619Y-82064180D01*
X79459240Y-82156889D01*
X79772477Y-82219196D01*
X80090313Y-82250500D01*
X80090316Y-82250500D01*
X80409684Y-82250500D01*
X80409687Y-82250500D01*
X80727523Y-82219196D01*
X81040760Y-82156889D01*
X81346381Y-82064180D01*
X81641444Y-81941961D01*
X81923106Y-81791409D01*
X82188656Y-81613975D01*
X82435535Y-81411366D01*
X82661366Y-81185535D01*
X82863975Y-80938656D01*
X83041409Y-80673106D01*
X83191961Y-80391444D01*
X83314180Y-80096381D01*
X83406889Y-79790760D01*
X83469196Y-79477523D01*
X83500500Y-79159687D01*
X83500500Y-78840313D01*
X83469196Y-78522477D01*
X83406889Y-78209240D01*
X83314180Y-77903619D01*
X83191961Y-77608556D01*
X83041409Y-77326894D01*
X83041398Y-77326877D01*
X82863987Y-77061361D01*
X82863980Y-77061351D01*
X82863975Y-77061344D01*
X82661845Y-76815048D01*
X82661411Y-76814513D01*
X82661363Y-76814460D01*
X82435545Y-76588642D01*
X82188674Y-76386039D01*
X82188659Y-76386027D01*
X82188642Y-76386015D01*
X82188638Y-76386012D01*
X81923122Y-76208601D01*
X81923109Y-76208593D01*
X81923093Y-76208583D01*
X81923072Y-76208571D01*
X81700258Y-76089475D01*
X81641451Y-76058042D01*
X81641446Y-76058040D01*
X81641441Y-76058038D01*
X81641346Y-76057993D01*
X81640767Y-76057758D01*
X81346387Y-75935821D01*
X81040744Y-75843106D01*
X81040733Y-75843103D01*
X80832429Y-75801670D01*
X80807617Y-75788691D01*
X80488141Y-75757227D01*
X80482161Y-75756638D01*
X80409687Y-75749500D01*
X80409684Y-75749500D01*
X80090315Y-75749500D01*
X80090313Y-75749500D01*
X80078386Y-75750674D01*
X80017822Y-75756638D01*
X80017822Y-75756639D01*
X79995825Y-75758805D01*
X79772477Y-75780802D01*
X79459265Y-75843103D01*
X79459254Y-75843106D01*
X79153611Y-75935821D01*
X78859231Y-76057758D01*
X78858656Y-76057992D01*
X78858542Y-76058045D01*
X78576926Y-76208571D01*
X78576905Y-76208583D01*
X78576886Y-76208595D01*
X78311356Y-76386015D01*
X78311324Y-76386039D01*
X78064453Y-76588642D01*
X77838642Y-76814453D01*
X77636039Y-77061324D01*
X77636030Y-77061335D01*
X77636015Y-77061356D01*
X77458595Y-77326886D01*
X77458583Y-77326905D01*
X77458571Y-77326926D01*
X77308045Y-77608542D01*
X77307992Y-77608656D01*
X77307758Y-77609231D01*
X77185821Y-77903611D01*
X77093106Y-78209254D01*
X77093103Y-78209265D01*
X77030802Y-78522477D01*
X77030802Y-78522479D01*
X77016462Y-78668086D01*
X77014740Y-78685574D01*
X76999500Y-78840313D01*
X75200500Y-78840313D01*
X75200500Y-78721158D01*
X75200500Y-78721155D01*
X75200499Y-78721153D01*
X75170917Y-78572441D01*
X75170901Y-78572327D01*
X75169737Y-78566505D01*
X75169737Y-78566503D01*
X75151501Y-78522477D01*
X75109397Y-78420827D01*
X75109390Y-78420814D01*
X75021789Y-78289711D01*
X75021786Y-78289707D01*
X75021781Y-78289701D01*
X74910297Y-78178217D01*
X74910291Y-78178212D01*
X74910290Y-78178211D01*
X74779191Y-78090613D01*
X74779190Y-78090612D01*
X74779185Y-78090609D01*
X74779172Y-78090602D01*
X74779165Y-78090598D01*
X74633502Y-78030264D01*
X74633471Y-78030257D01*
X74478847Y-77999500D01*
X74478845Y-77999500D01*
X74478842Y-77999500D01*
X74321158Y-77999500D01*
X74321155Y-77999500D01*
X74321153Y-77999500D01*
X74166527Y-78030257D01*
X74166496Y-78030264D01*
X74020833Y-78090598D01*
X74020824Y-78090603D01*
X74020807Y-78090613D01*
X73889708Y-78178211D01*
X73889707Y-78178212D01*
X73889701Y-78178217D01*
X73778217Y-78289701D01*
X73778212Y-78289707D01*
X73778211Y-78289708D01*
X73690613Y-78420807D01*
X73690603Y-78420824D01*
X73690598Y-78420833D01*
X73630272Y-78566475D01*
X73630264Y-78566499D01*
X73630259Y-78566515D01*
X73610055Y-78668086D01*
X73598315Y-78701365D01*
X73591882Y-78713664D01*
X73543368Y-78763945D01*
X73475372Y-78780015D01*
X73464376Y-78779426D01*
X73423558Y-78770165D01*
X73413497Y-78765998D01*
X73413493Y-78765997D01*
X73413489Y-78765996D01*
X73413481Y-78765994D01*
X73413471Y-78765992D01*
X73258847Y-78735235D01*
X73258845Y-78735235D01*
X73258842Y-78735235D01*
X73101158Y-78735235D01*
X73101155Y-78735235D01*
X73101153Y-78735235D01*
X72946527Y-78765992D01*
X72946496Y-78765999D01*
X72800833Y-78826333D01*
X72800824Y-78826338D01*
X72800807Y-78826348D01*
X72669708Y-78913946D01*
X72669707Y-78913947D01*
X72669701Y-78913952D01*
X72558217Y-79025436D01*
X72558212Y-79025442D01*
X72558211Y-79025443D01*
X72470613Y-79156542D01*
X72470603Y-79156559D01*
X72470598Y-79156568D01*
X72410264Y-79302231D01*
X72410257Y-79302262D01*
X72379501Y-79456880D01*
X72379500Y-79456885D01*
X72379500Y-79456888D01*
X72379500Y-79614581D01*
X72379500Y-79614583D01*
X72379499Y-79614583D01*
X71440500Y-79614583D01*
X71440500Y-79521158D01*
X71431317Y-79474992D01*
X71431317Y-79474989D01*
X71420734Y-79421789D01*
X71409498Y-79365302D01*
X71407419Y-79360908D01*
X71383116Y-79302233D01*
X71349397Y-79220827D01*
X71349390Y-79220814D01*
X71261789Y-79089711D01*
X71261786Y-79089707D01*
X71261781Y-79089701D01*
X71150297Y-78978217D01*
X71150291Y-78978212D01*
X71150290Y-78978211D01*
X71019191Y-78890613D01*
X71019190Y-78890612D01*
X71019185Y-78890609D01*
X71019172Y-78890602D01*
X71019165Y-78890598D01*
X70873502Y-78830264D01*
X70873471Y-78830257D01*
X70718847Y-78799500D01*
X70718845Y-78799500D01*
X70718842Y-78799500D01*
X70561158Y-78799500D01*
X70561155Y-78799500D01*
X70561153Y-78799500D01*
X70406527Y-78830257D01*
X70406496Y-78830264D01*
X70260833Y-78890598D01*
X70260824Y-78890603D01*
X70260807Y-78890613D01*
X70129715Y-78978207D01*
X70129710Y-78978210D01*
X70122782Y-78985138D01*
X70094531Y-79006285D01*
X70080812Y-79013776D01*
X70012551Y-79028628D01*
X70010745Y-79028499D01*
X69952544Y-79009131D01*
X69946029Y-79004944D01*
X69925392Y-78988313D01*
X69880296Y-78943216D01*
X69880291Y-78943212D01*
X69880290Y-78943211D01*
X69749191Y-78855613D01*
X69749190Y-78855612D01*
X69749185Y-78855609D01*
X69749172Y-78855602D01*
X69749165Y-78855598D01*
X69603502Y-78795264D01*
X69603471Y-78795257D01*
X69448847Y-78764500D01*
X69448845Y-78764500D01*
X69448842Y-78764500D01*
X69291158Y-78764500D01*
X69291155Y-78764500D01*
X69291153Y-78764500D01*
X69136527Y-78795257D01*
X69136496Y-78795264D01*
X68990833Y-78855598D01*
X68990824Y-78855603D01*
X68990807Y-78855613D01*
X68859708Y-78943211D01*
X68859707Y-78943212D01*
X68859701Y-78943217D01*
X68748217Y-79054701D01*
X68748212Y-79054707D01*
X68748211Y-79054708D01*
X68660613Y-79185807D01*
X68660603Y-79185824D01*
X68660598Y-79185833D01*
X68600264Y-79331496D01*
X68600257Y-79331527D01*
X68569500Y-79486150D01*
X68569500Y-79486153D01*
X68569500Y-79643846D01*
X68569500Y-79643848D01*
X68569499Y-79643848D01*
X43686112Y-79643848D01*
X43719196Y-79477523D01*
X43721229Y-79456888D01*
X43721230Y-79456880D01*
X43744479Y-79220821D01*
X43747925Y-79185833D01*
X43750500Y-79159687D01*
X43750500Y-78840313D01*
X43719196Y-78522477D01*
X43656889Y-78209240D01*
X43564180Y-77903619D01*
X43441961Y-77608556D01*
X43291409Y-77326894D01*
X43291398Y-77326877D01*
X43113987Y-77061361D01*
X43113980Y-77061351D01*
X43113975Y-77061344D01*
X42983890Y-76902835D01*
X42965610Y-76872642D01*
X42953966Y-76845225D01*
X42944136Y-76799793D01*
X42927485Y-76120814D01*
X42915826Y-75645361D01*
X42919990Y-75610319D01*
X42921704Y-75603902D01*
X42924025Y-75595216D01*
X42960323Y-75535549D01*
X42961068Y-75534870D01*
X43016733Y-75505711D01*
X43023695Y-75504107D01*
X43025625Y-75503663D01*
X43053452Y-75500500D01*
X49679980Y-75500500D01*
X49714907Y-75505521D01*
G37*
%TD.AperFunction*%
%TD*%
M02*
