%TF.GenerationSoftware,KiCad,Pcbnew,10.0.5*%
%TF.CreationDate,2026-10-03T14:47:17-04:00*%
%TF.ProjectId,BajaBlaster,42616a61-426c-4617-9374-65722e6b6963,rev?*%
%TF.SameCoordinates,Original*%
%TF.FileFunction,Copper,L2,Inr*%
%TF.FilePolarity,Positive*%
%FSLAX46Y46*%
G04 Gerber Fmt 4.6, Leading zero omitted, Abs format (unit mm)*
G04 Created by KiCad (PCBNEW 10.0.5) date 2026-10-03 14:47:17*
%MOMM*%
%LPD*%
G01*
G04 APERTURE LIST*
%TA.AperFunction,ComponentPad*%
%ADD10C,2.710000*%
%TD*%
%TA.AperFunction,ComponentPad*%
%ADD11R,1.700000X1.700000*%
%TD*%
%TA.AperFunction,ComponentPad*%
%ADD12C,1.700000*%
%TD*%
%TA.AperFunction,ComponentPad*%
%ADD13C,5.500000*%
%TD*%
%TA.AperFunction,HeatsinkPad*%
%ADD14C,0.600000*%
%TD*%
%TA.AperFunction,ComponentPad*%
%ADD15C,2.000000*%
%TD*%
%TA.AperFunction,ViaPad*%
%ADD16C,0.600000*%
%TD*%
G04 APERTURE END LIST*
D10*
%TO.N,N/C*%
%TO.C,J201*%
X35150000Y-82335000D03*
X27850000Y-82335000D03*
%TD*%
D11*
%TO.N,+3V3*%
%TO.C,J501*%
X50500000Y-108500000D03*
D12*
%TO.N,GND*%
X53040000Y-108500000D03*
%TO.N,/COMMS/U0TXD*%
X55580000Y-108500000D03*
%TO.N,/COMMS/U0RXD*%
X58120000Y-108500000D03*
%TO.N,/COMMS/ESP32_EN*%
X60660000Y-108500000D03*
%TO.N,/COMMS/IO0*%
X63200000Y-108500000D03*
%TD*%
D13*
%TO.N,N/C*%
%TO.C,REF\u002A\u002A*%
X80250000Y-79000000D03*
%TD*%
%TO.N,N/C*%
%TO.C,REF\u002A\u002A*%
X40500000Y-79000000D03*
%TD*%
D14*
%TO.N,GND*%
%TO.C,U301*%
X55005000Y-83077500D03*
X55005000Y-84602500D03*
X55767500Y-82315000D03*
X55767500Y-83840000D03*
X55767500Y-85365000D03*
X56530000Y-83077500D03*
X56530000Y-84602500D03*
X57292500Y-82315000D03*
X57292500Y-83840000D03*
X57292500Y-85365000D03*
X58055000Y-83077500D03*
X58055000Y-84602500D03*
%TD*%
D13*
%TO.N,N/C*%
%TO.C,REF\u002A\u002A*%
X63000000Y-118000000D03*
%TD*%
%TO.N,N/C*%
%TO.C,REF\u002A\u002A*%
X49000000Y-118000000D03*
%TD*%
D15*
%TO.N,/COMMS/IO0*%
%TO.C,SW302*%
X61000000Y-105200000D03*
X61000000Y-98700000D03*
%TO.N,GND*%
X65500000Y-105200000D03*
X65500000Y-98700000D03*
%TD*%
%TO.N,/COMMS/ESP32_EN*%
%TO.C,SW301*%
X50250000Y-105200000D03*
X50250000Y-98700000D03*
%TO.N,GND*%
X54750000Y-105200000D03*
X54750000Y-98700000D03*
%TD*%
D16*
%TO.N,GND*%
X37500000Y-88987500D03*
X74500000Y-113000000D03*
X56500000Y-114500000D03*
X46000000Y-90000000D03*
X74300000Y-91000000D03*
X46100000Y-86100000D03*
X64400000Y-76500000D03*
X53760786Y-120239214D03*
X70640000Y-83750000D03*
X30125000Y-103500000D03*
X36000000Y-101800000D03*
X50000000Y-76500000D03*
X46100000Y-82100000D03*
X44750000Y-114600000D03*
X35500000Y-89000000D03*
X36162500Y-106800000D03*
X69370000Y-79565000D03*
X73180000Y-79535735D03*
%TO.N,+3V3*%
X50000000Y-77770000D03*
X54000000Y-114500000D03*
X46000000Y-92900000D03*
X46100000Y-84000000D03*
X46137500Y-99762500D03*
X47750000Y-106600000D03*
X57500000Y-114500000D03*
X46175000Y-105025000D03*
X71870000Y-79549265D03*
%TO.N,+5V*%
X36500000Y-115250000D03*
X32675000Y-119000000D03*
X38500000Y-111900000D03*
%TO.N,Net-(U202-VFB)*%
X32900000Y-109800000D03*
X31000000Y-106600000D03*
%TO.N,+12V*%
X35500000Y-96850000D03*
X41337500Y-107062500D03*
X69200000Y-91300000D03*
X74253630Y-87885000D03*
X34262500Y-106812500D03*
X35975000Y-104550000D03*
%TO.N,/COMMS/ESP32_EN*%
X51975000Y-103475000D03*
X63000000Y-106400000D03*
%TO.N,/COMMS/IO0*%
X46200000Y-98000000D03*
%TO.N,Net-(U302-SCL)*%
X46175000Y-95825000D03*
X47850000Y-112600000D03*
%TO.N,/COMMS/CANH*%
X74500000Y-93500000D03*
X74400000Y-78800000D03*
X70640000Y-79600000D03*
%TO.N,Net-(U302-REGOUT)*%
X55699997Y-114500000D03*
X43400000Y-106000000D03*
%TO.N,/MCU/INT*%
X56500000Y-113500000D03*
X50800000Y-86600000D03*
X54850000Y-90150000D03*
X66400000Y-103300000D03*
X57100000Y-92400000D03*
X66400000Y-100800000D03*
%TO.N,Net-(U302-CPOUT)*%
X53000000Y-114500000D03*
X43400000Y-107200000D03*
%TO.N,Net-(U302-SDA)*%
X56950000Y-121500000D03*
X45400000Y-111600000D03*
%TO.N,/COMMS/CAN_TX*%
X69370000Y-83740000D03*
X56250000Y-89500000D03*
%TO.N,/COMMS/CAN_RX*%
X73180000Y-83815000D03*
X53500000Y-87930000D03*
%TO.N,Net-(U202-SW)*%
X32113235Y-107613235D03*
X35212500Y-106762500D03*
%TO.N,/COMMS/INTERBOARD_TX*%
X72030000Y-113530000D03*
X68400000Y-106100000D03*
%TO.N,/COMMS/SYNC*%
X67800000Y-110700000D03*
X57750000Y-101400000D03*
%TD*%
%TA.AperFunction,Conductor*%
%TO.N,GND*%
G36*
X83692539Y-75520185D02*
G01*
X83738294Y-75572989D01*
X83749500Y-75624500D01*
X83749500Y-121875500D01*
X83729815Y-121942539D01*
X83677011Y-121988294D01*
X83625500Y-121999500D01*
X57795134Y-121999500D01*
X57728095Y-121979815D01*
X57682340Y-121927011D01*
X57672396Y-121857853D01*
X57680573Y-121828047D01*
X57719737Y-121733497D01*
X57750500Y-121578842D01*
X57750500Y-121421158D01*
X57750500Y-121421155D01*
X57750499Y-121421153D01*
X57719738Y-121266510D01*
X57719737Y-121266503D01*
X57719735Y-121266498D01*
X57659397Y-121120827D01*
X57659390Y-121120814D01*
X57571789Y-120989711D01*
X57571786Y-120989707D01*
X57460292Y-120878213D01*
X57460288Y-120878210D01*
X57329185Y-120790609D01*
X57329172Y-120790602D01*
X57183501Y-120730264D01*
X57183489Y-120730261D01*
X57028845Y-120699500D01*
X57028842Y-120699500D01*
X56871158Y-120699500D01*
X56871155Y-120699500D01*
X56716510Y-120730261D01*
X56716498Y-120730264D01*
X56570827Y-120790602D01*
X56570814Y-120790609D01*
X56439711Y-120878210D01*
X56439707Y-120878213D01*
X56328213Y-120989707D01*
X56328210Y-120989711D01*
X56240609Y-121120814D01*
X56240602Y-121120827D01*
X56180264Y-121266498D01*
X56180261Y-121266510D01*
X56149500Y-121421153D01*
X56149500Y-121578846D01*
X56180261Y-121733489D01*
X56180263Y-121733497D01*
X56219427Y-121828047D01*
X56226896Y-121897517D01*
X56195621Y-121959996D01*
X56135532Y-121995648D01*
X56104866Y-121999500D01*
X25624500Y-121999500D01*
X25557461Y-121979815D01*
X25511706Y-121927011D01*
X25500500Y-121875500D01*
X25500500Y-118921153D01*
X31874500Y-118921153D01*
X31874500Y-119078846D01*
X31905261Y-119233489D01*
X31905264Y-119233501D01*
X31965602Y-119379172D01*
X31965609Y-119379185D01*
X32053210Y-119510288D01*
X32053213Y-119510292D01*
X32164707Y-119621786D01*
X32164711Y-119621789D01*
X32295814Y-119709390D01*
X32295827Y-119709397D01*
X32441498Y-119769735D01*
X32441503Y-119769737D01*
X32596153Y-119800499D01*
X32596156Y-119800500D01*
X32596158Y-119800500D01*
X32753844Y-119800500D01*
X32753845Y-119800499D01*
X32908497Y-119769737D01*
X33054179Y-119709394D01*
X33185289Y-119621789D01*
X33296789Y-119510289D01*
X33384394Y-119379179D01*
X33444737Y-119233497D01*
X33475500Y-119078842D01*
X33475500Y-118921158D01*
X33475500Y-118921155D01*
X33475499Y-118921153D01*
X33444738Y-118766510D01*
X33444737Y-118766503D01*
X33444735Y-118766498D01*
X33384397Y-118620827D01*
X33384390Y-118620814D01*
X33296789Y-118489711D01*
X33296786Y-118489707D01*
X33185292Y-118378213D01*
X33185288Y-118378210D01*
X33054185Y-118290609D01*
X33054172Y-118290602D01*
X32908501Y-118230264D01*
X32908489Y-118230261D01*
X32753845Y-118199500D01*
X32753842Y-118199500D01*
X32596158Y-118199500D01*
X32596155Y-118199500D01*
X32441510Y-118230261D01*
X32441498Y-118230264D01*
X32295827Y-118290602D01*
X32295814Y-118290609D01*
X32164711Y-118378210D01*
X32164707Y-118378213D01*
X32053213Y-118489707D01*
X32053210Y-118489711D01*
X31965609Y-118620814D01*
X31965602Y-118620827D01*
X31905264Y-118766498D01*
X31905261Y-118766510D01*
X31874500Y-118921153D01*
X25500500Y-118921153D01*
X25500500Y-117840316D01*
X45749500Y-117840316D01*
X45749500Y-118159683D01*
X45780803Y-118477522D01*
X45843109Y-118790754D01*
X45935820Y-119096382D01*
X46058040Y-119391446D01*
X46058042Y-119391451D01*
X46208584Y-119673094D01*
X46208601Y-119673122D01*
X46386012Y-119938638D01*
X46386029Y-119938661D01*
X46588638Y-120185540D01*
X46814459Y-120411361D01*
X46814464Y-120411365D01*
X46814465Y-120411366D01*
X47061344Y-120613975D01*
X47061351Y-120613980D01*
X47061361Y-120613987D01*
X47326877Y-120791398D01*
X47326882Y-120791401D01*
X47326894Y-120791409D01*
X47326903Y-120791413D01*
X47326905Y-120791415D01*
X47608548Y-120941957D01*
X47608550Y-120941957D01*
X47608556Y-120941961D01*
X47903619Y-121064180D01*
X48209240Y-121156889D01*
X48522477Y-121219196D01*
X48840313Y-121250500D01*
X48840316Y-121250500D01*
X49159684Y-121250500D01*
X49159687Y-121250500D01*
X49477523Y-121219196D01*
X49790760Y-121156889D01*
X50096381Y-121064180D01*
X50391444Y-120941961D01*
X50673106Y-120791409D01*
X50938656Y-120613975D01*
X51185535Y-120411366D01*
X51411366Y-120185535D01*
X51613975Y-119938656D01*
X51791409Y-119673106D01*
X51941961Y-119391444D01*
X52064180Y-119096381D01*
X52156889Y-118790760D01*
X52219196Y-118477523D01*
X52250500Y-118159687D01*
X52250500Y-117840316D01*
X59749500Y-117840316D01*
X59749500Y-118159683D01*
X59780803Y-118477522D01*
X59843109Y-118790754D01*
X59935820Y-119096382D01*
X60058040Y-119391446D01*
X60058042Y-119391451D01*
X60208584Y-119673094D01*
X60208601Y-119673122D01*
X60386012Y-119938638D01*
X60386029Y-119938661D01*
X60588638Y-120185540D01*
X60814459Y-120411361D01*
X60814464Y-120411365D01*
X60814465Y-120411366D01*
X61061344Y-120613975D01*
X61061351Y-120613980D01*
X61061361Y-120613987D01*
X61326877Y-120791398D01*
X61326882Y-120791401D01*
X61326894Y-120791409D01*
X61326903Y-120791413D01*
X61326905Y-120791415D01*
X61608548Y-120941957D01*
X61608550Y-120941957D01*
X61608556Y-120941961D01*
X61903619Y-121064180D01*
X62209240Y-121156889D01*
X62522477Y-121219196D01*
X62840313Y-121250500D01*
X62840316Y-121250500D01*
X63159684Y-121250500D01*
X63159687Y-121250500D01*
X63477523Y-121219196D01*
X63790760Y-121156889D01*
X64096381Y-121064180D01*
X64391444Y-120941961D01*
X64673106Y-120791409D01*
X64938656Y-120613975D01*
X65185535Y-120411366D01*
X65411366Y-120185535D01*
X65613975Y-119938656D01*
X65791409Y-119673106D01*
X65941961Y-119391444D01*
X66064180Y-119096381D01*
X66156889Y-118790760D01*
X66219196Y-118477523D01*
X66250500Y-118159687D01*
X66250500Y-117840313D01*
X66219196Y-117522477D01*
X66156889Y-117209240D01*
X66064180Y-116903619D01*
X65941961Y-116608556D01*
X65791409Y-116326894D01*
X65791398Y-116326877D01*
X65613987Y-116061361D01*
X65613980Y-116061351D01*
X65613975Y-116061344D01*
X65411366Y-115814465D01*
X65411365Y-115814464D01*
X65411361Y-115814459D01*
X65185540Y-115588638D01*
X64938661Y-115386029D01*
X64938638Y-115386012D01*
X64673122Y-115208601D01*
X64673094Y-115208584D01*
X64391451Y-115058042D01*
X64391446Y-115058040D01*
X64096382Y-114935820D01*
X63790754Y-114843109D01*
X63477521Y-114780803D01*
X63477522Y-114780803D01*
X63237004Y-114757115D01*
X63159687Y-114749500D01*
X62840313Y-114749500D01*
X62767822Y-114756639D01*
X62522477Y-114780803D01*
X62209245Y-114843109D01*
X61903617Y-114935820D01*
X61608553Y-115058040D01*
X61608548Y-115058042D01*
X61326905Y-115208584D01*
X61326877Y-115208601D01*
X61061361Y-115386012D01*
X61061338Y-115386029D01*
X60814459Y-115588638D01*
X60588638Y-115814459D01*
X60386029Y-116061338D01*
X60386012Y-116061361D01*
X60208601Y-116326877D01*
X60208584Y-116326905D01*
X60058042Y-116608548D01*
X60058040Y-116608553D01*
X59935820Y-116903617D01*
X59843109Y-117209245D01*
X59780803Y-117522477D01*
X59749500Y-117840316D01*
X52250500Y-117840316D01*
X52250500Y-117840313D01*
X52219196Y-117522477D01*
X52156889Y-117209240D01*
X52064180Y-116903619D01*
X51941961Y-116608556D01*
X51791409Y-116326894D01*
X51791398Y-116326877D01*
X51613987Y-116061361D01*
X51613980Y-116061351D01*
X51613975Y-116061344D01*
X51411366Y-115814465D01*
X51411365Y-115814464D01*
X51411361Y-115814459D01*
X51185540Y-115588638D01*
X50938661Y-115386029D01*
X50938638Y-115386012D01*
X50673122Y-115208601D01*
X50673094Y-115208584D01*
X50391451Y-115058042D01*
X50391446Y-115058040D01*
X50096382Y-114935820D01*
X49790754Y-114843109D01*
X49477521Y-114780803D01*
X49477522Y-114780803D01*
X49237004Y-114757115D01*
X49159687Y-114749500D01*
X48840313Y-114749500D01*
X48767822Y-114756639D01*
X48522477Y-114780803D01*
X48209245Y-114843109D01*
X47903617Y-114935820D01*
X47608553Y-115058040D01*
X47608548Y-115058042D01*
X47326905Y-115208584D01*
X47326877Y-115208601D01*
X47061361Y-115386012D01*
X47061338Y-115386029D01*
X46814459Y-115588638D01*
X46588638Y-115814459D01*
X46386029Y-116061338D01*
X46386012Y-116061361D01*
X46208601Y-116326877D01*
X46208584Y-116326905D01*
X46058042Y-116608548D01*
X46058040Y-116608553D01*
X45935820Y-116903617D01*
X45843109Y-117209245D01*
X45780803Y-117522477D01*
X45749500Y-117840316D01*
X25500500Y-117840316D01*
X25500500Y-115171153D01*
X35699500Y-115171153D01*
X35699500Y-115328846D01*
X35730261Y-115483489D01*
X35730264Y-115483501D01*
X35790602Y-115629172D01*
X35790609Y-115629185D01*
X35878210Y-115760288D01*
X35878213Y-115760292D01*
X35989707Y-115871786D01*
X35989711Y-115871789D01*
X36120814Y-115959390D01*
X36120827Y-115959397D01*
X36266498Y-116019735D01*
X36266503Y-116019737D01*
X36421153Y-116050499D01*
X36421156Y-116050500D01*
X36421158Y-116050500D01*
X36578844Y-116050500D01*
X36578845Y-116050499D01*
X36733497Y-116019737D01*
X36879179Y-115959394D01*
X37010289Y-115871789D01*
X37121789Y-115760289D01*
X37209394Y-115629179D01*
X37269737Y-115483497D01*
X37300500Y-115328842D01*
X37300500Y-115171158D01*
X37300500Y-115171155D01*
X37300499Y-115171153D01*
X37290679Y-115121786D01*
X37269737Y-115016503D01*
X37267163Y-115010288D01*
X37209397Y-114870827D01*
X37209390Y-114870814D01*
X37121789Y-114739711D01*
X37121786Y-114739707D01*
X37010292Y-114628213D01*
X37010288Y-114628210D01*
X36879185Y-114540609D01*
X36879173Y-114540602D01*
X36852674Y-114529627D01*
X36733501Y-114480264D01*
X36733489Y-114480261D01*
X36578845Y-114449500D01*
X36578842Y-114449500D01*
X36421158Y-114449500D01*
X36421155Y-114449500D01*
X36266510Y-114480261D01*
X36266498Y-114480264D01*
X36120827Y-114540602D01*
X36120814Y-114540609D01*
X35989711Y-114628210D01*
X35989707Y-114628213D01*
X35878213Y-114739707D01*
X35878210Y-114739711D01*
X35790609Y-114870814D01*
X35790602Y-114870827D01*
X35730264Y-115016498D01*
X35730261Y-115016510D01*
X35699500Y-115171153D01*
X25500500Y-115171153D01*
X25500500Y-114421153D01*
X52199500Y-114421153D01*
X52199500Y-114578846D01*
X52230261Y-114733489D01*
X52230264Y-114733501D01*
X52290602Y-114879172D01*
X52290609Y-114879185D01*
X52378210Y-115010288D01*
X52378213Y-115010292D01*
X52489707Y-115121786D01*
X52489711Y-115121789D01*
X52620814Y-115209390D01*
X52620827Y-115209397D01*
X52766498Y-115269735D01*
X52766503Y-115269737D01*
X52921153Y-115300499D01*
X52921156Y-115300500D01*
X52921158Y-115300500D01*
X53078844Y-115300500D01*
X53078845Y-115300499D01*
X53233497Y-115269737D01*
X53379179Y-115209394D01*
X53431110Y-115174694D01*
X53497785Y-115153816D01*
X53565165Y-115172300D01*
X53568863Y-115174676D01*
X53620821Y-115209394D01*
X53620823Y-115209395D01*
X53620825Y-115209396D01*
X53766498Y-115269735D01*
X53766503Y-115269737D01*
X53921153Y-115300499D01*
X53921156Y-115300500D01*
X53921158Y-115300500D01*
X54078844Y-115300500D01*
X54078845Y-115300499D01*
X54233497Y-115269737D01*
X54379179Y-115209394D01*
X54510289Y-115121789D01*
X54621789Y-115010289D01*
X54709394Y-114879179D01*
X54735438Y-114816302D01*
X54779277Y-114761902D01*
X54845571Y-114739836D01*
X54913270Y-114757115D01*
X54960881Y-114808251D01*
X54964559Y-114816304D01*
X54990601Y-114879175D01*
X54990606Y-114879185D01*
X55078207Y-115010288D01*
X55078210Y-115010292D01*
X55189704Y-115121786D01*
X55189708Y-115121789D01*
X55320811Y-115209390D01*
X55320824Y-115209397D01*
X55466495Y-115269735D01*
X55466500Y-115269737D01*
X55621150Y-115300499D01*
X55621153Y-115300500D01*
X55621155Y-115300500D01*
X55778841Y-115300500D01*
X55778842Y-115300499D01*
X55933494Y-115269737D01*
X56079176Y-115209394D01*
X56210286Y-115121789D01*
X56321786Y-115010289D01*
X56409391Y-114879179D01*
X56412851Y-114870827D01*
X56467160Y-114739711D01*
X56469734Y-114733497D01*
X56478381Y-114690024D01*
X56510765Y-114628115D01*
X56571480Y-114593541D01*
X56641250Y-114597280D01*
X56697922Y-114638146D01*
X56721615Y-114690024D01*
X56730262Y-114733492D01*
X56730264Y-114733501D01*
X56790602Y-114879172D01*
X56790609Y-114879185D01*
X56878210Y-115010288D01*
X56878213Y-115010292D01*
X56989707Y-115121786D01*
X56989711Y-115121789D01*
X57120814Y-115209390D01*
X57120827Y-115209397D01*
X57266498Y-115269735D01*
X57266503Y-115269737D01*
X57421153Y-115300499D01*
X57421156Y-115300500D01*
X57421158Y-115300500D01*
X57578844Y-115300500D01*
X57578845Y-115300499D01*
X57733497Y-115269737D01*
X57879179Y-115209394D01*
X58010289Y-115121789D01*
X58121789Y-115010289D01*
X58209394Y-114879179D01*
X58212854Y-114870827D01*
X58267163Y-114739711D01*
X58269737Y-114733497D01*
X58300500Y-114578842D01*
X58300500Y-114421158D01*
X58300500Y-114421155D01*
X58300499Y-114421153D01*
X58282467Y-114330500D01*
X58269737Y-114266503D01*
X58259953Y-114242883D01*
X58209397Y-114120827D01*
X58209390Y-114120814D01*
X58121789Y-113989711D01*
X58121786Y-113989707D01*
X58010292Y-113878213D01*
X58010288Y-113878210D01*
X57879185Y-113790609D01*
X57879172Y-113790602D01*
X57733501Y-113730264D01*
X57733489Y-113730261D01*
X57578845Y-113699500D01*
X57578842Y-113699500D01*
X57424500Y-113699500D01*
X57415814Y-113696949D01*
X57406853Y-113698238D01*
X57382812Y-113687259D01*
X57357461Y-113679815D01*
X57351533Y-113672974D01*
X57343297Y-113669213D01*
X57329007Y-113646978D01*
X57311706Y-113627011D01*
X57309418Y-113616496D01*
X57305523Y-113610435D01*
X57300500Y-113575500D01*
X57300500Y-113451153D01*
X71229500Y-113451153D01*
X71229500Y-113608846D01*
X71260261Y-113763489D01*
X71260264Y-113763501D01*
X71320602Y-113909172D01*
X71320609Y-113909185D01*
X71408210Y-114040288D01*
X71408213Y-114040292D01*
X71519707Y-114151786D01*
X71519711Y-114151789D01*
X71650814Y-114239390D01*
X71650827Y-114239397D01*
X71796498Y-114299735D01*
X71796503Y-114299737D01*
X71951153Y-114330499D01*
X71951156Y-114330500D01*
X71951158Y-114330500D01*
X72108844Y-114330500D01*
X72108845Y-114330499D01*
X72263497Y-114299737D01*
X72409179Y-114239394D01*
X72540289Y-114151789D01*
X72651789Y-114040289D01*
X72739394Y-113909179D01*
X72799737Y-113763497D01*
X72830500Y-113608842D01*
X72830500Y-113451158D01*
X72830500Y-113451155D01*
X72830499Y-113451153D01*
X72814304Y-113369735D01*
X72799737Y-113296503D01*
X72768790Y-113221789D01*
X72739397Y-113150827D01*
X72739390Y-113150814D01*
X72651789Y-113019711D01*
X72651786Y-113019707D01*
X72540292Y-112908213D01*
X72540288Y-112908210D01*
X72409185Y-112820609D01*
X72409172Y-112820602D01*
X72263501Y-112760264D01*
X72263489Y-112760261D01*
X72108845Y-112729500D01*
X72108842Y-112729500D01*
X71951158Y-112729500D01*
X71951155Y-112729500D01*
X71796510Y-112760261D01*
X71796498Y-112760264D01*
X71650827Y-112820602D01*
X71650814Y-112820609D01*
X71519711Y-112908210D01*
X71519707Y-112908213D01*
X71408213Y-113019707D01*
X71408210Y-113019711D01*
X71320609Y-113150814D01*
X71320602Y-113150827D01*
X71260264Y-113296498D01*
X71260261Y-113296510D01*
X71229500Y-113451153D01*
X57300500Y-113451153D01*
X57300500Y-113421155D01*
X57300499Y-113421153D01*
X57278269Y-113309397D01*
X57269737Y-113266503D01*
X57221823Y-113150827D01*
X57209397Y-113120827D01*
X57209390Y-113120814D01*
X57121789Y-112989711D01*
X57121786Y-112989707D01*
X57010292Y-112878213D01*
X57010288Y-112878210D01*
X56879185Y-112790609D01*
X56879172Y-112790602D01*
X56733501Y-112730264D01*
X56733489Y-112730261D01*
X56578845Y-112699500D01*
X56578842Y-112699500D01*
X56421158Y-112699500D01*
X56421155Y-112699500D01*
X56266510Y-112730261D01*
X56266498Y-112730264D01*
X56120827Y-112790602D01*
X56120814Y-112790609D01*
X55989711Y-112878210D01*
X55989707Y-112878213D01*
X55878213Y-112989707D01*
X55878210Y-112989711D01*
X55790609Y-113120814D01*
X55790602Y-113120827D01*
X55730264Y-113266498D01*
X55730261Y-113266510D01*
X55699500Y-113421153D01*
X55699500Y-113582151D01*
X55679815Y-113649190D01*
X55627011Y-113694945D01*
X55599692Y-113703768D01*
X55466505Y-113730261D01*
X55466495Y-113730264D01*
X55320824Y-113790602D01*
X55320811Y-113790609D01*
X55189708Y-113878210D01*
X55189704Y-113878213D01*
X55078210Y-113989707D01*
X55078207Y-113989711D01*
X54990606Y-114120814D01*
X54990603Y-114120820D01*
X54964559Y-114183696D01*
X54920717Y-114238099D01*
X54854423Y-114260163D01*
X54786724Y-114242883D01*
X54739114Y-114191746D01*
X54735437Y-114183694D01*
X54709397Y-114120827D01*
X54709390Y-114120814D01*
X54621789Y-113989711D01*
X54621786Y-113989707D01*
X54510292Y-113878213D01*
X54510288Y-113878210D01*
X54379185Y-113790609D01*
X54379172Y-113790602D01*
X54233501Y-113730264D01*
X54233489Y-113730261D01*
X54078845Y-113699500D01*
X54078842Y-113699500D01*
X53921158Y-113699500D01*
X53921155Y-113699500D01*
X53766510Y-113730261D01*
X53766498Y-113730264D01*
X53620827Y-113790602D01*
X53620814Y-113790609D01*
X53568891Y-113825304D01*
X53502214Y-113846182D01*
X53434833Y-113827698D01*
X53431109Y-113825304D01*
X53379185Y-113790609D01*
X53379172Y-113790602D01*
X53233501Y-113730264D01*
X53233489Y-113730261D01*
X53078845Y-113699500D01*
X53078842Y-113699500D01*
X52921158Y-113699500D01*
X52921155Y-113699500D01*
X52766510Y-113730261D01*
X52766498Y-113730264D01*
X52620827Y-113790602D01*
X52620814Y-113790609D01*
X52489711Y-113878210D01*
X52489707Y-113878213D01*
X52378213Y-113989707D01*
X52378210Y-113989711D01*
X52290609Y-114120814D01*
X52290602Y-114120827D01*
X52230264Y-114266498D01*
X52230261Y-114266510D01*
X52199500Y-114421153D01*
X25500500Y-114421153D01*
X25500500Y-111821153D01*
X37699500Y-111821153D01*
X37699500Y-111978846D01*
X37730261Y-112133489D01*
X37730264Y-112133501D01*
X37790602Y-112279172D01*
X37790609Y-112279185D01*
X37878210Y-112410288D01*
X37878213Y-112410292D01*
X37989707Y-112521786D01*
X37989711Y-112521789D01*
X38120814Y-112609390D01*
X38120827Y-112609397D01*
X38266498Y-112669735D01*
X38266503Y-112669737D01*
X38416131Y-112699500D01*
X38421153Y-112700499D01*
X38421156Y-112700500D01*
X38421158Y-112700500D01*
X38578844Y-112700500D01*
X38578845Y-112700499D01*
X38733497Y-112669737D01*
X38879179Y-112609394D01*
X39010289Y-112521789D01*
X39010925Y-112521153D01*
X47049500Y-112521153D01*
X47049500Y-112678846D01*
X47080261Y-112833489D01*
X47080264Y-112833501D01*
X47140602Y-112979172D01*
X47140609Y-112979185D01*
X47228210Y-113110288D01*
X47228213Y-113110292D01*
X47339707Y-113221786D01*
X47339711Y-113221789D01*
X47470814Y-113309390D01*
X47470827Y-113309397D01*
X47616498Y-113369735D01*
X47616503Y-113369737D01*
X47771153Y-113400499D01*
X47771156Y-113400500D01*
X47771158Y-113400500D01*
X47928844Y-113400500D01*
X47928845Y-113400499D01*
X48083497Y-113369737D01*
X48229179Y-113309394D01*
X48360289Y-113221789D01*
X48471789Y-113110289D01*
X48559394Y-112979179D01*
X48619737Y-112833497D01*
X48650500Y-112678842D01*
X48650500Y-112521158D01*
X48650500Y-112521155D01*
X48650499Y-112521153D01*
X48628447Y-112410292D01*
X48619737Y-112366503D01*
X48583569Y-112279185D01*
X48559397Y-112220827D01*
X48559390Y-112220814D01*
X48471789Y-112089711D01*
X48471786Y-112089707D01*
X48360292Y-111978213D01*
X48360288Y-111978210D01*
X48229185Y-111890609D01*
X48229172Y-111890602D01*
X48083501Y-111830264D01*
X48083489Y-111830261D01*
X47928845Y-111799500D01*
X47928842Y-111799500D01*
X47771158Y-111799500D01*
X47771155Y-111799500D01*
X47616510Y-111830261D01*
X47616498Y-111830264D01*
X47470827Y-111890602D01*
X47470814Y-111890609D01*
X47339711Y-111978210D01*
X47339707Y-111978213D01*
X47228213Y-112089707D01*
X47228210Y-112089711D01*
X47140609Y-112220814D01*
X47140602Y-112220827D01*
X47080264Y-112366498D01*
X47080261Y-112366510D01*
X47049500Y-112521153D01*
X39010925Y-112521153D01*
X39121789Y-112410289D01*
X39209394Y-112279179D01*
X39269737Y-112133497D01*
X39300500Y-111978842D01*
X39300500Y-111821158D01*
X39300500Y-111821155D01*
X39300499Y-111821153D01*
X39272192Y-111678846D01*
X39269737Y-111666503D01*
X39269735Y-111666498D01*
X39226666Y-111562518D01*
X39209532Y-111521153D01*
X44599500Y-111521153D01*
X44599500Y-111678846D01*
X44630261Y-111833489D01*
X44630264Y-111833501D01*
X44690602Y-111979172D01*
X44690609Y-111979185D01*
X44778210Y-112110288D01*
X44778213Y-112110292D01*
X44889707Y-112221786D01*
X44889711Y-112221789D01*
X45020814Y-112309390D01*
X45020827Y-112309397D01*
X45158683Y-112366498D01*
X45166503Y-112369737D01*
X45321153Y-112400499D01*
X45321156Y-112400500D01*
X45321158Y-112400500D01*
X45478844Y-112400500D01*
X45478845Y-112400499D01*
X45489179Y-112398443D01*
X45514287Y-112393450D01*
X45514292Y-112393449D01*
X45599800Y-112376439D01*
X45633497Y-112369737D01*
X45779179Y-112309394D01*
X45910289Y-112221789D01*
X46021789Y-112110289D01*
X46109394Y-111979179D01*
X46169737Y-111833497D01*
X46200500Y-111678842D01*
X46200500Y-111521158D01*
X46200500Y-111521155D01*
X46200499Y-111521153D01*
X46178269Y-111409397D01*
X46169737Y-111366503D01*
X46151215Y-111321786D01*
X46109397Y-111220827D01*
X46109390Y-111220814D01*
X46021789Y-111089711D01*
X46021786Y-111089707D01*
X45910292Y-110978213D01*
X45910288Y-110978210D01*
X45779185Y-110890609D01*
X45779172Y-110890602D01*
X45633501Y-110830264D01*
X45633489Y-110830261D01*
X45478845Y-110799500D01*
X45478842Y-110799500D01*
X45321158Y-110799500D01*
X45321155Y-110799500D01*
X45166510Y-110830261D01*
X45166498Y-110830264D01*
X45020827Y-110890602D01*
X45020814Y-110890609D01*
X44889711Y-110978210D01*
X44889707Y-110978213D01*
X44778213Y-111089707D01*
X44778210Y-111089711D01*
X44690609Y-111220814D01*
X44690602Y-111220827D01*
X44630264Y-111366498D01*
X44630261Y-111366510D01*
X44599500Y-111521153D01*
X39209532Y-111521153D01*
X39209395Y-111520823D01*
X39209390Y-111520814D01*
X39121789Y-111389711D01*
X39121786Y-111389707D01*
X39010292Y-111278213D01*
X39010288Y-111278210D01*
X38879185Y-111190609D01*
X38879172Y-111190602D01*
X38733501Y-111130264D01*
X38733489Y-111130261D01*
X38578845Y-111099500D01*
X38578842Y-111099500D01*
X38421158Y-111099500D01*
X38421155Y-111099500D01*
X38266510Y-111130261D01*
X38266498Y-111130264D01*
X38120827Y-111190602D01*
X38120814Y-111190609D01*
X37989711Y-111278210D01*
X37989707Y-111278213D01*
X37878213Y-111389707D01*
X37878210Y-111389711D01*
X37790609Y-111520814D01*
X37790602Y-111520827D01*
X37730264Y-111666498D01*
X37730261Y-111666510D01*
X37699500Y-111821153D01*
X25500500Y-111821153D01*
X25500500Y-110621153D01*
X66999500Y-110621153D01*
X66999500Y-110778846D01*
X67030261Y-110933489D01*
X67030264Y-110933501D01*
X67090602Y-111079172D01*
X67090609Y-111079185D01*
X67178210Y-111210288D01*
X67178213Y-111210292D01*
X67289707Y-111321786D01*
X67289711Y-111321789D01*
X67420814Y-111409390D01*
X67420827Y-111409397D01*
X67566498Y-111469735D01*
X67566503Y-111469737D01*
X67721153Y-111500499D01*
X67721156Y-111500500D01*
X67721158Y-111500500D01*
X67878844Y-111500500D01*
X67878845Y-111500499D01*
X68033497Y-111469737D01*
X68179179Y-111409394D01*
X68310289Y-111321789D01*
X68421789Y-111210289D01*
X68509394Y-111079179D01*
X68569737Y-110933497D01*
X68600500Y-110778842D01*
X68600500Y-110621158D01*
X68600500Y-110621155D01*
X68600499Y-110621153D01*
X68578269Y-110509397D01*
X68569737Y-110466503D01*
X68551215Y-110421786D01*
X68509397Y-110320827D01*
X68509390Y-110320814D01*
X68421789Y-110189711D01*
X68421786Y-110189707D01*
X68310292Y-110078213D01*
X68310288Y-110078210D01*
X68179185Y-109990609D01*
X68179172Y-109990602D01*
X68033501Y-109930264D01*
X68033489Y-109930261D01*
X67878845Y-109899500D01*
X67878842Y-109899500D01*
X67721158Y-109899500D01*
X67721155Y-109899500D01*
X67566510Y-109930261D01*
X67566498Y-109930264D01*
X67420827Y-109990602D01*
X67420814Y-109990609D01*
X67289711Y-110078210D01*
X67289707Y-110078213D01*
X67178213Y-110189707D01*
X67178210Y-110189711D01*
X67090609Y-110320814D01*
X67090602Y-110320827D01*
X67030264Y-110466498D01*
X67030261Y-110466510D01*
X66999500Y-110621153D01*
X25500500Y-110621153D01*
X25500500Y-109721153D01*
X32099500Y-109721153D01*
X32099500Y-109878846D01*
X32130261Y-110033489D01*
X32130264Y-110033501D01*
X32190602Y-110179172D01*
X32190609Y-110179185D01*
X32278210Y-110310288D01*
X32278213Y-110310292D01*
X32389707Y-110421786D01*
X32389711Y-110421789D01*
X32520814Y-110509390D01*
X32520827Y-110509397D01*
X32666498Y-110569735D01*
X32666503Y-110569737D01*
X32821153Y-110600499D01*
X32821156Y-110600500D01*
X32821158Y-110600500D01*
X32978844Y-110600500D01*
X32978845Y-110600499D01*
X33133497Y-110569737D01*
X33279179Y-110509394D01*
X33410289Y-110421789D01*
X33521789Y-110310289D01*
X33609394Y-110179179D01*
X33669737Y-110033497D01*
X33700500Y-109878842D01*
X33700500Y-109721158D01*
X33700500Y-109721155D01*
X33700499Y-109721153D01*
X33674875Y-109592335D01*
X33669737Y-109566503D01*
X33669735Y-109566498D01*
X33609397Y-109420827D01*
X33609390Y-109420814D01*
X33521789Y-109289711D01*
X33521786Y-109289707D01*
X33410292Y-109178213D01*
X33410288Y-109178210D01*
X33279185Y-109090609D01*
X33279172Y-109090602D01*
X33133501Y-109030264D01*
X33133489Y-109030261D01*
X32978845Y-108999500D01*
X32978842Y-108999500D01*
X32821158Y-108999500D01*
X32821155Y-108999500D01*
X32666510Y-109030261D01*
X32666498Y-109030264D01*
X32520827Y-109090602D01*
X32520814Y-109090609D01*
X32389711Y-109178210D01*
X32389707Y-109178213D01*
X32278213Y-109289707D01*
X32278210Y-109289711D01*
X32190609Y-109420814D01*
X32190602Y-109420827D01*
X32130264Y-109566498D01*
X32130261Y-109566510D01*
X32099500Y-109721153D01*
X25500500Y-109721153D01*
X25500500Y-106521153D01*
X30199500Y-106521153D01*
X30199500Y-106678846D01*
X30230261Y-106833489D01*
X30230264Y-106833501D01*
X30290602Y-106979172D01*
X30290609Y-106979185D01*
X30378210Y-107110288D01*
X30378213Y-107110292D01*
X30489707Y-107221786D01*
X30489711Y-107221789D01*
X30620814Y-107309390D01*
X30620827Y-107309397D01*
X30766498Y-107369735D01*
X30766503Y-107369737D01*
X30921153Y-107400499D01*
X30921156Y-107400500D01*
X30921158Y-107400500D01*
X31078844Y-107400500D01*
X31144276Y-107387484D01*
X31168086Y-107382748D01*
X31237677Y-107388975D01*
X31292855Y-107431837D01*
X31316100Y-107497727D01*
X31313896Y-107528553D01*
X31312735Y-107534390D01*
X31312735Y-107692081D01*
X31343496Y-107846724D01*
X31343499Y-107846736D01*
X31403837Y-107992407D01*
X31403844Y-107992420D01*
X31491445Y-108123523D01*
X31491448Y-108123527D01*
X31602942Y-108235021D01*
X31602946Y-108235024D01*
X31734049Y-108322625D01*
X31734062Y-108322632D01*
X31879733Y-108382970D01*
X31879738Y-108382972D01*
X32034388Y-108413734D01*
X32034391Y-108413735D01*
X32034393Y-108413735D01*
X32192079Y-108413735D01*
X32192080Y-108413734D01*
X32346732Y-108382972D01*
X32492414Y-108322629D01*
X32623524Y-108235024D01*
X32735024Y-108123524D01*
X32822629Y-107992414D01*
X32827115Y-107981585D01*
X32836302Y-107959401D01*
X32882972Y-107846732D01*
X32913735Y-107692077D01*
X32913735Y-107534393D01*
X32913735Y-107534390D01*
X32913734Y-107534388D01*
X32901050Y-107470624D01*
X32882972Y-107379738D01*
X32878830Y-107369738D01*
X32822632Y-107234062D01*
X32822625Y-107234049D01*
X32735024Y-107102946D01*
X32735020Y-107102941D01*
X32623527Y-106991448D01*
X32623523Y-106991445D01*
X32492420Y-106903844D01*
X32492407Y-106903837D01*
X32346737Y-106843500D01*
X32346736Y-106843499D01*
X32346732Y-106843498D01*
X32346727Y-106843497D01*
X32346724Y-106843496D01*
X32192080Y-106812735D01*
X32192077Y-106812735D01*
X32034393Y-106812735D01*
X32034388Y-106812735D01*
X31945147Y-106830486D01*
X31875555Y-106824259D01*
X31820378Y-106781395D01*
X31803536Y-106733653D01*
X33462000Y-106733653D01*
X33462000Y-106891346D01*
X33492761Y-107045989D01*
X33492764Y-107046001D01*
X33553102Y-107191672D01*
X33553109Y-107191685D01*
X33640710Y-107322788D01*
X33640713Y-107322792D01*
X33752207Y-107434286D01*
X33752211Y-107434289D01*
X33883314Y-107521890D01*
X33883327Y-107521897D01*
X34021603Y-107579172D01*
X34029003Y-107582237D01*
X34183653Y-107612999D01*
X34183656Y-107613000D01*
X34183658Y-107613000D01*
X34341344Y-107613000D01*
X34341345Y-107612999D01*
X34495997Y-107582237D01*
X34641679Y-107521894D01*
X34706626Y-107478497D01*
X34773302Y-107457619D01*
X34827252Y-107470624D01*
X34827692Y-107469563D01*
X34970109Y-107528553D01*
X34979003Y-107532237D01*
X35133653Y-107562999D01*
X35133656Y-107563000D01*
X35133658Y-107563000D01*
X35291344Y-107563000D01*
X35291345Y-107562999D01*
X35445997Y-107532237D01*
X35558666Y-107485567D01*
X35591672Y-107471897D01*
X35591672Y-107471896D01*
X35591679Y-107471894D01*
X35722789Y-107384289D01*
X35834289Y-107272789D01*
X35921894Y-107141679D01*
X35982237Y-106995997D01*
X35984693Y-106983653D01*
X40537000Y-106983653D01*
X40537000Y-107141346D01*
X40567761Y-107295989D01*
X40567764Y-107296001D01*
X40628102Y-107441672D01*
X40628109Y-107441685D01*
X40715710Y-107572788D01*
X40715713Y-107572792D01*
X40827207Y-107684286D01*
X40827211Y-107684289D01*
X40958314Y-107771890D01*
X40958327Y-107771897D01*
X41029794Y-107801499D01*
X41104003Y-107832237D01*
X41202061Y-107851742D01*
X41258653Y-107862999D01*
X41258656Y-107863000D01*
X41258658Y-107863000D01*
X41416344Y-107863000D01*
X41416345Y-107862999D01*
X41570997Y-107832237D01*
X41716679Y-107771894D01*
X41847789Y-107684289D01*
X41959289Y-107572789D01*
X42046894Y-107441679D01*
X42107237Y-107295997D01*
X42138000Y-107141342D01*
X42138000Y-106983658D01*
X42138000Y-106983655D01*
X42137999Y-106983653D01*
X42123406Y-106910288D01*
X42107237Y-106829003D01*
X42105272Y-106824259D01*
X42046897Y-106683327D01*
X42046890Y-106683314D01*
X41959289Y-106552211D01*
X41959286Y-106552207D01*
X41847792Y-106440713D01*
X41847788Y-106440710D01*
X41716685Y-106353109D01*
X41716672Y-106353102D01*
X41571001Y-106292764D01*
X41570989Y-106292761D01*
X41416345Y-106262000D01*
X41416342Y-106262000D01*
X41258658Y-106262000D01*
X41258655Y-106262000D01*
X41104010Y-106292761D01*
X41103998Y-106292764D01*
X40958327Y-106353102D01*
X40958314Y-106353109D01*
X40827211Y-106440710D01*
X40827207Y-106440713D01*
X40715713Y-106552207D01*
X40715710Y-106552211D01*
X40628109Y-106683314D01*
X40628102Y-106683327D01*
X40567764Y-106828998D01*
X40567761Y-106829010D01*
X40537000Y-106983653D01*
X35984693Y-106983653D01*
X35985584Y-106979172D01*
X35990716Y-106953374D01*
X35990716Y-106953373D01*
X36012571Y-106843498D01*
X36013000Y-106841342D01*
X36013000Y-106683658D01*
X36013000Y-106683655D01*
X36012999Y-106683653D01*
X35994483Y-106590568D01*
X35982237Y-106529003D01*
X35978986Y-106521155D01*
X35921897Y-106383327D01*
X35921890Y-106383314D01*
X35834289Y-106252211D01*
X35834286Y-106252207D01*
X35722792Y-106140713D01*
X35722788Y-106140710D01*
X35591685Y-106053109D01*
X35591672Y-106053102D01*
X35534996Y-106029627D01*
X35446001Y-105992764D01*
X35445989Y-105992761D01*
X35291345Y-105962000D01*
X35291342Y-105962000D01*
X35133658Y-105962000D01*
X35133655Y-105962000D01*
X34979010Y-105992761D01*
X34978998Y-105992764D01*
X34833327Y-106053102D01*
X34833314Y-106053109D01*
X34768373Y-106096502D01*
X34701695Y-106117380D01*
X34647746Y-106104377D01*
X34647308Y-106105437D01*
X34496001Y-106042764D01*
X34495989Y-106042761D01*
X34341345Y-106012000D01*
X34341342Y-106012000D01*
X34183658Y-106012000D01*
X34183655Y-106012000D01*
X34029010Y-106042761D01*
X34028998Y-106042764D01*
X33883327Y-106103102D01*
X33883314Y-106103109D01*
X33752211Y-106190710D01*
X33752207Y-106190713D01*
X33640713Y-106302207D01*
X33640710Y-106302211D01*
X33553109Y-106433314D01*
X33553102Y-106433327D01*
X33492764Y-106578998D01*
X33492761Y-106579010D01*
X33462000Y-106733653D01*
X31803536Y-106733653D01*
X31797134Y-106715505D01*
X31799339Y-106684676D01*
X31800500Y-106678842D01*
X31800500Y-106521158D01*
X31800500Y-106521155D01*
X31800499Y-106521153D01*
X31792978Y-106483342D01*
X31769737Y-106366503D01*
X31764186Y-106353102D01*
X31709397Y-106220827D01*
X31709390Y-106220814D01*
X31621789Y-106089711D01*
X31621786Y-106089707D01*
X31510292Y-105978213D01*
X31510288Y-105978210D01*
X31424897Y-105921153D01*
X42599500Y-105921153D01*
X42599500Y-106078846D01*
X42630261Y-106233489D01*
X42630264Y-106233501D01*
X42690602Y-106379172D01*
X42690609Y-106379185D01*
X42778210Y-106510288D01*
X42778213Y-106510292D01*
X42780240Y-106512319D01*
X42780962Y-106513642D01*
X42782076Y-106514999D01*
X42781818Y-106515210D01*
X42813725Y-106573642D01*
X42808741Y-106643334D01*
X42782001Y-106684939D01*
X42782076Y-106685001D01*
X42781552Y-106685639D01*
X42780240Y-106687681D01*
X42778213Y-106689707D01*
X42778210Y-106689711D01*
X42690609Y-106820814D01*
X42690602Y-106820827D01*
X42630264Y-106966498D01*
X42630261Y-106966510D01*
X42599500Y-107121153D01*
X42599500Y-107278846D01*
X42630261Y-107433489D01*
X42630264Y-107433501D01*
X42690602Y-107579172D01*
X42690609Y-107579185D01*
X42778210Y-107710288D01*
X42778213Y-107710292D01*
X42889707Y-107821786D01*
X42889711Y-107821789D01*
X43020814Y-107909390D01*
X43020827Y-107909397D01*
X43166498Y-107969735D01*
X43166503Y-107969737D01*
X43318644Y-108000000D01*
X43321153Y-108000499D01*
X43321156Y-108000500D01*
X43321158Y-108000500D01*
X43478844Y-108000500D01*
X43478845Y-108000499D01*
X43633497Y-107969737D01*
X43779179Y-107909394D01*
X43910289Y-107821789D01*
X44021789Y-107710289D01*
X44094055Y-107602135D01*
X49149500Y-107602135D01*
X49149500Y-109397870D01*
X49149501Y-109397876D01*
X49155908Y-109457483D01*
X49206202Y-109592328D01*
X49206206Y-109592335D01*
X49292452Y-109707544D01*
X49292455Y-109707547D01*
X49407664Y-109793793D01*
X49407671Y-109793797D01*
X49542517Y-109844091D01*
X49542516Y-109844091D01*
X49549444Y-109844835D01*
X49602127Y-109850500D01*
X51397872Y-109850499D01*
X51457483Y-109844091D01*
X51592331Y-109793796D01*
X51707546Y-109707546D01*
X51793796Y-109592331D01*
X51844091Y-109457483D01*
X51850500Y-109397873D01*
X51850499Y-109373979D01*
X51853330Y-109360963D01*
X51863940Y-109341525D01*
X51870179Y-109320275D01*
X51886803Y-109299643D01*
X51886808Y-109299636D01*
X51886811Y-109299634D01*
X51886818Y-109299626D01*
X52557037Y-108629408D01*
X52574075Y-108692993D01*
X52639901Y-108807007D01*
X52732993Y-108900099D01*
X52847007Y-108965925D01*
X52910590Y-108982962D01*
X52278282Y-109615269D01*
X52278282Y-109615270D01*
X52332449Y-109654624D01*
X52521782Y-109751095D01*
X52723870Y-109816757D01*
X52933754Y-109850000D01*
X53146246Y-109850000D01*
X53356127Y-109816757D01*
X53356130Y-109816757D01*
X53558217Y-109751095D01*
X53747554Y-109654622D01*
X53801716Y-109615270D01*
X53801717Y-109615270D01*
X53169408Y-108982962D01*
X53232993Y-108965925D01*
X53347007Y-108900099D01*
X53440099Y-108807007D01*
X53505925Y-108692993D01*
X53522962Y-108629408D01*
X54155270Y-109261717D01*
X54155270Y-109261716D01*
X54194622Y-109207555D01*
X54199232Y-109198507D01*
X54247205Y-109147709D01*
X54315025Y-109130912D01*
X54381161Y-109153447D01*
X54420204Y-109198504D01*
X54424949Y-109207817D01*
X54549890Y-109379786D01*
X54700213Y-109530109D01*
X54872179Y-109655048D01*
X54872181Y-109655049D01*
X54872184Y-109655051D01*
X55061588Y-109751557D01*
X55263757Y-109817246D01*
X55473713Y-109850500D01*
X55473714Y-109850500D01*
X55686286Y-109850500D01*
X55686287Y-109850500D01*
X55896243Y-109817246D01*
X56098412Y-109751557D01*
X56287816Y-109655051D01*
X56374138Y-109592335D01*
X56459786Y-109530109D01*
X56459788Y-109530106D01*
X56459792Y-109530104D01*
X56610104Y-109379792D01*
X56610106Y-109379788D01*
X56610109Y-109379786D01*
X56735048Y-109207820D01*
X56735050Y-109207817D01*
X56735051Y-109207816D01*
X56739514Y-109199054D01*
X56787488Y-109148259D01*
X56855308Y-109131463D01*
X56921444Y-109153999D01*
X56960486Y-109199056D01*
X56964951Y-109207820D01*
X57089890Y-109379786D01*
X57240213Y-109530109D01*
X57412179Y-109655048D01*
X57412181Y-109655049D01*
X57412184Y-109655051D01*
X57601588Y-109751557D01*
X57803757Y-109817246D01*
X58013713Y-109850500D01*
X58013714Y-109850500D01*
X58226286Y-109850500D01*
X58226287Y-109850500D01*
X58436243Y-109817246D01*
X58638412Y-109751557D01*
X58827816Y-109655051D01*
X58914138Y-109592335D01*
X58999786Y-109530109D01*
X58999788Y-109530106D01*
X58999792Y-109530104D01*
X59150104Y-109379792D01*
X59150106Y-109379788D01*
X59150109Y-109379786D01*
X59275048Y-109207820D01*
X59275050Y-109207817D01*
X59275051Y-109207816D01*
X59279514Y-109199054D01*
X59327488Y-109148259D01*
X59395308Y-109131463D01*
X59461444Y-109153999D01*
X59500486Y-109199056D01*
X59504951Y-109207820D01*
X59629890Y-109379786D01*
X59780213Y-109530109D01*
X59952179Y-109655048D01*
X59952181Y-109655049D01*
X59952184Y-109655051D01*
X60141588Y-109751557D01*
X60343757Y-109817246D01*
X60553713Y-109850500D01*
X60553714Y-109850500D01*
X60766286Y-109850500D01*
X60766287Y-109850500D01*
X60976243Y-109817246D01*
X61178412Y-109751557D01*
X61367816Y-109655051D01*
X61454138Y-109592335D01*
X61539786Y-109530109D01*
X61539788Y-109530106D01*
X61539792Y-109530104D01*
X61690104Y-109379792D01*
X61690106Y-109379788D01*
X61690109Y-109379786D01*
X61815048Y-109207820D01*
X61815050Y-109207817D01*
X61815051Y-109207816D01*
X61819514Y-109199054D01*
X61867488Y-109148259D01*
X61935308Y-109131463D01*
X62001444Y-109153999D01*
X62040486Y-109199056D01*
X62044951Y-109207820D01*
X62169890Y-109379786D01*
X62320213Y-109530109D01*
X62492179Y-109655048D01*
X62492181Y-109655049D01*
X62492184Y-109655051D01*
X62681588Y-109751557D01*
X62883757Y-109817246D01*
X63093713Y-109850500D01*
X63093714Y-109850500D01*
X63306286Y-109850500D01*
X63306287Y-109850500D01*
X63516243Y-109817246D01*
X63718412Y-109751557D01*
X63907816Y-109655051D01*
X63994138Y-109592335D01*
X64079786Y-109530109D01*
X64079788Y-109530106D01*
X64079792Y-109530104D01*
X64230104Y-109379792D01*
X64230106Y-109379788D01*
X64230109Y-109379786D01*
X64355048Y-109207820D01*
X64355050Y-109207817D01*
X64355051Y-109207816D01*
X64451557Y-109018412D01*
X64517246Y-108816243D01*
X64550500Y-108606287D01*
X64550500Y-108393713D01*
X64517246Y-108183757D01*
X64451557Y-107981588D01*
X64355051Y-107792184D01*
X64355049Y-107792181D01*
X64355048Y-107792179D01*
X64230109Y-107620213D01*
X64079786Y-107469890D01*
X63907820Y-107344951D01*
X63718414Y-107248444D01*
X63718413Y-107248443D01*
X63718412Y-107248443D01*
X63582702Y-107204348D01*
X63525028Y-107164911D01*
X63497830Y-107100553D01*
X63509745Y-107031706D01*
X63533338Y-106998739D01*
X63621789Y-106910289D01*
X63709394Y-106779179D01*
X63769737Y-106633497D01*
X63800500Y-106478842D01*
X63800500Y-106321158D01*
X63800500Y-106321155D01*
X63800499Y-106321153D01*
X63780543Y-106220827D01*
X63769737Y-106166503D01*
X63743479Y-106103109D01*
X63709397Y-106020827D01*
X63709390Y-106020814D01*
X63621789Y-105889711D01*
X63621786Y-105889707D01*
X63510292Y-105778213D01*
X63510288Y-105778210D01*
X63379185Y-105690609D01*
X63379172Y-105690602D01*
X63233501Y-105630264D01*
X63233489Y-105630261D01*
X63078845Y-105599500D01*
X63078842Y-105599500D01*
X62921158Y-105599500D01*
X62921155Y-105599500D01*
X62766510Y-105630261D01*
X62766498Y-105630264D01*
X62633472Y-105685365D01*
X62564003Y-105692834D01*
X62501524Y-105661558D01*
X62465872Y-105601469D01*
X62463547Y-105551406D01*
X62500500Y-105318097D01*
X62500500Y-105081947D01*
X64000000Y-105081947D01*
X64000000Y-105318052D01*
X64036934Y-105551247D01*
X64109897Y-105775802D01*
X64217087Y-105986174D01*
X64277338Y-106069104D01*
X64277340Y-106069105D01*
X64976212Y-105370233D01*
X64987482Y-105412292D01*
X65059890Y-105537708D01*
X65162292Y-105640110D01*
X65287708Y-105712518D01*
X65329765Y-105723787D01*
X64630893Y-106422658D01*
X64713828Y-106482914D01*
X64924197Y-106590102D01*
X65148752Y-106663065D01*
X65148751Y-106663065D01*
X65381948Y-106700000D01*
X65618052Y-106700000D01*
X65851247Y-106663065D01*
X66075802Y-106590102D01*
X66286163Y-106482918D01*
X66286169Y-106482914D01*
X66369104Y-106422658D01*
X66369105Y-106422658D01*
X65670233Y-105723787D01*
X65712292Y-105712518D01*
X65837708Y-105640110D01*
X65940110Y-105537708D01*
X66012518Y-105412292D01*
X66023787Y-105370233D01*
X66722658Y-106069105D01*
X66722658Y-106069104D01*
X66757497Y-106021153D01*
X67599500Y-106021153D01*
X67599500Y-106178846D01*
X67630261Y-106333489D01*
X67630264Y-106333501D01*
X67690602Y-106479172D01*
X67690609Y-106479185D01*
X67778210Y-106610288D01*
X67778213Y-106610292D01*
X67889707Y-106721786D01*
X67889711Y-106721789D01*
X68020814Y-106809390D01*
X68020827Y-106809397D01*
X68166498Y-106869735D01*
X68166503Y-106869737D01*
X68321153Y-106900499D01*
X68321156Y-106900500D01*
X68321158Y-106900500D01*
X68478844Y-106900500D01*
X68478845Y-106900499D01*
X68633497Y-106869737D01*
X68751592Y-106820821D01*
X68779172Y-106809397D01*
X68779172Y-106809396D01*
X68779179Y-106809394D01*
X68910289Y-106721789D01*
X69021789Y-106610289D01*
X69109394Y-106479179D01*
X69169737Y-106333497D01*
X69200500Y-106178842D01*
X69200500Y-106021158D01*
X69200500Y-106021155D01*
X69200499Y-106021153D01*
X69188090Y-105958771D01*
X69169737Y-105866503D01*
X69169735Y-105866498D01*
X69109397Y-105720827D01*
X69109390Y-105720814D01*
X69021789Y-105589711D01*
X69021786Y-105589707D01*
X68910292Y-105478213D01*
X68910288Y-105478210D01*
X68779185Y-105390609D01*
X68779172Y-105390602D01*
X68633501Y-105330264D01*
X68633489Y-105330261D01*
X68478845Y-105299500D01*
X68478842Y-105299500D01*
X68321158Y-105299500D01*
X68321155Y-105299500D01*
X68166510Y-105330261D01*
X68166498Y-105330264D01*
X68020827Y-105390602D01*
X68020814Y-105390609D01*
X67889711Y-105478210D01*
X67889707Y-105478213D01*
X67778213Y-105589707D01*
X67778210Y-105589711D01*
X67690609Y-105720814D01*
X67690602Y-105720827D01*
X67630264Y-105866498D01*
X67630261Y-105866510D01*
X67599500Y-106021153D01*
X66757497Y-106021153D01*
X66782914Y-105986169D01*
X66782918Y-105986163D01*
X66796876Y-105958771D01*
X66890102Y-105775802D01*
X66963065Y-105551247D01*
X67000000Y-105318052D01*
X67000000Y-105081947D01*
X66963065Y-104848752D01*
X66890102Y-104624197D01*
X66782914Y-104413828D01*
X66648638Y-104229014D01*
X66625158Y-104163207D01*
X66640983Y-104095153D01*
X66691089Y-104046459D01*
X66701480Y-104041577D01*
X66779179Y-104009394D01*
X66910289Y-103921789D01*
X67021789Y-103810289D01*
X67109394Y-103679179D01*
X67169737Y-103533497D01*
X67200500Y-103378842D01*
X67200500Y-103221158D01*
X67200500Y-103221155D01*
X67200499Y-103221153D01*
X67175570Y-103095827D01*
X67169737Y-103066503D01*
X67127572Y-102964707D01*
X67109397Y-102920827D01*
X67109390Y-102920814D01*
X67021789Y-102789711D01*
X67021786Y-102789707D01*
X66910292Y-102678213D01*
X66910288Y-102678210D01*
X66779185Y-102590609D01*
X66779172Y-102590602D01*
X66633501Y-102530264D01*
X66633489Y-102530261D01*
X66478845Y-102499500D01*
X66478842Y-102499500D01*
X66321158Y-102499500D01*
X66321155Y-102499500D01*
X66166510Y-102530261D01*
X66166498Y-102530264D01*
X66020827Y-102590602D01*
X66020814Y-102590609D01*
X65889711Y-102678210D01*
X65889707Y-102678213D01*
X65778213Y-102789707D01*
X65778210Y-102789711D01*
X65690609Y-102920814D01*
X65690602Y-102920827D01*
X65630264Y-103066498D01*
X65630261Y-103066510D01*
X65599500Y-103221153D01*
X65599500Y-103378846D01*
X65630261Y-103533489D01*
X65632031Y-103539324D01*
X65629450Y-103540106D01*
X65635686Y-103597992D01*
X65604424Y-103660477D01*
X65544343Y-103696142D01*
X65513652Y-103700000D01*
X65381948Y-103700000D01*
X65148752Y-103736934D01*
X64924197Y-103809897D01*
X64713830Y-103917084D01*
X64630894Y-103977340D01*
X65329766Y-104676212D01*
X65287708Y-104687482D01*
X65162292Y-104759890D01*
X65059890Y-104862292D01*
X64987482Y-104987708D01*
X64976212Y-105029766D01*
X64277340Y-104330894D01*
X64217084Y-104413830D01*
X64109897Y-104624197D01*
X64036934Y-104848752D01*
X64000000Y-105081947D01*
X62500500Y-105081947D01*
X62500500Y-105081902D01*
X62463553Y-104848631D01*
X62392139Y-104628844D01*
X62390568Y-104624008D01*
X62390566Y-104624005D01*
X62390566Y-104624003D01*
X62312687Y-104471158D01*
X62283343Y-104413567D01*
X62144517Y-104222490D01*
X61977510Y-104055483D01*
X61786433Y-103916657D01*
X61768430Y-103907484D01*
X61575996Y-103809433D01*
X61351368Y-103736446D01*
X61118097Y-103699500D01*
X61118092Y-103699500D01*
X60881908Y-103699500D01*
X60881903Y-103699500D01*
X60648631Y-103736446D01*
X60424003Y-103809433D01*
X60213566Y-103916657D01*
X60159818Y-103955708D01*
X60022490Y-104055483D01*
X60022488Y-104055485D01*
X60022487Y-104055485D01*
X59855485Y-104222487D01*
X59855485Y-104222488D01*
X59855483Y-104222490D01*
X59820560Y-104270557D01*
X59716657Y-104413566D01*
X59609433Y-104624003D01*
X59536446Y-104848631D01*
X59499500Y-105081902D01*
X59499500Y-105318097D01*
X59536446Y-105551368D01*
X59609433Y-105775996D01*
X59704208Y-105962000D01*
X59716657Y-105986433D01*
X59855483Y-106177510D01*
X60022490Y-106344517D01*
X60213567Y-106483343D01*
X60287783Y-106521158D01*
X60424003Y-106590566D01*
X60424005Y-106590566D01*
X60424008Y-106590568D01*
X60534189Y-106626368D01*
X60648631Y-106663553D01*
X60881903Y-106700500D01*
X60881908Y-106700500D01*
X61118097Y-106700500D01*
X61351368Y-106663553D01*
X61413595Y-106643334D01*
X61575992Y-106590568D01*
X61786433Y-106483343D01*
X61977510Y-106344517D01*
X61987819Y-106334208D01*
X62049142Y-106300723D01*
X62118834Y-106305707D01*
X62174767Y-106347579D01*
X62199184Y-106413043D01*
X62199500Y-106421889D01*
X62199500Y-106478846D01*
X62230261Y-106633489D01*
X62230264Y-106633501D01*
X62290602Y-106779172D01*
X62290609Y-106779185D01*
X62378210Y-106910288D01*
X62378213Y-106910292D01*
X62489707Y-107021786D01*
X62489711Y-107021789D01*
X62589269Y-107088312D01*
X62634074Y-107141924D01*
X62642781Y-107211249D01*
X62612627Y-107274277D01*
X62576674Y-107301898D01*
X62492182Y-107344949D01*
X62320213Y-107469890D01*
X62169890Y-107620213D01*
X62044949Y-107792182D01*
X62040484Y-107800946D01*
X61992509Y-107851742D01*
X61924688Y-107868536D01*
X61858553Y-107845998D01*
X61819516Y-107800946D01*
X61815050Y-107792182D01*
X61690109Y-107620213D01*
X61539786Y-107469890D01*
X61367820Y-107344951D01*
X61178414Y-107248444D01*
X61178413Y-107248443D01*
X61178412Y-107248443D01*
X60976243Y-107182754D01*
X60976241Y-107182753D01*
X60976240Y-107182753D01*
X60814957Y-107157208D01*
X60766287Y-107149500D01*
X60553713Y-107149500D01*
X60505042Y-107157208D01*
X60343760Y-107182753D01*
X60141585Y-107248444D01*
X59952179Y-107344951D01*
X59780213Y-107469890D01*
X59629890Y-107620213D01*
X59504949Y-107792182D01*
X59500484Y-107800946D01*
X59452509Y-107851742D01*
X59384688Y-107868536D01*
X59318553Y-107845998D01*
X59279516Y-107800946D01*
X59275050Y-107792182D01*
X59150109Y-107620213D01*
X58999786Y-107469890D01*
X58827820Y-107344951D01*
X58638414Y-107248444D01*
X58638413Y-107248443D01*
X58638412Y-107248443D01*
X58436243Y-107182754D01*
X58436241Y-107182753D01*
X58436240Y-107182753D01*
X58274957Y-107157208D01*
X58226287Y-107149500D01*
X58013713Y-107149500D01*
X57965042Y-107157208D01*
X57803760Y-107182753D01*
X57601585Y-107248444D01*
X57412179Y-107344951D01*
X57240213Y-107469890D01*
X57089890Y-107620213D01*
X56964949Y-107792182D01*
X56960484Y-107800946D01*
X56912509Y-107851742D01*
X56844688Y-107868536D01*
X56778553Y-107845998D01*
X56739516Y-107800946D01*
X56735050Y-107792182D01*
X56610109Y-107620213D01*
X56459786Y-107469890D01*
X56287820Y-107344951D01*
X56098414Y-107248444D01*
X56098413Y-107248443D01*
X56098412Y-107248443D01*
X55896243Y-107182754D01*
X55896241Y-107182753D01*
X55896240Y-107182753D01*
X55734957Y-107157208D01*
X55686287Y-107149500D01*
X55473713Y-107149500D01*
X55425042Y-107157208D01*
X55263760Y-107182753D01*
X55061585Y-107248444D01*
X54872179Y-107344951D01*
X54700213Y-107469890D01*
X54549890Y-107620213D01*
X54424949Y-107792182D01*
X54420202Y-107801499D01*
X54372227Y-107852293D01*
X54304405Y-107869087D01*
X54238271Y-107846548D01*
X54199234Y-107801495D01*
X54194626Y-107792452D01*
X54155270Y-107738282D01*
X54155269Y-107738282D01*
X53522962Y-108370590D01*
X53505925Y-108307007D01*
X53440099Y-108192993D01*
X53347007Y-108099901D01*
X53232993Y-108034075D01*
X53169409Y-108017037D01*
X53801716Y-107384728D01*
X53747550Y-107345375D01*
X53558217Y-107248904D01*
X53356129Y-107183242D01*
X53146246Y-107150000D01*
X52933754Y-107150000D01*
X52723872Y-107183242D01*
X52723869Y-107183242D01*
X52521782Y-107248904D01*
X52332439Y-107345380D01*
X52278282Y-107384727D01*
X52278282Y-107384728D01*
X52910591Y-108017037D01*
X52847007Y-108034075D01*
X52732993Y-108099901D01*
X52639901Y-108192993D01*
X52574075Y-108307007D01*
X52557037Y-108370591D01*
X51886818Y-107700372D01*
X51853333Y-107639049D01*
X51853330Y-107639036D01*
X51850499Y-107626015D01*
X51850499Y-107602128D01*
X51844091Y-107542517D01*
X51806481Y-107441679D01*
X51793798Y-107407673D01*
X51793793Y-107407664D01*
X51707547Y-107292455D01*
X51707544Y-107292452D01*
X51592335Y-107206206D01*
X51592328Y-107206202D01*
X51457482Y-107155908D01*
X51457483Y-107155908D01*
X51397883Y-107149501D01*
X51397881Y-107149500D01*
X51397873Y-107149500D01*
X51397864Y-107149500D01*
X49602129Y-107149500D01*
X49602123Y-107149501D01*
X49542516Y-107155908D01*
X49407671Y-107206202D01*
X49407664Y-107206206D01*
X49292455Y-107292452D01*
X49292452Y-107292455D01*
X49206206Y-107407664D01*
X49206202Y-107407671D01*
X49155908Y-107542517D01*
X49149501Y-107602116D01*
X49149500Y-107602135D01*
X44094055Y-107602135D01*
X44109394Y-107579179D01*
X44116096Y-107562999D01*
X44120920Y-107551354D01*
X44169735Y-107433501D01*
X44169737Y-107433497D01*
X44200500Y-107278842D01*
X44200500Y-107121158D01*
X44200500Y-107121155D01*
X44200499Y-107121153D01*
X44180734Y-107021789D01*
X44169737Y-106966503D01*
X44164299Y-106953374D01*
X44109397Y-106820827D01*
X44109390Y-106820814D01*
X44021789Y-106689711D01*
X44019766Y-106687688D01*
X44019043Y-106686365D01*
X44017924Y-106685001D01*
X44018182Y-106684788D01*
X43986276Y-106626368D01*
X43991255Y-106556676D01*
X44006326Y-106528223D01*
X44011344Y-106521153D01*
X46949500Y-106521153D01*
X46949500Y-106678846D01*
X46980261Y-106833489D01*
X46980264Y-106833501D01*
X47040602Y-106979172D01*
X47040609Y-106979185D01*
X47128210Y-107110288D01*
X47128213Y-107110292D01*
X47239707Y-107221786D01*
X47239711Y-107221789D01*
X47370814Y-107309390D01*
X47370827Y-107309397D01*
X47516498Y-107369735D01*
X47516503Y-107369737D01*
X47671153Y-107400499D01*
X47671156Y-107400500D01*
X47671158Y-107400500D01*
X47828844Y-107400500D01*
X47828845Y-107400499D01*
X47983497Y-107369737D01*
X48129179Y-107309394D01*
X48260289Y-107221789D01*
X48371789Y-107110289D01*
X48459394Y-106979179D01*
X48519737Y-106833497D01*
X48550500Y-106678842D01*
X48550500Y-106521158D01*
X48550500Y-106521155D01*
X48550499Y-106521153D01*
X48542978Y-106483342D01*
X48519737Y-106366503D01*
X48514186Y-106353102D01*
X48459397Y-106220827D01*
X48459390Y-106220814D01*
X48371789Y-106089711D01*
X48371786Y-106089707D01*
X48260292Y-105978213D01*
X48260288Y-105978210D01*
X48129185Y-105890609D01*
X48129172Y-105890602D01*
X47983501Y-105830264D01*
X47983489Y-105830261D01*
X47828845Y-105799500D01*
X47828842Y-105799500D01*
X47671158Y-105799500D01*
X47671155Y-105799500D01*
X47516510Y-105830261D01*
X47516498Y-105830264D01*
X47370827Y-105890602D01*
X47370814Y-105890609D01*
X47239711Y-105978210D01*
X47239707Y-105978213D01*
X47128213Y-106089707D01*
X47128210Y-106089711D01*
X47040609Y-106220814D01*
X47040602Y-106220827D01*
X46980264Y-106366498D01*
X46980261Y-106366510D01*
X46949500Y-106521153D01*
X44011344Y-106521153D01*
X44012371Y-106519706D01*
X44021789Y-106510289D01*
X44109394Y-106379179D01*
X44169737Y-106233497D01*
X44200500Y-106078842D01*
X44200500Y-105921158D01*
X44200500Y-105921155D01*
X44200499Y-105921153D01*
X44181472Y-105825499D01*
X44169737Y-105766503D01*
X44162901Y-105750000D01*
X44109397Y-105620827D01*
X44109390Y-105620814D01*
X44021789Y-105489711D01*
X44021786Y-105489707D01*
X43910292Y-105378213D01*
X43910288Y-105378210D01*
X43779185Y-105290609D01*
X43779172Y-105290602D01*
X43633501Y-105230264D01*
X43633489Y-105230261D01*
X43478845Y-105199500D01*
X43478842Y-105199500D01*
X43321158Y-105199500D01*
X43321155Y-105199500D01*
X43166510Y-105230261D01*
X43166498Y-105230264D01*
X43020827Y-105290602D01*
X43020814Y-105290609D01*
X42889711Y-105378210D01*
X42889707Y-105378213D01*
X42778213Y-105489707D01*
X42778210Y-105489711D01*
X42690609Y-105620814D01*
X42690602Y-105620827D01*
X42630264Y-105766498D01*
X42630261Y-105766510D01*
X42599500Y-105921153D01*
X31424897Y-105921153D01*
X31379185Y-105890609D01*
X31379172Y-105890602D01*
X31233501Y-105830264D01*
X31233489Y-105830261D01*
X31078845Y-105799500D01*
X31078842Y-105799500D01*
X30921158Y-105799500D01*
X30921155Y-105799500D01*
X30766510Y-105830261D01*
X30766498Y-105830264D01*
X30620827Y-105890602D01*
X30620814Y-105890609D01*
X30489711Y-105978210D01*
X30489707Y-105978213D01*
X30378213Y-106089707D01*
X30378210Y-106089711D01*
X30290609Y-106220814D01*
X30290602Y-106220827D01*
X30230264Y-106366498D01*
X30230261Y-106366510D01*
X30199500Y-106521153D01*
X25500500Y-106521153D01*
X25500500Y-104471153D01*
X35174500Y-104471153D01*
X35174500Y-104628846D01*
X35205261Y-104783489D01*
X35205264Y-104783501D01*
X35265602Y-104929172D01*
X35265609Y-104929185D01*
X35353210Y-105060288D01*
X35353213Y-105060292D01*
X35464707Y-105171786D01*
X35464711Y-105171789D01*
X35595814Y-105259390D01*
X35595827Y-105259397D01*
X35741498Y-105319735D01*
X35741503Y-105319737D01*
X35896153Y-105350499D01*
X35896156Y-105350500D01*
X35896158Y-105350500D01*
X36053844Y-105350500D01*
X36053845Y-105350499D01*
X36208497Y-105319737D01*
X36354179Y-105259394D01*
X36485289Y-105171789D01*
X36596789Y-105060289D01*
X36673052Y-104946153D01*
X45374500Y-104946153D01*
X45374500Y-105103846D01*
X45405261Y-105258489D01*
X45405264Y-105258501D01*
X45465602Y-105404172D01*
X45465609Y-105404185D01*
X45553210Y-105535288D01*
X45553213Y-105535292D01*
X45664707Y-105646786D01*
X45664711Y-105646789D01*
X45795814Y-105734390D01*
X45795827Y-105734397D01*
X45901603Y-105778210D01*
X45941503Y-105794737D01*
X46096153Y-105825499D01*
X46096156Y-105825500D01*
X46096158Y-105825500D01*
X46253844Y-105825500D01*
X46253845Y-105825499D01*
X46408497Y-105794737D01*
X46554179Y-105734394D01*
X46685289Y-105646789D01*
X46796789Y-105535289D01*
X46884394Y-105404179D01*
X46944737Y-105258497D01*
X46975500Y-105103842D01*
X46975500Y-105081902D01*
X48749500Y-105081902D01*
X48749500Y-105318097D01*
X48786446Y-105551368D01*
X48859433Y-105775996D01*
X48954208Y-105962000D01*
X48966657Y-105986433D01*
X49105483Y-106177510D01*
X49272490Y-106344517D01*
X49463567Y-106483343D01*
X49537783Y-106521158D01*
X49674003Y-106590566D01*
X49674005Y-106590566D01*
X49674008Y-106590568D01*
X49784189Y-106626368D01*
X49898631Y-106663553D01*
X50131903Y-106700500D01*
X50131908Y-106700500D01*
X50368097Y-106700500D01*
X50601368Y-106663553D01*
X50663595Y-106643334D01*
X50825992Y-106590568D01*
X51036433Y-106483343D01*
X51227510Y-106344517D01*
X51394517Y-106177510D01*
X51533343Y-105986433D01*
X51640568Y-105775992D01*
X51713553Y-105551368D01*
X51716100Y-105535288D01*
X51750500Y-105318097D01*
X51750500Y-105081947D01*
X53250000Y-105081947D01*
X53250000Y-105318052D01*
X53286934Y-105551247D01*
X53359897Y-105775802D01*
X53467087Y-105986174D01*
X53527338Y-106069104D01*
X53527340Y-106069105D01*
X54226212Y-105370233D01*
X54237482Y-105412292D01*
X54309890Y-105537708D01*
X54412292Y-105640110D01*
X54537708Y-105712518D01*
X54579765Y-105723787D01*
X53880893Y-106422658D01*
X53963828Y-106482914D01*
X54174197Y-106590102D01*
X54398752Y-106663065D01*
X54398751Y-106663065D01*
X54631948Y-106700000D01*
X54868052Y-106700000D01*
X55101247Y-106663065D01*
X55325802Y-106590102D01*
X55536163Y-106482918D01*
X55536169Y-106482914D01*
X55619104Y-106422658D01*
X55619105Y-106422658D01*
X54920233Y-105723787D01*
X54962292Y-105712518D01*
X55087708Y-105640110D01*
X55190110Y-105537708D01*
X55262518Y-105412292D01*
X55273787Y-105370234D01*
X55972658Y-106069105D01*
X55972658Y-106069104D01*
X56032914Y-105986169D01*
X56032918Y-105986163D01*
X56140102Y-105775802D01*
X56213065Y-105551247D01*
X56250000Y-105318052D01*
X56250000Y-105081947D01*
X56213065Y-104848752D01*
X56140102Y-104624197D01*
X56032914Y-104413828D01*
X55972658Y-104330894D01*
X55972658Y-104330893D01*
X55273787Y-105029765D01*
X55262518Y-104987708D01*
X55190110Y-104862292D01*
X55087708Y-104759890D01*
X54962292Y-104687482D01*
X54920234Y-104676212D01*
X55619105Y-103977340D01*
X55619104Y-103977338D01*
X55536174Y-103917087D01*
X55325802Y-103809897D01*
X55101247Y-103736934D01*
X55101248Y-103736934D01*
X54868052Y-103700000D01*
X54631948Y-103700000D01*
X54398752Y-103736934D01*
X54174197Y-103809897D01*
X53963830Y-103917084D01*
X53880894Y-103977340D01*
X54579766Y-104676212D01*
X54537708Y-104687482D01*
X54412292Y-104759890D01*
X54309890Y-104862292D01*
X54237482Y-104987708D01*
X54226212Y-105029766D01*
X53527340Y-104330894D01*
X53467084Y-104413830D01*
X53359897Y-104624197D01*
X53286934Y-104848752D01*
X53250000Y-105081947D01*
X51750500Y-105081947D01*
X51750500Y-105081902D01*
X51713553Y-104848631D01*
X51642139Y-104628844D01*
X51640568Y-104624008D01*
X51640566Y-104624005D01*
X51640566Y-104624003D01*
X51533342Y-104413565D01*
X51526695Y-104404417D01*
X51503214Y-104338611D01*
X51519038Y-104270557D01*
X51569143Y-104221861D01*
X51637621Y-104207985D01*
X51674464Y-104216969D01*
X51692646Y-104224500D01*
X51741503Y-104244737D01*
X51871308Y-104270557D01*
X51896153Y-104275499D01*
X51896156Y-104275500D01*
X51896158Y-104275500D01*
X52053844Y-104275500D01*
X52053845Y-104275499D01*
X52208497Y-104244737D01*
X52354179Y-104184394D01*
X52485289Y-104096789D01*
X52596789Y-103985289D01*
X52607324Y-103969521D01*
X52616555Y-103955708D01*
X52684390Y-103854185D01*
X52684390Y-103854184D01*
X52684394Y-103854179D01*
X52744737Y-103708497D01*
X52775500Y-103553842D01*
X52775500Y-103396158D01*
X52775500Y-103396155D01*
X52775499Y-103396153D01*
X52744738Y-103241510D01*
X52744737Y-103241503D01*
X52736308Y-103221153D01*
X52684397Y-103095827D01*
X52684390Y-103095814D01*
X52596789Y-102964711D01*
X52596786Y-102964707D01*
X52485292Y-102853213D01*
X52485288Y-102853210D01*
X52354185Y-102765609D01*
X52354172Y-102765602D01*
X52208501Y-102705264D01*
X52208489Y-102705261D01*
X52053845Y-102674500D01*
X52053842Y-102674500D01*
X51896158Y-102674500D01*
X51896155Y-102674500D01*
X51741510Y-102705261D01*
X51741498Y-102705264D01*
X51595827Y-102765602D01*
X51595814Y-102765609D01*
X51464711Y-102853210D01*
X51464707Y-102853213D01*
X51353213Y-102964707D01*
X51353210Y-102964711D01*
X51265609Y-103095814D01*
X51265602Y-103095827D01*
X51205264Y-103241498D01*
X51205261Y-103241510D01*
X51174500Y-103396153D01*
X51174500Y-103553846D01*
X51205261Y-103708489D01*
X51205263Y-103708497D01*
X51222247Y-103749500D01*
X51233031Y-103775535D01*
X51240499Y-103845005D01*
X51209223Y-103907484D01*
X51149134Y-103943136D01*
X51079309Y-103940641D01*
X51045583Y-103923305D01*
X51043496Y-103921789D01*
X51036433Y-103916657D01*
X51018430Y-103907484D01*
X50825996Y-103809433D01*
X50601368Y-103736446D01*
X50368097Y-103699500D01*
X50368092Y-103699500D01*
X50131908Y-103699500D01*
X50131903Y-103699500D01*
X49898631Y-103736446D01*
X49674003Y-103809433D01*
X49463566Y-103916657D01*
X49409818Y-103955708D01*
X49272490Y-104055483D01*
X49272488Y-104055485D01*
X49272487Y-104055485D01*
X49105485Y-104222487D01*
X49105485Y-104222488D01*
X49105483Y-104222490D01*
X49070560Y-104270557D01*
X48966657Y-104413566D01*
X48859433Y-104624003D01*
X48786446Y-104848631D01*
X48749500Y-105081902D01*
X46975500Y-105081902D01*
X46975500Y-104946158D01*
X46975500Y-104946155D01*
X46975499Y-104946153D01*
X46958818Y-104862292D01*
X46944737Y-104791503D01*
X46944735Y-104791498D01*
X46884397Y-104645827D01*
X46884390Y-104645814D01*
X46796789Y-104514711D01*
X46796786Y-104514707D01*
X46685292Y-104403213D01*
X46685288Y-104403210D01*
X46554185Y-104315609D01*
X46554172Y-104315602D01*
X46408501Y-104255264D01*
X46408489Y-104255261D01*
X46253845Y-104224500D01*
X46253842Y-104224500D01*
X46096158Y-104224500D01*
X46096155Y-104224500D01*
X45941510Y-104255261D01*
X45941498Y-104255264D01*
X45795827Y-104315602D01*
X45795814Y-104315609D01*
X45664711Y-104403210D01*
X45664707Y-104403213D01*
X45553213Y-104514707D01*
X45553210Y-104514711D01*
X45465609Y-104645814D01*
X45465602Y-104645827D01*
X45405264Y-104791498D01*
X45405261Y-104791510D01*
X45374500Y-104946153D01*
X36673052Y-104946153D01*
X36684394Y-104929179D01*
X36717758Y-104848632D01*
X36744735Y-104783501D01*
X36744737Y-104783497D01*
X36775500Y-104628842D01*
X36775500Y-104471158D01*
X36775500Y-104471155D01*
X36775499Y-104471153D01*
X36761984Y-104403210D01*
X36744737Y-104316503D01*
X36744367Y-104315609D01*
X36684397Y-104170827D01*
X36684390Y-104170814D01*
X36596789Y-104039711D01*
X36596786Y-104039707D01*
X36485292Y-103928213D01*
X36485288Y-103928210D01*
X36354185Y-103840609D01*
X36354172Y-103840602D01*
X36208501Y-103780264D01*
X36208489Y-103780261D01*
X36053845Y-103749500D01*
X36053842Y-103749500D01*
X35896158Y-103749500D01*
X35896155Y-103749500D01*
X35741510Y-103780261D01*
X35741498Y-103780264D01*
X35595827Y-103840602D01*
X35595814Y-103840609D01*
X35464711Y-103928210D01*
X35464707Y-103928213D01*
X35353213Y-104039707D01*
X35353210Y-104039711D01*
X35265609Y-104170814D01*
X35265602Y-104170827D01*
X35205264Y-104316498D01*
X35205261Y-104316510D01*
X35174500Y-104471153D01*
X25500500Y-104471153D01*
X25500500Y-101321153D01*
X56949500Y-101321153D01*
X56949500Y-101478846D01*
X56980261Y-101633489D01*
X56980264Y-101633501D01*
X57040602Y-101779172D01*
X57040609Y-101779185D01*
X57128210Y-101910288D01*
X57128213Y-101910292D01*
X57239707Y-102021786D01*
X57239711Y-102021789D01*
X57370814Y-102109390D01*
X57370827Y-102109397D01*
X57516498Y-102169735D01*
X57516503Y-102169737D01*
X57671153Y-102200499D01*
X57671156Y-102200500D01*
X57671158Y-102200500D01*
X57828844Y-102200500D01*
X57828845Y-102200499D01*
X57983497Y-102169737D01*
X58129179Y-102109394D01*
X58260289Y-102021789D01*
X58371789Y-101910289D01*
X58459394Y-101779179D01*
X58519737Y-101633497D01*
X58550500Y-101478842D01*
X58550500Y-101321158D01*
X58550500Y-101321155D01*
X58550499Y-101321153D01*
X58548338Y-101310288D01*
X58519737Y-101166503D01*
X58519735Y-101166498D01*
X58459397Y-101020827D01*
X58459390Y-101020814D01*
X58371789Y-100889711D01*
X58371786Y-100889707D01*
X58260292Y-100778213D01*
X58260288Y-100778210D01*
X58129185Y-100690609D01*
X58129172Y-100690602D01*
X57983501Y-100630264D01*
X57983489Y-100630261D01*
X57828845Y-100599500D01*
X57828842Y-100599500D01*
X57671158Y-100599500D01*
X57671155Y-100599500D01*
X57516510Y-100630261D01*
X57516498Y-100630264D01*
X57370827Y-100690602D01*
X57370814Y-100690609D01*
X57239711Y-100778210D01*
X57239707Y-100778213D01*
X57128213Y-100889707D01*
X57128210Y-100889711D01*
X57040609Y-101020814D01*
X57040602Y-101020827D01*
X56980264Y-101166498D01*
X56980261Y-101166510D01*
X56949500Y-101321153D01*
X25500500Y-101321153D01*
X25500500Y-99683653D01*
X45337000Y-99683653D01*
X45337000Y-99841346D01*
X45367761Y-99995989D01*
X45367764Y-99996001D01*
X45428102Y-100141672D01*
X45428109Y-100141685D01*
X45515710Y-100272788D01*
X45515713Y-100272792D01*
X45627207Y-100384286D01*
X45627211Y-100384289D01*
X45758314Y-100471890D01*
X45758327Y-100471897D01*
X45903998Y-100532235D01*
X45904003Y-100532237D01*
X46058653Y-100562999D01*
X46058656Y-100563000D01*
X46058658Y-100563000D01*
X46216344Y-100563000D01*
X46216345Y-100562999D01*
X46370997Y-100532237D01*
X46516679Y-100471894D01*
X46647789Y-100384289D01*
X46759289Y-100272789D01*
X46846894Y-100141679D01*
X46907237Y-99995997D01*
X46938000Y-99841342D01*
X46938000Y-99683658D01*
X46938000Y-99683655D01*
X46937999Y-99683653D01*
X46915214Y-99569105D01*
X46907237Y-99529003D01*
X46889492Y-99486163D01*
X46846897Y-99383327D01*
X46846890Y-99383314D01*
X46759289Y-99252211D01*
X46759286Y-99252207D01*
X46647792Y-99140713D01*
X46647788Y-99140710D01*
X46516685Y-99053109D01*
X46516672Y-99053102D01*
X46405179Y-99006921D01*
X46350775Y-98963080D01*
X46328710Y-98896786D01*
X46345989Y-98829087D01*
X46397126Y-98781476D01*
X46428443Y-98770742D01*
X46433497Y-98769737D01*
X46579179Y-98709394D01*
X46710289Y-98621789D01*
X46750176Y-98581902D01*
X48749500Y-98581902D01*
X48749500Y-98818097D01*
X48786446Y-99051368D01*
X48859433Y-99275996D01*
X48966519Y-99486163D01*
X48966657Y-99486433D01*
X49105483Y-99677510D01*
X49272490Y-99844517D01*
X49463567Y-99983343D01*
X49555649Y-100030261D01*
X49674003Y-100090566D01*
X49674005Y-100090566D01*
X49674008Y-100090568D01*
X49794412Y-100129689D01*
X49898631Y-100163553D01*
X50131903Y-100200500D01*
X50131908Y-100200500D01*
X50368097Y-100200500D01*
X50601368Y-100163553D01*
X50602870Y-100163065D01*
X50825992Y-100090568D01*
X51036433Y-99983343D01*
X51227510Y-99844517D01*
X51394517Y-99677510D01*
X51533343Y-99486433D01*
X51640568Y-99275992D01*
X51713553Y-99051368D01*
X51722995Y-98991755D01*
X51750500Y-98818097D01*
X51750500Y-98581947D01*
X53250000Y-98581947D01*
X53250000Y-98818052D01*
X53286934Y-99051247D01*
X53359897Y-99275802D01*
X53467087Y-99486174D01*
X53527338Y-99569104D01*
X53527340Y-99569105D01*
X54226212Y-98870233D01*
X54237482Y-98912292D01*
X54309890Y-99037708D01*
X54412292Y-99140110D01*
X54537708Y-99212518D01*
X54579765Y-99223787D01*
X53880893Y-99922658D01*
X53963828Y-99982914D01*
X54174197Y-100090102D01*
X54398752Y-100163065D01*
X54398751Y-100163065D01*
X54631948Y-100200000D01*
X54868052Y-100200000D01*
X55101247Y-100163065D01*
X55325802Y-100090102D01*
X55536163Y-99982918D01*
X55536169Y-99982914D01*
X55619104Y-99922658D01*
X55619105Y-99922658D01*
X54920233Y-99223787D01*
X54962292Y-99212518D01*
X55087708Y-99140110D01*
X55190110Y-99037708D01*
X55262518Y-98912292D01*
X55273787Y-98870234D01*
X55972658Y-99569105D01*
X55972658Y-99569104D01*
X56032914Y-99486169D01*
X56032918Y-99486163D01*
X56140102Y-99275802D01*
X56213065Y-99051247D01*
X56250000Y-98818052D01*
X56250000Y-98581947D01*
X56249993Y-98581902D01*
X59499500Y-98581902D01*
X59499500Y-98818097D01*
X59536446Y-99051368D01*
X59609433Y-99275996D01*
X59716519Y-99486163D01*
X59716657Y-99486433D01*
X59855483Y-99677510D01*
X60022490Y-99844517D01*
X60213567Y-99983343D01*
X60305649Y-100030261D01*
X60424003Y-100090566D01*
X60424005Y-100090566D01*
X60424008Y-100090568D01*
X60544412Y-100129689D01*
X60648631Y-100163553D01*
X60881903Y-100200500D01*
X60881908Y-100200500D01*
X61118097Y-100200500D01*
X61351368Y-100163553D01*
X61352870Y-100163065D01*
X61575992Y-100090568D01*
X61786433Y-99983343D01*
X61977510Y-99844517D01*
X62144517Y-99677510D01*
X62283343Y-99486433D01*
X62390568Y-99275992D01*
X62463553Y-99051368D01*
X62472995Y-98991755D01*
X62500500Y-98818097D01*
X62500500Y-98581947D01*
X64000000Y-98581947D01*
X64000000Y-98818052D01*
X64036934Y-99051247D01*
X64109897Y-99275802D01*
X64217087Y-99486174D01*
X64277338Y-99569104D01*
X64277340Y-99569105D01*
X64976212Y-98870233D01*
X64987482Y-98912292D01*
X65059890Y-99037708D01*
X65162292Y-99140110D01*
X65287708Y-99212518D01*
X65329765Y-99223787D01*
X64630893Y-99922658D01*
X64713828Y-99982914D01*
X64924197Y-100090102D01*
X65148752Y-100163065D01*
X65148751Y-100163065D01*
X65381948Y-100200000D01*
X65606166Y-100200000D01*
X65673205Y-100219685D01*
X65718960Y-100272489D01*
X65728904Y-100341647D01*
X65709268Y-100392892D01*
X65690606Y-100420820D01*
X65690602Y-100420827D01*
X65630264Y-100566498D01*
X65630261Y-100566510D01*
X65599500Y-100721153D01*
X65599500Y-100878846D01*
X65630261Y-101033489D01*
X65630264Y-101033501D01*
X65690602Y-101179172D01*
X65690609Y-101179185D01*
X65778210Y-101310288D01*
X65778213Y-101310292D01*
X65889707Y-101421786D01*
X65889711Y-101421789D01*
X66020814Y-101509390D01*
X66020827Y-101509397D01*
X66166498Y-101569735D01*
X66166503Y-101569737D01*
X66321153Y-101600499D01*
X66321156Y-101600500D01*
X66321158Y-101600500D01*
X66478844Y-101600500D01*
X66478845Y-101600499D01*
X66633497Y-101569737D01*
X66779179Y-101509394D01*
X66910289Y-101421789D01*
X67021789Y-101310289D01*
X67109394Y-101179179D01*
X67169737Y-101033497D01*
X67200500Y-100878842D01*
X67200500Y-100721158D01*
X67200500Y-100721155D01*
X67200499Y-100721153D01*
X67182419Y-100630261D01*
X67169737Y-100566503D01*
X67155543Y-100532235D01*
X67109397Y-100420827D01*
X67109390Y-100420814D01*
X67021789Y-100289711D01*
X67021786Y-100289707D01*
X66910292Y-100178213D01*
X66910288Y-100178210D01*
X66779185Y-100090609D01*
X66779172Y-100090602D01*
X66633501Y-100030264D01*
X66633491Y-100030261D01*
X66472913Y-99998320D01*
X66411002Y-99965935D01*
X66409176Y-99962729D01*
X65670233Y-99223787D01*
X65712292Y-99212518D01*
X65837708Y-99140110D01*
X65940110Y-99037708D01*
X66012518Y-98912292D01*
X66023787Y-98870234D01*
X66722658Y-99569105D01*
X66722658Y-99569104D01*
X66782914Y-99486169D01*
X66782918Y-99486163D01*
X66890102Y-99275802D01*
X66963065Y-99051247D01*
X67000000Y-98818052D01*
X67000000Y-98581947D01*
X66963065Y-98348752D01*
X66890102Y-98124197D01*
X66782914Y-97913828D01*
X66722658Y-97830894D01*
X66722658Y-97830893D01*
X66023787Y-98529765D01*
X66012518Y-98487708D01*
X65940110Y-98362292D01*
X65837708Y-98259890D01*
X65712292Y-98187482D01*
X65670234Y-98176212D01*
X66369105Y-97477340D01*
X66369104Y-97477338D01*
X66286174Y-97417087D01*
X66075802Y-97309897D01*
X65851247Y-97236934D01*
X65851248Y-97236934D01*
X65618052Y-97200000D01*
X65381948Y-97200000D01*
X65148752Y-97236934D01*
X64924197Y-97309897D01*
X64713830Y-97417084D01*
X64630894Y-97477340D01*
X65329766Y-98176212D01*
X65287708Y-98187482D01*
X65162292Y-98259890D01*
X65059890Y-98362292D01*
X64987482Y-98487708D01*
X64976212Y-98529766D01*
X64277340Y-97830894D01*
X64217084Y-97913830D01*
X64109897Y-98124197D01*
X64036934Y-98348752D01*
X64000000Y-98581947D01*
X62500500Y-98581947D01*
X62500500Y-98581902D01*
X62463553Y-98348631D01*
X62390566Y-98124003D01*
X62334002Y-98012991D01*
X62283343Y-97913567D01*
X62144517Y-97722490D01*
X61977510Y-97555483D01*
X61786433Y-97416657D01*
X61575996Y-97309433D01*
X61351368Y-97236446D01*
X61118097Y-97199500D01*
X61118092Y-97199500D01*
X60881908Y-97199500D01*
X60881903Y-97199500D01*
X60648631Y-97236446D01*
X60424003Y-97309433D01*
X60213566Y-97416657D01*
X60130047Y-97477338D01*
X60022490Y-97555483D01*
X60022488Y-97555485D01*
X60022487Y-97555485D01*
X59855485Y-97722487D01*
X59855485Y-97722488D01*
X59855483Y-97722490D01*
X59795862Y-97804550D01*
X59716657Y-97913566D01*
X59609433Y-98124003D01*
X59536446Y-98348631D01*
X59499500Y-98581902D01*
X56249993Y-98581902D01*
X56213065Y-98348752D01*
X56140102Y-98124197D01*
X56032914Y-97913828D01*
X55972658Y-97830894D01*
X55972658Y-97830893D01*
X55273787Y-98529765D01*
X55262518Y-98487708D01*
X55190110Y-98362292D01*
X55087708Y-98259890D01*
X54962292Y-98187482D01*
X54920234Y-98176212D01*
X55619105Y-97477340D01*
X55619104Y-97477338D01*
X55536174Y-97417087D01*
X55325802Y-97309897D01*
X55101247Y-97236934D01*
X55101248Y-97236934D01*
X54868052Y-97200000D01*
X54631948Y-97200000D01*
X54398752Y-97236934D01*
X54174197Y-97309897D01*
X53963830Y-97417084D01*
X53880894Y-97477340D01*
X54579766Y-98176212D01*
X54537708Y-98187482D01*
X54412292Y-98259890D01*
X54309890Y-98362292D01*
X54237482Y-98487708D01*
X54226212Y-98529766D01*
X53527340Y-97830894D01*
X53467084Y-97913830D01*
X53359897Y-98124197D01*
X53286934Y-98348752D01*
X53250000Y-98581947D01*
X51750500Y-98581947D01*
X51750500Y-98581902D01*
X51713553Y-98348631D01*
X51640566Y-98124003D01*
X51584002Y-98012991D01*
X51533343Y-97913567D01*
X51394517Y-97722490D01*
X51227510Y-97555483D01*
X51036433Y-97416657D01*
X50825996Y-97309433D01*
X50601368Y-97236446D01*
X50368097Y-97199500D01*
X50368092Y-97199500D01*
X50131908Y-97199500D01*
X50131903Y-97199500D01*
X49898631Y-97236446D01*
X49674003Y-97309433D01*
X49463566Y-97416657D01*
X49380047Y-97477338D01*
X49272490Y-97555483D01*
X49272488Y-97555485D01*
X49272487Y-97555485D01*
X49105485Y-97722487D01*
X49105485Y-97722488D01*
X49105483Y-97722490D01*
X49045862Y-97804550D01*
X48966657Y-97913566D01*
X48859433Y-98124003D01*
X48786446Y-98348631D01*
X48749500Y-98581902D01*
X46750176Y-98581902D01*
X46821789Y-98510289D01*
X46909394Y-98379179D01*
X46969737Y-98233497D01*
X47000500Y-98078842D01*
X47000500Y-97921158D01*
X47000500Y-97921155D01*
X47000499Y-97921153D01*
X46969738Y-97766510D01*
X46969737Y-97766503D01*
X46969735Y-97766498D01*
X46909397Y-97620827D01*
X46909390Y-97620814D01*
X46821789Y-97489711D01*
X46821786Y-97489707D01*
X46710292Y-97378213D01*
X46710288Y-97378210D01*
X46579185Y-97290609D01*
X46579172Y-97290602D01*
X46433501Y-97230264D01*
X46433489Y-97230261D01*
X46278845Y-97199500D01*
X46278842Y-97199500D01*
X46121158Y-97199500D01*
X46121155Y-97199500D01*
X45966510Y-97230261D01*
X45966498Y-97230264D01*
X45820827Y-97290602D01*
X45820814Y-97290609D01*
X45689711Y-97378210D01*
X45689707Y-97378213D01*
X45578213Y-97489707D01*
X45578210Y-97489711D01*
X45490609Y-97620814D01*
X45490602Y-97620827D01*
X45430264Y-97766498D01*
X45430261Y-97766510D01*
X45399500Y-97921153D01*
X45399500Y-98078846D01*
X45430261Y-98233489D01*
X45430264Y-98233501D01*
X45490602Y-98379172D01*
X45490609Y-98379185D01*
X45578210Y-98510288D01*
X45578213Y-98510292D01*
X45689707Y-98621786D01*
X45689711Y-98621789D01*
X45820814Y-98709390D01*
X45820827Y-98709397D01*
X45932320Y-98755578D01*
X45986724Y-98799418D01*
X46008789Y-98865712D01*
X45991510Y-98933412D01*
X45940373Y-98981023D01*
X45909068Y-98991755D01*
X45904006Y-98992762D01*
X45903998Y-98992764D01*
X45758327Y-99053102D01*
X45758314Y-99053109D01*
X45627211Y-99140710D01*
X45627207Y-99140713D01*
X45515713Y-99252207D01*
X45515710Y-99252211D01*
X45428109Y-99383314D01*
X45428102Y-99383327D01*
X45367764Y-99528998D01*
X45367761Y-99529010D01*
X45337000Y-99683653D01*
X25500500Y-99683653D01*
X25500500Y-96771153D01*
X34699500Y-96771153D01*
X34699500Y-96928846D01*
X34730261Y-97083489D01*
X34730264Y-97083501D01*
X34790602Y-97229172D01*
X34790609Y-97229185D01*
X34878210Y-97360288D01*
X34878213Y-97360292D01*
X34989707Y-97471786D01*
X34989711Y-97471789D01*
X35120814Y-97559390D01*
X35120827Y-97559397D01*
X35266498Y-97619735D01*
X35266503Y-97619737D01*
X35421153Y-97650499D01*
X35421156Y-97650500D01*
X35421158Y-97650500D01*
X35578844Y-97650500D01*
X35578845Y-97650499D01*
X35733497Y-97619737D01*
X35879179Y-97559394D01*
X36010289Y-97471789D01*
X36121789Y-97360289D01*
X36209394Y-97229179D01*
X36269737Y-97083497D01*
X36300500Y-96928842D01*
X36300500Y-96771158D01*
X36300500Y-96771155D01*
X36300499Y-96771153D01*
X36269737Y-96616503D01*
X36260721Y-96594737D01*
X36209397Y-96470827D01*
X36209390Y-96470814D01*
X36121789Y-96339711D01*
X36121786Y-96339707D01*
X36010292Y-96228213D01*
X36010288Y-96228210D01*
X35879185Y-96140609D01*
X35879172Y-96140602D01*
X35733501Y-96080264D01*
X35733489Y-96080261D01*
X35578845Y-96049500D01*
X35578842Y-96049500D01*
X35421158Y-96049500D01*
X35421155Y-96049500D01*
X35266510Y-96080261D01*
X35266498Y-96080264D01*
X35120827Y-96140602D01*
X35120814Y-96140609D01*
X34989711Y-96228210D01*
X34989707Y-96228213D01*
X34878213Y-96339707D01*
X34878210Y-96339711D01*
X34790609Y-96470814D01*
X34790602Y-96470827D01*
X34730264Y-96616498D01*
X34730261Y-96616510D01*
X34699500Y-96771153D01*
X25500500Y-96771153D01*
X25500500Y-95746153D01*
X45374500Y-95746153D01*
X45374500Y-95903846D01*
X45405261Y-96058489D01*
X45405264Y-96058501D01*
X45465602Y-96204172D01*
X45465609Y-96204185D01*
X45553210Y-96335288D01*
X45553213Y-96335292D01*
X45664707Y-96446786D01*
X45664711Y-96446789D01*
X45795814Y-96534390D01*
X45795827Y-96534397D01*
X45941498Y-96594735D01*
X45941503Y-96594737D01*
X46050963Y-96616510D01*
X46096153Y-96625499D01*
X46096156Y-96625500D01*
X46096158Y-96625500D01*
X46253844Y-96625500D01*
X46253845Y-96625499D01*
X46408497Y-96594737D01*
X46554179Y-96534394D01*
X46685289Y-96446789D01*
X46796789Y-96335289D01*
X46884394Y-96204179D01*
X46944737Y-96058497D01*
X46975500Y-95903842D01*
X46975500Y-95746158D01*
X46975500Y-95746155D01*
X46975499Y-95746153D01*
X46944738Y-95591510D01*
X46944737Y-95591503D01*
X46944735Y-95591498D01*
X46884397Y-95445827D01*
X46884390Y-95445814D01*
X46796789Y-95314711D01*
X46796786Y-95314707D01*
X46685292Y-95203213D01*
X46685288Y-95203210D01*
X46554185Y-95115609D01*
X46554172Y-95115602D01*
X46408501Y-95055264D01*
X46408489Y-95055261D01*
X46253845Y-95024500D01*
X46253842Y-95024500D01*
X46096158Y-95024500D01*
X46096155Y-95024500D01*
X45941510Y-95055261D01*
X45941498Y-95055264D01*
X45795827Y-95115602D01*
X45795814Y-95115609D01*
X45664711Y-95203210D01*
X45664707Y-95203213D01*
X45553213Y-95314707D01*
X45553210Y-95314711D01*
X45465609Y-95445814D01*
X45465602Y-95445827D01*
X45405264Y-95591498D01*
X45405261Y-95591510D01*
X45374500Y-95746153D01*
X25500500Y-95746153D01*
X25500500Y-92821153D01*
X45199500Y-92821153D01*
X45199500Y-92978846D01*
X45230261Y-93133489D01*
X45230264Y-93133501D01*
X45290602Y-93279172D01*
X45290609Y-93279185D01*
X45378210Y-93410288D01*
X45378213Y-93410292D01*
X45489707Y-93521786D01*
X45489711Y-93521789D01*
X45620814Y-93609390D01*
X45620827Y-93609397D01*
X45766498Y-93669735D01*
X45766503Y-93669737D01*
X45921153Y-93700499D01*
X45921156Y-93700500D01*
X45921158Y-93700500D01*
X46078844Y-93700500D01*
X46078845Y-93700499D01*
X46233497Y-93669737D01*
X46379179Y-93609394D01*
X46510289Y-93521789D01*
X46610925Y-93421153D01*
X73699500Y-93421153D01*
X73699500Y-93578846D01*
X73730261Y-93733489D01*
X73730264Y-93733501D01*
X73790602Y-93879172D01*
X73790609Y-93879185D01*
X73878210Y-94010288D01*
X73878213Y-94010292D01*
X73989707Y-94121786D01*
X73989711Y-94121789D01*
X74120814Y-94209390D01*
X74120827Y-94209397D01*
X74266498Y-94269735D01*
X74266503Y-94269737D01*
X74421153Y-94300499D01*
X74421156Y-94300500D01*
X74421158Y-94300500D01*
X74578844Y-94300500D01*
X74578845Y-94300499D01*
X74733497Y-94269737D01*
X74879179Y-94209394D01*
X75010289Y-94121789D01*
X75121789Y-94010289D01*
X75209394Y-93879179D01*
X75269737Y-93733497D01*
X75300500Y-93578842D01*
X75300500Y-93421158D01*
X75300500Y-93421155D01*
X75300499Y-93421153D01*
X75285585Y-93346175D01*
X75269737Y-93266503D01*
X75242398Y-93200500D01*
X75209397Y-93120827D01*
X75209390Y-93120814D01*
X75121789Y-92989711D01*
X75121786Y-92989707D01*
X75010292Y-92878213D01*
X75010288Y-92878210D01*
X74879185Y-92790609D01*
X74879172Y-92790602D01*
X74733501Y-92730264D01*
X74733489Y-92730261D01*
X74578845Y-92699500D01*
X74578842Y-92699500D01*
X74421158Y-92699500D01*
X74421155Y-92699500D01*
X74266510Y-92730261D01*
X74266498Y-92730264D01*
X74120827Y-92790602D01*
X74120814Y-92790609D01*
X73989711Y-92878210D01*
X73989707Y-92878213D01*
X73878213Y-92989707D01*
X73878210Y-92989711D01*
X73790609Y-93120814D01*
X73790602Y-93120827D01*
X73730264Y-93266498D01*
X73730261Y-93266510D01*
X73699500Y-93421153D01*
X46610925Y-93421153D01*
X46621789Y-93410289D01*
X46709394Y-93279179D01*
X46769737Y-93133497D01*
X46800500Y-92978842D01*
X46800500Y-92821158D01*
X46800500Y-92821155D01*
X46800499Y-92821153D01*
X46782419Y-92730261D01*
X46769737Y-92666503D01*
X46756062Y-92633489D01*
X46709397Y-92520827D01*
X46709390Y-92520814D01*
X46621790Y-92389712D01*
X46621784Y-92389705D01*
X46553232Y-92321153D01*
X56299500Y-92321153D01*
X56299500Y-92478846D01*
X56330261Y-92633489D01*
X56330264Y-92633501D01*
X56390602Y-92779172D01*
X56390609Y-92779185D01*
X56478210Y-92910288D01*
X56478213Y-92910292D01*
X56589707Y-93021786D01*
X56589711Y-93021789D01*
X56720814Y-93109390D01*
X56720827Y-93109397D01*
X56866498Y-93169735D01*
X56866503Y-93169737D01*
X57021153Y-93200499D01*
X57021156Y-93200500D01*
X57021158Y-93200500D01*
X57178844Y-93200500D01*
X57178845Y-93200499D01*
X57333497Y-93169737D01*
X57451592Y-93120821D01*
X57479172Y-93109397D01*
X57479172Y-93109396D01*
X57479179Y-93109394D01*
X57610289Y-93021789D01*
X57721789Y-92910289D01*
X57809394Y-92779179D01*
X57869737Y-92633497D01*
X57900500Y-92478842D01*
X57900500Y-92321158D01*
X57900500Y-92321155D01*
X57900499Y-92321153D01*
X57874531Y-92190606D01*
X57869737Y-92166503D01*
X57869735Y-92166498D01*
X57809397Y-92020827D01*
X57809390Y-92020814D01*
X57721789Y-91889711D01*
X57721786Y-91889707D01*
X57610292Y-91778213D01*
X57610288Y-91778210D01*
X57479185Y-91690609D01*
X57479172Y-91690602D01*
X57333501Y-91630264D01*
X57333489Y-91630261D01*
X57178845Y-91599500D01*
X57178842Y-91599500D01*
X57021158Y-91599500D01*
X57021155Y-91599500D01*
X56866510Y-91630261D01*
X56866498Y-91630264D01*
X56720827Y-91690602D01*
X56720814Y-91690609D01*
X56589711Y-91778210D01*
X56589707Y-91778213D01*
X56478213Y-91889707D01*
X56478210Y-91889711D01*
X56390609Y-92020814D01*
X56390602Y-92020827D01*
X56330264Y-92166498D01*
X56330261Y-92166510D01*
X56299500Y-92321153D01*
X46553232Y-92321153D01*
X46510292Y-92278213D01*
X46510288Y-92278210D01*
X46379185Y-92190609D01*
X46379172Y-92190602D01*
X46233501Y-92130264D01*
X46233489Y-92130261D01*
X46078845Y-92099500D01*
X46078842Y-92099500D01*
X45921158Y-92099500D01*
X45921155Y-92099500D01*
X45766510Y-92130261D01*
X45766498Y-92130264D01*
X45620827Y-92190602D01*
X45620814Y-92190609D01*
X45489711Y-92278210D01*
X45489707Y-92278213D01*
X45378213Y-92389707D01*
X45378210Y-92389711D01*
X45290609Y-92520814D01*
X45290602Y-92520827D01*
X45230264Y-92666498D01*
X45230261Y-92666510D01*
X45199500Y-92821153D01*
X25500500Y-92821153D01*
X25500500Y-91221153D01*
X68399500Y-91221153D01*
X68399500Y-91378846D01*
X68430261Y-91533489D01*
X68430264Y-91533501D01*
X68490602Y-91679172D01*
X68490609Y-91679185D01*
X68578210Y-91810288D01*
X68578213Y-91810292D01*
X68689707Y-91921786D01*
X68689711Y-91921789D01*
X68820814Y-92009390D01*
X68820827Y-92009397D01*
X68966498Y-92069735D01*
X68966503Y-92069737D01*
X69116131Y-92099500D01*
X69121153Y-92100499D01*
X69121156Y-92100500D01*
X69121158Y-92100500D01*
X69278844Y-92100500D01*
X69278845Y-92100499D01*
X69433497Y-92069737D01*
X69551592Y-92020821D01*
X69579172Y-92009397D01*
X69579172Y-92009396D01*
X69579179Y-92009394D01*
X69710289Y-91921789D01*
X69821789Y-91810289D01*
X69909394Y-91679179D01*
X69969737Y-91533497D01*
X70000500Y-91378842D01*
X70000500Y-91221158D01*
X70000500Y-91221155D01*
X70000499Y-91221153D01*
X69969738Y-91066510D01*
X69969737Y-91066503D01*
X69969735Y-91066498D01*
X69909397Y-90920827D01*
X69909390Y-90920814D01*
X69821789Y-90789711D01*
X69821786Y-90789707D01*
X69710292Y-90678213D01*
X69710288Y-90678210D01*
X69579185Y-90590609D01*
X69579172Y-90590602D01*
X69433501Y-90530264D01*
X69433489Y-90530261D01*
X69278845Y-90499500D01*
X69278842Y-90499500D01*
X69121158Y-90499500D01*
X69121155Y-90499500D01*
X68966510Y-90530261D01*
X68966498Y-90530264D01*
X68820827Y-90590602D01*
X68820814Y-90590609D01*
X68689711Y-90678210D01*
X68689707Y-90678213D01*
X68578213Y-90789707D01*
X68578210Y-90789711D01*
X68490609Y-90920814D01*
X68490602Y-90920827D01*
X68430264Y-91066498D01*
X68430261Y-91066510D01*
X68399500Y-91221153D01*
X25500500Y-91221153D01*
X25500500Y-90071153D01*
X54049500Y-90071153D01*
X54049500Y-90228846D01*
X54080261Y-90383489D01*
X54080264Y-90383501D01*
X54140602Y-90529172D01*
X54140609Y-90529185D01*
X54228210Y-90660288D01*
X54228213Y-90660292D01*
X54339707Y-90771786D01*
X54339711Y-90771789D01*
X54470814Y-90859390D01*
X54470827Y-90859397D01*
X54616498Y-90919735D01*
X54616503Y-90919737D01*
X54771153Y-90950499D01*
X54771156Y-90950500D01*
X54771158Y-90950500D01*
X54928844Y-90950500D01*
X54928845Y-90950499D01*
X55083497Y-90919737D01*
X55229179Y-90859394D01*
X55360289Y-90771789D01*
X55471789Y-90660289D01*
X55559394Y-90529179D01*
X55619737Y-90383497D01*
X55643557Y-90263745D01*
X55675941Y-90201835D01*
X55736657Y-90167261D01*
X55806427Y-90171000D01*
X55834065Y-90184835D01*
X55870814Y-90209390D01*
X55870827Y-90209397D01*
X56002039Y-90263746D01*
X56016503Y-90269737D01*
X56171153Y-90300499D01*
X56171156Y-90300500D01*
X56171158Y-90300500D01*
X56328844Y-90300500D01*
X56328845Y-90300499D01*
X56483497Y-90269737D01*
X56629179Y-90209394D01*
X56760289Y-90121789D01*
X56871789Y-90010289D01*
X56959394Y-89879179D01*
X57019737Y-89733497D01*
X57050500Y-89578842D01*
X57050500Y-89421158D01*
X57050500Y-89421155D01*
X57050499Y-89421153D01*
X57019738Y-89266510D01*
X57019738Y-89266508D01*
X57019737Y-89266503D01*
X57019735Y-89266498D01*
X56959397Y-89120827D01*
X56959390Y-89120814D01*
X56871789Y-88989711D01*
X56871786Y-88989707D01*
X56760292Y-88878213D01*
X56760288Y-88878210D01*
X56629185Y-88790609D01*
X56629172Y-88790602D01*
X56483501Y-88730264D01*
X56483489Y-88730261D01*
X56328845Y-88699500D01*
X56328842Y-88699500D01*
X56171158Y-88699500D01*
X56171155Y-88699500D01*
X56016510Y-88730261D01*
X56016498Y-88730264D01*
X55870827Y-88790602D01*
X55870814Y-88790609D01*
X55739711Y-88878210D01*
X55739707Y-88878213D01*
X55628213Y-88989707D01*
X55628210Y-88989711D01*
X55540609Y-89120814D01*
X55540602Y-89120827D01*
X55480264Y-89266498D01*
X55480261Y-89266508D01*
X55456442Y-89386254D01*
X55424057Y-89448165D01*
X55363341Y-89482739D01*
X55293571Y-89478998D01*
X55265935Y-89465164D01*
X55229190Y-89440612D01*
X55229172Y-89440602D01*
X55083501Y-89380264D01*
X55083489Y-89380261D01*
X54928845Y-89349500D01*
X54928842Y-89349500D01*
X54771158Y-89349500D01*
X54771155Y-89349500D01*
X54616510Y-89380261D01*
X54616498Y-89380264D01*
X54470827Y-89440602D01*
X54470814Y-89440609D01*
X54339711Y-89528210D01*
X54339707Y-89528213D01*
X54228213Y-89639707D01*
X54228210Y-89639711D01*
X54140609Y-89770814D01*
X54140602Y-89770827D01*
X54080264Y-89916498D01*
X54080261Y-89916510D01*
X54049500Y-90071153D01*
X25500500Y-90071153D01*
X25500500Y-87851153D01*
X52699500Y-87851153D01*
X52699500Y-88008846D01*
X52730261Y-88163489D01*
X52730264Y-88163501D01*
X52790602Y-88309172D01*
X52790609Y-88309185D01*
X52878210Y-88440288D01*
X52878213Y-88440292D01*
X52989707Y-88551786D01*
X52989711Y-88551789D01*
X53120814Y-88639390D01*
X53120827Y-88639397D01*
X53265931Y-88699500D01*
X53266503Y-88699737D01*
X53419967Y-88730263D01*
X53421153Y-88730499D01*
X53421156Y-88730500D01*
X53421158Y-88730500D01*
X53578844Y-88730500D01*
X53578845Y-88730499D01*
X53733497Y-88699737D01*
X53879179Y-88639394D01*
X54010289Y-88551789D01*
X54121789Y-88440289D01*
X54209394Y-88309179D01*
X54269737Y-88163497D01*
X54300500Y-88008842D01*
X54300500Y-87851158D01*
X54295149Y-87824256D01*
X54295149Y-87824253D01*
X54291549Y-87806153D01*
X73453130Y-87806153D01*
X73453130Y-87963846D01*
X73483891Y-88118489D01*
X73483894Y-88118501D01*
X73544232Y-88264172D01*
X73544239Y-88264185D01*
X73631840Y-88395288D01*
X73631843Y-88395292D01*
X73743337Y-88506786D01*
X73743341Y-88506789D01*
X73874444Y-88594390D01*
X73874457Y-88594397D01*
X74020128Y-88654735D01*
X74020133Y-88654737D01*
X74174783Y-88685499D01*
X74174786Y-88685500D01*
X74174788Y-88685500D01*
X74332474Y-88685500D01*
X74332475Y-88685499D01*
X74487127Y-88654737D01*
X74632809Y-88594394D01*
X74763919Y-88506789D01*
X74875419Y-88395289D01*
X74963024Y-88264179D01*
X75023367Y-88118497D01*
X75054130Y-87963842D01*
X75054130Y-87806158D01*
X75054130Y-87806155D01*
X75054129Y-87806153D01*
X75023367Y-87651503D01*
X74981666Y-87550827D01*
X74963027Y-87505827D01*
X74963020Y-87505814D01*
X74875419Y-87374711D01*
X74875416Y-87374707D01*
X74763922Y-87263213D01*
X74763918Y-87263210D01*
X74632815Y-87175609D01*
X74632802Y-87175602D01*
X74487131Y-87115264D01*
X74487119Y-87115261D01*
X74332475Y-87084500D01*
X74332472Y-87084500D01*
X74174788Y-87084500D01*
X74174785Y-87084500D01*
X74020140Y-87115261D01*
X74020128Y-87115264D01*
X73874457Y-87175602D01*
X73874444Y-87175609D01*
X73743341Y-87263210D01*
X73743337Y-87263213D01*
X73631843Y-87374707D01*
X73631840Y-87374711D01*
X73544239Y-87505814D01*
X73544232Y-87505827D01*
X73483894Y-87651498D01*
X73483891Y-87651510D01*
X73453130Y-87806153D01*
X54291549Y-87806153D01*
X54269738Y-87696508D01*
X54269737Y-87696507D01*
X54269737Y-87696503D01*
X54269735Y-87696498D01*
X54209397Y-87550827D01*
X54209390Y-87550814D01*
X54121789Y-87419711D01*
X54121786Y-87419707D01*
X54010292Y-87308213D01*
X54010288Y-87308210D01*
X53879185Y-87220609D01*
X53879172Y-87220602D01*
X53733501Y-87160264D01*
X53733489Y-87160261D01*
X53578845Y-87129500D01*
X53578842Y-87129500D01*
X53421158Y-87129500D01*
X53421155Y-87129500D01*
X53266510Y-87160261D01*
X53266498Y-87160264D01*
X53120827Y-87220602D01*
X53120814Y-87220609D01*
X52989711Y-87308210D01*
X52989707Y-87308213D01*
X52878213Y-87419707D01*
X52878210Y-87419711D01*
X52790609Y-87550814D01*
X52790602Y-87550827D01*
X52730264Y-87696498D01*
X52730261Y-87696510D01*
X52699500Y-87851153D01*
X25500500Y-87851153D01*
X25500500Y-86521153D01*
X49999500Y-86521153D01*
X49999500Y-86678846D01*
X50030261Y-86833489D01*
X50030264Y-86833501D01*
X50090602Y-86979172D01*
X50090609Y-86979185D01*
X50178210Y-87110288D01*
X50178213Y-87110292D01*
X50289707Y-87221786D01*
X50289711Y-87221789D01*
X50420814Y-87309390D01*
X50420827Y-87309397D01*
X50566498Y-87369735D01*
X50566503Y-87369737D01*
X50721153Y-87400499D01*
X50721156Y-87400500D01*
X50721158Y-87400500D01*
X50878844Y-87400500D01*
X50878845Y-87400499D01*
X51033497Y-87369737D01*
X51179179Y-87309394D01*
X51310289Y-87221789D01*
X51421789Y-87110289D01*
X51509394Y-86979179D01*
X51569737Y-86833497D01*
X51600500Y-86678842D01*
X51600500Y-86521158D01*
X51600500Y-86521155D01*
X51600499Y-86521153D01*
X51569738Y-86366510D01*
X51569737Y-86366503D01*
X51569735Y-86366498D01*
X51509397Y-86220827D01*
X51509390Y-86220814D01*
X51421789Y-86089711D01*
X51421786Y-86089707D01*
X51310292Y-85978213D01*
X51310288Y-85978210D01*
X51179185Y-85890609D01*
X51179172Y-85890602D01*
X51033501Y-85830264D01*
X51033489Y-85830261D01*
X50878845Y-85799500D01*
X50878842Y-85799500D01*
X50721158Y-85799500D01*
X50721155Y-85799500D01*
X50566510Y-85830261D01*
X50566498Y-85830264D01*
X50420827Y-85890602D01*
X50420814Y-85890609D01*
X50289711Y-85978210D01*
X50289707Y-85978213D01*
X50178213Y-86089707D01*
X50178210Y-86089711D01*
X50090609Y-86220814D01*
X50090602Y-86220827D01*
X50030264Y-86366498D01*
X50030261Y-86366510D01*
X49999500Y-86521153D01*
X25500500Y-86521153D01*
X25500500Y-82213390D01*
X25994500Y-82213390D01*
X25994500Y-82456609D01*
X25994501Y-82456626D01*
X26026247Y-82697765D01*
X26089200Y-82932709D01*
X26182280Y-83157423D01*
X26182285Y-83157434D01*
X26224334Y-83230264D01*
X26303898Y-83368072D01*
X26303900Y-83368075D01*
X26303901Y-83368076D01*
X26451966Y-83561039D01*
X26451972Y-83561046D01*
X26623953Y-83733027D01*
X26623959Y-83733032D01*
X26816928Y-83881102D01*
X26952309Y-83959264D01*
X27027565Y-84002714D01*
X27027570Y-84002716D01*
X27027573Y-84002718D01*
X27252289Y-84095799D01*
X27487233Y-84158752D01*
X27728384Y-84190500D01*
X27728391Y-84190500D01*
X27971609Y-84190500D01*
X27971616Y-84190500D01*
X28212767Y-84158752D01*
X28447711Y-84095799D01*
X28672427Y-84002718D01*
X28883072Y-83881102D01*
X29076041Y-83733032D01*
X29248032Y-83561041D01*
X29396102Y-83368072D01*
X29517718Y-83157427D01*
X29610799Y-82932711D01*
X29673752Y-82697767D01*
X29705500Y-82456616D01*
X29705500Y-82213390D01*
X33294500Y-82213390D01*
X33294500Y-82456609D01*
X33294501Y-82456626D01*
X33326247Y-82697765D01*
X33389200Y-82932709D01*
X33482280Y-83157423D01*
X33482285Y-83157434D01*
X33524334Y-83230264D01*
X33603898Y-83368072D01*
X33603900Y-83368075D01*
X33603901Y-83368076D01*
X33751966Y-83561039D01*
X33751972Y-83561046D01*
X33923953Y-83733027D01*
X33923959Y-83733032D01*
X34116928Y-83881102D01*
X34252309Y-83959264D01*
X34327565Y-84002714D01*
X34327570Y-84002716D01*
X34327573Y-84002718D01*
X34552289Y-84095799D01*
X34787233Y-84158752D01*
X35028384Y-84190500D01*
X35028391Y-84190500D01*
X35271609Y-84190500D01*
X35271616Y-84190500D01*
X35512767Y-84158752D01*
X35747711Y-84095799D01*
X35972427Y-84002718D01*
X36113702Y-83921153D01*
X45299500Y-83921153D01*
X45299500Y-84078846D01*
X45330261Y-84233489D01*
X45330264Y-84233501D01*
X45390602Y-84379172D01*
X45390609Y-84379185D01*
X45478210Y-84510288D01*
X45478213Y-84510292D01*
X45589707Y-84621786D01*
X45589711Y-84621789D01*
X45720814Y-84709390D01*
X45720827Y-84709397D01*
X45866498Y-84769735D01*
X45866503Y-84769737D01*
X46021153Y-84800499D01*
X46021156Y-84800500D01*
X46021158Y-84800500D01*
X46178844Y-84800500D01*
X46178845Y-84800499D01*
X46333497Y-84769737D01*
X46479179Y-84709394D01*
X46610289Y-84621789D01*
X46721789Y-84510289D01*
X46809394Y-84379179D01*
X46869737Y-84233497D01*
X46900500Y-84078842D01*
X46900500Y-83921158D01*
X46900500Y-83921155D01*
X46900499Y-83921153D01*
X46892532Y-83881102D01*
X46869737Y-83766503D01*
X46857166Y-83736153D01*
X46843234Y-83702518D01*
X46826100Y-83661153D01*
X68569500Y-83661153D01*
X68569500Y-83818846D01*
X68600261Y-83973489D01*
X68600264Y-83973501D01*
X68660602Y-84119172D01*
X68660609Y-84119185D01*
X68748210Y-84250288D01*
X68748213Y-84250292D01*
X68859707Y-84361786D01*
X68859711Y-84361789D01*
X68990814Y-84449390D01*
X68990827Y-84449397D01*
X69136498Y-84509735D01*
X69136503Y-84509737D01*
X69291153Y-84540499D01*
X69291156Y-84540500D01*
X69291158Y-84540500D01*
X69448844Y-84540500D01*
X69448845Y-84540499D01*
X69603497Y-84509737D01*
X69749179Y-84449394D01*
X69880289Y-84361789D01*
X69991789Y-84250289D01*
X70079394Y-84119179D01*
X70139737Y-83973497D01*
X70170500Y-83818842D01*
X70170500Y-83736153D01*
X72379500Y-83736153D01*
X72379500Y-83893846D01*
X72410261Y-84048489D01*
X72410264Y-84048501D01*
X72470602Y-84194172D01*
X72470609Y-84194185D01*
X72558210Y-84325288D01*
X72558213Y-84325292D01*
X72669707Y-84436786D01*
X72669711Y-84436789D01*
X72800814Y-84524390D01*
X72800827Y-84524397D01*
X72946498Y-84584735D01*
X72946503Y-84584737D01*
X73101153Y-84615499D01*
X73101156Y-84615500D01*
X73101158Y-84615500D01*
X73258844Y-84615500D01*
X73258845Y-84615499D01*
X73413497Y-84584737D01*
X73559179Y-84524394D01*
X73690289Y-84436789D01*
X73801789Y-84325289D01*
X73889394Y-84194179D01*
X73949737Y-84048497D01*
X73980500Y-83893842D01*
X73980500Y-83736158D01*
X73980500Y-83736155D01*
X73980499Y-83736153D01*
X73979877Y-83733027D01*
X73949737Y-83581503D01*
X73949735Y-83581498D01*
X73889397Y-83435827D01*
X73889390Y-83435814D01*
X73801789Y-83304711D01*
X73801786Y-83304707D01*
X73690292Y-83193213D01*
X73690288Y-83193210D01*
X73559185Y-83105609D01*
X73559172Y-83105602D01*
X73413501Y-83045264D01*
X73413489Y-83045261D01*
X73258845Y-83014500D01*
X73258842Y-83014500D01*
X73101158Y-83014500D01*
X73101155Y-83014500D01*
X72946510Y-83045261D01*
X72946498Y-83045264D01*
X72800827Y-83105602D01*
X72800814Y-83105609D01*
X72669711Y-83193210D01*
X72669707Y-83193213D01*
X72558213Y-83304707D01*
X72558210Y-83304711D01*
X72470609Y-83435814D01*
X72470602Y-83435827D01*
X72410264Y-83581498D01*
X72410261Y-83581510D01*
X72379500Y-83736153D01*
X70170500Y-83736153D01*
X70170500Y-83661158D01*
X70170500Y-83661155D01*
X70170499Y-83661153D01*
X70154657Y-83581510D01*
X70139737Y-83506503D01*
X70132780Y-83489707D01*
X70079397Y-83360827D01*
X70079390Y-83360814D01*
X69991789Y-83229711D01*
X69991786Y-83229707D01*
X69880292Y-83118213D01*
X69880288Y-83118210D01*
X69749185Y-83030609D01*
X69749172Y-83030602D01*
X69603501Y-82970264D01*
X69603489Y-82970261D01*
X69448845Y-82939500D01*
X69448842Y-82939500D01*
X69291158Y-82939500D01*
X69291155Y-82939500D01*
X69136510Y-82970261D01*
X69136498Y-82970264D01*
X68990827Y-83030602D01*
X68990814Y-83030609D01*
X68859711Y-83118210D01*
X68859707Y-83118213D01*
X68748213Y-83229707D01*
X68748210Y-83229711D01*
X68660609Y-83360814D01*
X68660602Y-83360827D01*
X68600264Y-83506498D01*
X68600261Y-83506510D01*
X68569500Y-83661153D01*
X46826100Y-83661153D01*
X46809397Y-83620827D01*
X46809390Y-83620814D01*
X46721789Y-83489711D01*
X46721786Y-83489707D01*
X46610292Y-83378213D01*
X46610288Y-83378210D01*
X46479185Y-83290609D01*
X46479172Y-83290602D01*
X46333501Y-83230264D01*
X46333489Y-83230261D01*
X46178845Y-83199500D01*
X46178842Y-83199500D01*
X46021158Y-83199500D01*
X46021155Y-83199500D01*
X45866510Y-83230261D01*
X45866498Y-83230264D01*
X45720827Y-83290602D01*
X45720814Y-83290609D01*
X45589711Y-83378210D01*
X45589707Y-83378213D01*
X45478213Y-83489707D01*
X45478210Y-83489711D01*
X45390609Y-83620814D01*
X45390602Y-83620827D01*
X45330264Y-83766498D01*
X45330261Y-83766510D01*
X45299500Y-83921153D01*
X36113702Y-83921153D01*
X36183072Y-83881102D01*
X36264206Y-83818846D01*
X36267016Y-83816690D01*
X36310652Y-83783206D01*
X36376041Y-83733032D01*
X36548032Y-83561041D01*
X36696102Y-83368072D01*
X36817718Y-83157427D01*
X36910799Y-82932711D01*
X36973752Y-82697767D01*
X37005500Y-82456616D01*
X37005500Y-82213384D01*
X36973752Y-81972233D01*
X36910799Y-81737289D01*
X36817718Y-81512573D01*
X36817716Y-81512570D01*
X36817714Y-81512565D01*
X36759283Y-81411361D01*
X36696102Y-81301928D01*
X36548032Y-81108959D01*
X36548027Y-81108953D01*
X36376046Y-80936972D01*
X36376039Y-80936966D01*
X36183076Y-80788901D01*
X36183075Y-80788900D01*
X36183072Y-80788898D01*
X36099089Y-80740410D01*
X35972434Y-80667285D01*
X35972423Y-80667280D01*
X35747709Y-80574200D01*
X35512765Y-80511247D01*
X35271626Y-80479501D01*
X35271621Y-80479500D01*
X35271616Y-80479500D01*
X35028384Y-80479500D01*
X35028378Y-80479500D01*
X35028373Y-80479501D01*
X34787234Y-80511247D01*
X34552290Y-80574200D01*
X34327576Y-80667280D01*
X34327565Y-80667285D01*
X34116923Y-80788901D01*
X33923960Y-80936966D01*
X33923953Y-80936972D01*
X33751972Y-81108953D01*
X33751966Y-81108960D01*
X33603901Y-81301923D01*
X33482285Y-81512565D01*
X33482280Y-81512576D01*
X33389200Y-81737290D01*
X33326247Y-81972234D01*
X33294501Y-82213373D01*
X33294500Y-82213390D01*
X29705500Y-82213390D01*
X29705500Y-82213384D01*
X29673752Y-81972233D01*
X29610799Y-81737289D01*
X29517718Y-81512573D01*
X29517716Y-81512570D01*
X29517714Y-81512565D01*
X29459283Y-81411361D01*
X29396102Y-81301928D01*
X29248032Y-81108959D01*
X29248027Y-81108953D01*
X29076046Y-80936972D01*
X29076039Y-80936966D01*
X28883076Y-80788901D01*
X28883075Y-80788900D01*
X28883072Y-80788898D01*
X28799089Y-80740410D01*
X28672434Y-80667285D01*
X28672423Y-80667280D01*
X28447709Y-80574200D01*
X28212765Y-80511247D01*
X27971626Y-80479501D01*
X27971621Y-80479500D01*
X27971616Y-80479500D01*
X27728384Y-80479500D01*
X27728378Y-80479500D01*
X27728373Y-80479501D01*
X27487234Y-80511247D01*
X27252290Y-80574200D01*
X27027576Y-80667280D01*
X27027565Y-80667285D01*
X26816923Y-80788901D01*
X26623960Y-80936966D01*
X26623953Y-80936972D01*
X26451972Y-81108953D01*
X26451966Y-81108960D01*
X26303901Y-81301923D01*
X26182285Y-81512565D01*
X26182280Y-81512576D01*
X26089200Y-81737290D01*
X26026247Y-81972234D01*
X25994501Y-82213373D01*
X25994500Y-82213390D01*
X25500500Y-82213390D01*
X25500500Y-78840313D01*
X37249500Y-78840313D01*
X37249500Y-79159687D01*
X37255521Y-79220821D01*
X37280803Y-79477522D01*
X37343109Y-79790754D01*
X37435820Y-80096382D01*
X37558040Y-80391446D01*
X37558042Y-80391451D01*
X37708584Y-80673094D01*
X37708601Y-80673122D01*
X37886012Y-80938638D01*
X37886029Y-80938661D01*
X38088638Y-81185540D01*
X38314459Y-81411361D01*
X38314464Y-81411365D01*
X38314465Y-81411366D01*
X38561344Y-81613975D01*
X38561351Y-81613980D01*
X38561361Y-81613987D01*
X38826877Y-81791398D01*
X38826882Y-81791401D01*
X38826894Y-81791409D01*
X38826903Y-81791413D01*
X38826905Y-81791415D01*
X39108548Y-81941957D01*
X39108550Y-81941957D01*
X39108556Y-81941961D01*
X39403619Y-82064180D01*
X39709240Y-82156889D01*
X40022477Y-82219196D01*
X40340313Y-82250500D01*
X40340316Y-82250500D01*
X40659684Y-82250500D01*
X40659687Y-82250500D01*
X40977523Y-82219196D01*
X41290760Y-82156889D01*
X41596381Y-82064180D01*
X41891444Y-81941961D01*
X42173106Y-81791409D01*
X42438656Y-81613975D01*
X42685535Y-81411366D01*
X42911366Y-81185535D01*
X43113975Y-80938656D01*
X43291409Y-80673106D01*
X43441961Y-80391444D01*
X43564180Y-80096381D01*
X43656889Y-79790760D01*
X43710517Y-79521153D01*
X69839500Y-79521153D01*
X69839500Y-79678846D01*
X69870261Y-79833489D01*
X69870264Y-79833501D01*
X69930602Y-79979172D01*
X69930609Y-79979185D01*
X70018210Y-80110288D01*
X70018213Y-80110292D01*
X70129707Y-80221786D01*
X70129711Y-80221789D01*
X70260814Y-80309390D01*
X70260827Y-80309397D01*
X70406498Y-80369735D01*
X70406503Y-80369737D01*
X70561153Y-80400499D01*
X70561156Y-80400500D01*
X70561158Y-80400500D01*
X70718844Y-80400500D01*
X70718845Y-80400499D01*
X70873497Y-80369737D01*
X71019179Y-80309394D01*
X71150289Y-80221789D01*
X71193082Y-80178996D01*
X71254405Y-80145510D01*
X71324096Y-80150494D01*
X71354452Y-80167959D01*
X71354646Y-80167670D01*
X71358966Y-80170557D01*
X71359429Y-80170823D01*
X71359710Y-80171053D01*
X71490814Y-80258655D01*
X71490827Y-80258662D01*
X71613297Y-80309390D01*
X71636503Y-80319002D01*
X71791153Y-80349764D01*
X71791156Y-80349765D01*
X71791158Y-80349765D01*
X71948844Y-80349765D01*
X71948845Y-80349764D01*
X72103497Y-80319002D01*
X72249179Y-80258659D01*
X72380289Y-80171054D01*
X72491789Y-80059554D01*
X72579394Y-79928444D01*
X72639737Y-79782762D01*
X72670500Y-79628107D01*
X72670500Y-79470423D01*
X72670500Y-79470420D01*
X72670499Y-79470418D01*
X72639738Y-79315775D01*
X72639737Y-79315768D01*
X72637467Y-79310288D01*
X72579397Y-79170092D01*
X72579390Y-79170079D01*
X72491789Y-79038976D01*
X72491786Y-79038972D01*
X72380292Y-78927478D01*
X72380288Y-78927475D01*
X72249185Y-78839874D01*
X72249172Y-78839867D01*
X72224449Y-78829627D01*
X72103501Y-78779529D01*
X72103489Y-78779526D01*
X71948845Y-78748765D01*
X71948842Y-78748765D01*
X71791158Y-78748765D01*
X71791155Y-78748765D01*
X71636510Y-78779526D01*
X71636498Y-78779529D01*
X71490827Y-78839867D01*
X71490814Y-78839874D01*
X71359711Y-78927475D01*
X71359706Y-78927479D01*
X71316915Y-78970270D01*
X71255592Y-79003754D01*
X71185900Y-78998769D01*
X71155547Y-78981305D01*
X71155354Y-78981595D01*
X71151037Y-78978711D01*
X71150572Y-78978443D01*
X71150288Y-78978210D01*
X71019185Y-78890609D01*
X71019172Y-78890602D01*
X70873501Y-78830264D01*
X70873489Y-78830261D01*
X70718845Y-78799500D01*
X70718842Y-78799500D01*
X70561158Y-78799500D01*
X70561155Y-78799500D01*
X70406510Y-78830261D01*
X70406498Y-78830264D01*
X70260827Y-78890602D01*
X70260814Y-78890609D01*
X70129711Y-78978210D01*
X70129707Y-78978213D01*
X70018213Y-79089707D01*
X70018210Y-79089711D01*
X69930609Y-79220814D01*
X69930602Y-79220827D01*
X69870264Y-79366498D01*
X69870261Y-79366510D01*
X69839500Y-79521153D01*
X43710517Y-79521153D01*
X43719196Y-79477523D01*
X43750500Y-79159687D01*
X43750500Y-78840313D01*
X43738764Y-78721153D01*
X73599500Y-78721153D01*
X73599500Y-78878846D01*
X73630261Y-79033489D01*
X73630264Y-79033501D01*
X73690602Y-79179172D01*
X73690609Y-79179185D01*
X73778210Y-79310288D01*
X73778213Y-79310292D01*
X73889707Y-79421786D01*
X73889711Y-79421789D01*
X74020814Y-79509390D01*
X74020827Y-79509397D01*
X74166498Y-79569735D01*
X74166503Y-79569737D01*
X74321153Y-79600499D01*
X74321156Y-79600500D01*
X74321158Y-79600500D01*
X74478844Y-79600500D01*
X74478845Y-79600499D01*
X74633497Y-79569737D01*
X74779179Y-79509394D01*
X74910289Y-79421789D01*
X75021789Y-79310289D01*
X75109394Y-79179179D01*
X75169737Y-79033497D01*
X75200500Y-78878842D01*
X75200500Y-78840313D01*
X76999500Y-78840313D01*
X76999500Y-79159687D01*
X77005521Y-79220821D01*
X77030803Y-79477522D01*
X77093109Y-79790754D01*
X77185820Y-80096382D01*
X77308040Y-80391446D01*
X77308042Y-80391451D01*
X77458584Y-80673094D01*
X77458601Y-80673122D01*
X77636012Y-80938638D01*
X77636029Y-80938661D01*
X77838638Y-81185540D01*
X78064459Y-81411361D01*
X78064464Y-81411365D01*
X78064465Y-81411366D01*
X78311344Y-81613975D01*
X78311351Y-81613980D01*
X78311361Y-81613987D01*
X78576877Y-81791398D01*
X78576882Y-81791401D01*
X78576894Y-81791409D01*
X78576903Y-81791413D01*
X78576905Y-81791415D01*
X78858548Y-81941957D01*
X78858550Y-81941957D01*
X78858556Y-81941961D01*
X79153619Y-82064180D01*
X79459240Y-82156889D01*
X79772477Y-82219196D01*
X80090313Y-82250500D01*
X80090316Y-82250500D01*
X80409684Y-82250500D01*
X80409687Y-82250500D01*
X80727523Y-82219196D01*
X81040760Y-82156889D01*
X81346381Y-82064180D01*
X81641444Y-81941961D01*
X81923106Y-81791409D01*
X82188656Y-81613975D01*
X82435535Y-81411366D01*
X82661366Y-81185535D01*
X82863975Y-80938656D01*
X83041409Y-80673106D01*
X83191961Y-80391444D01*
X83314180Y-80096381D01*
X83406889Y-79790760D01*
X83469196Y-79477523D01*
X83500500Y-79159687D01*
X83500500Y-78840313D01*
X83469196Y-78522477D01*
X83406889Y-78209240D01*
X83314180Y-77903619D01*
X83191961Y-77608556D01*
X83153451Y-77536510D01*
X83041415Y-77326905D01*
X83041413Y-77326903D01*
X83041409Y-77326894D01*
X82996519Y-77259711D01*
X82863987Y-77061361D01*
X82863980Y-77061351D01*
X82863975Y-77061344D01*
X82661366Y-76814465D01*
X82661365Y-76814464D01*
X82661361Y-76814459D01*
X82435540Y-76588638D01*
X82188661Y-76386029D01*
X82188638Y-76386012D01*
X81923122Y-76208601D01*
X81923094Y-76208584D01*
X81641451Y-76058042D01*
X81641446Y-76058040D01*
X81346382Y-75935820D01*
X81040754Y-75843109D01*
X80727521Y-75780803D01*
X80727522Y-75780803D01*
X80488141Y-75757227D01*
X80409687Y-75749500D01*
X80090313Y-75749500D01*
X80017822Y-75756639D01*
X79772477Y-75780803D01*
X79459245Y-75843109D01*
X79153617Y-75935820D01*
X78858553Y-76058040D01*
X78858548Y-76058042D01*
X78576905Y-76208584D01*
X78576877Y-76208601D01*
X78311361Y-76386012D01*
X78311338Y-76386029D01*
X78064459Y-76588638D01*
X77838638Y-76814459D01*
X77636029Y-77061338D01*
X77636012Y-77061361D01*
X77458601Y-77326877D01*
X77458584Y-77326905D01*
X77308042Y-77608548D01*
X77308040Y-77608553D01*
X77185820Y-77903617D01*
X77093109Y-78209245D01*
X77030803Y-78522477D01*
X77011236Y-78721153D01*
X76999500Y-78840313D01*
X75200500Y-78840313D01*
X75200500Y-78721158D01*
X75200500Y-78721155D01*
X75200499Y-78721153D01*
X75170532Y-78570500D01*
X75169737Y-78566503D01*
X75158650Y-78539737D01*
X75109397Y-78420827D01*
X75109390Y-78420814D01*
X75021789Y-78289711D01*
X75021786Y-78289707D01*
X74910292Y-78178213D01*
X74910288Y-78178210D01*
X74779185Y-78090609D01*
X74779172Y-78090602D01*
X74633501Y-78030264D01*
X74633489Y-78030261D01*
X74478845Y-77999500D01*
X74478842Y-77999500D01*
X74321158Y-77999500D01*
X74321155Y-77999500D01*
X74166510Y-78030261D01*
X74166498Y-78030264D01*
X74020827Y-78090602D01*
X74020814Y-78090609D01*
X73889711Y-78178210D01*
X73889707Y-78178213D01*
X73778213Y-78289707D01*
X73778210Y-78289711D01*
X73690609Y-78420814D01*
X73690602Y-78420827D01*
X73630264Y-78566498D01*
X73630261Y-78566510D01*
X73599500Y-78721153D01*
X43738764Y-78721153D01*
X43719196Y-78522477D01*
X43656889Y-78209240D01*
X43564180Y-77903619D01*
X43476174Y-77691153D01*
X49199500Y-77691153D01*
X49199500Y-77848846D01*
X49230261Y-78003489D01*
X49230264Y-78003501D01*
X49290602Y-78149172D01*
X49290609Y-78149185D01*
X49378210Y-78280288D01*
X49378213Y-78280292D01*
X49489707Y-78391786D01*
X49489711Y-78391789D01*
X49620814Y-78479390D01*
X49620827Y-78479397D01*
X49724833Y-78522477D01*
X49766503Y-78539737D01*
X49901039Y-78566498D01*
X49921153Y-78570499D01*
X49921156Y-78570500D01*
X49921158Y-78570500D01*
X50078844Y-78570500D01*
X50078845Y-78570499D01*
X50233497Y-78539737D01*
X50379179Y-78479394D01*
X50510289Y-78391789D01*
X50621789Y-78280289D01*
X50709394Y-78149179D01*
X50769737Y-78003497D01*
X50800500Y-77848842D01*
X50800500Y-77691158D01*
X50800500Y-77691155D01*
X50800499Y-77691153D01*
X50769738Y-77536510D01*
X50769737Y-77536503D01*
X50769735Y-77536498D01*
X50709397Y-77390827D01*
X50709390Y-77390814D01*
X50621789Y-77259711D01*
X50621786Y-77259707D01*
X50510292Y-77148213D01*
X50510288Y-77148210D01*
X50379185Y-77060609D01*
X50379172Y-77060602D01*
X50233501Y-77000264D01*
X50233489Y-77000261D01*
X50078845Y-76969500D01*
X50078842Y-76969500D01*
X49921158Y-76969500D01*
X49921155Y-76969500D01*
X49766510Y-77000261D01*
X49766498Y-77000264D01*
X49620827Y-77060602D01*
X49620814Y-77060609D01*
X49489711Y-77148210D01*
X49489707Y-77148213D01*
X49378213Y-77259707D01*
X49378210Y-77259711D01*
X49290609Y-77390814D01*
X49290602Y-77390827D01*
X49230264Y-77536498D01*
X49230261Y-77536510D01*
X49199500Y-77691153D01*
X43476174Y-77691153D01*
X43441961Y-77608556D01*
X43403451Y-77536510D01*
X43291415Y-77326905D01*
X43291413Y-77326903D01*
X43291409Y-77326894D01*
X43246519Y-77259711D01*
X43113987Y-77061361D01*
X43113980Y-77061351D01*
X43113975Y-77061344D01*
X42911366Y-76814465D01*
X42911365Y-76814464D01*
X42911361Y-76814459D01*
X42685540Y-76588638D01*
X42438661Y-76386029D01*
X42438638Y-76386012D01*
X42173122Y-76208601D01*
X42173094Y-76208584D01*
X41891451Y-76058042D01*
X41891446Y-76058040D01*
X41596382Y-75935820D01*
X41290754Y-75843109D01*
X40977521Y-75780803D01*
X40977522Y-75780803D01*
X40738141Y-75757227D01*
X40659687Y-75749500D01*
X40340313Y-75749500D01*
X40267822Y-75756639D01*
X40022477Y-75780803D01*
X39709245Y-75843109D01*
X39403617Y-75935820D01*
X39108553Y-76058040D01*
X39108548Y-76058042D01*
X38826905Y-76208584D01*
X38826877Y-76208601D01*
X38561361Y-76386012D01*
X38561338Y-76386029D01*
X38314459Y-76588638D01*
X38088638Y-76814459D01*
X37886029Y-77061338D01*
X37886012Y-77061361D01*
X37708601Y-77326877D01*
X37708584Y-77326905D01*
X37558042Y-77608548D01*
X37558040Y-77608553D01*
X37435820Y-77903617D01*
X37343109Y-78209245D01*
X37280803Y-78522477D01*
X37261236Y-78721153D01*
X37249500Y-78840313D01*
X25500500Y-78840313D01*
X25500500Y-75624500D01*
X25520185Y-75557461D01*
X25572989Y-75511706D01*
X25624500Y-75500500D01*
X83625500Y-75500500D01*
X83692539Y-75520185D01*
G37*
%TD.AperFunction*%
%TD*%
M02*
